G04 #@! TF.GenerationSoftware,KiCad,Pcbnew,5.0.2+dfsg1-1+deb10u1*
G04 #@! TF.CreationDate,2023-12-02T21:06:42-05:00*
G04 #@! TF.ProjectId,NixieClockV1,4e697869-6543-46c6-9f63-6b56312e6b69,rev?*
G04 #@! TF.SameCoordinates,Original*
G04 #@! TF.FileFunction,Legend,Bot*
G04 #@! TF.FilePolarity,Positive*
%FSLAX46Y46*%
G04 Gerber Fmt 4.6, Leading zero omitted, Abs format (unit mm)*
G04 Created by KiCad (PCBNEW 5.0.2+dfsg1-1+deb10u1) date Sat 02 Dec 2023 09:06:42 PM EST*
%MOMM*%
%LPD*%
G01*
G04 APERTURE LIST*
%ADD10C,0.150000*%
%ADD11C,0.400000*%
G04 APERTURE END LIST*
D10*
G04 #@! TO.C,N1*
X98095000Y-500000000D02*
X101905000Y-500000000D01*
X100000000Y-503175000D02*
X100000000Y-496825000D01*
X126532866Y-500000000D02*
G75*
G03X126532866Y-500000000I-26532866J0D01*
G01*
X117480140Y-500000000D02*
G75*
G03X117480140Y-500000000I-17480140J0D01*
G01*
G04 #@! TO.C,N2*
X163095000Y-500000000D02*
X166905000Y-500000000D01*
X165000000Y-503175000D02*
X165000000Y-496825000D01*
X191532866Y-500000000D02*
G75*
G03X191532866Y-500000000I-26532866J0D01*
G01*
X182480140Y-500000000D02*
G75*
G03X182480140Y-500000000I-17480140J0D01*
G01*
G04 #@! TO.C,N3*
X220500000Y-500000000D02*
G75*
G03X220500000Y-500000000I-8500000J0D01*
G01*
X216150048Y-500000000D02*
G75*
G03X216150048Y-500000000I-4150048J0D01*
G01*
G04 #@! TO.C,N4*
X257095000Y-500000000D02*
X260905000Y-500000000D01*
X259000000Y-503175000D02*
X259000000Y-496825000D01*
X285532866Y-500000000D02*
G75*
G03X285532866Y-500000000I-26532866J0D01*
G01*
X276480140Y-500000000D02*
G75*
G03X276480140Y-500000000I-17480140J0D01*
G01*
G04 #@! TO.C,N5*
X322095000Y-500000000D02*
X325905000Y-500000000D01*
X324000000Y-503175000D02*
X324000000Y-496825000D01*
X350532866Y-500000000D02*
G75*
G03X350532866Y-500000000I-26532866J0D01*
G01*
X341480140Y-500000000D02*
G75*
G03X341480140Y-500000000I-17480140J0D01*
G01*
G04 #@! TO.C,N6*
X379500000Y-500000000D02*
G75*
G03X379500000Y-500000000I-8500000J0D01*
G01*
X375150048Y-500000000D02*
G75*
G03X375150048Y-500000000I-4150048J0D01*
G01*
G04 #@! TO.C,N7*
X416095000Y-500000000D02*
X419905000Y-500000000D01*
X418000000Y-503175000D02*
X418000000Y-496825000D01*
X444532866Y-500000000D02*
G75*
G03X444532866Y-500000000I-26532866J0D01*
G01*
X435480140Y-500000000D02*
G75*
G03X435480140Y-500000000I-17480140J0D01*
G01*
G04 #@! TO.C,N8*
X481095000Y-500000000D02*
X484905000Y-500000000D01*
X483000000Y-503175000D02*
X483000000Y-496825000D01*
X509532866Y-500000000D02*
G75*
G03X509532866Y-500000000I-26532866J0D01*
G01*
X500480140Y-500000000D02*
G75*
G03X500480140Y-500000000I-17480140J0D01*
G01*
G04 #@! TO.C,N1*
X100761904Y-492832380D02*
X100761904Y-491832380D01*
X100190476Y-492832380D01*
X100190476Y-491832380D01*
X99190476Y-492832380D02*
X99761904Y-492832380D01*
X99476190Y-492832380D02*
X99476190Y-491832380D01*
X99571428Y-491975238D01*
X99666666Y-492070476D01*
X99761904Y-492118095D01*
D11*
X110741428Y-501789523D02*
X112074761Y-499884761D01*
X113027142Y-501789523D02*
X113027142Y-497789523D01*
X111503333Y-497789523D01*
X111122380Y-497980000D01*
X110931904Y-498170476D01*
X110741428Y-498551428D01*
X110741428Y-499122857D01*
X110931904Y-499503809D01*
X111122380Y-499694285D01*
X111503333Y-499884761D01*
X113027142Y-499884761D01*
X108074761Y-503122857D02*
X108074761Y-497408571D01*
X105598571Y-497789523D02*
X102931904Y-497789523D01*
X105598571Y-501789523D01*
X102931904Y-501789523D01*
X99503333Y-497789523D02*
X101408095Y-497789523D01*
X101598571Y-499694285D01*
X101408095Y-499503809D01*
X101027142Y-499313333D01*
X100074761Y-499313333D01*
X99693809Y-499503809D01*
X99503333Y-499694285D01*
X99312857Y-500075238D01*
X99312857Y-501027619D01*
X99503333Y-501408571D01*
X99693809Y-501599047D01*
X100074761Y-501789523D01*
X101027142Y-501789523D01*
X101408095Y-501599047D01*
X101598571Y-501408571D01*
X95884285Y-497789523D02*
X96646190Y-497789523D01*
X97027142Y-497980000D01*
X97217619Y-498170476D01*
X97598571Y-498741904D01*
X97789047Y-499503809D01*
X97789047Y-501027619D01*
X97598571Y-501408571D01*
X97408095Y-501599047D01*
X97027142Y-501789523D01*
X96265238Y-501789523D01*
X95884285Y-501599047D01*
X95693809Y-501408571D01*
X95503333Y-501027619D01*
X95503333Y-500075238D01*
X95693809Y-499694285D01*
X95884285Y-499503809D01*
X96265238Y-499313333D01*
X97027142Y-499313333D01*
X97408095Y-499503809D01*
X97598571Y-499694285D01*
X97789047Y-500075238D01*
X93217619Y-499503809D02*
X93598571Y-499313333D01*
X93789047Y-499122857D01*
X93979523Y-498741904D01*
X93979523Y-498551428D01*
X93789047Y-498170476D01*
X93598571Y-497980000D01*
X93217619Y-497789523D01*
X92455714Y-497789523D01*
X92074761Y-497980000D01*
X91884285Y-498170476D01*
X91693809Y-498551428D01*
X91693809Y-498741904D01*
X91884285Y-499122857D01*
X92074761Y-499313333D01*
X92455714Y-499503809D01*
X93217619Y-499503809D01*
X93598571Y-499694285D01*
X93789047Y-499884761D01*
X93979523Y-500265714D01*
X93979523Y-501027619D01*
X93789047Y-501408571D01*
X93598571Y-501599047D01*
X93217619Y-501789523D01*
X92455714Y-501789523D01*
X92074761Y-501599047D01*
X91884285Y-501408571D01*
X91693809Y-501027619D01*
X91693809Y-500265714D01*
X91884285Y-499884761D01*
X92074761Y-499694285D01*
X92455714Y-499503809D01*
X89979523Y-501789523D02*
X89979523Y-497789523D01*
X88646190Y-500646666D01*
X87312857Y-497789523D01*
X87312857Y-501789523D01*
G04 #@! TO.C,N2*
D10*
X165761904Y-492832380D02*
X165761904Y-491832380D01*
X165190476Y-492832380D01*
X165190476Y-491832380D01*
X164761904Y-491927619D02*
X164714285Y-491880000D01*
X164619047Y-491832380D01*
X164380952Y-491832380D01*
X164285714Y-491880000D01*
X164238095Y-491927619D01*
X164190476Y-492022857D01*
X164190476Y-492118095D01*
X164238095Y-492260952D01*
X164809523Y-492832380D01*
X164190476Y-492832380D01*
D11*
X175741428Y-501789523D02*
X177074761Y-499884761D01*
X178027142Y-501789523D02*
X178027142Y-497789523D01*
X176503333Y-497789523D01*
X176122380Y-497980000D01*
X175931904Y-498170476D01*
X175741428Y-498551428D01*
X175741428Y-499122857D01*
X175931904Y-499503809D01*
X176122380Y-499694285D01*
X176503333Y-499884761D01*
X178027142Y-499884761D01*
X173074761Y-503122857D02*
X173074761Y-497408571D01*
X170598571Y-497789523D02*
X167931904Y-497789523D01*
X170598571Y-501789523D01*
X167931904Y-501789523D01*
X164503333Y-497789523D02*
X166408095Y-497789523D01*
X166598571Y-499694285D01*
X166408095Y-499503809D01*
X166027142Y-499313333D01*
X165074761Y-499313333D01*
X164693809Y-499503809D01*
X164503333Y-499694285D01*
X164312857Y-500075238D01*
X164312857Y-501027619D01*
X164503333Y-501408571D01*
X164693809Y-501599047D01*
X165074761Y-501789523D01*
X166027142Y-501789523D01*
X166408095Y-501599047D01*
X166598571Y-501408571D01*
X160884285Y-497789523D02*
X161646190Y-497789523D01*
X162027142Y-497980000D01*
X162217619Y-498170476D01*
X162598571Y-498741904D01*
X162789047Y-499503809D01*
X162789047Y-501027619D01*
X162598571Y-501408571D01*
X162408095Y-501599047D01*
X162027142Y-501789523D01*
X161265238Y-501789523D01*
X160884285Y-501599047D01*
X160693809Y-501408571D01*
X160503333Y-501027619D01*
X160503333Y-500075238D01*
X160693809Y-499694285D01*
X160884285Y-499503809D01*
X161265238Y-499313333D01*
X162027142Y-499313333D01*
X162408095Y-499503809D01*
X162598571Y-499694285D01*
X162789047Y-500075238D01*
X158217619Y-499503809D02*
X158598571Y-499313333D01*
X158789047Y-499122857D01*
X158979523Y-498741904D01*
X158979523Y-498551428D01*
X158789047Y-498170476D01*
X158598571Y-497980000D01*
X158217619Y-497789523D01*
X157455714Y-497789523D01*
X157074761Y-497980000D01*
X156884285Y-498170476D01*
X156693809Y-498551428D01*
X156693809Y-498741904D01*
X156884285Y-499122857D01*
X157074761Y-499313333D01*
X157455714Y-499503809D01*
X158217619Y-499503809D01*
X158598571Y-499694285D01*
X158789047Y-499884761D01*
X158979523Y-500265714D01*
X158979523Y-501027619D01*
X158789047Y-501408571D01*
X158598571Y-501599047D01*
X158217619Y-501789523D01*
X157455714Y-501789523D01*
X157074761Y-501599047D01*
X156884285Y-501408571D01*
X156693809Y-501027619D01*
X156693809Y-500265714D01*
X156884285Y-499884761D01*
X157074761Y-499694285D01*
X157455714Y-499503809D01*
X154979523Y-501789523D02*
X154979523Y-497789523D01*
X153646190Y-500646666D01*
X152312857Y-497789523D01*
X152312857Y-501789523D01*
G04 #@! TO.C,N3*
D10*
X212761904Y-492752380D02*
X212761904Y-491752380D01*
X212190476Y-492752380D01*
X212190476Y-491752380D01*
X211809523Y-491752380D02*
X211190476Y-491752380D01*
X211523809Y-492133333D01*
X211380952Y-492133333D01*
X211285714Y-492180952D01*
X211238095Y-492228571D01*
X211190476Y-492323809D01*
X211190476Y-492561904D01*
X211238095Y-492657142D01*
X211285714Y-492704761D01*
X211380952Y-492752380D01*
X211666666Y-492752380D01*
X211761904Y-492704761D01*
X211809523Y-492657142D01*
G04 #@! TO.C,N4*
X259761904Y-492832380D02*
X259761904Y-491832380D01*
X259190476Y-492832380D01*
X259190476Y-491832380D01*
X258285714Y-492165714D02*
X258285714Y-492832380D01*
X258523809Y-491784761D02*
X258761904Y-492499047D01*
X258142857Y-492499047D01*
D11*
X269741428Y-501789523D02*
X271074761Y-499884761D01*
X272027142Y-501789523D02*
X272027142Y-497789523D01*
X270503333Y-497789523D01*
X270122380Y-497980000D01*
X269931904Y-498170476D01*
X269741428Y-498551428D01*
X269741428Y-499122857D01*
X269931904Y-499503809D01*
X270122380Y-499694285D01*
X270503333Y-499884761D01*
X272027142Y-499884761D01*
X267074761Y-503122857D02*
X267074761Y-497408571D01*
X264598571Y-497789523D02*
X261931904Y-497789523D01*
X264598571Y-501789523D01*
X261931904Y-501789523D01*
X258503333Y-497789523D02*
X260408095Y-497789523D01*
X260598571Y-499694285D01*
X260408095Y-499503809D01*
X260027142Y-499313333D01*
X259074761Y-499313333D01*
X258693809Y-499503809D01*
X258503333Y-499694285D01*
X258312857Y-500075238D01*
X258312857Y-501027619D01*
X258503333Y-501408571D01*
X258693809Y-501599047D01*
X259074761Y-501789523D01*
X260027142Y-501789523D01*
X260408095Y-501599047D01*
X260598571Y-501408571D01*
X254884285Y-497789523D02*
X255646190Y-497789523D01*
X256027142Y-497980000D01*
X256217619Y-498170476D01*
X256598571Y-498741904D01*
X256789047Y-499503809D01*
X256789047Y-501027619D01*
X256598571Y-501408571D01*
X256408095Y-501599047D01*
X256027142Y-501789523D01*
X255265238Y-501789523D01*
X254884285Y-501599047D01*
X254693809Y-501408571D01*
X254503333Y-501027619D01*
X254503333Y-500075238D01*
X254693809Y-499694285D01*
X254884285Y-499503809D01*
X255265238Y-499313333D01*
X256027142Y-499313333D01*
X256408095Y-499503809D01*
X256598571Y-499694285D01*
X256789047Y-500075238D01*
X252217619Y-499503809D02*
X252598571Y-499313333D01*
X252789047Y-499122857D01*
X252979523Y-498741904D01*
X252979523Y-498551428D01*
X252789047Y-498170476D01*
X252598571Y-497980000D01*
X252217619Y-497789523D01*
X251455714Y-497789523D01*
X251074761Y-497980000D01*
X250884285Y-498170476D01*
X250693809Y-498551428D01*
X250693809Y-498741904D01*
X250884285Y-499122857D01*
X251074761Y-499313333D01*
X251455714Y-499503809D01*
X252217619Y-499503809D01*
X252598571Y-499694285D01*
X252789047Y-499884761D01*
X252979523Y-500265714D01*
X252979523Y-501027619D01*
X252789047Y-501408571D01*
X252598571Y-501599047D01*
X252217619Y-501789523D01*
X251455714Y-501789523D01*
X251074761Y-501599047D01*
X250884285Y-501408571D01*
X250693809Y-501027619D01*
X250693809Y-500265714D01*
X250884285Y-499884761D01*
X251074761Y-499694285D01*
X251455714Y-499503809D01*
X248979523Y-501789523D02*
X248979523Y-497789523D01*
X247646190Y-500646666D01*
X246312857Y-497789523D01*
X246312857Y-501789523D01*
G04 #@! TO.C,N5*
D10*
X324761904Y-492832380D02*
X324761904Y-491832380D01*
X324190476Y-492832380D01*
X324190476Y-491832380D01*
X323238095Y-491832380D02*
X323714285Y-491832380D01*
X323761904Y-492308571D01*
X323714285Y-492260952D01*
X323619047Y-492213333D01*
X323380952Y-492213333D01*
X323285714Y-492260952D01*
X323238095Y-492308571D01*
X323190476Y-492403809D01*
X323190476Y-492641904D01*
X323238095Y-492737142D01*
X323285714Y-492784761D01*
X323380952Y-492832380D01*
X323619047Y-492832380D01*
X323714285Y-492784761D01*
X323761904Y-492737142D01*
D11*
X334741428Y-501789523D02*
X336074761Y-499884761D01*
X337027142Y-501789523D02*
X337027142Y-497789523D01*
X335503333Y-497789523D01*
X335122380Y-497980000D01*
X334931904Y-498170476D01*
X334741428Y-498551428D01*
X334741428Y-499122857D01*
X334931904Y-499503809D01*
X335122380Y-499694285D01*
X335503333Y-499884761D01*
X337027142Y-499884761D01*
X332074761Y-503122857D02*
X332074761Y-497408571D01*
X329598571Y-497789523D02*
X326931904Y-497789523D01*
X329598571Y-501789523D01*
X326931904Y-501789523D01*
X323503333Y-497789523D02*
X325408095Y-497789523D01*
X325598571Y-499694285D01*
X325408095Y-499503809D01*
X325027142Y-499313333D01*
X324074761Y-499313333D01*
X323693809Y-499503809D01*
X323503333Y-499694285D01*
X323312857Y-500075238D01*
X323312857Y-501027619D01*
X323503333Y-501408571D01*
X323693809Y-501599047D01*
X324074761Y-501789523D01*
X325027142Y-501789523D01*
X325408095Y-501599047D01*
X325598571Y-501408571D01*
X319884285Y-497789523D02*
X320646190Y-497789523D01*
X321027142Y-497980000D01*
X321217619Y-498170476D01*
X321598571Y-498741904D01*
X321789047Y-499503809D01*
X321789047Y-501027619D01*
X321598571Y-501408571D01*
X321408095Y-501599047D01*
X321027142Y-501789523D01*
X320265238Y-501789523D01*
X319884285Y-501599047D01*
X319693809Y-501408571D01*
X319503333Y-501027619D01*
X319503333Y-500075238D01*
X319693809Y-499694285D01*
X319884285Y-499503809D01*
X320265238Y-499313333D01*
X321027142Y-499313333D01*
X321408095Y-499503809D01*
X321598571Y-499694285D01*
X321789047Y-500075238D01*
X317217619Y-499503809D02*
X317598571Y-499313333D01*
X317789047Y-499122857D01*
X317979523Y-498741904D01*
X317979523Y-498551428D01*
X317789047Y-498170476D01*
X317598571Y-497980000D01*
X317217619Y-497789523D01*
X316455714Y-497789523D01*
X316074761Y-497980000D01*
X315884285Y-498170476D01*
X315693809Y-498551428D01*
X315693809Y-498741904D01*
X315884285Y-499122857D01*
X316074761Y-499313333D01*
X316455714Y-499503809D01*
X317217619Y-499503809D01*
X317598571Y-499694285D01*
X317789047Y-499884761D01*
X317979523Y-500265714D01*
X317979523Y-501027619D01*
X317789047Y-501408571D01*
X317598571Y-501599047D01*
X317217619Y-501789523D01*
X316455714Y-501789523D01*
X316074761Y-501599047D01*
X315884285Y-501408571D01*
X315693809Y-501027619D01*
X315693809Y-500265714D01*
X315884285Y-499884761D01*
X316074761Y-499694285D01*
X316455714Y-499503809D01*
X313979523Y-501789523D02*
X313979523Y-497789523D01*
X312646190Y-500646666D01*
X311312857Y-497789523D01*
X311312857Y-501789523D01*
G04 #@! TO.C,N6*
D10*
X371761904Y-492752380D02*
X371761904Y-491752380D01*
X371190476Y-492752380D01*
X371190476Y-491752380D01*
X370285714Y-491752380D02*
X370476190Y-491752380D01*
X370571428Y-491800000D01*
X370619047Y-491847619D01*
X370714285Y-491990476D01*
X370761904Y-492180952D01*
X370761904Y-492561904D01*
X370714285Y-492657142D01*
X370666666Y-492704761D01*
X370571428Y-492752380D01*
X370380952Y-492752380D01*
X370285714Y-492704761D01*
X370238095Y-492657142D01*
X370190476Y-492561904D01*
X370190476Y-492323809D01*
X370238095Y-492228571D01*
X370285714Y-492180952D01*
X370380952Y-492133333D01*
X370571428Y-492133333D01*
X370666666Y-492180952D01*
X370714285Y-492228571D01*
X370761904Y-492323809D01*
G04 #@! TO.C,N7*
X418761904Y-492832380D02*
X418761904Y-491832380D01*
X418190476Y-492832380D01*
X418190476Y-491832380D01*
X417809523Y-491832380D02*
X417142857Y-491832380D01*
X417571428Y-492832380D01*
D11*
X428741428Y-501789523D02*
X430074761Y-499884761D01*
X431027142Y-501789523D02*
X431027142Y-497789523D01*
X429503333Y-497789523D01*
X429122380Y-497980000D01*
X428931904Y-498170476D01*
X428741428Y-498551428D01*
X428741428Y-499122857D01*
X428931904Y-499503809D01*
X429122380Y-499694285D01*
X429503333Y-499884761D01*
X431027142Y-499884761D01*
X426074761Y-503122857D02*
X426074761Y-497408571D01*
X423598571Y-497789523D02*
X420931904Y-497789523D01*
X423598571Y-501789523D01*
X420931904Y-501789523D01*
X417503333Y-497789523D02*
X419408095Y-497789523D01*
X419598571Y-499694285D01*
X419408095Y-499503809D01*
X419027142Y-499313333D01*
X418074761Y-499313333D01*
X417693809Y-499503809D01*
X417503333Y-499694285D01*
X417312857Y-500075238D01*
X417312857Y-501027619D01*
X417503333Y-501408571D01*
X417693809Y-501599047D01*
X418074761Y-501789523D01*
X419027142Y-501789523D01*
X419408095Y-501599047D01*
X419598571Y-501408571D01*
X413884285Y-497789523D02*
X414646190Y-497789523D01*
X415027142Y-497980000D01*
X415217619Y-498170476D01*
X415598571Y-498741904D01*
X415789047Y-499503809D01*
X415789047Y-501027619D01*
X415598571Y-501408571D01*
X415408095Y-501599047D01*
X415027142Y-501789523D01*
X414265238Y-501789523D01*
X413884285Y-501599047D01*
X413693809Y-501408571D01*
X413503333Y-501027619D01*
X413503333Y-500075238D01*
X413693809Y-499694285D01*
X413884285Y-499503809D01*
X414265238Y-499313333D01*
X415027142Y-499313333D01*
X415408095Y-499503809D01*
X415598571Y-499694285D01*
X415789047Y-500075238D01*
X411217619Y-499503809D02*
X411598571Y-499313333D01*
X411789047Y-499122857D01*
X411979523Y-498741904D01*
X411979523Y-498551428D01*
X411789047Y-498170476D01*
X411598571Y-497980000D01*
X411217619Y-497789523D01*
X410455714Y-497789523D01*
X410074761Y-497980000D01*
X409884285Y-498170476D01*
X409693809Y-498551428D01*
X409693809Y-498741904D01*
X409884285Y-499122857D01*
X410074761Y-499313333D01*
X410455714Y-499503809D01*
X411217619Y-499503809D01*
X411598571Y-499694285D01*
X411789047Y-499884761D01*
X411979523Y-500265714D01*
X411979523Y-501027619D01*
X411789047Y-501408571D01*
X411598571Y-501599047D01*
X411217619Y-501789523D01*
X410455714Y-501789523D01*
X410074761Y-501599047D01*
X409884285Y-501408571D01*
X409693809Y-501027619D01*
X409693809Y-500265714D01*
X409884285Y-499884761D01*
X410074761Y-499694285D01*
X410455714Y-499503809D01*
X407979523Y-501789523D02*
X407979523Y-497789523D01*
X406646190Y-500646666D01*
X405312857Y-497789523D01*
X405312857Y-501789523D01*
G04 #@! TO.C,N8*
D10*
X483761904Y-492832380D02*
X483761904Y-491832380D01*
X483190476Y-492832380D01*
X483190476Y-491832380D01*
X482571428Y-492260952D02*
X482666666Y-492213333D01*
X482714285Y-492165714D01*
X482761904Y-492070476D01*
X482761904Y-492022857D01*
X482714285Y-491927619D01*
X482666666Y-491880000D01*
X482571428Y-491832380D01*
X482380952Y-491832380D01*
X482285714Y-491880000D01*
X482238095Y-491927619D01*
X482190476Y-492022857D01*
X482190476Y-492070476D01*
X482238095Y-492165714D01*
X482285714Y-492213333D01*
X482380952Y-492260952D01*
X482571428Y-492260952D01*
X482666666Y-492308571D01*
X482714285Y-492356190D01*
X482761904Y-492451428D01*
X482761904Y-492641904D01*
X482714285Y-492737142D01*
X482666666Y-492784761D01*
X482571428Y-492832380D01*
X482380952Y-492832380D01*
X482285714Y-492784761D01*
X482238095Y-492737142D01*
X482190476Y-492641904D01*
X482190476Y-492451428D01*
X482238095Y-492356190D01*
X482285714Y-492308571D01*
X482380952Y-492260952D01*
D11*
X493741428Y-501789523D02*
X495074761Y-499884761D01*
X496027142Y-501789523D02*
X496027142Y-497789523D01*
X494503333Y-497789523D01*
X494122380Y-497980000D01*
X493931904Y-498170476D01*
X493741428Y-498551428D01*
X493741428Y-499122857D01*
X493931904Y-499503809D01*
X494122380Y-499694285D01*
X494503333Y-499884761D01*
X496027142Y-499884761D01*
X491074761Y-503122857D02*
X491074761Y-497408571D01*
X488598571Y-497789523D02*
X485931904Y-497789523D01*
X488598571Y-501789523D01*
X485931904Y-501789523D01*
X482503333Y-497789523D02*
X484408095Y-497789523D01*
X484598571Y-499694285D01*
X484408095Y-499503809D01*
X484027142Y-499313333D01*
X483074761Y-499313333D01*
X482693809Y-499503809D01*
X482503333Y-499694285D01*
X482312857Y-500075238D01*
X482312857Y-501027619D01*
X482503333Y-501408571D01*
X482693809Y-501599047D01*
X483074761Y-501789523D01*
X484027142Y-501789523D01*
X484408095Y-501599047D01*
X484598571Y-501408571D01*
X478884285Y-497789523D02*
X479646190Y-497789523D01*
X480027142Y-497980000D01*
X480217619Y-498170476D01*
X480598571Y-498741904D01*
X480789047Y-499503809D01*
X480789047Y-501027619D01*
X480598571Y-501408571D01*
X480408095Y-501599047D01*
X480027142Y-501789523D01*
X479265238Y-501789523D01*
X478884285Y-501599047D01*
X478693809Y-501408571D01*
X478503333Y-501027619D01*
X478503333Y-500075238D01*
X478693809Y-499694285D01*
X478884285Y-499503809D01*
X479265238Y-499313333D01*
X480027142Y-499313333D01*
X480408095Y-499503809D01*
X480598571Y-499694285D01*
X480789047Y-500075238D01*
X476217619Y-499503809D02*
X476598571Y-499313333D01*
X476789047Y-499122857D01*
X476979523Y-498741904D01*
X476979523Y-498551428D01*
X476789047Y-498170476D01*
X476598571Y-497980000D01*
X476217619Y-497789523D01*
X475455714Y-497789523D01*
X475074761Y-497980000D01*
X474884285Y-498170476D01*
X474693809Y-498551428D01*
X474693809Y-498741904D01*
X474884285Y-499122857D01*
X475074761Y-499313333D01*
X475455714Y-499503809D01*
X476217619Y-499503809D01*
X476598571Y-499694285D01*
X476789047Y-499884761D01*
X476979523Y-500265714D01*
X476979523Y-501027619D01*
X476789047Y-501408571D01*
X476598571Y-501599047D01*
X476217619Y-501789523D01*
X475455714Y-501789523D01*
X475074761Y-501599047D01*
X474884285Y-501408571D01*
X474693809Y-501027619D01*
X474693809Y-500265714D01*
X474884285Y-499884761D01*
X475074761Y-499694285D01*
X475455714Y-499503809D01*
X472979523Y-501789523D02*
X472979523Y-497789523D01*
X471646190Y-500646666D01*
X470312857Y-497789523D01*
X470312857Y-501789523D01*
G04 #@! TD*
M02*
