M48
;DRILL file {KiCad 5.0.2+dfsg1-1+deb10u1} date Sat 02 Dec 2023 09:06:39 PM EST
;FORMAT={-:-/ absolute / inch / decimal}
FMAT,2
INCH,TZ
T1C0.0157
T2C0.0295
T3C0.0315
T4C0.0394
T5C0.0433
T6C0.0768
%
G90
G05
T1
X3.3Y-20.7
X3.3386Y-18.5591
X3.4Y-20.8
X3.8Y-19.65
X3.9Y-20.55
X4.05Y-20.85
X4.1Y-21.65
X4.25Y-20.5
X4.3Y-20.8
X4.3661Y-20.9331
X4.4Y-20.45
X4.4173Y-20.7677
X4.437Y-21.5472
X4.45Y-19.7
X4.45Y-20.85
X4.5984Y-20.7598
X4.6Y-20.85
X4.6Y-21.2
X4.7Y-21.15
X4.7Y-21.2
X4.71Y-21.658
X4.7126Y-20.7559
X4.714Y-21.496
X4.8Y-21.15
X5.1Y-21.85
X5.3Y-21.4051
X5.3Y-21.45
X5.4Y-21.25
X5.4Y-21.4051
X5.4Y-21.45
X5.6Y-21.15
X5.6Y-21.45
X5.638Y-21.05
X5.664Y-20.966
X5.8Y-21.1
X5.8Y-21.4
X5.85Y-20.7
X5.9Y-21.15
X5.9Y-21.2
X5.92Y-21.01
X5.925Y-21.35
X5.95Y-20.8
X5.998Y-21.01
X6.Y-21.1
X6.Y-21.25
X6.1772Y-18.8819
X6.35Y-19.65
X6.398Y-20.946
X6.4Y-21.25
X6.45Y-20.55
X6.65Y-21.65
X6.654Y-20.944
X6.8Y-20.5
X6.928Y-20.876
X6.95Y-20.45
X7.Y-19.7
X7.024Y-20.85
X7.138Y-21.2
X9.242Y-21.692
X9.275Y-21.625
X9.55Y-20.7
X9.65Y-20.8
X9.7008Y-18.5551
X10.05Y-19.65
X10.075Y-20.9
X10.15Y-20.55
X10.175Y-21.525
X10.3Y-20.95
X10.35Y-20.9
X10.35Y-21.65
X10.5Y-20.5
X10.5285Y-20.8
X10.55Y-20.85
X10.6Y-20.725
X10.6Y-20.9
X10.65Y-20.45
X10.65Y-20.95
X10.7Y-19.7
X10.7Y-20.8
X10.725Y-20.75
X10.725Y-20.875
X10.825Y-21.675
X10.85Y-20.7
X10.85Y-20.75
X10.85Y-20.8
X10.85Y-20.875
X10.862Y-21.7
X10.862Y-21.886
X11.3Y-21.55
X11.356Y-21.614
X11.5898Y-21.1698
X11.7Y-21.9
X11.8Y-21.5048
X11.842Y-20.962
X11.875Y-21.525
X11.875Y-21.7
X11.882Y-21.012
X11.92Y-21.216
X11.92Y-21.492
X12.075Y-22.
X12.098Y-21.264
X12.1Y-21.125
X12.118Y-21.214
X12.1244Y-20.6972
X12.146Y-20.966
X12.186Y-21.124
X12.2244Y-20.7972
X12.275Y-21.175
X12.28Y-21.258
X12.375Y-21.175
X12.404Y-21.142
X12.6244Y-19.6472
X12.675Y-21.7
X12.7244Y-20.5472
X12.9244Y-21.6472
X13.0744Y-20.4972
X13.15Y-21.55
X13.2244Y-20.4472
X13.2744Y-19.6972
X14.025Y-21.75
X14.15Y-21.9
X15.8295Y-20.7039
X15.9295Y-20.8039
X16.3295Y-19.6539
X16.35Y-20.95
X16.4295Y-20.5539
X16.5Y-20.9
X16.625Y-20.95
X16.6295Y-21.6539
X16.7795Y-20.5039
X16.875Y-20.9
X16.875Y-20.95
X16.875Y-21.1215
X16.875Y-21.2
X16.9295Y-20.4539
X16.975Y-21.075
X16.9795Y-19.7039
X17.Y-20.9
X17.Y-20.95
X17.Y-21.2
X17.125Y-20.9
X17.125Y-20.95
X17.125Y-21.075
X17.125Y-21.2
X17.175Y-21.425
X17.225Y-21.125
X17.95Y-21.325
X18.15Y-21.475
X18.375Y-21.175
X18.375Y-21.25
X18.375Y-21.325
X18.3764Y-20.7012
X18.4764Y-20.8012
X18.65Y-21.25
X18.8764Y-19.6512
X18.9764Y-20.5512
X19.1764Y-21.6512
X19.3264Y-20.5012
X19.4764Y-20.4512
X19.5264Y-19.7012
T2
X14.75Y-20.95
X14.8Y-20.95
X14.85Y-20.95
X8.45Y-20.95
X8.5Y-20.95
X8.55Y-20.95
X8.1Y-20.95
X8.15Y-20.95
X8.2Y-20.95
X14.4Y-20.95
X14.45Y-20.95
X14.5Y-20.95
T3
X17.35Y-21.1
X17.35Y-21.4
X17.45Y-21.1
X17.45Y-21.4
X17.55Y-21.1
X17.55Y-21.4
X17.65Y-21.1
X17.65Y-21.4
X17.75Y-21.1
X17.75Y-21.4
X17.85Y-21.1
X17.85Y-21.4
X17.95Y-21.1
X17.95Y-21.4
X18.05Y-21.1
X18.05Y-21.4
X6.1Y-21.05
X6.1Y-21.35
X6.2Y-21.05
X6.2Y-21.35
X6.3Y-21.05
X6.3Y-21.35
X6.4Y-21.05
X6.4Y-21.35
X6.5Y-21.05
X6.5Y-21.35
X6.6Y-21.05
X6.6Y-21.35
X6.7Y-21.05
X6.7Y-21.35
X6.8Y-21.05
X6.8Y-21.35
X3.55Y-21.05
X3.55Y-21.35
X3.65Y-21.05
X3.65Y-21.35
X3.75Y-21.05
X3.75Y-21.35
X3.85Y-21.05
X3.85Y-21.35
X3.95Y-21.05
X3.95Y-21.35
X4.05Y-21.05
X4.05Y-21.35
X4.15Y-21.05
X4.15Y-21.35
X4.25Y-21.05
X4.25Y-21.35
X6.65Y-19.1
X6.65Y-19.5
X8.5Y-21.15
X8.5Y-21.55
X5.3Y-19.
X5.3Y-19.4
X11.2Y-21.1
X11.2Y-21.4
X11.3Y-21.1
X11.3Y-21.4
X11.4Y-21.1
X11.4Y-21.4
X11.5Y-21.1
X11.5Y-21.4
X11.6Y-21.1
X11.6Y-21.4
X11.7Y-21.1
X11.7Y-21.4
X11.8Y-21.1
X11.8Y-21.4
X11.9Y-21.1
X11.9Y-21.4
X9.8Y-21.05
X9.8Y-21.35
X9.9Y-21.05
X9.9Y-21.35
X10.Y-21.05
X10.Y-21.35
X10.1Y-21.05
X10.1Y-21.35
X10.2Y-21.05
X10.2Y-21.35
X10.3Y-21.05
X10.3Y-21.35
X10.4Y-21.05
X10.4Y-21.35
X10.5Y-21.05
X10.5Y-21.35
X18.6268Y-21.0512
X18.6268Y-21.3512
X18.7268Y-21.0512
X18.7268Y-21.3512
X18.8268Y-21.0512
X18.8268Y-21.3512
X18.9268Y-21.0512
X18.9268Y-21.3512
X19.0268Y-21.0512
X19.0268Y-21.3512
X19.1268Y-21.0512
X19.1268Y-21.3512
X19.2268Y-21.0512
X19.2268Y-21.3512
X19.3268Y-21.0512
X19.3268Y-21.3512
X17.45Y-21.8
X17.5484Y-21.8
X14.2Y-18.9
X14.2Y-19.3
X8.15Y-21.15
X8.15Y-21.55
X2.8Y-19.
X2.8Y-19.4
X11.Y-21.7
X11.Y-22.
X11.1Y-21.7
X11.1Y-22.
X11.2Y-21.7
X11.2Y-22.
X11.3Y-21.7
X11.3Y-22.
X11.4Y-21.7
X11.4Y-22.
X11.5Y-21.7
X11.5Y-22.
X11.6Y-21.7
X11.6Y-22.
X11.7Y-21.7
X11.7Y-22.
X8.15Y-18.7
X8.15Y-18.8
X8.45Y-18.7
X8.45Y-18.8
X4.8Y-21.05
X4.8Y-21.35
X4.9Y-21.05
X4.9Y-21.35
X5.Y-21.05
X5.Y-21.35
X5.1Y-21.05
X5.1Y-21.35
X5.2Y-21.05
X5.2Y-21.35
X5.3Y-21.05
X5.3Y-21.35
X5.4Y-21.05
X5.4Y-21.35
X5.5Y-21.05
X5.5Y-21.35
X18.Y-18.65
X18.Y-18.75
X18.3Y-18.65
X18.3Y-18.75
X14.45Y-20.25
X14.45Y-20.65
X11.5Y-18.9
X11.5Y-19.3
X7.9Y-18.9
X7.9Y-19.3
X14.45Y-21.2
X14.45Y-21.6
X19.2Y-19.1
X19.2Y-19.5
X15.3Y-18.9
X15.3Y-19.3
X12.9Y-19.1
X12.9Y-19.5
X14.8Y-20.25
X14.8Y-20.65
X8.15Y-20.25
X8.15Y-20.65
X8.95Y-18.6
X8.95Y-19.
X12.3748Y-21.0472
X12.3748Y-21.3472
X12.4748Y-21.0472
X12.4748Y-21.3472
X12.5748Y-21.0472
X12.5748Y-21.3472
X12.6748Y-21.0472
X12.6748Y-21.3472
X12.7748Y-21.0472
X12.7748Y-21.3472
X12.8748Y-21.0472
X12.8748Y-21.3472
X12.9748Y-21.0472
X12.9748Y-21.3472
X13.0748Y-21.0472
X13.0748Y-21.3472
X16.078Y-21.052
X16.078Y-21.352
X16.178Y-21.052
X16.178Y-21.352
X16.278Y-21.052
X16.278Y-21.352
X16.378Y-21.052
X16.378Y-21.352
X16.478Y-21.052
X16.478Y-21.352
X16.578Y-21.052
X16.578Y-21.352
X16.678Y-21.052
X16.678Y-21.352
X16.778Y-21.052
X16.778Y-21.352
X17.8Y-18.9
X17.8Y-19.3
X16.6Y-19.1
X16.6Y-19.5
X2.9Y-18.7
X2.9Y-18.8
X3.2Y-18.7
X3.2Y-18.8
X15.5Y-18.65
X15.5Y-18.75
X15.8Y-18.65
X15.8Y-18.75
X5.45Y-18.7
X5.45Y-18.8
X5.75Y-18.7
X5.75Y-18.8
X14.45Y-18.65
X14.45Y-18.75
X14.75Y-18.65
X14.75Y-18.75
X4.1Y-19.1
X4.1Y-19.5
X14.8Y-21.2
X14.8Y-21.6
X11.7Y-18.7
X11.7Y-18.8
X12.Y-18.7
X12.Y-18.8
X8.5Y-20.25
X8.5Y-20.65
X10.35Y-19.1
X10.35Y-19.5
X9.15Y-18.7
X9.15Y-18.8
X9.45Y-18.7
X9.45Y-18.8
X18.8Y-21.8
X18.8984Y-21.8
T4
X4.9252Y-21.5984
X5.0252Y-21.5984
X5.1252Y-21.5984
X5.2252Y-21.5984
X5.3252Y-21.5984
X5.4252Y-21.5984
X12.625Y-21.9
X12.425Y-21.9
X19.7Y-18.65
X19.7Y-18.75
X12.225Y-21.9
X19.625Y-21.75
X19.625Y-21.85
X12.825Y-21.9
T5
X18.05Y-21.8
X18.15Y-21.8
X18.25Y-21.8
T6
X9.6002Y-19.3406
X9.6002Y-20.0295
X9.754Y-19.1573
X9.754Y-20.2128
X9.9612Y-19.0376
X9.9612Y-20.3325
X10.6397Y-19.1573
X10.6397Y-20.2128
X10.7935Y-19.3406
X10.7935Y-20.0295
X10.8754Y-19.5654
X8.205Y-19.7667
X8.3465Y-19.5217
X8.488Y-19.7667
X15.86Y-19.3406
X15.86Y-20.0295
X16.0138Y-19.1573
X16.0138Y-20.2128
X16.221Y-19.0376
X16.221Y-20.3325
X16.8996Y-19.1573
X16.8996Y-20.2128
X17.0534Y-19.3406
X17.0534Y-20.0295
X17.1352Y-19.5654
X12.1592Y-19.3406
X12.1592Y-20.0295
X12.313Y-19.1573
X12.313Y-20.2128
X12.5203Y-19.0376
X12.5203Y-20.3325
X13.1988Y-19.1573
X13.1988Y-20.2128
X13.3526Y-19.3406
X13.3526Y-20.0295
X13.4344Y-19.5654
X3.3403Y-19.3406
X3.3403Y-20.0295
X3.4941Y-19.1573
X3.4941Y-20.2128
X3.7014Y-19.0376
X3.7014Y-20.3325
X4.3799Y-19.1573
X4.3799Y-20.2128
X4.5337Y-19.3406
X4.5337Y-20.0295
X4.6155Y-19.5654
X18.4191Y-19.3406
X18.4191Y-20.0295
X18.5729Y-19.1573
X18.5729Y-20.2128
X18.7801Y-19.0376
X18.7801Y-20.3325
X19.4586Y-19.1573
X19.4586Y-20.2128
X19.6124Y-19.3406
X19.6124Y-20.0295
X19.6943Y-19.5654
X14.4648Y-19.7667
X14.6063Y-19.5217
X14.7478Y-19.7667
X5.8994Y-19.3406
X5.8994Y-20.0295
X6.0532Y-19.1573
X6.0532Y-20.2128
X6.2604Y-19.0376
X6.2604Y-20.3325
X6.9389Y-19.1573
X6.9389Y-20.2128
X7.0927Y-19.3406
X7.0927Y-20.0295
X7.1746Y-19.5654
T0
M30
