%FSLAX45Y45*%
G04 Gerber Fmt 4.5, Leading zero omitted, Abs format (unit mm)*
G04 Created by KiCad (PCBNEW 5.0.2+dfsg1-1+deb10u1) date Sat 02 Dec 2023 09:06:39 PM EST*
%MOMM*%
%LPD*%
G01*
G04 APERTURE LIST*
%ADD10C,0.150000*%
%ADD11C,0.200000*%
%ADD12C,0.300000*%
G04 APERTURE END LIST*
D10*
X6047000Y-43500000D02*
X6047000Y-56500000D01*
X52253000Y-43500000D02*
X52253000Y-56500000D01*
D11*
X6047000Y-56500000D02*
X52253000Y-56500000D01*
D10*
X6047000Y-43500000D02*
X52253000Y-43500000D01*
D11*
X8362000Y-52558000D02*
X8402000Y-52598000D01*
X8402000Y-52558000D02*
X8362000Y-52598000D01*
X8460000Y-47120000D02*
X8500000Y-47160000D01*
X8500000Y-47120000D02*
X8460000Y-47160000D01*
X8616000Y-52812000D02*
X8656000Y-52852000D01*
X8656000Y-52812000D02*
X8616000Y-52852000D01*
X9632000Y-49891000D02*
X9672000Y-49931000D01*
X9672000Y-49891000D02*
X9632000Y-49931000D01*
X9886000Y-52177000D02*
X9926000Y-52217000D01*
X9926000Y-52177000D02*
X9886000Y-52217000D01*
X10267000Y-52939000D02*
X10307000Y-52979000D01*
X10307000Y-52939000D02*
X10267000Y-52979000D01*
X10394000Y-54971000D02*
X10434000Y-55011000D01*
X10434000Y-54971000D02*
X10394000Y-55011000D01*
X10775000Y-52050000D02*
X10815000Y-52090000D01*
X10815000Y-52050000D02*
X10775000Y-52090000D01*
X10902000Y-52812000D02*
X10942000Y-52852000D01*
X10942000Y-52812000D02*
X10902000Y-52852000D01*
X11070000Y-53150000D02*
X11110000Y-53190000D01*
X11110000Y-53150000D02*
X11070000Y-53190000D01*
X11156000Y-51923000D02*
X11196000Y-51963000D01*
X11196000Y-51923000D02*
X11156000Y-51963000D01*
X11200000Y-52730000D02*
X11240000Y-52770000D01*
X11240000Y-52730000D02*
X11200000Y-52770000D01*
X11250000Y-54710000D02*
X11290000Y-54750000D01*
X11290000Y-54710000D02*
X11250000Y-54750000D01*
X11283000Y-50018000D02*
X11323000Y-50058000D01*
X11323000Y-50018000D02*
X11283000Y-50058000D01*
X11283000Y-52939000D02*
X11323000Y-52979000D01*
X11323000Y-52939000D02*
X11283000Y-52979000D01*
X11660000Y-52710000D02*
X11700000Y-52750000D01*
X11700000Y-52710000D02*
X11660000Y-52750000D01*
X11664000Y-52939000D02*
X11704000Y-52979000D01*
X11704000Y-52939000D02*
X11664000Y-52979000D01*
X11664000Y-53828000D02*
X11704000Y-53868000D01*
X11704000Y-53828000D02*
X11664000Y-53868000D01*
X11918000Y-53701000D02*
X11958000Y-53741000D01*
X11958000Y-53701000D02*
X11918000Y-53741000D01*
X11918000Y-53828000D02*
X11958000Y-53868000D01*
X11958000Y-53828000D02*
X11918000Y-53868000D01*
X11943400Y-54991320D02*
X11983400Y-55031320D01*
X11983400Y-54991320D02*
X11943400Y-55031320D01*
X11950000Y-52700000D02*
X11990000Y-52740000D01*
X11990000Y-52700000D02*
X11950000Y-52740000D01*
X11953560Y-54579840D02*
X11993560Y-54619840D01*
X11993560Y-54579840D02*
X11953560Y-54619840D01*
X12172000Y-53701000D02*
X12212000Y-53741000D01*
X12212000Y-53701000D02*
X12172000Y-53741000D01*
X12934000Y-55479000D02*
X12974000Y-55519000D01*
X12974000Y-55479000D02*
X12934000Y-55519000D01*
X13442000Y-54349000D02*
X13482000Y-54389000D01*
X13482000Y-54349000D02*
X13442000Y-54389000D01*
X13442000Y-54463000D02*
X13482000Y-54503000D01*
X13482000Y-54463000D02*
X13442000Y-54503000D01*
X13696000Y-53955000D02*
X13736000Y-53995000D01*
X13736000Y-53955000D02*
X13696000Y-53995000D01*
X13696000Y-54349000D02*
X13736000Y-54389000D01*
X13736000Y-54349000D02*
X13696000Y-54389000D01*
X13696000Y-54463000D02*
X13736000Y-54503000D01*
X13736000Y-54463000D02*
X13696000Y-54503000D01*
X14204000Y-53701000D02*
X14244000Y-53741000D01*
X14244000Y-53701000D02*
X14204000Y-53741000D01*
X14204000Y-54463000D02*
X14244000Y-54503000D01*
X14244000Y-54463000D02*
X14204000Y-54503000D01*
X14300520Y-53447000D02*
X14340520Y-53487000D01*
X14340520Y-53447000D02*
X14300520Y-53487000D01*
X14366560Y-53233640D02*
X14406560Y-53273640D01*
X14406560Y-53233640D02*
X14366560Y-53273640D01*
X14712000Y-53574000D02*
X14752000Y-53614000D01*
X14752000Y-53574000D02*
X14712000Y-53614000D01*
X14712000Y-54336000D02*
X14752000Y-54376000D01*
X14752000Y-54336000D02*
X14712000Y-54376000D01*
X14839000Y-52558000D02*
X14879000Y-52598000D01*
X14879000Y-52558000D02*
X14839000Y-52598000D01*
X14966000Y-53701000D02*
X15006000Y-53741000D01*
X15006000Y-53701000D02*
X14966000Y-53741000D01*
X14966000Y-53828000D02*
X15006000Y-53868000D01*
X15006000Y-53828000D02*
X14966000Y-53868000D01*
X15016800Y-53345400D02*
X15056800Y-53385400D01*
X15056800Y-53345400D02*
X15016800Y-53385400D01*
X15029500Y-54209000D02*
X15069500Y-54249000D01*
X15069500Y-54209000D02*
X15029500Y-54249000D01*
X15093000Y-52812000D02*
X15133000Y-52852000D01*
X15133000Y-52812000D02*
X15093000Y-52852000D01*
X15214920Y-53345400D02*
X15254920Y-53385400D01*
X15254920Y-53345400D02*
X15214920Y-53385400D01*
X15220000Y-53574000D02*
X15260000Y-53614000D01*
X15260000Y-53574000D02*
X15220000Y-53614000D01*
X15220000Y-53955000D02*
X15260000Y-53995000D01*
X15260000Y-53955000D02*
X15220000Y-53995000D01*
X15670000Y-47940000D02*
X15710000Y-47980000D01*
X15710000Y-47940000D02*
X15670000Y-47980000D01*
X16109000Y-49891000D02*
X16149000Y-49931000D01*
X16149000Y-49891000D02*
X16109000Y-49931000D01*
X16230920Y-53182840D02*
X16270920Y-53222840D01*
X16270920Y-53182840D02*
X16230920Y-53222840D01*
X16236000Y-53955000D02*
X16276000Y-53995000D01*
X16276000Y-53955000D02*
X16236000Y-53995000D01*
X16363000Y-52177000D02*
X16403000Y-52217000D01*
X16403000Y-52177000D02*
X16363000Y-52217000D01*
X16871000Y-54971000D02*
X16911000Y-55011000D01*
X16911000Y-54971000D02*
X16871000Y-55011000D01*
X16881160Y-53177760D02*
X16921160Y-53217760D01*
X16921160Y-53177760D02*
X16881160Y-53217760D01*
X17252000Y-52050000D02*
X17292000Y-52090000D01*
X17292000Y-52050000D02*
X17252000Y-52090000D01*
X17577120Y-53005040D02*
X17617120Y-53045040D01*
X17617120Y-53005040D02*
X17577120Y-53045040D01*
X17633000Y-51923000D02*
X17673000Y-51963000D01*
X17673000Y-51923000D02*
X17633000Y-51963000D01*
X17760000Y-50018000D02*
X17800000Y-50058000D01*
X17800000Y-50018000D02*
X17760000Y-50058000D01*
X17820960Y-52939000D02*
X17860960Y-52979000D01*
X17860960Y-52939000D02*
X17820960Y-52979000D01*
X18110520Y-53828000D02*
X18150520Y-53868000D01*
X18150520Y-53828000D02*
X18110520Y-53868000D01*
X23454680Y-55077680D02*
X23494680Y-55117680D01*
X23494680Y-55077680D02*
X23454680Y-55117680D01*
X23538500Y-54907500D02*
X23578500Y-54947500D01*
X23578500Y-54907500D02*
X23538500Y-54947500D01*
X24237000Y-52558000D02*
X24277000Y-52598000D01*
X24277000Y-52558000D02*
X24237000Y-52598000D01*
X24491000Y-52812000D02*
X24531000Y-52852000D01*
X24531000Y-52812000D02*
X24491000Y-52852000D01*
X24620000Y-47110000D02*
X24660000Y-47150000D01*
X24660000Y-47110000D02*
X24620000Y-47150000D01*
X25507000Y-49891000D02*
X25547000Y-49931000D01*
X25547000Y-49891000D02*
X25507000Y-49931000D01*
X25570500Y-53066000D02*
X25610500Y-53106000D01*
X25610500Y-53066000D02*
X25570500Y-53106000D01*
X25761000Y-52177000D02*
X25801000Y-52217000D01*
X25801000Y-52177000D02*
X25761000Y-52217000D01*
X25824500Y-54653500D02*
X25864500Y-54693500D01*
X25864500Y-54653500D02*
X25824500Y-54693500D01*
X26142000Y-53193000D02*
X26182000Y-53233000D01*
X26182000Y-53193000D02*
X26142000Y-53233000D01*
X26269000Y-53066000D02*
X26309000Y-53106000D01*
X26309000Y-53066000D02*
X26269000Y-53106000D01*
X26269000Y-54971000D02*
X26309000Y-55011000D01*
X26309000Y-54971000D02*
X26269000Y-55011000D01*
X26650000Y-52050000D02*
X26690000Y-52090000D01*
X26690000Y-52050000D02*
X26650000Y-52090000D01*
X26722500Y-52812000D02*
X26762500Y-52852000D01*
X26762500Y-52812000D02*
X26722500Y-52852000D01*
X26777000Y-52939000D02*
X26817000Y-52979000D01*
X26817000Y-52939000D02*
X26777000Y-52979000D01*
X26904000Y-52621500D02*
X26944000Y-52661500D01*
X26944000Y-52621500D02*
X26904000Y-52661500D01*
X26904000Y-53066000D02*
X26944000Y-53106000D01*
X26944000Y-53066000D02*
X26904000Y-53106000D01*
X27031000Y-51923000D02*
X27071000Y-51963000D01*
X27071000Y-51923000D02*
X27031000Y-51963000D01*
X27031000Y-53193000D02*
X27071000Y-53233000D01*
X27071000Y-53193000D02*
X27031000Y-53233000D01*
X27158000Y-50018000D02*
X27198000Y-50058000D01*
X27198000Y-50018000D02*
X27158000Y-50058000D01*
X27158000Y-52812000D02*
X27198000Y-52852000D01*
X27198000Y-52812000D02*
X27158000Y-52852000D01*
X27221500Y-52685000D02*
X27261500Y-52725000D01*
X27261500Y-52685000D02*
X27221500Y-52725000D01*
X27221500Y-53002500D02*
X27261500Y-53042500D01*
X27261500Y-53002500D02*
X27221500Y-53042500D01*
X27475500Y-55034500D02*
X27515500Y-55074500D01*
X27515500Y-55034500D02*
X27475500Y-55074500D01*
X27539000Y-52558000D02*
X27579000Y-52598000D01*
X27579000Y-52558000D02*
X27539000Y-52598000D01*
X27539000Y-52685000D02*
X27579000Y-52725000D01*
X27579000Y-52685000D02*
X27539000Y-52725000D01*
X27539000Y-52812000D02*
X27579000Y-52852000D01*
X27579000Y-52812000D02*
X27539000Y-52852000D01*
X27539000Y-53002500D02*
X27579000Y-53042500D01*
X27579000Y-53002500D02*
X27539000Y-53042500D01*
X27569480Y-55098000D02*
X27609480Y-55138000D01*
X27609480Y-55098000D02*
X27569480Y-55138000D01*
X27569480Y-55570440D02*
X27609480Y-55610440D01*
X27609480Y-55570440D02*
X27569480Y-55610440D01*
X28682000Y-54717000D02*
X28722000Y-54757000D01*
X28722000Y-54717000D02*
X28682000Y-54757000D01*
X28824240Y-54879560D02*
X28864240Y-54919560D01*
X28864240Y-54879560D02*
X28824240Y-54919560D01*
X29418135Y-53751335D02*
X29458135Y-53791335D01*
X29458135Y-53751335D02*
X29418135Y-53791335D01*
X29698000Y-55606000D02*
X29738000Y-55646000D01*
X29738000Y-55606000D02*
X29698000Y-55646000D01*
X29952000Y-54602180D02*
X29992000Y-54642180D01*
X29992000Y-54602180D02*
X29952000Y-54642180D01*
X30058680Y-53223480D02*
X30098680Y-53263480D01*
X30098680Y-53223480D02*
X30058680Y-53263480D01*
X30142500Y-54653500D02*
X30182500Y-54693500D01*
X30182500Y-54653500D02*
X30142500Y-54693500D01*
X30142500Y-55098000D02*
X30182500Y-55138000D01*
X30182500Y-55098000D02*
X30142500Y-55138000D01*
X30160280Y-53350480D02*
X30200280Y-53390480D01*
X30200280Y-53350480D02*
X30160280Y-53390480D01*
X30256800Y-53868640D02*
X30296800Y-53908640D01*
X30296800Y-53868640D02*
X30256800Y-53908640D01*
X30256800Y-54569680D02*
X30296800Y-54609680D01*
X30296800Y-54569680D02*
X30256800Y-54609680D01*
X30650500Y-55860000D02*
X30690500Y-55900000D01*
X30690500Y-55860000D02*
X30650500Y-55900000D01*
X30708920Y-53990560D02*
X30748920Y-54030560D01*
X30748920Y-53990560D02*
X30708920Y-54030560D01*
X30714000Y-53637500D02*
X30754000Y-53677500D01*
X30754000Y-53637500D02*
X30714000Y-53677500D01*
X30759720Y-53863560D02*
X30799720Y-53903560D01*
X30799720Y-53863560D02*
X30759720Y-53903560D01*
X30776000Y-52551000D02*
X30816000Y-52591000D01*
X30816000Y-52551000D02*
X30776000Y-52591000D01*
X30830840Y-53233640D02*
X30870840Y-53273640D01*
X30870840Y-53233640D02*
X30830840Y-53273640D01*
X30932440Y-53634960D02*
X30972440Y-53674960D01*
X30972440Y-53634960D02*
X30932440Y-53674960D01*
X31030000Y-52805000D02*
X31070000Y-52845000D01*
X31070000Y-52805000D02*
X31030000Y-52845000D01*
X31158500Y-53764500D02*
X31198500Y-53804500D01*
X31198500Y-53764500D02*
X31158500Y-53804500D01*
X31171200Y-53975320D02*
X31211200Y-54015320D01*
X31211200Y-53975320D02*
X31171200Y-54015320D01*
X31412500Y-53764500D02*
X31452500Y-53804500D01*
X31452500Y-53764500D02*
X31412500Y-53804500D01*
X31486160Y-53680680D02*
X31526160Y-53720680D01*
X31526160Y-53680680D02*
X31486160Y-53720680D01*
X32046000Y-49884000D02*
X32086000Y-49924000D01*
X32086000Y-49884000D02*
X32046000Y-49924000D01*
X32174500Y-55098000D02*
X32214500Y-55138000D01*
X32214500Y-55098000D02*
X32174500Y-55138000D01*
X32300000Y-52170000D02*
X32340000Y-52210000D01*
X32340000Y-52170000D02*
X32300000Y-52210000D01*
X32808000Y-54964000D02*
X32848000Y-55004000D01*
X32848000Y-54964000D02*
X32808000Y-55004000D01*
X33189000Y-52043000D02*
X33229000Y-52083000D01*
X33229000Y-52043000D02*
X33189000Y-52083000D01*
X33381000Y-54717000D02*
X33421000Y-54757000D01*
X33421000Y-54717000D02*
X33381000Y-54757000D01*
X33570000Y-51916000D02*
X33610000Y-51956000D01*
X33610000Y-51916000D02*
X33570000Y-51956000D01*
X33697000Y-50011000D02*
X33737000Y-50051000D01*
X33737000Y-50011000D02*
X33697000Y-50051000D01*
X35603500Y-55225000D02*
X35643500Y-55265000D01*
X35643500Y-55225000D02*
X35603500Y-55265000D01*
X35921000Y-55606000D02*
X35961000Y-55646000D01*
X35961000Y-55606000D02*
X35921000Y-55646000D01*
X40187000Y-52568000D02*
X40227000Y-52608000D01*
X40227000Y-52568000D02*
X40187000Y-52608000D01*
X40441000Y-52822000D02*
X40481000Y-52862000D01*
X40481000Y-52822000D02*
X40441000Y-52862000D01*
X41457000Y-49901000D02*
X41497000Y-49941000D01*
X41497000Y-49901000D02*
X41457000Y-49941000D01*
X41509000Y-53193000D02*
X41549000Y-53233000D01*
X41549000Y-53193000D02*
X41509000Y-53233000D01*
X41711000Y-52187000D02*
X41751000Y-52227000D01*
X41751000Y-52187000D02*
X41711000Y-52227000D01*
X41890000Y-53066000D02*
X41930000Y-53106000D01*
X41930000Y-53066000D02*
X41890000Y-53106000D01*
X42207500Y-53193000D02*
X42247500Y-53233000D01*
X42247500Y-53193000D02*
X42207500Y-53233000D01*
X42219000Y-54981000D02*
X42259000Y-55021000D01*
X42259000Y-54981000D02*
X42219000Y-55021000D01*
X42600000Y-52060000D02*
X42640000Y-52100000D01*
X42640000Y-52060000D02*
X42600000Y-52100000D01*
X42842500Y-53066000D02*
X42882500Y-53106000D01*
X42882500Y-53066000D02*
X42842500Y-53106000D01*
X42842500Y-53193000D02*
X42882500Y-53233000D01*
X42882500Y-53193000D02*
X42842500Y-53233000D01*
X42842500Y-53628500D02*
X42882500Y-53668500D01*
X42882500Y-53628500D02*
X42842500Y-53668500D01*
X42842500Y-53828000D02*
X42882500Y-53868000D01*
X42882500Y-53828000D02*
X42842500Y-53868000D01*
X42981000Y-51933000D02*
X43021000Y-51973000D01*
X43021000Y-51933000D02*
X42981000Y-51973000D01*
X43096500Y-53510500D02*
X43136500Y-53550500D01*
X43136500Y-53510500D02*
X43096500Y-53550500D01*
X43108000Y-50028000D02*
X43148000Y-50068000D01*
X43148000Y-50028000D02*
X43108000Y-50068000D01*
X43160000Y-53066000D02*
X43200000Y-53106000D01*
X43200000Y-53066000D02*
X43160000Y-53106000D01*
X43160000Y-53193000D02*
X43200000Y-53233000D01*
X43200000Y-53193000D02*
X43160000Y-53233000D01*
X43160000Y-53828000D02*
X43200000Y-53868000D01*
X43200000Y-53828000D02*
X43160000Y-53868000D01*
X43477500Y-53066000D02*
X43517500Y-53106000D01*
X43517500Y-53066000D02*
X43477500Y-53106000D01*
X43477500Y-53193000D02*
X43517500Y-53233000D01*
X43517500Y-53193000D02*
X43477500Y-53233000D01*
X43477500Y-53510500D02*
X43517500Y-53550500D01*
X43517500Y-53510500D02*
X43477500Y-53550500D01*
X43477500Y-53828000D02*
X43517500Y-53868000D01*
X43517500Y-53828000D02*
X43477500Y-53868000D01*
X43604500Y-54399500D02*
X43644500Y-54439500D01*
X43644500Y-54399500D02*
X43604500Y-54439500D01*
X43731500Y-53637500D02*
X43771500Y-53677500D01*
X43771500Y-53637500D02*
X43731500Y-53677500D01*
X45573000Y-54145500D02*
X45613000Y-54185500D01*
X45613000Y-54145500D02*
X45573000Y-54185500D01*
X46081000Y-54526500D02*
X46121000Y-54566500D01*
X46121000Y-54526500D02*
X46081000Y-54566500D01*
X46652500Y-53764500D02*
X46692500Y-53804500D01*
X46692500Y-53764500D02*
X46652500Y-53804500D01*
X46652500Y-53955000D02*
X46692500Y-53995000D01*
X46692500Y-53955000D02*
X46652500Y-53995000D01*
X46652500Y-54145500D02*
X46692500Y-54185500D01*
X46692500Y-54145500D02*
X46652500Y-54185500D01*
X46656000Y-52561000D02*
X46696000Y-52601000D01*
X46696000Y-52561000D02*
X46656000Y-52601000D01*
X46910000Y-52815000D02*
X46950000Y-52855000D01*
X46950000Y-52815000D02*
X46910000Y-52855000D01*
X47351000Y-53955000D02*
X47391000Y-53995000D01*
X47391000Y-53955000D02*
X47351000Y-53995000D01*
X47926000Y-49894000D02*
X47966000Y-49934000D01*
X47966000Y-49894000D02*
X47926000Y-49934000D01*
X48180000Y-52180000D02*
X48220000Y-52220000D01*
X48220000Y-52180000D02*
X48180000Y-52220000D01*
X48688000Y-54974000D02*
X48728000Y-55014000D01*
X48728000Y-54974000D02*
X48688000Y-55014000D01*
X49069000Y-52053000D02*
X49109000Y-52093000D01*
X49109000Y-52053000D02*
X49069000Y-52093000D01*
X49450000Y-51926000D02*
X49490000Y-51966000D01*
X49490000Y-51926000D02*
X49450000Y-51966000D01*
X49577000Y-50021000D02*
X49617000Y-50061000D01*
X49617000Y-50021000D02*
X49577000Y-50061000D01*
X37502500Y-53213000D02*
G75*
G03X37502500Y-53213000I-37500J0D01*
G01*
X37629500Y-53213000D02*
G75*
G03X37629500Y-53213000I-37500J0D01*
G01*
X37756500Y-53213000D02*
G75*
G03X37756500Y-53213000I-37500J0D01*
G01*
X21500500Y-53213000D02*
G75*
G03X21500500Y-53213000I-37500J0D01*
G01*
X21627500Y-53213000D02*
G75*
G03X21627500Y-53213000I-37500J0D01*
G01*
X21754500Y-53213000D02*
G75*
G03X21754500Y-53213000I-37500J0D01*
G01*
X20611500Y-53213000D02*
G75*
G03X20611500Y-53213000I-37500J0D01*
G01*
X20738500Y-53213000D02*
G75*
G03X20738500Y-53213000I-37500J0D01*
G01*
X20865500Y-53213000D02*
G75*
G03X20865500Y-53213000I-37500J0D01*
G01*
X36613500Y-53213000D02*
G75*
G03X36613500Y-53213000I-37500J0D01*
G01*
X36740500Y-53213000D02*
G75*
G03X36740500Y-53213000I-37500J0D01*
G01*
X36867500Y-53213000D02*
G75*
G03X36867500Y-53213000I-37500J0D01*
G01*
X44069000Y-53554000D02*
X44069000Y-53634000D01*
X44029000Y-53594000D02*
X44109000Y-53594000D01*
X44069000Y-54316000D02*
X44069000Y-54396000D01*
X44029000Y-54356000D02*
X44109000Y-54356000D01*
X44323000Y-53554000D02*
X44323000Y-53634000D01*
X44283000Y-53594000D02*
X44363000Y-53594000D01*
X44323000Y-54316000D02*
X44323000Y-54396000D01*
X44283000Y-54356000D02*
X44363000Y-54356000D01*
X44577000Y-53554000D02*
X44577000Y-53634000D01*
X44537000Y-53594000D02*
X44617000Y-53594000D01*
X44577000Y-54316000D02*
X44577000Y-54396000D01*
X44537000Y-54356000D02*
X44617000Y-54356000D01*
X44831000Y-53554000D02*
X44831000Y-53634000D01*
X44791000Y-53594000D02*
X44871000Y-53594000D01*
X44831000Y-54316000D02*
X44831000Y-54396000D01*
X44791000Y-54356000D02*
X44871000Y-54356000D01*
X45085000Y-53554000D02*
X45085000Y-53634000D01*
X45045000Y-53594000D02*
X45125000Y-53594000D01*
X45085000Y-54316000D02*
X45085000Y-54396000D01*
X45045000Y-54356000D02*
X45125000Y-54356000D01*
X45339000Y-53554000D02*
X45339000Y-53634000D01*
X45299000Y-53594000D02*
X45379000Y-53594000D01*
X45339000Y-54316000D02*
X45339000Y-54396000D01*
X45299000Y-54356000D02*
X45379000Y-54356000D01*
X45593000Y-53554000D02*
X45593000Y-53634000D01*
X45553000Y-53594000D02*
X45633000Y-53594000D01*
X45593000Y-54316000D02*
X45593000Y-54396000D01*
X45553000Y-54356000D02*
X45633000Y-54356000D01*
X45847000Y-53554000D02*
X45847000Y-53634000D01*
X45807000Y-53594000D02*
X45887000Y-53594000D01*
X45847000Y-54316000D02*
X45847000Y-54396000D01*
X45807000Y-54356000D02*
X45887000Y-54356000D01*
X15494000Y-53427000D02*
X15494000Y-53507000D01*
X15454000Y-53467000D02*
X15534000Y-53467000D01*
X15494000Y-54189000D02*
X15494000Y-54269000D01*
X15454000Y-54229000D02*
X15534000Y-54229000D01*
X15748000Y-53427000D02*
X15748000Y-53507000D01*
X15708000Y-53467000D02*
X15788000Y-53467000D01*
X15748000Y-54189000D02*
X15748000Y-54269000D01*
X15708000Y-54229000D02*
X15788000Y-54229000D01*
X16002000Y-53427000D02*
X16002000Y-53507000D01*
X15962000Y-53467000D02*
X16042000Y-53467000D01*
X16002000Y-54189000D02*
X16002000Y-54269000D01*
X15962000Y-54229000D02*
X16042000Y-54229000D01*
X16256000Y-53427000D02*
X16256000Y-53507000D01*
X16216000Y-53467000D02*
X16296000Y-53467000D01*
X16256000Y-54189000D02*
X16256000Y-54269000D01*
X16216000Y-54229000D02*
X16296000Y-54229000D01*
X16510000Y-53427000D02*
X16510000Y-53507000D01*
X16470000Y-53467000D02*
X16550000Y-53467000D01*
X16510000Y-54189000D02*
X16510000Y-54269000D01*
X16470000Y-54229000D02*
X16550000Y-54229000D01*
X16764000Y-53427000D02*
X16764000Y-53507000D01*
X16724000Y-53467000D02*
X16804000Y-53467000D01*
X16764000Y-54189000D02*
X16764000Y-54269000D01*
X16724000Y-54229000D02*
X16804000Y-54229000D01*
X17018000Y-53427000D02*
X17018000Y-53507000D01*
X16978000Y-53467000D02*
X17058000Y-53467000D01*
X17018000Y-54189000D02*
X17018000Y-54269000D01*
X16978000Y-54229000D02*
X17058000Y-54229000D01*
X17272000Y-53427000D02*
X17272000Y-53507000D01*
X17232000Y-53467000D02*
X17312000Y-53467000D01*
X17272000Y-54189000D02*
X17272000Y-54269000D01*
X17232000Y-54229000D02*
X17312000Y-54229000D01*
X9017000Y-53427000D02*
X9017000Y-53507000D01*
X8977000Y-53467000D02*
X9057000Y-53467000D01*
X9017000Y-54189000D02*
X9017000Y-54269000D01*
X8977000Y-54229000D02*
X9057000Y-54229000D01*
X9271000Y-53427000D02*
X9271000Y-53507000D01*
X9231000Y-53467000D02*
X9311000Y-53467000D01*
X9271000Y-54189000D02*
X9271000Y-54269000D01*
X9231000Y-54229000D02*
X9311000Y-54229000D01*
X9525000Y-53427000D02*
X9525000Y-53507000D01*
X9485000Y-53467000D02*
X9565000Y-53467000D01*
X9525000Y-54189000D02*
X9525000Y-54269000D01*
X9485000Y-54229000D02*
X9565000Y-54229000D01*
X9779000Y-53427000D02*
X9779000Y-53507000D01*
X9739000Y-53467000D02*
X9819000Y-53467000D01*
X9779000Y-54189000D02*
X9779000Y-54269000D01*
X9739000Y-54229000D02*
X9819000Y-54229000D01*
X10033000Y-53427000D02*
X10033000Y-53507000D01*
X9993000Y-53467000D02*
X10073000Y-53467000D01*
X10033000Y-54189000D02*
X10033000Y-54269000D01*
X9993000Y-54229000D02*
X10073000Y-54229000D01*
X10287000Y-53427000D02*
X10287000Y-53507000D01*
X10247000Y-53467000D02*
X10327000Y-53467000D01*
X10287000Y-54189000D02*
X10287000Y-54269000D01*
X10247000Y-54229000D02*
X10327000Y-54229000D01*
X10541000Y-53427000D02*
X10541000Y-53507000D01*
X10501000Y-53467000D02*
X10581000Y-53467000D01*
X10541000Y-54189000D02*
X10541000Y-54269000D01*
X10501000Y-54229000D02*
X10581000Y-54229000D01*
X10795000Y-53427000D02*
X10795000Y-53507000D01*
X10755000Y-53467000D02*
X10835000Y-53467000D01*
X10795000Y-54189000D02*
X10795000Y-54269000D01*
X10755000Y-54229000D02*
X10835000Y-54229000D01*
X16891000Y-48474000D02*
X16891000Y-48554000D01*
X16851000Y-48514000D02*
X16931000Y-48514000D01*
X16891000Y-49490000D02*
X16891000Y-49570000D01*
X16851000Y-49530000D02*
X16931000Y-49530000D01*
X21590000Y-53681000D02*
X21590000Y-53761000D01*
X21550000Y-53721000D02*
X21630000Y-53721000D01*
X21590000Y-54697000D02*
X21590000Y-54777000D01*
X21550000Y-54737000D02*
X21630000Y-54737000D01*
X13462000Y-48220000D02*
X13462000Y-48300000D01*
X13422000Y-48260000D02*
X13502000Y-48260000D01*
X13462000Y-49236000D02*
X13462000Y-49316000D01*
X13422000Y-49276000D02*
X13502000Y-49276000D01*
X28448000Y-53554000D02*
X28448000Y-53634000D01*
X28408000Y-53594000D02*
X28488000Y-53594000D01*
X28448000Y-54316000D02*
X28448000Y-54396000D01*
X28408000Y-54356000D02*
X28488000Y-54356000D01*
X28702000Y-53554000D02*
X28702000Y-53634000D01*
X28662000Y-53594000D02*
X28742000Y-53594000D01*
X28702000Y-54316000D02*
X28702000Y-54396000D01*
X28662000Y-54356000D02*
X28742000Y-54356000D01*
X28956000Y-53554000D02*
X28956000Y-53634000D01*
X28916000Y-53594000D02*
X28996000Y-53594000D01*
X28956000Y-54316000D02*
X28956000Y-54396000D01*
X28916000Y-54356000D02*
X28996000Y-54356000D01*
X29210000Y-53554000D02*
X29210000Y-53634000D01*
X29170000Y-53594000D02*
X29250000Y-53594000D01*
X29210000Y-54316000D02*
X29210000Y-54396000D01*
X29170000Y-54356000D02*
X29250000Y-54356000D01*
X29464000Y-53554000D02*
X29464000Y-53634000D01*
X29424000Y-53594000D02*
X29504000Y-53594000D01*
X29464000Y-54316000D02*
X29464000Y-54396000D01*
X29424000Y-54356000D02*
X29504000Y-54356000D01*
X29718000Y-53554000D02*
X29718000Y-53634000D01*
X29678000Y-53594000D02*
X29758000Y-53594000D01*
X29718000Y-54316000D02*
X29718000Y-54396000D01*
X29678000Y-54356000D02*
X29758000Y-54356000D01*
X29972000Y-53554000D02*
X29972000Y-53634000D01*
X29932000Y-53594000D02*
X30012000Y-53594000D01*
X29972000Y-54316000D02*
X29972000Y-54396000D01*
X29932000Y-54356000D02*
X30012000Y-54356000D01*
X30226000Y-53554000D02*
X30226000Y-53634000D01*
X30186000Y-53594000D02*
X30266000Y-53594000D01*
X30226000Y-54316000D02*
X30226000Y-54396000D01*
X30186000Y-54356000D02*
X30266000Y-54356000D01*
X24892000Y-53427000D02*
X24892000Y-53507000D01*
X24852000Y-53467000D02*
X24932000Y-53467000D01*
X24892000Y-54189000D02*
X24892000Y-54269000D01*
X24852000Y-54229000D02*
X24932000Y-54229000D01*
X25146000Y-53427000D02*
X25146000Y-53507000D01*
X25106000Y-53467000D02*
X25186000Y-53467000D01*
X25146000Y-54189000D02*
X25146000Y-54269000D01*
X25106000Y-54229000D02*
X25186000Y-54229000D01*
X25400000Y-53427000D02*
X25400000Y-53507000D01*
X25360000Y-53467000D02*
X25440000Y-53467000D01*
X25400000Y-54189000D02*
X25400000Y-54269000D01*
X25360000Y-54229000D02*
X25440000Y-54229000D01*
X25654000Y-53427000D02*
X25654000Y-53507000D01*
X25614000Y-53467000D02*
X25694000Y-53467000D01*
X25654000Y-54189000D02*
X25654000Y-54269000D01*
X25614000Y-54229000D02*
X25694000Y-54229000D01*
X25908000Y-53427000D02*
X25908000Y-53507000D01*
X25868000Y-53467000D02*
X25948000Y-53467000D01*
X25908000Y-54189000D02*
X25908000Y-54269000D01*
X25868000Y-54229000D02*
X25948000Y-54229000D01*
X26162000Y-53427000D02*
X26162000Y-53507000D01*
X26122000Y-53467000D02*
X26202000Y-53467000D01*
X26162000Y-54189000D02*
X26162000Y-54269000D01*
X26122000Y-54229000D02*
X26202000Y-54229000D01*
X26416000Y-53427000D02*
X26416000Y-53507000D01*
X26376000Y-53467000D02*
X26456000Y-53467000D01*
X26416000Y-54189000D02*
X26416000Y-54269000D01*
X26376000Y-54229000D02*
X26456000Y-54229000D01*
X26670000Y-53427000D02*
X26670000Y-53507000D01*
X26630000Y-53467000D02*
X26710000Y-53467000D01*
X26670000Y-54189000D02*
X26670000Y-54269000D01*
X26630000Y-54229000D02*
X26710000Y-54229000D01*
X47312000Y-53430000D02*
X47312000Y-53510000D01*
X47272000Y-53470000D02*
X47352000Y-53470000D01*
X47312000Y-54192000D02*
X47312000Y-54272000D01*
X47272000Y-54232000D02*
X47352000Y-54232000D01*
X47566000Y-53430000D02*
X47566000Y-53510000D01*
X47526000Y-53470000D02*
X47606000Y-53470000D01*
X47566000Y-54192000D02*
X47566000Y-54272000D01*
X47526000Y-54232000D02*
X47606000Y-54232000D01*
X47820000Y-53430000D02*
X47820000Y-53510000D01*
X47780000Y-53470000D02*
X47860000Y-53470000D01*
X47820000Y-54192000D02*
X47820000Y-54272000D01*
X47780000Y-54232000D02*
X47860000Y-54232000D01*
X48074000Y-53430000D02*
X48074000Y-53510000D01*
X48034000Y-53470000D02*
X48114000Y-53470000D01*
X48074000Y-54192000D02*
X48074000Y-54272000D01*
X48034000Y-54232000D02*
X48114000Y-54232000D01*
X48328000Y-53430000D02*
X48328000Y-53510000D01*
X48288000Y-53470000D02*
X48368000Y-53470000D01*
X48328000Y-54192000D02*
X48328000Y-54272000D01*
X48288000Y-54232000D02*
X48368000Y-54232000D01*
X48582000Y-53430000D02*
X48582000Y-53510000D01*
X48542000Y-53470000D02*
X48622000Y-53470000D01*
X48582000Y-54192000D02*
X48582000Y-54272000D01*
X48542000Y-54232000D02*
X48622000Y-54232000D01*
X48836000Y-53430000D02*
X48836000Y-53510000D01*
X48796000Y-53470000D02*
X48876000Y-53470000D01*
X48836000Y-54192000D02*
X48836000Y-54272000D01*
X48796000Y-54232000D02*
X48876000Y-54232000D01*
X49090000Y-53430000D02*
X49090000Y-53510000D01*
X49050000Y-53470000D02*
X49130000Y-53470000D01*
X49090000Y-54192000D02*
X49090000Y-54272000D01*
X49050000Y-54232000D02*
X49130000Y-54232000D01*
X44323000Y-55332000D02*
X44323000Y-55412000D01*
X44283000Y-55372000D02*
X44363000Y-55372000D01*
X44573000Y-55332000D02*
X44573000Y-55412000D01*
X44533000Y-55372000D02*
X44613000Y-55372000D01*
X36068000Y-47966000D02*
X36068000Y-48046000D01*
X36028000Y-48006000D02*
X36108000Y-48006000D01*
X36068000Y-48982000D02*
X36068000Y-49062000D01*
X36028000Y-49022000D02*
X36108000Y-49022000D01*
X20701000Y-53681000D02*
X20701000Y-53761000D01*
X20661000Y-53721000D02*
X20741000Y-53721000D01*
X20701000Y-54697000D02*
X20701000Y-54777000D01*
X20661000Y-54737000D02*
X20741000Y-54737000D01*
X7112000Y-48220000D02*
X7112000Y-48300000D01*
X7072000Y-48260000D02*
X7152000Y-48260000D01*
X7112000Y-49236000D02*
X7112000Y-49316000D01*
X7072000Y-49276000D02*
X7152000Y-49276000D01*
X27940000Y-55078000D02*
X27940000Y-55158000D01*
X27900000Y-55118000D02*
X27980000Y-55118000D01*
X27940000Y-55840000D02*
X27940000Y-55920000D01*
X27900000Y-55880000D02*
X27980000Y-55880000D01*
X28194000Y-55078000D02*
X28194000Y-55158000D01*
X28154000Y-55118000D02*
X28234000Y-55118000D01*
X28194000Y-55840000D02*
X28194000Y-55920000D01*
X28154000Y-55880000D02*
X28234000Y-55880000D01*
X28448000Y-55078000D02*
X28448000Y-55158000D01*
X28408000Y-55118000D02*
X28488000Y-55118000D01*
X28448000Y-55840000D02*
X28448000Y-55920000D01*
X28408000Y-55880000D02*
X28488000Y-55880000D01*
X28702000Y-55078000D02*
X28702000Y-55158000D01*
X28662000Y-55118000D02*
X28742000Y-55118000D01*
X28702000Y-55840000D02*
X28702000Y-55920000D01*
X28662000Y-55880000D02*
X28742000Y-55880000D01*
X28956000Y-55078000D02*
X28956000Y-55158000D01*
X28916000Y-55118000D02*
X28996000Y-55118000D01*
X28956000Y-55840000D02*
X28956000Y-55920000D01*
X28916000Y-55880000D02*
X28996000Y-55880000D01*
X29210000Y-55078000D02*
X29210000Y-55158000D01*
X29170000Y-55118000D02*
X29250000Y-55118000D01*
X29210000Y-55840000D02*
X29210000Y-55920000D01*
X29170000Y-55880000D02*
X29250000Y-55880000D01*
X29464000Y-55078000D02*
X29464000Y-55158000D01*
X29424000Y-55118000D02*
X29504000Y-55118000D01*
X29464000Y-55840000D02*
X29464000Y-55920000D01*
X29424000Y-55880000D02*
X29504000Y-55880000D01*
X29718000Y-55078000D02*
X29718000Y-55158000D01*
X29678000Y-55118000D02*
X29758000Y-55118000D01*
X29718000Y-55840000D02*
X29718000Y-55920000D01*
X29678000Y-55880000D02*
X29758000Y-55880000D01*
X20701000Y-47458000D02*
X20701000Y-47538000D01*
X20661000Y-47498000D02*
X20741000Y-47498000D01*
X20701000Y-47712000D02*
X20701000Y-47792000D01*
X20661000Y-47752000D02*
X20741000Y-47752000D01*
X21463000Y-47458000D02*
X21463000Y-47538000D01*
X21423000Y-47498000D02*
X21503000Y-47498000D01*
X21463000Y-47712000D02*
X21463000Y-47792000D01*
X21423000Y-47752000D02*
X21503000Y-47752000D01*
X12192000Y-53427000D02*
X12192000Y-53507000D01*
X12152000Y-53467000D02*
X12232000Y-53467000D01*
X12192000Y-54189000D02*
X12192000Y-54269000D01*
X12152000Y-54229000D02*
X12232000Y-54229000D01*
X12446000Y-53427000D02*
X12446000Y-53507000D01*
X12406000Y-53467000D02*
X12486000Y-53467000D01*
X12446000Y-54189000D02*
X12446000Y-54269000D01*
X12406000Y-54229000D02*
X12486000Y-54229000D01*
X12700000Y-53427000D02*
X12700000Y-53507000D01*
X12660000Y-53467000D02*
X12740000Y-53467000D01*
X12700000Y-54189000D02*
X12700000Y-54269000D01*
X12660000Y-54229000D02*
X12740000Y-54229000D01*
X12954000Y-53427000D02*
X12954000Y-53507000D01*
X12914000Y-53467000D02*
X12994000Y-53467000D01*
X12954000Y-54189000D02*
X12954000Y-54269000D01*
X12914000Y-54229000D02*
X12994000Y-54229000D01*
X13208000Y-53427000D02*
X13208000Y-53507000D01*
X13168000Y-53467000D02*
X13248000Y-53467000D01*
X13208000Y-54189000D02*
X13208000Y-54269000D01*
X13168000Y-54229000D02*
X13248000Y-54229000D01*
X13462000Y-53427000D02*
X13462000Y-53507000D01*
X13422000Y-53467000D02*
X13502000Y-53467000D01*
X13462000Y-54189000D02*
X13462000Y-54269000D01*
X13422000Y-54229000D02*
X13502000Y-54229000D01*
X13716000Y-53427000D02*
X13716000Y-53507000D01*
X13676000Y-53467000D02*
X13756000Y-53467000D01*
X13716000Y-54189000D02*
X13716000Y-54269000D01*
X13676000Y-54229000D02*
X13756000Y-54229000D01*
X13970000Y-53427000D02*
X13970000Y-53507000D01*
X13930000Y-53467000D02*
X14010000Y-53467000D01*
X13970000Y-54189000D02*
X13970000Y-54269000D01*
X13930000Y-54229000D02*
X14010000Y-54229000D01*
X45720000Y-47331000D02*
X45720000Y-47411000D01*
X45680000Y-47371000D02*
X45760000Y-47371000D01*
X45720000Y-47585000D02*
X45720000Y-47665000D01*
X45680000Y-47625000D02*
X45760000Y-47625000D01*
X46482000Y-47331000D02*
X46482000Y-47411000D01*
X46442000Y-47371000D02*
X46522000Y-47371000D01*
X46482000Y-47585000D02*
X46482000Y-47665000D01*
X46442000Y-47625000D02*
X46522000Y-47625000D01*
X36703000Y-51395000D02*
X36703000Y-51475000D01*
X36663000Y-51435000D02*
X36743000Y-51435000D01*
X36703000Y-52411000D02*
X36703000Y-52491000D01*
X36663000Y-52451000D02*
X36743000Y-52451000D01*
X29210000Y-47966000D02*
X29210000Y-48046000D01*
X29170000Y-48006000D02*
X29250000Y-48006000D01*
X29210000Y-48982000D02*
X29210000Y-49062000D01*
X29170000Y-49022000D02*
X29250000Y-49022000D01*
X20066000Y-47966000D02*
X20066000Y-48046000D01*
X20026000Y-48006000D02*
X20106000Y-48006000D01*
X20066000Y-48982000D02*
X20066000Y-49062000D01*
X20026000Y-49022000D02*
X20106000Y-49022000D01*
X36703000Y-53808000D02*
X36703000Y-53888000D01*
X36663000Y-53848000D02*
X36743000Y-53848000D01*
X36703000Y-54824000D02*
X36703000Y-54904000D01*
X36663000Y-54864000D02*
X36743000Y-54864000D01*
X48768000Y-48474000D02*
X48768000Y-48554000D01*
X48728000Y-48514000D02*
X48808000Y-48514000D01*
X48768000Y-49490000D02*
X48768000Y-49570000D01*
X48728000Y-49530000D02*
X48808000Y-49530000D01*
X38862000Y-47966000D02*
X38862000Y-48046000D01*
X38822000Y-48006000D02*
X38902000Y-48006000D01*
X38862000Y-48982000D02*
X38862000Y-49062000D01*
X38822000Y-49022000D02*
X38902000Y-49022000D01*
X32766000Y-48474000D02*
X32766000Y-48554000D01*
X32726000Y-48514000D02*
X32806000Y-48514000D01*
X32766000Y-49490000D02*
X32766000Y-49570000D01*
X32726000Y-49530000D02*
X32806000Y-49530000D01*
X37592000Y-51395000D02*
X37592000Y-51475000D01*
X37552000Y-51435000D02*
X37632000Y-51435000D01*
X37592000Y-52411000D02*
X37592000Y-52491000D01*
X37552000Y-52451000D02*
X37632000Y-52451000D01*
X20701000Y-51395000D02*
X20701000Y-51475000D01*
X20661000Y-51435000D02*
X20741000Y-51435000D01*
X20701000Y-52411000D02*
X20701000Y-52491000D01*
X20661000Y-52451000D02*
X20741000Y-52451000D01*
X22733000Y-47204000D02*
X22733000Y-47284000D01*
X22693000Y-47244000D02*
X22773000Y-47244000D01*
X22733000Y-48220000D02*
X22733000Y-48300000D01*
X22693000Y-48260000D02*
X22773000Y-48260000D01*
X31432000Y-53420000D02*
X31432000Y-53500000D01*
X31392000Y-53460000D02*
X31472000Y-53460000D01*
X31432000Y-54182000D02*
X31432000Y-54262000D01*
X31392000Y-54222000D02*
X31472000Y-54222000D01*
X31686000Y-53420000D02*
X31686000Y-53500000D01*
X31646000Y-53460000D02*
X31726000Y-53460000D01*
X31686000Y-54182000D02*
X31686000Y-54262000D01*
X31646000Y-54222000D02*
X31726000Y-54222000D01*
X31940000Y-53420000D02*
X31940000Y-53500000D01*
X31900000Y-53460000D02*
X31980000Y-53460000D01*
X31940000Y-54182000D02*
X31940000Y-54262000D01*
X31900000Y-54222000D02*
X31980000Y-54222000D01*
X32194000Y-53420000D02*
X32194000Y-53500000D01*
X32154000Y-53460000D02*
X32234000Y-53460000D01*
X32194000Y-54182000D02*
X32194000Y-54262000D01*
X32154000Y-54222000D02*
X32234000Y-54222000D01*
X32448000Y-53420000D02*
X32448000Y-53500000D01*
X32408000Y-53460000D02*
X32488000Y-53460000D01*
X32448000Y-54182000D02*
X32448000Y-54262000D01*
X32408000Y-54222000D02*
X32488000Y-54222000D01*
X32702000Y-53420000D02*
X32702000Y-53500000D01*
X32662000Y-53460000D02*
X32742000Y-53460000D01*
X32702000Y-54182000D02*
X32702000Y-54262000D01*
X32662000Y-54222000D02*
X32742000Y-54222000D01*
X32956000Y-53420000D02*
X32956000Y-53500000D01*
X32916000Y-53460000D02*
X32996000Y-53460000D01*
X32956000Y-54182000D02*
X32956000Y-54262000D01*
X32916000Y-54222000D02*
X32996000Y-54222000D01*
X33210000Y-53420000D02*
X33210000Y-53500000D01*
X33170000Y-53460000D02*
X33250000Y-53460000D01*
X33210000Y-54182000D02*
X33210000Y-54262000D01*
X33170000Y-54222000D02*
X33250000Y-54222000D01*
X40838120Y-53432080D02*
X40838120Y-53512080D01*
X40798120Y-53472080D02*
X40878120Y-53472080D01*
X40838120Y-54194080D02*
X40838120Y-54274080D01*
X40798120Y-54234080D02*
X40878120Y-54234080D01*
X41092120Y-53432080D02*
X41092120Y-53512080D01*
X41052120Y-53472080D02*
X41132120Y-53472080D01*
X41092120Y-54194080D02*
X41092120Y-54274080D01*
X41052120Y-54234080D02*
X41132120Y-54234080D01*
X41346120Y-53432080D02*
X41346120Y-53512080D01*
X41306120Y-53472080D02*
X41386120Y-53472080D01*
X41346120Y-54194080D02*
X41346120Y-54274080D01*
X41306120Y-54234080D02*
X41386120Y-54234080D01*
X41600120Y-53432080D02*
X41600120Y-53512080D01*
X41560120Y-53472080D02*
X41640120Y-53472080D01*
X41600120Y-54194080D02*
X41600120Y-54274080D01*
X41560120Y-54234080D02*
X41640120Y-54234080D01*
X41854120Y-53432080D02*
X41854120Y-53512080D01*
X41814120Y-53472080D02*
X41894120Y-53472080D01*
X41854120Y-54194080D02*
X41854120Y-54274080D01*
X41814120Y-54234080D02*
X41894120Y-54234080D01*
X42108120Y-53432080D02*
X42108120Y-53512080D01*
X42068120Y-53472080D02*
X42148120Y-53472080D01*
X42108120Y-54194080D02*
X42108120Y-54274080D01*
X42068120Y-54234080D02*
X42148120Y-54234080D01*
X42362120Y-53432080D02*
X42362120Y-53512080D01*
X42322120Y-53472080D02*
X42402120Y-53472080D01*
X42362120Y-54194080D02*
X42362120Y-54274080D01*
X42322120Y-54234080D02*
X42402120Y-54234080D01*
X42616120Y-53432080D02*
X42616120Y-53512080D01*
X42576120Y-53472080D02*
X42656120Y-53472080D01*
X42616120Y-54194080D02*
X42616120Y-54274080D01*
X42576120Y-54234080D02*
X42656120Y-54234080D01*
X45212000Y-47966000D02*
X45212000Y-48046000D01*
X45172000Y-48006000D02*
X45252000Y-48006000D01*
X45212000Y-48982000D02*
X45212000Y-49062000D01*
X45172000Y-49022000D02*
X45252000Y-49022000D01*
X42164000Y-48474000D02*
X42164000Y-48554000D01*
X42124000Y-48514000D02*
X42204000Y-48514000D01*
X42164000Y-49490000D02*
X42164000Y-49570000D01*
X42124000Y-49530000D02*
X42204000Y-49530000D01*
X7366000Y-47458000D02*
X7366000Y-47538000D01*
X7326000Y-47498000D02*
X7406000Y-47498000D01*
X7366000Y-47712000D02*
X7366000Y-47792000D01*
X7326000Y-47752000D02*
X7406000Y-47752000D01*
X8128000Y-47458000D02*
X8128000Y-47538000D01*
X8088000Y-47498000D02*
X8168000Y-47498000D01*
X8128000Y-47712000D02*
X8128000Y-47792000D01*
X8088000Y-47752000D02*
X8168000Y-47752000D01*
X39370000Y-47331000D02*
X39370000Y-47411000D01*
X39330000Y-47371000D02*
X39410000Y-47371000D01*
X39370000Y-47585000D02*
X39370000Y-47665000D01*
X39330000Y-47625000D02*
X39410000Y-47625000D01*
X40132000Y-47331000D02*
X40132000Y-47411000D01*
X40092000Y-47371000D02*
X40172000Y-47371000D01*
X40132000Y-47585000D02*
X40132000Y-47665000D01*
X40092000Y-47625000D02*
X40172000Y-47625000D01*
X13843000Y-47458000D02*
X13843000Y-47538000D01*
X13803000Y-47498000D02*
X13883000Y-47498000D01*
X13843000Y-47712000D02*
X13843000Y-47792000D01*
X13803000Y-47752000D02*
X13883000Y-47752000D01*
X14605000Y-47458000D02*
X14605000Y-47538000D01*
X14565000Y-47498000D02*
X14645000Y-47498000D01*
X14605000Y-47712000D02*
X14605000Y-47792000D01*
X14565000Y-47752000D02*
X14645000Y-47752000D01*
X36703000Y-47331000D02*
X36703000Y-47411000D01*
X36663000Y-47371000D02*
X36743000Y-47371000D01*
X36703000Y-47585000D02*
X36703000Y-47665000D01*
X36663000Y-47625000D02*
X36743000Y-47625000D01*
X37465000Y-47331000D02*
X37465000Y-47411000D01*
X37425000Y-47371000D02*
X37505000Y-47371000D01*
X37465000Y-47585000D02*
X37465000Y-47665000D01*
X37425000Y-47625000D02*
X37505000Y-47625000D01*
X10414000Y-48474000D02*
X10414000Y-48554000D01*
X10374000Y-48514000D02*
X10454000Y-48514000D01*
X10414000Y-49490000D02*
X10414000Y-49570000D01*
X10374000Y-49530000D02*
X10454000Y-49530000D01*
X37592000Y-53808000D02*
X37592000Y-53888000D01*
X37552000Y-53848000D02*
X37632000Y-53848000D01*
X37592000Y-54824000D02*
X37592000Y-54904000D01*
X37552000Y-54864000D02*
X37632000Y-54864000D01*
X29718000Y-47458000D02*
X29718000Y-47538000D01*
X29678000Y-47498000D02*
X29758000Y-47498000D01*
X29718000Y-47712000D02*
X29718000Y-47792000D01*
X29678000Y-47752000D02*
X29758000Y-47752000D01*
X30480000Y-47458000D02*
X30480000Y-47538000D01*
X30440000Y-47498000D02*
X30520000Y-47498000D01*
X30480000Y-47712000D02*
X30480000Y-47792000D01*
X30440000Y-47752000D02*
X30520000Y-47752000D01*
X21590000Y-51395000D02*
X21590000Y-51475000D01*
X21550000Y-51435000D02*
X21630000Y-51435000D01*
X21590000Y-52411000D02*
X21590000Y-52491000D01*
X21550000Y-52451000D02*
X21630000Y-52451000D01*
X26289000Y-48474000D02*
X26289000Y-48554000D01*
X26249000Y-48514000D02*
X26329000Y-48514000D01*
X26289000Y-49490000D02*
X26289000Y-49570000D01*
X26249000Y-49530000D02*
X26329000Y-49530000D01*
X23241000Y-47458000D02*
X23241000Y-47538000D01*
X23201000Y-47498000D02*
X23281000Y-47498000D01*
X23241000Y-47712000D02*
X23241000Y-47792000D01*
X23201000Y-47752000D02*
X23281000Y-47752000D01*
X24003000Y-47458000D02*
X24003000Y-47538000D01*
X23963000Y-47498000D02*
X24043000Y-47498000D01*
X24003000Y-47712000D02*
X24003000Y-47792000D01*
X23963000Y-47752000D02*
X24043000Y-47752000D01*
X47752000Y-55332000D02*
X47752000Y-55412000D01*
X47712000Y-55372000D02*
X47792000Y-55372000D01*
X48002000Y-55332000D02*
X48002000Y-55412000D01*
X47962000Y-55372000D02*
X48042000Y-55372000D01*
X12545356Y-54895356D02*
X12545356Y-54824644D01*
X12474644Y-54824644D01*
X12474644Y-54895356D01*
X12545356Y-54895356D01*
X12799356Y-54895356D02*
X12799356Y-54824644D01*
X12728644Y-54824644D01*
X12728644Y-54895356D01*
X12799356Y-54895356D01*
X13053356Y-54895356D02*
X13053356Y-54824644D01*
X12982644Y-54824644D01*
X12982644Y-54895356D01*
X13053356Y-54895356D01*
X13307356Y-54895356D02*
X13307356Y-54824644D01*
X13236644Y-54824644D01*
X13236644Y-54895356D01*
X13307356Y-54895356D01*
X13561356Y-54895356D02*
X13561356Y-54824644D01*
X13490644Y-54824644D01*
X13490644Y-54895356D01*
X13561356Y-54895356D01*
X13815356Y-54895356D02*
X13815356Y-54824644D01*
X13744644Y-54824644D01*
X13744644Y-54895356D01*
X13815356Y-54895356D01*
X32102856Y-55661356D02*
X32102856Y-55590644D01*
X32032144Y-55590644D01*
X32032144Y-55661356D01*
X32102856Y-55661356D01*
X31594856Y-55661356D02*
X31594856Y-55590644D01*
X31524144Y-55590644D01*
X31524144Y-55661356D01*
X31594856Y-55661356D01*
X50073356Y-47406356D02*
X50073356Y-47335644D01*
X50002644Y-47335644D01*
X50002644Y-47406356D01*
X50073356Y-47406356D01*
X50073356Y-47660356D02*
X50073356Y-47589644D01*
X50002644Y-47589644D01*
X50002644Y-47660356D01*
X50073356Y-47660356D01*
X31086856Y-55661356D02*
X31086856Y-55590644D01*
X31016144Y-55590644D01*
X31016144Y-55661356D01*
X31086856Y-55661356D01*
X49882856Y-55280356D02*
X49882856Y-55209644D01*
X49812144Y-55209644D01*
X49812144Y-55280356D01*
X49882856Y-55280356D01*
X49882856Y-55534356D02*
X49882856Y-55463644D01*
X49812144Y-55463644D01*
X49812144Y-55534356D01*
X49882856Y-55534356D01*
X32610856Y-55661356D02*
X32610856Y-55590644D01*
X32540144Y-55590644D01*
X32540144Y-55661356D01*
X32610856Y-55661356D01*
X45847000Y-55427000D02*
X45902000Y-55372000D01*
X45847000Y-55317000D01*
X45792000Y-55372000D01*
X45847000Y-55427000D01*
X46101000Y-55427000D02*
X46156000Y-55372000D01*
X46101000Y-55317000D01*
X46046000Y-55372000D01*
X46101000Y-55427000D01*
X46355000Y-55427000D02*
X46410000Y-55372000D01*
X46355000Y-55317000D01*
X46300000Y-55372000D01*
X46355000Y-55427000D01*
X24286960Y-49027500D02*
X24481960Y-49222500D01*
X24481960Y-49027500D02*
X24286960Y-49222500D01*
X24481960Y-49125000D02*
G75*
G03X24481960Y-49125000I-97500J0D01*
G01*
X24286960Y-50777500D02*
X24481960Y-50972500D01*
X24481960Y-50777500D02*
X24286960Y-50972500D01*
X24481960Y-50875000D02*
G75*
G03X24481960Y-50875000I-97500J0D01*
G01*
X24677620Y-48561920D02*
X24872620Y-48756920D01*
X24872620Y-48561920D02*
X24677620Y-48756920D01*
X24872620Y-48659420D02*
G75*
G03X24872620Y-48659420I-97500J0D01*
G01*
X24677620Y-51243080D02*
X24872620Y-51438080D01*
X24872620Y-51243080D02*
X24677620Y-51438080D01*
X24872620Y-51340580D02*
G75*
G03X24872620Y-51340580I-97500J0D01*
G01*
X25203960Y-48258040D02*
X25398960Y-48453040D01*
X25398960Y-48258040D02*
X25203960Y-48453040D01*
X25398960Y-48355540D02*
G75*
G03X25398960Y-48355540I-97500J0D01*
G01*
X25203960Y-51546960D02*
X25398960Y-51741960D01*
X25398960Y-51546960D02*
X25203960Y-51741960D01*
X25398960Y-51644460D02*
G75*
G03X25398960Y-51644460I-97500J0D01*
G01*
X26927380Y-48561920D02*
X27122380Y-48756920D01*
X27122380Y-48561920D02*
X26927380Y-48756920D01*
X27122380Y-48659420D02*
G75*
G03X27122380Y-48659420I-97500J0D01*
G01*
X26927380Y-51243080D02*
X27122380Y-51438080D01*
X27122380Y-51243080D02*
X26927380Y-51438080D01*
X27122380Y-51340580D02*
G75*
G03X27122380Y-51340580I-97500J0D01*
G01*
X27318040Y-49027500D02*
X27513040Y-49222500D01*
X27513040Y-49027500D02*
X27318040Y-49222500D01*
X27513040Y-49125000D02*
G75*
G03X27513040Y-49125000I-97500J0D01*
G01*
X27318040Y-50777500D02*
X27513040Y-50972500D01*
X27513040Y-50777500D02*
X27318040Y-50972500D01*
X27513040Y-50875000D02*
G75*
G03X27513040Y-50875000I-97500J0D01*
G01*
X27525910Y-49598620D02*
X27720910Y-49793620D01*
X27720910Y-49598620D02*
X27525910Y-49793620D01*
X27720910Y-49696120D02*
G75*
G03X27720910Y-49696120I-97500J0D01*
G01*
X20743100Y-50110000D02*
X20938100Y-50305000D01*
X20938100Y-50110000D02*
X20743100Y-50305000D01*
X20938100Y-50207500D02*
G75*
G03X20938100Y-50207500I-97500J0D01*
G01*
X21102500Y-49487500D02*
X21297500Y-49682500D01*
X21297500Y-49487500D02*
X21102500Y-49682500D01*
X21297500Y-49585000D02*
G75*
G03X21297500Y-49585000I-97500J0D01*
G01*
X21461900Y-50110000D02*
X21656900Y-50305000D01*
X21656900Y-50110000D02*
X21461900Y-50305000D01*
X21656900Y-50207500D02*
G75*
G03X21656900Y-50207500I-97500J0D01*
G01*
X40186960Y-49027500D02*
X40381960Y-49222500D01*
X40381960Y-49027500D02*
X40186960Y-49222500D01*
X40381960Y-49125000D02*
G75*
G03X40381960Y-49125000I-97500J0D01*
G01*
X40186960Y-50777500D02*
X40381960Y-50972500D01*
X40381960Y-50777500D02*
X40186960Y-50972500D01*
X40381960Y-50875000D02*
G75*
G03X40381960Y-50875000I-97500J0D01*
G01*
X40577620Y-48561920D02*
X40772620Y-48756920D01*
X40772620Y-48561920D02*
X40577620Y-48756920D01*
X40772620Y-48659420D02*
G75*
G03X40772620Y-48659420I-97500J0D01*
G01*
X40577620Y-51243080D02*
X40772620Y-51438080D01*
X40772620Y-51243080D02*
X40577620Y-51438080D01*
X40772620Y-51340580D02*
G75*
G03X40772620Y-51340580I-97500J0D01*
G01*
X41103960Y-48258040D02*
X41298960Y-48453040D01*
X41298960Y-48258040D02*
X41103960Y-48453040D01*
X41298960Y-48355540D02*
G75*
G03X41298960Y-48355540I-97500J0D01*
G01*
X41103960Y-51546960D02*
X41298960Y-51741960D01*
X41298960Y-51546960D02*
X41103960Y-51741960D01*
X41298960Y-51644460D02*
G75*
G03X41298960Y-51644460I-97500J0D01*
G01*
X42827380Y-48561920D02*
X43022380Y-48756920D01*
X43022380Y-48561920D02*
X42827380Y-48756920D01*
X43022380Y-48659420D02*
G75*
G03X43022380Y-48659420I-97500J0D01*
G01*
X42827380Y-51243080D02*
X43022380Y-51438080D01*
X43022380Y-51243080D02*
X42827380Y-51438080D01*
X43022380Y-51340580D02*
G75*
G03X43022380Y-51340580I-97500J0D01*
G01*
X43218040Y-49027500D02*
X43413040Y-49222500D01*
X43413040Y-49027500D02*
X43218040Y-49222500D01*
X43413040Y-49125000D02*
G75*
G03X43413040Y-49125000I-97500J0D01*
G01*
X43218040Y-50777500D02*
X43413040Y-50972500D01*
X43413040Y-50777500D02*
X43218040Y-50972500D01*
X43413040Y-50875000D02*
G75*
G03X43413040Y-50875000I-97500J0D01*
G01*
X43425910Y-49598620D02*
X43620910Y-49793620D01*
X43620910Y-49598620D02*
X43425910Y-49793620D01*
X43620910Y-49696120D02*
G75*
G03X43620910Y-49696120I-97500J0D01*
G01*
X30786960Y-49027500D02*
X30981960Y-49222500D01*
X30981960Y-49027500D02*
X30786960Y-49222500D01*
X30981960Y-49125000D02*
G75*
G03X30981960Y-49125000I-97500J0D01*
G01*
X30786960Y-50777500D02*
X30981960Y-50972500D01*
X30981960Y-50777500D02*
X30786960Y-50972500D01*
X30981960Y-50875000D02*
G75*
G03X30981960Y-50875000I-97500J0D01*
G01*
X31177620Y-48561920D02*
X31372620Y-48756920D01*
X31372620Y-48561920D02*
X31177620Y-48756920D01*
X31372620Y-48659420D02*
G75*
G03X31372620Y-48659420I-97500J0D01*
G01*
X31177620Y-51243080D02*
X31372620Y-51438080D01*
X31372620Y-51243080D02*
X31177620Y-51438080D01*
X31372620Y-51340580D02*
G75*
G03X31372620Y-51340580I-97500J0D01*
G01*
X31703960Y-48258040D02*
X31898960Y-48453040D01*
X31898960Y-48258040D02*
X31703960Y-48453040D01*
X31898960Y-48355540D02*
G75*
G03X31898960Y-48355540I-97500J0D01*
G01*
X31703960Y-51546960D02*
X31898960Y-51741960D01*
X31898960Y-51546960D02*
X31703960Y-51741960D01*
X31898960Y-51644460D02*
G75*
G03X31898960Y-51644460I-97500J0D01*
G01*
X33427380Y-48561920D02*
X33622380Y-48756920D01*
X33622380Y-48561920D02*
X33427380Y-48756920D01*
X33622380Y-48659420D02*
G75*
G03X33622380Y-48659420I-97500J0D01*
G01*
X33427380Y-51243080D02*
X33622380Y-51438080D01*
X33622380Y-51243080D02*
X33427380Y-51438080D01*
X33622380Y-51340580D02*
G75*
G03X33622380Y-51340580I-97500J0D01*
G01*
X33818040Y-49027500D02*
X34013040Y-49222500D01*
X34013040Y-49027500D02*
X33818040Y-49222500D01*
X34013040Y-49125000D02*
G75*
G03X34013040Y-49125000I-97500J0D01*
G01*
X33818040Y-50777500D02*
X34013040Y-50972500D01*
X34013040Y-50777500D02*
X33818040Y-50972500D01*
X34013040Y-50875000D02*
G75*
G03X34013040Y-50875000I-97500J0D01*
G01*
X34025910Y-49598620D02*
X34220910Y-49793620D01*
X34220910Y-49598620D02*
X34025910Y-49793620D01*
X34220910Y-49696120D02*
G75*
G03X34220910Y-49696120I-97500J0D01*
G01*
X8386960Y-49027500D02*
X8581960Y-49222500D01*
X8581960Y-49027500D02*
X8386960Y-49222500D01*
X8581960Y-49125000D02*
G75*
G03X8581960Y-49125000I-97500J0D01*
G01*
X8386960Y-50777500D02*
X8581960Y-50972500D01*
X8581960Y-50777500D02*
X8386960Y-50972500D01*
X8581960Y-50875000D02*
G75*
G03X8581960Y-50875000I-97500J0D01*
G01*
X8777620Y-48561920D02*
X8972620Y-48756920D01*
X8972620Y-48561920D02*
X8777620Y-48756920D01*
X8972620Y-48659420D02*
G75*
G03X8972620Y-48659420I-97500J0D01*
G01*
X8777620Y-51243080D02*
X8972620Y-51438080D01*
X8972620Y-51243080D02*
X8777620Y-51438080D01*
X8972620Y-51340580D02*
G75*
G03X8972620Y-51340580I-97500J0D01*
G01*
X9303960Y-48258040D02*
X9498960Y-48453040D01*
X9498960Y-48258040D02*
X9303960Y-48453040D01*
X9498960Y-48355540D02*
G75*
G03X9498960Y-48355540I-97500J0D01*
G01*
X9303960Y-51546960D02*
X9498960Y-51741960D01*
X9498960Y-51546960D02*
X9303960Y-51741960D01*
X9498960Y-51644460D02*
G75*
G03X9498960Y-51644460I-97500J0D01*
G01*
X11027380Y-48561920D02*
X11222380Y-48756920D01*
X11222380Y-48561920D02*
X11027380Y-48756920D01*
X11222380Y-48659420D02*
G75*
G03X11222380Y-48659420I-97500J0D01*
G01*
X11027380Y-51243080D02*
X11222380Y-51438080D01*
X11222380Y-51243080D02*
X11027380Y-51438080D01*
X11222380Y-51340580D02*
G75*
G03X11222380Y-51340580I-97500J0D01*
G01*
X11418040Y-49027500D02*
X11613040Y-49222500D01*
X11613040Y-49027500D02*
X11418040Y-49222500D01*
X11613040Y-49125000D02*
G75*
G03X11613040Y-49125000I-97500J0D01*
G01*
X11418040Y-50777500D02*
X11613040Y-50972500D01*
X11613040Y-50777500D02*
X11418040Y-50972500D01*
X11613040Y-50875000D02*
G75*
G03X11613040Y-50875000I-97500J0D01*
G01*
X11625910Y-49598620D02*
X11820910Y-49793620D01*
X11820910Y-49598620D02*
X11625910Y-49793620D01*
X11820910Y-49696120D02*
G75*
G03X11820910Y-49696120I-97500J0D01*
G01*
X46686960Y-49027500D02*
X46881960Y-49222500D01*
X46881960Y-49027500D02*
X46686960Y-49222500D01*
X46881960Y-49125000D02*
G75*
G03X46881960Y-49125000I-97500J0D01*
G01*
X46686960Y-50777500D02*
X46881960Y-50972500D01*
X46881960Y-50777500D02*
X46686960Y-50972500D01*
X46881960Y-50875000D02*
G75*
G03X46881960Y-50875000I-97500J0D01*
G01*
X47077620Y-48561920D02*
X47272620Y-48756920D01*
X47272620Y-48561920D02*
X47077620Y-48756920D01*
X47272620Y-48659420D02*
G75*
G03X47272620Y-48659420I-97500J0D01*
G01*
X47077620Y-51243080D02*
X47272620Y-51438080D01*
X47272620Y-51243080D02*
X47077620Y-51438080D01*
X47272620Y-51340580D02*
G75*
G03X47272620Y-51340580I-97500J0D01*
G01*
X47603960Y-48258040D02*
X47798960Y-48453040D01*
X47798960Y-48258040D02*
X47603960Y-48453040D01*
X47798960Y-48355540D02*
G75*
G03X47798960Y-48355540I-97500J0D01*
G01*
X47603960Y-51546960D02*
X47798960Y-51741960D01*
X47798960Y-51546960D02*
X47603960Y-51741960D01*
X47798960Y-51644460D02*
G75*
G03X47798960Y-51644460I-97500J0D01*
G01*
X49327380Y-48561920D02*
X49522380Y-48756920D01*
X49522380Y-48561920D02*
X49327380Y-48756920D01*
X49522380Y-48659420D02*
G75*
G03X49522380Y-48659420I-97500J0D01*
G01*
X49327380Y-51243080D02*
X49522380Y-51438080D01*
X49522380Y-51243080D02*
X49327380Y-51438080D01*
X49522380Y-51340580D02*
G75*
G03X49522380Y-51340580I-97500J0D01*
G01*
X49718040Y-49027500D02*
X49913040Y-49222500D01*
X49913040Y-49027500D02*
X49718040Y-49222500D01*
X49913040Y-49125000D02*
G75*
G03X49913040Y-49125000I-97500J0D01*
G01*
X49718040Y-50777500D02*
X49913040Y-50972500D01*
X49913040Y-50777500D02*
X49718040Y-50972500D01*
X49913040Y-50875000D02*
G75*
G03X49913040Y-50875000I-97500J0D01*
G01*
X49925910Y-49598620D02*
X50120910Y-49793620D01*
X50120910Y-49598620D02*
X49925910Y-49793620D01*
X50120910Y-49696120D02*
G75*
G03X50120910Y-49696120I-97500J0D01*
G01*
X36643100Y-50110000D02*
X36838100Y-50305000D01*
X36838100Y-50110000D02*
X36643100Y-50305000D01*
X36838100Y-50207500D02*
G75*
G03X36838100Y-50207500I-97500J0D01*
G01*
X37002500Y-49487500D02*
X37197500Y-49682500D01*
X37197500Y-49487500D02*
X37002500Y-49682500D01*
X37197500Y-49585000D02*
G75*
G03X37197500Y-49585000I-97500J0D01*
G01*
X37361900Y-50110000D02*
X37556900Y-50305000D01*
X37556900Y-50110000D02*
X37361900Y-50305000D01*
X37556900Y-50207500D02*
G75*
G03X37556900Y-50207500I-97500J0D01*
G01*
X14886960Y-49027500D02*
X15081960Y-49222500D01*
X15081960Y-49027500D02*
X14886960Y-49222500D01*
X15081960Y-49125000D02*
G75*
G03X15081960Y-49125000I-97500J0D01*
G01*
X14886960Y-50777500D02*
X15081960Y-50972500D01*
X15081960Y-50777500D02*
X14886960Y-50972500D01*
X15081960Y-50875000D02*
G75*
G03X15081960Y-50875000I-97500J0D01*
G01*
X15277620Y-48561920D02*
X15472620Y-48756920D01*
X15472620Y-48561920D02*
X15277620Y-48756920D01*
X15472620Y-48659420D02*
G75*
G03X15472620Y-48659420I-97500J0D01*
G01*
X15277620Y-51243080D02*
X15472620Y-51438080D01*
X15472620Y-51243080D02*
X15277620Y-51438080D01*
X15472620Y-51340580D02*
G75*
G03X15472620Y-51340580I-97500J0D01*
G01*
X15803960Y-48258040D02*
X15998960Y-48453040D01*
X15998960Y-48258040D02*
X15803960Y-48453040D01*
X15998960Y-48355540D02*
G75*
G03X15998960Y-48355540I-97500J0D01*
G01*
X15803960Y-51546960D02*
X15998960Y-51741960D01*
X15998960Y-51546960D02*
X15803960Y-51741960D01*
X15998960Y-51644460D02*
G75*
G03X15998960Y-51644460I-97500J0D01*
G01*
X17527380Y-48561920D02*
X17722380Y-48756920D01*
X17722380Y-48561920D02*
X17527380Y-48756920D01*
X17722380Y-48659420D02*
G75*
G03X17722380Y-48659420I-97500J0D01*
G01*
X17527380Y-51243080D02*
X17722380Y-51438080D01*
X17722380Y-51243080D02*
X17527380Y-51438080D01*
X17722380Y-51340580D02*
G75*
G03X17722380Y-51340580I-97500J0D01*
G01*
X17918040Y-49027500D02*
X18113040Y-49222500D01*
X18113040Y-49027500D02*
X17918040Y-49222500D01*
X18113040Y-49125000D02*
G75*
G03X18113040Y-49125000I-97500J0D01*
G01*
X17918040Y-50777500D02*
X18113040Y-50972500D01*
X18113040Y-50777500D02*
X17918040Y-50972500D01*
X18113040Y-50875000D02*
G75*
G03X18113040Y-50875000I-97500J0D01*
G01*
X18125910Y-49598620D02*
X18320910Y-49793620D01*
X18320910Y-49598620D02*
X18125910Y-49793620D01*
X18320910Y-49696120D02*
G75*
G03X18320910Y-49696120I-97500J0D01*
G01*
D12*
X6323428Y-56975714D02*
X6323428Y-56675714D01*
X6394857Y-56675714D01*
X6437714Y-56690000D01*
X6466286Y-56718571D01*
X6480571Y-56747143D01*
X6494857Y-56804286D01*
X6494857Y-56847143D01*
X6480571Y-56904286D01*
X6466286Y-56932857D01*
X6437714Y-56961429D01*
X6394857Y-56975714D01*
X6323428Y-56975714D01*
X6623428Y-56975714D02*
X6623428Y-56775714D01*
X6623428Y-56832857D02*
X6637714Y-56804286D01*
X6652000Y-56790000D01*
X6680571Y-56775714D01*
X6709143Y-56775714D01*
X6809143Y-56975714D02*
X6809143Y-56775714D01*
X6809143Y-56675714D02*
X6794857Y-56690000D01*
X6809143Y-56704286D01*
X6823428Y-56690000D01*
X6809143Y-56675714D01*
X6809143Y-56704286D01*
X6994857Y-56975714D02*
X6966286Y-56961429D01*
X6952000Y-56932857D01*
X6952000Y-56675714D01*
X7152000Y-56975714D02*
X7123428Y-56961429D01*
X7109143Y-56932857D01*
X7109143Y-56675714D01*
X7494857Y-56975714D02*
X7494857Y-56675714D01*
X7594857Y-56890000D01*
X7694857Y-56675714D01*
X7694857Y-56975714D01*
X7966286Y-56975714D02*
X7966286Y-56818571D01*
X7952000Y-56790000D01*
X7923428Y-56775714D01*
X7866286Y-56775714D01*
X7837714Y-56790000D01*
X7966286Y-56961429D02*
X7937714Y-56975714D01*
X7866286Y-56975714D01*
X7837714Y-56961429D01*
X7823428Y-56932857D01*
X7823428Y-56904286D01*
X7837714Y-56875714D01*
X7866286Y-56861429D01*
X7937714Y-56861429D01*
X7966286Y-56847143D01*
X8109143Y-56775714D02*
X8109143Y-57075714D01*
X8109143Y-56790000D02*
X8137714Y-56775714D01*
X8194857Y-56775714D01*
X8223428Y-56790000D01*
X8237714Y-56804286D01*
X8252000Y-56832857D01*
X8252000Y-56918571D01*
X8237714Y-56947143D01*
X8223428Y-56961429D01*
X8194857Y-56975714D01*
X8137714Y-56975714D01*
X8109143Y-56961429D01*
X8380571Y-56947143D02*
X8394857Y-56961429D01*
X8380571Y-56975714D01*
X8366286Y-56961429D01*
X8380571Y-56947143D01*
X8380571Y-56975714D01*
X8380571Y-56790000D02*
X8394857Y-56804286D01*
X8380571Y-56818571D01*
X8366286Y-56804286D01*
X8380571Y-56790000D01*
X8380571Y-56818571D01*
X5997000Y-57450000D02*
X6037000Y-57490000D01*
X6037000Y-57450000D02*
X5997000Y-57490000D01*
X6380571Y-57305714D02*
X6409143Y-57305714D01*
X6437714Y-57320000D01*
X6452000Y-57334286D01*
X6466286Y-57362857D01*
X6480571Y-57420000D01*
X6480571Y-57491429D01*
X6466286Y-57548571D01*
X6452000Y-57577143D01*
X6437714Y-57591429D01*
X6409143Y-57605714D01*
X6380571Y-57605714D01*
X6352000Y-57591429D01*
X6337714Y-57577143D01*
X6323428Y-57548571D01*
X6309143Y-57491429D01*
X6309143Y-57420000D01*
X6323428Y-57362857D01*
X6337714Y-57334286D01*
X6352000Y-57320000D01*
X6380571Y-57305714D01*
X6609143Y-57577143D02*
X6623428Y-57591429D01*
X6609143Y-57605714D01*
X6594857Y-57591429D01*
X6609143Y-57577143D01*
X6609143Y-57605714D01*
X6880571Y-57405714D02*
X6880571Y-57605714D01*
X6809143Y-57291429D02*
X6737714Y-57505714D01*
X6923428Y-57505714D01*
X7094857Y-57305714D02*
X7123428Y-57305714D01*
X7152000Y-57320000D01*
X7166286Y-57334286D01*
X7180571Y-57362857D01*
X7194857Y-57420000D01*
X7194857Y-57491429D01*
X7180571Y-57548571D01*
X7166286Y-57577143D01*
X7152000Y-57591429D01*
X7123428Y-57605714D01*
X7094857Y-57605714D01*
X7066286Y-57591429D01*
X7052000Y-57577143D01*
X7037714Y-57548571D01*
X7023428Y-57491429D01*
X7023428Y-57420000D01*
X7037714Y-57362857D01*
X7052000Y-57334286D01*
X7066286Y-57320000D01*
X7094857Y-57305714D01*
X7323428Y-57605714D02*
X7323428Y-57405714D01*
X7323428Y-57434286D02*
X7337714Y-57420000D01*
X7366286Y-57405714D01*
X7409143Y-57405714D01*
X7437714Y-57420000D01*
X7452000Y-57448571D01*
X7452000Y-57605714D01*
X7452000Y-57448571D02*
X7466286Y-57420000D01*
X7494857Y-57405714D01*
X7537714Y-57405714D01*
X7566286Y-57420000D01*
X7580571Y-57448571D01*
X7580571Y-57605714D01*
X7723428Y-57605714D02*
X7723428Y-57405714D01*
X7723428Y-57434286D02*
X7737714Y-57420000D01*
X7766286Y-57405714D01*
X7809143Y-57405714D01*
X7837714Y-57420000D01*
X7852000Y-57448571D01*
X7852000Y-57605714D01*
X7852000Y-57448571D02*
X7866286Y-57420000D01*
X7894857Y-57405714D01*
X7937714Y-57405714D01*
X7966286Y-57420000D01*
X7980571Y-57448571D01*
X7980571Y-57605714D01*
X8566286Y-57291429D02*
X8309143Y-57677143D01*
X8952000Y-57305714D02*
X8980571Y-57305714D01*
X9009143Y-57320000D01*
X9023428Y-57334286D01*
X9037714Y-57362857D01*
X9052000Y-57420000D01*
X9052000Y-57491429D01*
X9037714Y-57548571D01*
X9023428Y-57577143D01*
X9009143Y-57591429D01*
X8980571Y-57605714D01*
X8952000Y-57605714D01*
X8923428Y-57591429D01*
X8909143Y-57577143D01*
X8894857Y-57548571D01*
X8880571Y-57491429D01*
X8880571Y-57420000D01*
X8894857Y-57362857D01*
X8909143Y-57334286D01*
X8923428Y-57320000D01*
X8952000Y-57305714D01*
X9180571Y-57577143D02*
X9194857Y-57591429D01*
X9180571Y-57605714D01*
X9166286Y-57591429D01*
X9180571Y-57577143D01*
X9180571Y-57605714D01*
X9380571Y-57305714D02*
X9409143Y-57305714D01*
X9437714Y-57320000D01*
X9452000Y-57334286D01*
X9466286Y-57362857D01*
X9480571Y-57420000D01*
X9480571Y-57491429D01*
X9466286Y-57548571D01*
X9452000Y-57577143D01*
X9437714Y-57591429D01*
X9409143Y-57605714D01*
X9380571Y-57605714D01*
X9352000Y-57591429D01*
X9337714Y-57577143D01*
X9323428Y-57548571D01*
X9309143Y-57491429D01*
X9309143Y-57420000D01*
X9323428Y-57362857D01*
X9337714Y-57334286D01*
X9352000Y-57320000D01*
X9380571Y-57305714D01*
X9766286Y-57605714D02*
X9594857Y-57605714D01*
X9680571Y-57605714D02*
X9680571Y-57305714D01*
X9652000Y-57348571D01*
X9623428Y-57377143D01*
X9594857Y-57391429D01*
X10023428Y-57305714D02*
X9966286Y-57305714D01*
X9937714Y-57320000D01*
X9923428Y-57334286D01*
X9894857Y-57377143D01*
X9880571Y-57434286D01*
X9880571Y-57548571D01*
X9894857Y-57577143D01*
X9909143Y-57591429D01*
X9937714Y-57605714D01*
X9994857Y-57605714D01*
X10023428Y-57591429D01*
X10037714Y-57577143D01*
X10052000Y-57548571D01*
X10052000Y-57477143D01*
X10037714Y-57448571D01*
X10023428Y-57434286D01*
X9994857Y-57420000D01*
X9937714Y-57420000D01*
X9909143Y-57434286D01*
X9894857Y-57448571D01*
X9880571Y-57477143D01*
X10166286Y-57305714D02*
X10166286Y-57362857D01*
X10280571Y-57305714D02*
X10280571Y-57362857D01*
X10723428Y-57720000D02*
X10709143Y-57705714D01*
X10680571Y-57662857D01*
X10666286Y-57634286D01*
X10652000Y-57591429D01*
X10637714Y-57520000D01*
X10637714Y-57462857D01*
X10652000Y-57391429D01*
X10666286Y-57348571D01*
X10680571Y-57320000D01*
X10709143Y-57277143D01*
X10723428Y-57262857D01*
X10994857Y-57605714D02*
X10823428Y-57605714D01*
X10909143Y-57605714D02*
X10909143Y-57305714D01*
X10880571Y-57348571D01*
X10852000Y-57377143D01*
X10823428Y-57391429D01*
X11252000Y-57305714D02*
X11194857Y-57305714D01*
X11166286Y-57320000D01*
X11152000Y-57334286D01*
X11123428Y-57377143D01*
X11109143Y-57434286D01*
X11109143Y-57548571D01*
X11123428Y-57577143D01*
X11137714Y-57591429D01*
X11166286Y-57605714D01*
X11223428Y-57605714D01*
X11252000Y-57591429D01*
X11266286Y-57577143D01*
X11280571Y-57548571D01*
X11280571Y-57477143D01*
X11266286Y-57448571D01*
X11252000Y-57434286D01*
X11223428Y-57420000D01*
X11166286Y-57420000D01*
X11137714Y-57434286D01*
X11123428Y-57448571D01*
X11109143Y-57477143D01*
X11466286Y-57305714D02*
X11494857Y-57305714D01*
X11523428Y-57320000D01*
X11537714Y-57334286D01*
X11552000Y-57362857D01*
X11566286Y-57420000D01*
X11566286Y-57491429D01*
X11552000Y-57548571D01*
X11537714Y-57577143D01*
X11523428Y-57591429D01*
X11494857Y-57605714D01*
X11466286Y-57605714D01*
X11437714Y-57591429D01*
X11423428Y-57577143D01*
X11409143Y-57548571D01*
X11394857Y-57491429D01*
X11394857Y-57420000D01*
X11409143Y-57362857D01*
X11423428Y-57334286D01*
X11437714Y-57320000D01*
X11466286Y-57305714D01*
X11923428Y-57605714D02*
X11923428Y-57305714D01*
X12052000Y-57605714D02*
X12052000Y-57448571D01*
X12037714Y-57420000D01*
X12009143Y-57405714D01*
X11966286Y-57405714D01*
X11937714Y-57420000D01*
X11923428Y-57434286D01*
X12237714Y-57605714D02*
X12209143Y-57591429D01*
X12194857Y-57577143D01*
X12180571Y-57548571D01*
X12180571Y-57462857D01*
X12194857Y-57434286D01*
X12209143Y-57420000D01*
X12237714Y-57405714D01*
X12280571Y-57405714D01*
X12309143Y-57420000D01*
X12323428Y-57434286D01*
X12337714Y-57462857D01*
X12337714Y-57548571D01*
X12323428Y-57577143D01*
X12309143Y-57591429D01*
X12280571Y-57605714D01*
X12237714Y-57605714D01*
X12509143Y-57605714D02*
X12480571Y-57591429D01*
X12466286Y-57562857D01*
X12466286Y-57305714D01*
X12737714Y-57591429D02*
X12709143Y-57605714D01*
X12652000Y-57605714D01*
X12623428Y-57591429D01*
X12609143Y-57562857D01*
X12609143Y-57448571D01*
X12623428Y-57420000D01*
X12652000Y-57405714D01*
X12709143Y-57405714D01*
X12737714Y-57420000D01*
X12752000Y-57448571D01*
X12752000Y-57477143D01*
X12609143Y-57505714D01*
X12866286Y-57591429D02*
X12894857Y-57605714D01*
X12952000Y-57605714D01*
X12980571Y-57591429D01*
X12994857Y-57562857D01*
X12994857Y-57548571D01*
X12980571Y-57520000D01*
X12952000Y-57505714D01*
X12909143Y-57505714D01*
X12880571Y-57491429D01*
X12866286Y-57462857D01*
X12866286Y-57448571D01*
X12880571Y-57420000D01*
X12909143Y-57405714D01*
X12952000Y-57405714D01*
X12980571Y-57420000D01*
X13094857Y-57720000D02*
X13109143Y-57705714D01*
X13137714Y-57662857D01*
X13152000Y-57634286D01*
X13166286Y-57591429D01*
X13180571Y-57520000D01*
X13180571Y-57462857D01*
X13166286Y-57391429D01*
X13152000Y-57348571D01*
X13137714Y-57320000D01*
X13109143Y-57277143D01*
X13094857Y-57262857D01*
X6037000Y-57866000D02*
G75*
G03X6037000Y-57866000I-37500J0D01*
G01*
X6380571Y-57701714D02*
X6409143Y-57701714D01*
X6437714Y-57716000D01*
X6452000Y-57730286D01*
X6466286Y-57758857D01*
X6480571Y-57816000D01*
X6480571Y-57887429D01*
X6466286Y-57944571D01*
X6452000Y-57973143D01*
X6437714Y-57987429D01*
X6409143Y-58001714D01*
X6380571Y-58001714D01*
X6352000Y-57987429D01*
X6337714Y-57973143D01*
X6323428Y-57944571D01*
X6309143Y-57887429D01*
X6309143Y-57816000D01*
X6323428Y-57758857D01*
X6337714Y-57730286D01*
X6352000Y-57716000D01*
X6380571Y-57701714D01*
X6609143Y-57973143D02*
X6623428Y-57987429D01*
X6609143Y-58001714D01*
X6594857Y-57987429D01*
X6609143Y-57973143D01*
X6609143Y-58001714D01*
X6723428Y-57701714D02*
X6923428Y-57701714D01*
X6794857Y-58001714D01*
X7180571Y-57701714D02*
X7037714Y-57701714D01*
X7023428Y-57844571D01*
X7037714Y-57830286D01*
X7066286Y-57816000D01*
X7137714Y-57816000D01*
X7166286Y-57830286D01*
X7180571Y-57844571D01*
X7194857Y-57873143D01*
X7194857Y-57944571D01*
X7180571Y-57973143D01*
X7166286Y-57987429D01*
X7137714Y-58001714D01*
X7066286Y-58001714D01*
X7037714Y-57987429D01*
X7023428Y-57973143D01*
X7323428Y-58001714D02*
X7323428Y-57801714D01*
X7323428Y-57830286D02*
X7337714Y-57816000D01*
X7366286Y-57801714D01*
X7409143Y-57801714D01*
X7437714Y-57816000D01*
X7452000Y-57844571D01*
X7452000Y-58001714D01*
X7452000Y-57844571D02*
X7466286Y-57816000D01*
X7494857Y-57801714D01*
X7537714Y-57801714D01*
X7566286Y-57816000D01*
X7580571Y-57844571D01*
X7580571Y-58001714D01*
X7723428Y-58001714D02*
X7723428Y-57801714D01*
X7723428Y-57830286D02*
X7737714Y-57816000D01*
X7766286Y-57801714D01*
X7809143Y-57801714D01*
X7837714Y-57816000D01*
X7852000Y-57844571D01*
X7852000Y-58001714D01*
X7852000Y-57844571D02*
X7866286Y-57816000D01*
X7894857Y-57801714D01*
X7937714Y-57801714D01*
X7966286Y-57816000D01*
X7980571Y-57844571D01*
X7980571Y-58001714D01*
X8566286Y-57687429D02*
X8309143Y-58073143D01*
X8952000Y-57701714D02*
X8980571Y-57701714D01*
X9009143Y-57716000D01*
X9023428Y-57730286D01*
X9037714Y-57758857D01*
X9052000Y-57816000D01*
X9052000Y-57887429D01*
X9037714Y-57944571D01*
X9023428Y-57973143D01*
X9009143Y-57987429D01*
X8980571Y-58001714D01*
X8952000Y-58001714D01*
X8923428Y-57987429D01*
X8909143Y-57973143D01*
X8894857Y-57944571D01*
X8880571Y-57887429D01*
X8880571Y-57816000D01*
X8894857Y-57758857D01*
X8909143Y-57730286D01*
X8923428Y-57716000D01*
X8952000Y-57701714D01*
X9180571Y-57973143D02*
X9194857Y-57987429D01*
X9180571Y-58001714D01*
X9166286Y-57987429D01*
X9180571Y-57973143D01*
X9180571Y-58001714D01*
X9380571Y-57701714D02*
X9409143Y-57701714D01*
X9437714Y-57716000D01*
X9452000Y-57730286D01*
X9466286Y-57758857D01*
X9480571Y-57816000D01*
X9480571Y-57887429D01*
X9466286Y-57944571D01*
X9452000Y-57973143D01*
X9437714Y-57987429D01*
X9409143Y-58001714D01*
X9380571Y-58001714D01*
X9352000Y-57987429D01*
X9337714Y-57973143D01*
X9323428Y-57944571D01*
X9309143Y-57887429D01*
X9309143Y-57816000D01*
X9323428Y-57758857D01*
X9337714Y-57730286D01*
X9352000Y-57716000D01*
X9380571Y-57701714D01*
X9580571Y-57701714D02*
X9766286Y-57701714D01*
X9666286Y-57816000D01*
X9709143Y-57816000D01*
X9737714Y-57830286D01*
X9752000Y-57844571D01*
X9766286Y-57873143D01*
X9766286Y-57944571D01*
X9752000Y-57973143D01*
X9737714Y-57987429D01*
X9709143Y-58001714D01*
X9623428Y-58001714D01*
X9594857Y-57987429D01*
X9580571Y-57973143D01*
X9952000Y-57701714D02*
X9980571Y-57701714D01*
X10009143Y-57716000D01*
X10023428Y-57730286D01*
X10037714Y-57758857D01*
X10052000Y-57816000D01*
X10052000Y-57887429D01*
X10037714Y-57944571D01*
X10023428Y-57973143D01*
X10009143Y-57987429D01*
X9980571Y-58001714D01*
X9952000Y-58001714D01*
X9923428Y-57987429D01*
X9909143Y-57973143D01*
X9894857Y-57944571D01*
X9880571Y-57887429D01*
X9880571Y-57816000D01*
X9894857Y-57758857D01*
X9909143Y-57730286D01*
X9923428Y-57716000D01*
X9952000Y-57701714D01*
X10166286Y-57701714D02*
X10166286Y-57758857D01*
X10280571Y-57701714D02*
X10280571Y-57758857D01*
X10723428Y-58116000D02*
X10709143Y-58101714D01*
X10680571Y-58058857D01*
X10666286Y-58030286D01*
X10652000Y-57987429D01*
X10637714Y-57916000D01*
X10637714Y-57858857D01*
X10652000Y-57787429D01*
X10666286Y-57744571D01*
X10680571Y-57716000D01*
X10709143Y-57673143D01*
X10723428Y-57658857D01*
X10994857Y-58001714D02*
X10823428Y-58001714D01*
X10909143Y-58001714D02*
X10909143Y-57701714D01*
X10880571Y-57744571D01*
X10852000Y-57773143D01*
X10823428Y-57787429D01*
X11109143Y-57730286D02*
X11123428Y-57716000D01*
X11152000Y-57701714D01*
X11223428Y-57701714D01*
X11252000Y-57716000D01*
X11266286Y-57730286D01*
X11280571Y-57758857D01*
X11280571Y-57787429D01*
X11266286Y-57830286D01*
X11094857Y-58001714D01*
X11280571Y-58001714D01*
X11637714Y-58001714D02*
X11637714Y-57701714D01*
X11766286Y-58001714D02*
X11766286Y-57844571D01*
X11752000Y-57816000D01*
X11723428Y-57801714D01*
X11680571Y-57801714D01*
X11652000Y-57816000D01*
X11637714Y-57830286D01*
X11952000Y-58001714D02*
X11923428Y-57987429D01*
X11909143Y-57973143D01*
X11894857Y-57944571D01*
X11894857Y-57858857D01*
X11909143Y-57830286D01*
X11923428Y-57816000D01*
X11952000Y-57801714D01*
X11994857Y-57801714D01*
X12023428Y-57816000D01*
X12037714Y-57830286D01*
X12052000Y-57858857D01*
X12052000Y-57944571D01*
X12037714Y-57973143D01*
X12023428Y-57987429D01*
X11994857Y-58001714D01*
X11952000Y-58001714D01*
X12223428Y-58001714D02*
X12194857Y-57987429D01*
X12180571Y-57958857D01*
X12180571Y-57701714D01*
X12452000Y-57987429D02*
X12423428Y-58001714D01*
X12366286Y-58001714D01*
X12337714Y-57987429D01*
X12323428Y-57958857D01*
X12323428Y-57844571D01*
X12337714Y-57816000D01*
X12366286Y-57801714D01*
X12423428Y-57801714D01*
X12452000Y-57816000D01*
X12466286Y-57844571D01*
X12466286Y-57873143D01*
X12323428Y-57901714D01*
X12580571Y-57987429D02*
X12609143Y-58001714D01*
X12666286Y-58001714D01*
X12694857Y-57987429D01*
X12709143Y-57958857D01*
X12709143Y-57944571D01*
X12694857Y-57916000D01*
X12666286Y-57901714D01*
X12623428Y-57901714D01*
X12594857Y-57887429D01*
X12580571Y-57858857D01*
X12580571Y-57844571D01*
X12594857Y-57816000D01*
X12623428Y-57801714D01*
X12666286Y-57801714D01*
X12694857Y-57816000D01*
X12809143Y-58116000D02*
X12823428Y-58101714D01*
X12852000Y-58058857D01*
X12866286Y-58030286D01*
X12880571Y-57987429D01*
X12894857Y-57916000D01*
X12894857Y-57858857D01*
X12880571Y-57787429D01*
X12866286Y-57744571D01*
X12852000Y-57716000D01*
X12823428Y-57673143D01*
X12809143Y-57658857D01*
X5997000Y-58222000D02*
X5997000Y-58302000D01*
X5957000Y-58262000D02*
X6037000Y-58262000D01*
X6380571Y-58097714D02*
X6409143Y-58097714D01*
X6437714Y-58112000D01*
X6452000Y-58126286D01*
X6466286Y-58154857D01*
X6480571Y-58212000D01*
X6480571Y-58283429D01*
X6466286Y-58340571D01*
X6452000Y-58369143D01*
X6437714Y-58383429D01*
X6409143Y-58397714D01*
X6380571Y-58397714D01*
X6352000Y-58383429D01*
X6337714Y-58369143D01*
X6323428Y-58340571D01*
X6309143Y-58283429D01*
X6309143Y-58212000D01*
X6323428Y-58154857D01*
X6337714Y-58126286D01*
X6352000Y-58112000D01*
X6380571Y-58097714D01*
X6609143Y-58369143D02*
X6623428Y-58383429D01*
X6609143Y-58397714D01*
X6594857Y-58383429D01*
X6609143Y-58369143D01*
X6609143Y-58397714D01*
X6794857Y-58226286D02*
X6766286Y-58212000D01*
X6752000Y-58197714D01*
X6737714Y-58169143D01*
X6737714Y-58154857D01*
X6752000Y-58126286D01*
X6766286Y-58112000D01*
X6794857Y-58097714D01*
X6852000Y-58097714D01*
X6880571Y-58112000D01*
X6894857Y-58126286D01*
X6909143Y-58154857D01*
X6909143Y-58169143D01*
X6894857Y-58197714D01*
X6880571Y-58212000D01*
X6852000Y-58226286D01*
X6794857Y-58226286D01*
X6766286Y-58240571D01*
X6752000Y-58254857D01*
X6737714Y-58283429D01*
X6737714Y-58340571D01*
X6752000Y-58369143D01*
X6766286Y-58383429D01*
X6794857Y-58397714D01*
X6852000Y-58397714D01*
X6880571Y-58383429D01*
X6894857Y-58369143D01*
X6909143Y-58340571D01*
X6909143Y-58283429D01*
X6894857Y-58254857D01*
X6880571Y-58240571D01*
X6852000Y-58226286D01*
X7094857Y-58097714D02*
X7123428Y-58097714D01*
X7152000Y-58112000D01*
X7166286Y-58126286D01*
X7180571Y-58154857D01*
X7194857Y-58212000D01*
X7194857Y-58283429D01*
X7180571Y-58340571D01*
X7166286Y-58369143D01*
X7152000Y-58383429D01*
X7123428Y-58397714D01*
X7094857Y-58397714D01*
X7066286Y-58383429D01*
X7052000Y-58369143D01*
X7037714Y-58340571D01*
X7023428Y-58283429D01*
X7023428Y-58212000D01*
X7037714Y-58154857D01*
X7052000Y-58126286D01*
X7066286Y-58112000D01*
X7094857Y-58097714D01*
X7323428Y-58397714D02*
X7323428Y-58197714D01*
X7323428Y-58226286D02*
X7337714Y-58212000D01*
X7366286Y-58197714D01*
X7409143Y-58197714D01*
X7437714Y-58212000D01*
X7452000Y-58240571D01*
X7452000Y-58397714D01*
X7452000Y-58240571D02*
X7466286Y-58212000D01*
X7494857Y-58197714D01*
X7537714Y-58197714D01*
X7566286Y-58212000D01*
X7580571Y-58240571D01*
X7580571Y-58397714D01*
X7723428Y-58397714D02*
X7723428Y-58197714D01*
X7723428Y-58226286D02*
X7737714Y-58212000D01*
X7766286Y-58197714D01*
X7809143Y-58197714D01*
X7837714Y-58212000D01*
X7852000Y-58240571D01*
X7852000Y-58397714D01*
X7852000Y-58240571D02*
X7866286Y-58212000D01*
X7894857Y-58197714D01*
X7937714Y-58197714D01*
X7966286Y-58212000D01*
X7980571Y-58240571D01*
X7980571Y-58397714D01*
X8566286Y-58083429D02*
X8309143Y-58469143D01*
X8952000Y-58097714D02*
X8980571Y-58097714D01*
X9009143Y-58112000D01*
X9023428Y-58126286D01*
X9037714Y-58154857D01*
X9052000Y-58212000D01*
X9052000Y-58283429D01*
X9037714Y-58340571D01*
X9023428Y-58369143D01*
X9009143Y-58383429D01*
X8980571Y-58397714D01*
X8952000Y-58397714D01*
X8923428Y-58383429D01*
X8909143Y-58369143D01*
X8894857Y-58340571D01*
X8880571Y-58283429D01*
X8880571Y-58212000D01*
X8894857Y-58154857D01*
X8909143Y-58126286D01*
X8923428Y-58112000D01*
X8952000Y-58097714D01*
X9180571Y-58369143D02*
X9194857Y-58383429D01*
X9180571Y-58397714D01*
X9166286Y-58383429D01*
X9180571Y-58369143D01*
X9180571Y-58397714D01*
X9380571Y-58097714D02*
X9409143Y-58097714D01*
X9437714Y-58112000D01*
X9452000Y-58126286D01*
X9466286Y-58154857D01*
X9480571Y-58212000D01*
X9480571Y-58283429D01*
X9466286Y-58340571D01*
X9452000Y-58369143D01*
X9437714Y-58383429D01*
X9409143Y-58397714D01*
X9380571Y-58397714D01*
X9352000Y-58383429D01*
X9337714Y-58369143D01*
X9323428Y-58340571D01*
X9309143Y-58283429D01*
X9309143Y-58212000D01*
X9323428Y-58154857D01*
X9337714Y-58126286D01*
X9352000Y-58112000D01*
X9380571Y-58097714D01*
X9580571Y-58097714D02*
X9766286Y-58097714D01*
X9666286Y-58212000D01*
X9709143Y-58212000D01*
X9737714Y-58226286D01*
X9752000Y-58240571D01*
X9766286Y-58269143D01*
X9766286Y-58340571D01*
X9752000Y-58369143D01*
X9737714Y-58383429D01*
X9709143Y-58397714D01*
X9623428Y-58397714D01*
X9594857Y-58383429D01*
X9580571Y-58369143D01*
X10052000Y-58397714D02*
X9880571Y-58397714D01*
X9966286Y-58397714D02*
X9966286Y-58097714D01*
X9937714Y-58140571D01*
X9909143Y-58169143D01*
X9880571Y-58183429D01*
X10166286Y-58097714D02*
X10166286Y-58154857D01*
X10280571Y-58097714D02*
X10280571Y-58154857D01*
X10723428Y-58512000D02*
X10709143Y-58497714D01*
X10680571Y-58454857D01*
X10666286Y-58426286D01*
X10652000Y-58383429D01*
X10637714Y-58312000D01*
X10637714Y-58254857D01*
X10652000Y-58183429D01*
X10666286Y-58140571D01*
X10680571Y-58112000D01*
X10709143Y-58069143D01*
X10723428Y-58054857D01*
X10823428Y-58126286D02*
X10837714Y-58112000D01*
X10866286Y-58097714D01*
X10937714Y-58097714D01*
X10966286Y-58112000D01*
X10980571Y-58126286D01*
X10994857Y-58154857D01*
X10994857Y-58183429D01*
X10980571Y-58226286D01*
X10809143Y-58397714D01*
X10994857Y-58397714D01*
X11252000Y-58197714D02*
X11252000Y-58397714D01*
X11180571Y-58083429D02*
X11109143Y-58297714D01*
X11294857Y-58297714D01*
X11466286Y-58097714D02*
X11494857Y-58097714D01*
X11523428Y-58112000D01*
X11537714Y-58126286D01*
X11552000Y-58154857D01*
X11566286Y-58212000D01*
X11566286Y-58283429D01*
X11552000Y-58340571D01*
X11537714Y-58369143D01*
X11523428Y-58383429D01*
X11494857Y-58397714D01*
X11466286Y-58397714D01*
X11437714Y-58383429D01*
X11423428Y-58369143D01*
X11409143Y-58340571D01*
X11394857Y-58283429D01*
X11394857Y-58212000D01*
X11409143Y-58154857D01*
X11423428Y-58126286D01*
X11437714Y-58112000D01*
X11466286Y-58097714D01*
X11923428Y-58397714D02*
X11923428Y-58097714D01*
X12052000Y-58397714D02*
X12052000Y-58240571D01*
X12037714Y-58212000D01*
X12009143Y-58197714D01*
X11966286Y-58197714D01*
X11937714Y-58212000D01*
X11923428Y-58226286D01*
X12237714Y-58397714D02*
X12209143Y-58383429D01*
X12194857Y-58369143D01*
X12180571Y-58340571D01*
X12180571Y-58254857D01*
X12194857Y-58226286D01*
X12209143Y-58212000D01*
X12237714Y-58197714D01*
X12280571Y-58197714D01*
X12309143Y-58212000D01*
X12323428Y-58226286D01*
X12337714Y-58254857D01*
X12337714Y-58340571D01*
X12323428Y-58369143D01*
X12309143Y-58383429D01*
X12280571Y-58397714D01*
X12237714Y-58397714D01*
X12509143Y-58397714D02*
X12480571Y-58383429D01*
X12466286Y-58354857D01*
X12466286Y-58097714D01*
X12737714Y-58383429D02*
X12709143Y-58397714D01*
X12652000Y-58397714D01*
X12623428Y-58383429D01*
X12609143Y-58354857D01*
X12609143Y-58240571D01*
X12623428Y-58212000D01*
X12652000Y-58197714D01*
X12709143Y-58197714D01*
X12737714Y-58212000D01*
X12752000Y-58240571D01*
X12752000Y-58269143D01*
X12609143Y-58297714D01*
X12866286Y-58383429D02*
X12894857Y-58397714D01*
X12952000Y-58397714D01*
X12980571Y-58383429D01*
X12994857Y-58354857D01*
X12994857Y-58340571D01*
X12980571Y-58312000D01*
X12952000Y-58297714D01*
X12909143Y-58297714D01*
X12880571Y-58283429D01*
X12866286Y-58254857D01*
X12866286Y-58240571D01*
X12880571Y-58212000D01*
X12909143Y-58197714D01*
X12952000Y-58197714D01*
X12980571Y-58212000D01*
X13094857Y-58512000D02*
X13109143Y-58497714D01*
X13137714Y-58454857D01*
X13152000Y-58426286D01*
X13166286Y-58383429D01*
X13180571Y-58312000D01*
X13180571Y-58254857D01*
X13166286Y-58183429D01*
X13152000Y-58140571D01*
X13137714Y-58112000D01*
X13109143Y-58069143D01*
X13094857Y-58054857D01*
X6022356Y-58693356D02*
X6022356Y-58622644D01*
X5951644Y-58622644D01*
X5951644Y-58693356D01*
X6022356Y-58693356D01*
X6480571Y-58793714D02*
X6309143Y-58793714D01*
X6394857Y-58793714D02*
X6394857Y-58493714D01*
X6366286Y-58536571D01*
X6337714Y-58565143D01*
X6309143Y-58579429D01*
X6609143Y-58765143D02*
X6623428Y-58779429D01*
X6609143Y-58793714D01*
X6594857Y-58779429D01*
X6609143Y-58765143D01*
X6609143Y-58793714D01*
X6809143Y-58493714D02*
X6837714Y-58493714D01*
X6866286Y-58508000D01*
X6880571Y-58522286D01*
X6894857Y-58550857D01*
X6909143Y-58608000D01*
X6909143Y-58679429D01*
X6894857Y-58736571D01*
X6880571Y-58765143D01*
X6866286Y-58779429D01*
X6837714Y-58793714D01*
X6809143Y-58793714D01*
X6780571Y-58779429D01*
X6766286Y-58765143D01*
X6752000Y-58736571D01*
X6737714Y-58679429D01*
X6737714Y-58608000D01*
X6752000Y-58550857D01*
X6766286Y-58522286D01*
X6780571Y-58508000D01*
X6809143Y-58493714D01*
X7094857Y-58493714D02*
X7123428Y-58493714D01*
X7152000Y-58508000D01*
X7166286Y-58522286D01*
X7180571Y-58550857D01*
X7194857Y-58608000D01*
X7194857Y-58679429D01*
X7180571Y-58736571D01*
X7166286Y-58765143D01*
X7152000Y-58779429D01*
X7123428Y-58793714D01*
X7094857Y-58793714D01*
X7066286Y-58779429D01*
X7052000Y-58765143D01*
X7037714Y-58736571D01*
X7023428Y-58679429D01*
X7023428Y-58608000D01*
X7037714Y-58550857D01*
X7052000Y-58522286D01*
X7066286Y-58508000D01*
X7094857Y-58493714D01*
X7323428Y-58793714D02*
X7323428Y-58593714D01*
X7323428Y-58622286D02*
X7337714Y-58608000D01*
X7366286Y-58593714D01*
X7409143Y-58593714D01*
X7437714Y-58608000D01*
X7452000Y-58636571D01*
X7452000Y-58793714D01*
X7452000Y-58636571D02*
X7466286Y-58608000D01*
X7494857Y-58593714D01*
X7537714Y-58593714D01*
X7566286Y-58608000D01*
X7580571Y-58636571D01*
X7580571Y-58793714D01*
X7723428Y-58793714D02*
X7723428Y-58593714D01*
X7723428Y-58622286D02*
X7737714Y-58608000D01*
X7766286Y-58593714D01*
X7809143Y-58593714D01*
X7837714Y-58608000D01*
X7852000Y-58636571D01*
X7852000Y-58793714D01*
X7852000Y-58636571D02*
X7866286Y-58608000D01*
X7894857Y-58593714D01*
X7937714Y-58593714D01*
X7966286Y-58608000D01*
X7980571Y-58636571D01*
X7980571Y-58793714D01*
X8566286Y-58479429D02*
X8309143Y-58865143D01*
X8952000Y-58493714D02*
X8980571Y-58493714D01*
X9009143Y-58508000D01*
X9023428Y-58522286D01*
X9037714Y-58550857D01*
X9052000Y-58608000D01*
X9052000Y-58679429D01*
X9037714Y-58736571D01*
X9023428Y-58765143D01*
X9009143Y-58779429D01*
X8980571Y-58793714D01*
X8952000Y-58793714D01*
X8923428Y-58779429D01*
X8909143Y-58765143D01*
X8894857Y-58736571D01*
X8880571Y-58679429D01*
X8880571Y-58608000D01*
X8894857Y-58550857D01*
X8909143Y-58522286D01*
X8923428Y-58508000D01*
X8952000Y-58493714D01*
X9180571Y-58765143D02*
X9194857Y-58779429D01*
X9180571Y-58793714D01*
X9166286Y-58779429D01*
X9180571Y-58765143D01*
X9180571Y-58793714D01*
X9380571Y-58493714D02*
X9409143Y-58493714D01*
X9437714Y-58508000D01*
X9452000Y-58522286D01*
X9466286Y-58550857D01*
X9480571Y-58608000D01*
X9480571Y-58679429D01*
X9466286Y-58736571D01*
X9452000Y-58765143D01*
X9437714Y-58779429D01*
X9409143Y-58793714D01*
X9380571Y-58793714D01*
X9352000Y-58779429D01*
X9337714Y-58765143D01*
X9323428Y-58736571D01*
X9309143Y-58679429D01*
X9309143Y-58608000D01*
X9323428Y-58550857D01*
X9337714Y-58522286D01*
X9352000Y-58508000D01*
X9380571Y-58493714D01*
X9580571Y-58493714D02*
X9766286Y-58493714D01*
X9666286Y-58608000D01*
X9709143Y-58608000D01*
X9737714Y-58622286D01*
X9752000Y-58636571D01*
X9766286Y-58665143D01*
X9766286Y-58736571D01*
X9752000Y-58765143D01*
X9737714Y-58779429D01*
X9709143Y-58793714D01*
X9623428Y-58793714D01*
X9594857Y-58779429D01*
X9580571Y-58765143D01*
X9909143Y-58793714D02*
X9966286Y-58793714D01*
X9994857Y-58779429D01*
X10009143Y-58765143D01*
X10037714Y-58722286D01*
X10052000Y-58665143D01*
X10052000Y-58550857D01*
X10037714Y-58522286D01*
X10023428Y-58508000D01*
X9994857Y-58493714D01*
X9937714Y-58493714D01*
X9909143Y-58508000D01*
X9894857Y-58522286D01*
X9880571Y-58550857D01*
X9880571Y-58622286D01*
X9894857Y-58650857D01*
X9909143Y-58665143D01*
X9937714Y-58679429D01*
X9994857Y-58679429D01*
X10023428Y-58665143D01*
X10037714Y-58650857D01*
X10052000Y-58622286D01*
X10166286Y-58493714D02*
X10166286Y-58550857D01*
X10280571Y-58493714D02*
X10280571Y-58550857D01*
X10723428Y-58908000D02*
X10709143Y-58893714D01*
X10680571Y-58850857D01*
X10666286Y-58822286D01*
X10652000Y-58779429D01*
X10637714Y-58708000D01*
X10637714Y-58650857D01*
X10652000Y-58579429D01*
X10666286Y-58536571D01*
X10680571Y-58508000D01*
X10709143Y-58465143D01*
X10723428Y-58450857D01*
X10994857Y-58793714D02*
X10823428Y-58793714D01*
X10909143Y-58793714D02*
X10909143Y-58493714D01*
X10880571Y-58536571D01*
X10852000Y-58565143D01*
X10823428Y-58579429D01*
X11252000Y-58593714D02*
X11252000Y-58793714D01*
X11180571Y-58479429D02*
X11109143Y-58693714D01*
X11294857Y-58693714D01*
X11637714Y-58793714D02*
X11637714Y-58493714D01*
X11766286Y-58793714D02*
X11766286Y-58636571D01*
X11752000Y-58608000D01*
X11723428Y-58593714D01*
X11680571Y-58593714D01*
X11652000Y-58608000D01*
X11637714Y-58622286D01*
X11952000Y-58793714D02*
X11923428Y-58779429D01*
X11909143Y-58765143D01*
X11894857Y-58736571D01*
X11894857Y-58650857D01*
X11909143Y-58622286D01*
X11923428Y-58608000D01*
X11952000Y-58593714D01*
X11994857Y-58593714D01*
X12023428Y-58608000D01*
X12037714Y-58622286D01*
X12052000Y-58650857D01*
X12052000Y-58736571D01*
X12037714Y-58765143D01*
X12023428Y-58779429D01*
X11994857Y-58793714D01*
X11952000Y-58793714D01*
X12223428Y-58793714D02*
X12194857Y-58779429D01*
X12180571Y-58750857D01*
X12180571Y-58493714D01*
X12452000Y-58779429D02*
X12423428Y-58793714D01*
X12366286Y-58793714D01*
X12337714Y-58779429D01*
X12323428Y-58750857D01*
X12323428Y-58636571D01*
X12337714Y-58608000D01*
X12366286Y-58593714D01*
X12423428Y-58593714D01*
X12452000Y-58608000D01*
X12466286Y-58636571D01*
X12466286Y-58665143D01*
X12323428Y-58693714D01*
X12580571Y-58779429D02*
X12609143Y-58793714D01*
X12666286Y-58793714D01*
X12694857Y-58779429D01*
X12709143Y-58750857D01*
X12709143Y-58736571D01*
X12694857Y-58708000D01*
X12666286Y-58693714D01*
X12623428Y-58693714D01*
X12594857Y-58679429D01*
X12580571Y-58650857D01*
X12580571Y-58636571D01*
X12594857Y-58608000D01*
X12623428Y-58593714D01*
X12666286Y-58593714D01*
X12694857Y-58608000D01*
X12809143Y-58908000D02*
X12823428Y-58893714D01*
X12852000Y-58850857D01*
X12866286Y-58822286D01*
X12880571Y-58779429D01*
X12894857Y-58708000D01*
X12894857Y-58650857D01*
X12880571Y-58579429D01*
X12866286Y-58536571D01*
X12852000Y-58508000D01*
X12823428Y-58465143D01*
X12809143Y-58450857D01*
X5982000Y-59109000D02*
X6037000Y-59054000D01*
X5982000Y-58999000D01*
X5927000Y-59054000D01*
X5982000Y-59109000D01*
X6480571Y-59189714D02*
X6309143Y-59189714D01*
X6394857Y-59189714D02*
X6394857Y-58889714D01*
X6366286Y-58932571D01*
X6337714Y-58961143D01*
X6309143Y-58975429D01*
X6609143Y-59161143D02*
X6623428Y-59175429D01*
X6609143Y-59189714D01*
X6594857Y-59175429D01*
X6609143Y-59161143D01*
X6609143Y-59189714D01*
X6909143Y-59189714D02*
X6737714Y-59189714D01*
X6823428Y-59189714D02*
X6823428Y-58889714D01*
X6794857Y-58932571D01*
X6766286Y-58961143D01*
X6737714Y-58975429D01*
X7094857Y-58889714D02*
X7123428Y-58889714D01*
X7152000Y-58904000D01*
X7166286Y-58918286D01*
X7180571Y-58946857D01*
X7194857Y-59004000D01*
X7194857Y-59075429D01*
X7180571Y-59132571D01*
X7166286Y-59161143D01*
X7152000Y-59175429D01*
X7123428Y-59189714D01*
X7094857Y-59189714D01*
X7066286Y-59175429D01*
X7052000Y-59161143D01*
X7037714Y-59132571D01*
X7023428Y-59075429D01*
X7023428Y-59004000D01*
X7037714Y-58946857D01*
X7052000Y-58918286D01*
X7066286Y-58904000D01*
X7094857Y-58889714D01*
X7323428Y-59189714D02*
X7323428Y-58989714D01*
X7323428Y-59018286D02*
X7337714Y-59004000D01*
X7366286Y-58989714D01*
X7409143Y-58989714D01*
X7437714Y-59004000D01*
X7452000Y-59032571D01*
X7452000Y-59189714D01*
X7452000Y-59032571D02*
X7466286Y-59004000D01*
X7494857Y-58989714D01*
X7537714Y-58989714D01*
X7566286Y-59004000D01*
X7580571Y-59032571D01*
X7580571Y-59189714D01*
X7723428Y-59189714D02*
X7723428Y-58989714D01*
X7723428Y-59018286D02*
X7737714Y-59004000D01*
X7766286Y-58989714D01*
X7809143Y-58989714D01*
X7837714Y-59004000D01*
X7852000Y-59032571D01*
X7852000Y-59189714D01*
X7852000Y-59032571D02*
X7866286Y-59004000D01*
X7894857Y-58989714D01*
X7937714Y-58989714D01*
X7966286Y-59004000D01*
X7980571Y-59032571D01*
X7980571Y-59189714D01*
X8566286Y-58875429D02*
X8309143Y-59261143D01*
X8952000Y-58889714D02*
X8980571Y-58889714D01*
X9009143Y-58904000D01*
X9023428Y-58918286D01*
X9037714Y-58946857D01*
X9052000Y-59004000D01*
X9052000Y-59075429D01*
X9037714Y-59132571D01*
X9023428Y-59161143D01*
X9009143Y-59175429D01*
X8980571Y-59189714D01*
X8952000Y-59189714D01*
X8923428Y-59175429D01*
X8909143Y-59161143D01*
X8894857Y-59132571D01*
X8880571Y-59075429D01*
X8880571Y-59004000D01*
X8894857Y-58946857D01*
X8909143Y-58918286D01*
X8923428Y-58904000D01*
X8952000Y-58889714D01*
X9180571Y-59161143D02*
X9194857Y-59175429D01*
X9180571Y-59189714D01*
X9166286Y-59175429D01*
X9180571Y-59161143D01*
X9180571Y-59189714D01*
X9380571Y-58889714D02*
X9409143Y-58889714D01*
X9437714Y-58904000D01*
X9452000Y-58918286D01*
X9466286Y-58946857D01*
X9480571Y-59004000D01*
X9480571Y-59075429D01*
X9466286Y-59132571D01*
X9452000Y-59161143D01*
X9437714Y-59175429D01*
X9409143Y-59189714D01*
X9380571Y-59189714D01*
X9352000Y-59175429D01*
X9337714Y-59161143D01*
X9323428Y-59132571D01*
X9309143Y-59075429D01*
X9309143Y-59004000D01*
X9323428Y-58946857D01*
X9337714Y-58918286D01*
X9352000Y-58904000D01*
X9380571Y-58889714D01*
X9737714Y-58989714D02*
X9737714Y-59189714D01*
X9666286Y-58875429D02*
X9594857Y-59089714D01*
X9780571Y-59089714D01*
X9866286Y-58889714D02*
X10052000Y-58889714D01*
X9952000Y-59004000D01*
X9994857Y-59004000D01*
X10023428Y-59018286D01*
X10037714Y-59032571D01*
X10052000Y-59061143D01*
X10052000Y-59132571D01*
X10037714Y-59161143D01*
X10023428Y-59175429D01*
X9994857Y-59189714D01*
X9909143Y-59189714D01*
X9880571Y-59175429D01*
X9866286Y-59161143D01*
X10166286Y-58889714D02*
X10166286Y-58946857D01*
X10280571Y-58889714D02*
X10280571Y-58946857D01*
X10723428Y-59304000D02*
X10709143Y-59289714D01*
X10680571Y-59246857D01*
X10666286Y-59218286D01*
X10652000Y-59175429D01*
X10637714Y-59104000D01*
X10637714Y-59046857D01*
X10652000Y-58975429D01*
X10666286Y-58932571D01*
X10680571Y-58904000D01*
X10709143Y-58861143D01*
X10723428Y-58846857D01*
X10809143Y-58889714D02*
X10994857Y-58889714D01*
X10894857Y-59004000D01*
X10937714Y-59004000D01*
X10966286Y-59018286D01*
X10980571Y-59032571D01*
X10994857Y-59061143D01*
X10994857Y-59132571D01*
X10980571Y-59161143D01*
X10966286Y-59175429D01*
X10937714Y-59189714D01*
X10852000Y-59189714D01*
X10823428Y-59175429D01*
X10809143Y-59161143D01*
X11352000Y-59189714D02*
X11352000Y-58889714D01*
X11480571Y-59189714D02*
X11480571Y-59032571D01*
X11466286Y-59004000D01*
X11437714Y-58989714D01*
X11394857Y-58989714D01*
X11366286Y-59004000D01*
X11352000Y-59018286D01*
X11666286Y-59189714D02*
X11637714Y-59175429D01*
X11623428Y-59161143D01*
X11609143Y-59132571D01*
X11609143Y-59046857D01*
X11623428Y-59018286D01*
X11637714Y-59004000D01*
X11666286Y-58989714D01*
X11709143Y-58989714D01*
X11737714Y-59004000D01*
X11752000Y-59018286D01*
X11766286Y-59046857D01*
X11766286Y-59132571D01*
X11752000Y-59161143D01*
X11737714Y-59175429D01*
X11709143Y-59189714D01*
X11666286Y-59189714D01*
X11937714Y-59189714D02*
X11909143Y-59175429D01*
X11894857Y-59146857D01*
X11894857Y-58889714D01*
X12166286Y-59175429D02*
X12137714Y-59189714D01*
X12080571Y-59189714D01*
X12052000Y-59175429D01*
X12037714Y-59146857D01*
X12037714Y-59032571D01*
X12052000Y-59004000D01*
X12080571Y-58989714D01*
X12137714Y-58989714D01*
X12166286Y-59004000D01*
X12180571Y-59032571D01*
X12180571Y-59061143D01*
X12037714Y-59089714D01*
X12294857Y-59175429D02*
X12323428Y-59189714D01*
X12380571Y-59189714D01*
X12409143Y-59175429D01*
X12423428Y-59146857D01*
X12423428Y-59132571D01*
X12409143Y-59104000D01*
X12380571Y-59089714D01*
X12337714Y-59089714D01*
X12309143Y-59075429D01*
X12294857Y-59046857D01*
X12294857Y-59032571D01*
X12309143Y-59004000D01*
X12337714Y-58989714D01*
X12380571Y-58989714D01*
X12409143Y-59004000D01*
X12523428Y-59304000D02*
X12537714Y-59289714D01*
X12566286Y-59246857D01*
X12580571Y-59218286D01*
X12594857Y-59175429D01*
X12609143Y-59104000D01*
X12609143Y-59046857D01*
X12594857Y-58975429D01*
X12580571Y-58932571D01*
X12566286Y-58904000D01*
X12537714Y-58861143D01*
X12523428Y-58846857D01*
X5842000Y-59352500D02*
X6037000Y-59547500D01*
X6037000Y-59352500D02*
X5842000Y-59547500D01*
X6037000Y-59450000D02*
G75*
G03X6037000Y-59450000I-97500J0D01*
G01*
X6480571Y-59585714D02*
X6309143Y-59585714D01*
X6394857Y-59585714D02*
X6394857Y-59285714D01*
X6366286Y-59328571D01*
X6337714Y-59357143D01*
X6309143Y-59371429D01*
X6609143Y-59557143D02*
X6623428Y-59571429D01*
X6609143Y-59585714D01*
X6594857Y-59571429D01*
X6609143Y-59557143D01*
X6609143Y-59585714D01*
X6766286Y-59585714D02*
X6823428Y-59585714D01*
X6852000Y-59571429D01*
X6866286Y-59557143D01*
X6894857Y-59514286D01*
X6909143Y-59457143D01*
X6909143Y-59342857D01*
X6894857Y-59314286D01*
X6880571Y-59300000D01*
X6852000Y-59285714D01*
X6794857Y-59285714D01*
X6766286Y-59300000D01*
X6752000Y-59314286D01*
X6737714Y-59342857D01*
X6737714Y-59414286D01*
X6752000Y-59442857D01*
X6766286Y-59457143D01*
X6794857Y-59471429D01*
X6852000Y-59471429D01*
X6880571Y-59457143D01*
X6894857Y-59442857D01*
X6909143Y-59414286D01*
X7180571Y-59285714D02*
X7037714Y-59285714D01*
X7023428Y-59428571D01*
X7037714Y-59414286D01*
X7066286Y-59400000D01*
X7137714Y-59400000D01*
X7166286Y-59414286D01*
X7180571Y-59428571D01*
X7194857Y-59457143D01*
X7194857Y-59528571D01*
X7180571Y-59557143D01*
X7166286Y-59571429D01*
X7137714Y-59585714D01*
X7066286Y-59585714D01*
X7037714Y-59571429D01*
X7023428Y-59557143D01*
X7323428Y-59585714D02*
X7323428Y-59385714D01*
X7323428Y-59414286D02*
X7337714Y-59400000D01*
X7366286Y-59385714D01*
X7409143Y-59385714D01*
X7437714Y-59400000D01*
X7452000Y-59428571D01*
X7452000Y-59585714D01*
X7452000Y-59428571D02*
X7466286Y-59400000D01*
X7494857Y-59385714D01*
X7537714Y-59385714D01*
X7566286Y-59400000D01*
X7580571Y-59428571D01*
X7580571Y-59585714D01*
X7723428Y-59585714D02*
X7723428Y-59385714D01*
X7723428Y-59414286D02*
X7737714Y-59400000D01*
X7766286Y-59385714D01*
X7809143Y-59385714D01*
X7837714Y-59400000D01*
X7852000Y-59428571D01*
X7852000Y-59585714D01*
X7852000Y-59428571D02*
X7866286Y-59400000D01*
X7894857Y-59385714D01*
X7937714Y-59385714D01*
X7966286Y-59400000D01*
X7980571Y-59428571D01*
X7980571Y-59585714D01*
X8566286Y-59271429D02*
X8309143Y-59657143D01*
X8952000Y-59285714D02*
X8980571Y-59285714D01*
X9009143Y-59300000D01*
X9023428Y-59314286D01*
X9037714Y-59342857D01*
X9052000Y-59400000D01*
X9052000Y-59471429D01*
X9037714Y-59528571D01*
X9023428Y-59557143D01*
X9009143Y-59571429D01*
X8980571Y-59585714D01*
X8952000Y-59585714D01*
X8923428Y-59571429D01*
X8909143Y-59557143D01*
X8894857Y-59528571D01*
X8880571Y-59471429D01*
X8880571Y-59400000D01*
X8894857Y-59342857D01*
X8909143Y-59314286D01*
X8923428Y-59300000D01*
X8952000Y-59285714D01*
X9180571Y-59557143D02*
X9194857Y-59571429D01*
X9180571Y-59585714D01*
X9166286Y-59571429D01*
X9180571Y-59557143D01*
X9180571Y-59585714D01*
X9380571Y-59285714D02*
X9409143Y-59285714D01*
X9437714Y-59300000D01*
X9452000Y-59314286D01*
X9466286Y-59342857D01*
X9480571Y-59400000D01*
X9480571Y-59471429D01*
X9466286Y-59528571D01*
X9452000Y-59557143D01*
X9437714Y-59571429D01*
X9409143Y-59585714D01*
X9380571Y-59585714D01*
X9352000Y-59571429D01*
X9337714Y-59557143D01*
X9323428Y-59528571D01*
X9309143Y-59471429D01*
X9309143Y-59400000D01*
X9323428Y-59342857D01*
X9337714Y-59314286D01*
X9352000Y-59300000D01*
X9380571Y-59285714D01*
X9580571Y-59285714D02*
X9780571Y-59285714D01*
X9652000Y-59585714D01*
X9866286Y-59285714D02*
X10066286Y-59285714D01*
X9937714Y-59585714D01*
X10166286Y-59285714D02*
X10166286Y-59342857D01*
X10280571Y-59285714D02*
X10280571Y-59342857D01*
X10723428Y-59700000D02*
X10709143Y-59685714D01*
X10680571Y-59642857D01*
X10666286Y-59614286D01*
X10652000Y-59571429D01*
X10637714Y-59500000D01*
X10637714Y-59442857D01*
X10652000Y-59371429D01*
X10666286Y-59328571D01*
X10680571Y-59300000D01*
X10709143Y-59257143D01*
X10723428Y-59242857D01*
X10809143Y-59285714D02*
X11009143Y-59285714D01*
X10880571Y-59585714D01*
X11109143Y-59314286D02*
X11123428Y-59300000D01*
X11152000Y-59285714D01*
X11223428Y-59285714D01*
X11252000Y-59300000D01*
X11266286Y-59314286D01*
X11280571Y-59342857D01*
X11280571Y-59371429D01*
X11266286Y-59414286D01*
X11094857Y-59585714D01*
X11280571Y-59585714D01*
X11637714Y-59585714D02*
X11637714Y-59285714D01*
X11766286Y-59585714D02*
X11766286Y-59428571D01*
X11752000Y-59400000D01*
X11723428Y-59385714D01*
X11680571Y-59385714D01*
X11652000Y-59400000D01*
X11637714Y-59414286D01*
X11952000Y-59585714D02*
X11923428Y-59571429D01*
X11909143Y-59557143D01*
X11894857Y-59528571D01*
X11894857Y-59442857D01*
X11909143Y-59414286D01*
X11923428Y-59400000D01*
X11952000Y-59385714D01*
X11994857Y-59385714D01*
X12023428Y-59400000D01*
X12037714Y-59414286D01*
X12052000Y-59442857D01*
X12052000Y-59528571D01*
X12037714Y-59557143D01*
X12023428Y-59571429D01*
X11994857Y-59585714D01*
X11952000Y-59585714D01*
X12223428Y-59585714D02*
X12194857Y-59571429D01*
X12180571Y-59542857D01*
X12180571Y-59285714D01*
X12452000Y-59571429D02*
X12423428Y-59585714D01*
X12366286Y-59585714D01*
X12337714Y-59571429D01*
X12323428Y-59542857D01*
X12323428Y-59428571D01*
X12337714Y-59400000D01*
X12366286Y-59385714D01*
X12423428Y-59385714D01*
X12452000Y-59400000D01*
X12466286Y-59428571D01*
X12466286Y-59457143D01*
X12323428Y-59485714D01*
X12580571Y-59571429D02*
X12609143Y-59585714D01*
X12666286Y-59585714D01*
X12694857Y-59571429D01*
X12709143Y-59542857D01*
X12709143Y-59528571D01*
X12694857Y-59500000D01*
X12666286Y-59485714D01*
X12623428Y-59485714D01*
X12594857Y-59471429D01*
X12580571Y-59442857D01*
X12580571Y-59428571D01*
X12594857Y-59400000D01*
X12623428Y-59385714D01*
X12666286Y-59385714D01*
X12694857Y-59400000D01*
X12809143Y-59700000D02*
X12823428Y-59685714D01*
X12852000Y-59642857D01*
X12866286Y-59614286D01*
X12880571Y-59571429D01*
X12894857Y-59500000D01*
X12894857Y-59442857D01*
X12880571Y-59371429D01*
X12866286Y-59328571D01*
X12852000Y-59300000D01*
X12823428Y-59257143D01*
X12809143Y-59242857D01*
M02*
