G04 #@! TF.GenerationSoftware,KiCad,Pcbnew,5.0.2+dfsg1-1~bpo9+1*
G04 #@! TF.CreationDate,2020-04-30T19:20:10-04:00*
G04 #@! TF.ProjectId,NixieTest,4e697869-6554-4657-9374-2e6b69636164,rev?*
G04 #@! TF.SameCoordinates,Original*
G04 #@! TF.FileFunction,Soldermask,Bot*
G04 #@! TF.FilePolarity,Negative*
%FSLAX46Y46*%
G04 Gerber Fmt 4.6, Leading zero omitted, Abs format (unit mm)*
G04 Created by KiCad (PCBNEW 5.0.2+dfsg1-1~bpo9+1) date Thu 30 Apr 2020 07:20:10 PM EDT*
%MOMM*%
%LPD*%
G01*
G04 APERTURE LIST*
%ADD10C,0.100000*%
G04 APERTURE END LIST*
D10*
G36*
X203575256Y-105071298D02*
X203681579Y-105092447D01*
X203982042Y-105216903D01*
X204248852Y-105395180D01*
X204252454Y-105397587D01*
X204482413Y-105627546D01*
X204482415Y-105627549D01*
X204663097Y-105897958D01*
X204787553Y-106198421D01*
X204851000Y-106517391D01*
X204851000Y-106842609D01*
X204787553Y-107161579D01*
X204663097Y-107462042D01*
X204484820Y-107728852D01*
X204482413Y-107732454D01*
X204252454Y-107962413D01*
X204252451Y-107962415D01*
X203982042Y-108143097D01*
X203681579Y-108267553D01*
X203575256Y-108288702D01*
X203362611Y-108331000D01*
X203037389Y-108331000D01*
X202824744Y-108288702D01*
X202718421Y-108267553D01*
X202417958Y-108143097D01*
X202147549Y-107962415D01*
X202147546Y-107962413D01*
X201917587Y-107732454D01*
X201915180Y-107728852D01*
X201736903Y-107462042D01*
X201612447Y-107161579D01*
X201549000Y-106842609D01*
X201549000Y-106517391D01*
X201612447Y-106198421D01*
X201736903Y-105897958D01*
X201917585Y-105627549D01*
X201917587Y-105627546D01*
X202147546Y-105397587D01*
X202151148Y-105395180D01*
X202417958Y-105216903D01*
X202718421Y-105092447D01*
X202824744Y-105071298D01*
X203037389Y-105029000D01*
X203362611Y-105029000D01*
X203575256Y-105071298D01*
X203575256Y-105071298D01*
G37*
G36*
X51175256Y-105071298D02*
X51281579Y-105092447D01*
X51582042Y-105216903D01*
X51848852Y-105395180D01*
X51852454Y-105397587D01*
X52082413Y-105627546D01*
X52082415Y-105627549D01*
X52263097Y-105897958D01*
X52387553Y-106198421D01*
X52451000Y-106517391D01*
X52451000Y-106842609D01*
X52387553Y-107161579D01*
X52263097Y-107462042D01*
X52084820Y-107728852D01*
X52082413Y-107732454D01*
X51852454Y-107962413D01*
X51852451Y-107962415D01*
X51582042Y-108143097D01*
X51281579Y-108267553D01*
X51175256Y-108288702D01*
X50962611Y-108331000D01*
X50637389Y-108331000D01*
X50424744Y-108288702D01*
X50318421Y-108267553D01*
X50017958Y-108143097D01*
X49747549Y-107962415D01*
X49747546Y-107962413D01*
X49517587Y-107732454D01*
X49515180Y-107728852D01*
X49336903Y-107462042D01*
X49212447Y-107161579D01*
X49149000Y-106842609D01*
X49149000Y-106517391D01*
X49212447Y-106198421D01*
X49336903Y-105897958D01*
X49517585Y-105627549D01*
X49517587Y-105627546D01*
X49747546Y-105397587D01*
X49751148Y-105395180D01*
X50017958Y-105216903D01*
X50318421Y-105092447D01*
X50424744Y-105071298D01*
X50637389Y-105029000D01*
X50962611Y-105029000D01*
X51175256Y-105071298D01*
X51175256Y-105071298D01*
G37*
G36*
X153301000Y-107581000D02*
X151499000Y-107581000D01*
X151499000Y-105779000D01*
X153301000Y-105779000D01*
X153301000Y-107581000D01*
X153301000Y-107581000D01*
G37*
G36*
X112661000Y-107581000D02*
X110859000Y-107581000D01*
X110859000Y-105779000D01*
X112661000Y-105779000D01*
X112661000Y-107581000D01*
X112661000Y-107581000D01*
G37*
G36*
X149970443Y-105785519D02*
X150036627Y-105792037D01*
X150149853Y-105826384D01*
X150206467Y-105843557D01*
X150308246Y-105897960D01*
X150362991Y-105927222D01*
X150398729Y-105956552D01*
X150500186Y-106039814D01*
X150583448Y-106141271D01*
X150612778Y-106177009D01*
X150612779Y-106177011D01*
X150696443Y-106333533D01*
X150696443Y-106333534D01*
X150747963Y-106503373D01*
X150765359Y-106680000D01*
X150747963Y-106856627D01*
X150713616Y-106969853D01*
X150696443Y-107026467D01*
X150624224Y-107161578D01*
X150612778Y-107182991D01*
X150583448Y-107218729D01*
X150500186Y-107320186D01*
X150398729Y-107403448D01*
X150362991Y-107432778D01*
X150362989Y-107432779D01*
X150206467Y-107516443D01*
X150149853Y-107533616D01*
X150036627Y-107567963D01*
X149970443Y-107574481D01*
X149904260Y-107581000D01*
X149815740Y-107581000D01*
X149749557Y-107574481D01*
X149683373Y-107567963D01*
X149570147Y-107533616D01*
X149513533Y-107516443D01*
X149357011Y-107432779D01*
X149357009Y-107432778D01*
X149321271Y-107403448D01*
X149219814Y-107320186D01*
X149136552Y-107218729D01*
X149107222Y-107182991D01*
X149095776Y-107161578D01*
X149023557Y-107026467D01*
X149006384Y-106969853D01*
X148972037Y-106856627D01*
X148954641Y-106680000D01*
X148972037Y-106503373D01*
X149023557Y-106333534D01*
X149023557Y-106333533D01*
X149107221Y-106177011D01*
X149107222Y-106177009D01*
X149136552Y-106141271D01*
X149219814Y-106039814D01*
X149321271Y-105956552D01*
X149357009Y-105927222D01*
X149411754Y-105897960D01*
X149513533Y-105843557D01*
X149570147Y-105826384D01*
X149683373Y-105792037D01*
X149749557Y-105785519D01*
X149815740Y-105779000D01*
X149904260Y-105779000D01*
X149970443Y-105785519D01*
X149970443Y-105785519D01*
G37*
G36*
X109330443Y-105785519D02*
X109396627Y-105792037D01*
X109509853Y-105826384D01*
X109566467Y-105843557D01*
X109668246Y-105897960D01*
X109722991Y-105927222D01*
X109758729Y-105956552D01*
X109860186Y-106039814D01*
X109943448Y-106141271D01*
X109972778Y-106177009D01*
X109972779Y-106177011D01*
X110056443Y-106333533D01*
X110056443Y-106333534D01*
X110107963Y-106503373D01*
X110125359Y-106680000D01*
X110107963Y-106856627D01*
X110073616Y-106969853D01*
X110056443Y-107026467D01*
X109984224Y-107161578D01*
X109972778Y-107182991D01*
X109943448Y-107218729D01*
X109860186Y-107320186D01*
X109758729Y-107403448D01*
X109722991Y-107432778D01*
X109722989Y-107432779D01*
X109566467Y-107516443D01*
X109509853Y-107533616D01*
X109396627Y-107567963D01*
X109330443Y-107574481D01*
X109264260Y-107581000D01*
X109175740Y-107581000D01*
X109109557Y-107574481D01*
X109043373Y-107567963D01*
X108930147Y-107533616D01*
X108873533Y-107516443D01*
X108717011Y-107432779D01*
X108717009Y-107432778D01*
X108681271Y-107403448D01*
X108579814Y-107320186D01*
X108496552Y-107218729D01*
X108467222Y-107182991D01*
X108455776Y-107161578D01*
X108383557Y-107026467D01*
X108366384Y-106969853D01*
X108332037Y-106856627D01*
X108314641Y-106680000D01*
X108332037Y-106503373D01*
X108383557Y-106333534D01*
X108383557Y-106333533D01*
X108467221Y-106177011D01*
X108467222Y-106177009D01*
X108496552Y-106141271D01*
X108579814Y-106039814D01*
X108681271Y-105956552D01*
X108717009Y-105927222D01*
X108771754Y-105897960D01*
X108873533Y-105843557D01*
X108930147Y-105826384D01*
X109043373Y-105792037D01*
X109109557Y-105785519D01*
X109175740Y-105779000D01*
X109264260Y-105779000D01*
X109330443Y-105785519D01*
X109330443Y-105785519D01*
G37*
G36*
X106790443Y-105785519D02*
X106856627Y-105792037D01*
X106969853Y-105826384D01*
X107026467Y-105843557D01*
X107128246Y-105897960D01*
X107182991Y-105927222D01*
X107218729Y-105956552D01*
X107320186Y-106039814D01*
X107403448Y-106141271D01*
X107432778Y-106177009D01*
X107432779Y-106177011D01*
X107516443Y-106333533D01*
X107516443Y-106333534D01*
X107567963Y-106503373D01*
X107585359Y-106680000D01*
X107567963Y-106856627D01*
X107533616Y-106969853D01*
X107516443Y-107026467D01*
X107444224Y-107161578D01*
X107432778Y-107182991D01*
X107403448Y-107218729D01*
X107320186Y-107320186D01*
X107218729Y-107403448D01*
X107182991Y-107432778D01*
X107182989Y-107432779D01*
X107026467Y-107516443D01*
X106969853Y-107533616D01*
X106856627Y-107567963D01*
X106790443Y-107574481D01*
X106724260Y-107581000D01*
X106635740Y-107581000D01*
X106569557Y-107574481D01*
X106503373Y-107567963D01*
X106390147Y-107533616D01*
X106333533Y-107516443D01*
X106177011Y-107432779D01*
X106177009Y-107432778D01*
X106141271Y-107403448D01*
X106039814Y-107320186D01*
X105956552Y-107218729D01*
X105927222Y-107182991D01*
X105915776Y-107161578D01*
X105843557Y-107026467D01*
X105826384Y-106969853D01*
X105792037Y-106856627D01*
X105774641Y-106680000D01*
X105792037Y-106503373D01*
X105843557Y-106333534D01*
X105843557Y-106333533D01*
X105927221Y-106177011D01*
X105927222Y-106177009D01*
X105956552Y-106141271D01*
X106039814Y-106039814D01*
X106141271Y-105956552D01*
X106177009Y-105927222D01*
X106231754Y-105897960D01*
X106333533Y-105843557D01*
X106390147Y-105826384D01*
X106503373Y-105792037D01*
X106569557Y-105785519D01*
X106635740Y-105779000D01*
X106724260Y-105779000D01*
X106790443Y-105785519D01*
X106790443Y-105785519D01*
G37*
G36*
X104250443Y-105785519D02*
X104316627Y-105792037D01*
X104429853Y-105826384D01*
X104486467Y-105843557D01*
X104588246Y-105897960D01*
X104642991Y-105927222D01*
X104678729Y-105956552D01*
X104780186Y-106039814D01*
X104863448Y-106141271D01*
X104892778Y-106177009D01*
X104892779Y-106177011D01*
X104976443Y-106333533D01*
X104976443Y-106333534D01*
X105027963Y-106503373D01*
X105045359Y-106680000D01*
X105027963Y-106856627D01*
X104993616Y-106969853D01*
X104976443Y-107026467D01*
X104904224Y-107161578D01*
X104892778Y-107182991D01*
X104863448Y-107218729D01*
X104780186Y-107320186D01*
X104678729Y-107403448D01*
X104642991Y-107432778D01*
X104642989Y-107432779D01*
X104486467Y-107516443D01*
X104429853Y-107533616D01*
X104316627Y-107567963D01*
X104250443Y-107574481D01*
X104184260Y-107581000D01*
X104095740Y-107581000D01*
X104029557Y-107574481D01*
X103963373Y-107567963D01*
X103850147Y-107533616D01*
X103793533Y-107516443D01*
X103637011Y-107432779D01*
X103637009Y-107432778D01*
X103601271Y-107403448D01*
X103499814Y-107320186D01*
X103416552Y-107218729D01*
X103387222Y-107182991D01*
X103375776Y-107161578D01*
X103303557Y-107026467D01*
X103286384Y-106969853D01*
X103252037Y-106856627D01*
X103234641Y-106680000D01*
X103252037Y-106503373D01*
X103303557Y-106333534D01*
X103303557Y-106333533D01*
X103387221Y-106177011D01*
X103387222Y-106177009D01*
X103416552Y-106141271D01*
X103499814Y-106039814D01*
X103601271Y-105956552D01*
X103637009Y-105927222D01*
X103691754Y-105897960D01*
X103793533Y-105843557D01*
X103850147Y-105826384D01*
X103963373Y-105792037D01*
X104029557Y-105785519D01*
X104095740Y-105779000D01*
X104184260Y-105779000D01*
X104250443Y-105785519D01*
X104250443Y-105785519D01*
G37*
G36*
X101710443Y-105785519D02*
X101776627Y-105792037D01*
X101889853Y-105826384D01*
X101946467Y-105843557D01*
X102048246Y-105897960D01*
X102102991Y-105927222D01*
X102138729Y-105956552D01*
X102240186Y-106039814D01*
X102323448Y-106141271D01*
X102352778Y-106177009D01*
X102352779Y-106177011D01*
X102436443Y-106333533D01*
X102436443Y-106333534D01*
X102487963Y-106503373D01*
X102505359Y-106680000D01*
X102487963Y-106856627D01*
X102453616Y-106969853D01*
X102436443Y-107026467D01*
X102364224Y-107161578D01*
X102352778Y-107182991D01*
X102323448Y-107218729D01*
X102240186Y-107320186D01*
X102138729Y-107403448D01*
X102102991Y-107432778D01*
X102102989Y-107432779D01*
X101946467Y-107516443D01*
X101889853Y-107533616D01*
X101776627Y-107567963D01*
X101710443Y-107574481D01*
X101644260Y-107581000D01*
X101555740Y-107581000D01*
X101489557Y-107574481D01*
X101423373Y-107567963D01*
X101310147Y-107533616D01*
X101253533Y-107516443D01*
X101097011Y-107432779D01*
X101097009Y-107432778D01*
X101061271Y-107403448D01*
X100959814Y-107320186D01*
X100876552Y-107218729D01*
X100847222Y-107182991D01*
X100835776Y-107161578D01*
X100763557Y-107026467D01*
X100746384Y-106969853D01*
X100712037Y-106856627D01*
X100694641Y-106680000D01*
X100712037Y-106503373D01*
X100763557Y-106333534D01*
X100763557Y-106333533D01*
X100847221Y-106177011D01*
X100847222Y-106177009D01*
X100876552Y-106141271D01*
X100959814Y-106039814D01*
X101061271Y-105956552D01*
X101097009Y-105927222D01*
X101151754Y-105897960D01*
X101253533Y-105843557D01*
X101310147Y-105826384D01*
X101423373Y-105792037D01*
X101489557Y-105785519D01*
X101555740Y-105779000D01*
X101644260Y-105779000D01*
X101710443Y-105785519D01*
X101710443Y-105785519D01*
G37*
G36*
X99170443Y-105785519D02*
X99236627Y-105792037D01*
X99349853Y-105826384D01*
X99406467Y-105843557D01*
X99508246Y-105897960D01*
X99562991Y-105927222D01*
X99598729Y-105956552D01*
X99700186Y-106039814D01*
X99783448Y-106141271D01*
X99812778Y-106177009D01*
X99812779Y-106177011D01*
X99896443Y-106333533D01*
X99896443Y-106333534D01*
X99947963Y-106503373D01*
X99965359Y-106680000D01*
X99947963Y-106856627D01*
X99913616Y-106969853D01*
X99896443Y-107026467D01*
X99824224Y-107161578D01*
X99812778Y-107182991D01*
X99783448Y-107218729D01*
X99700186Y-107320186D01*
X99598729Y-107403448D01*
X99562991Y-107432778D01*
X99562989Y-107432779D01*
X99406467Y-107516443D01*
X99349853Y-107533616D01*
X99236627Y-107567963D01*
X99170443Y-107574481D01*
X99104260Y-107581000D01*
X99015740Y-107581000D01*
X98949557Y-107574481D01*
X98883373Y-107567963D01*
X98770147Y-107533616D01*
X98713533Y-107516443D01*
X98557011Y-107432779D01*
X98557009Y-107432778D01*
X98521271Y-107403448D01*
X98419814Y-107320186D01*
X98336552Y-107218729D01*
X98307222Y-107182991D01*
X98295776Y-107161578D01*
X98223557Y-107026467D01*
X98206384Y-106969853D01*
X98172037Y-106856627D01*
X98154641Y-106680000D01*
X98172037Y-106503373D01*
X98223557Y-106333534D01*
X98223557Y-106333533D01*
X98307221Y-106177011D01*
X98307222Y-106177009D01*
X98336552Y-106141271D01*
X98419814Y-106039814D01*
X98521271Y-105956552D01*
X98557009Y-105927222D01*
X98611754Y-105897960D01*
X98713533Y-105843557D01*
X98770147Y-105826384D01*
X98883373Y-105792037D01*
X98949557Y-105785519D01*
X99015740Y-105779000D01*
X99104260Y-105779000D01*
X99170443Y-105785519D01*
X99170443Y-105785519D01*
G37*
G36*
X96630443Y-105785519D02*
X96696627Y-105792037D01*
X96809853Y-105826384D01*
X96866467Y-105843557D01*
X96968246Y-105897960D01*
X97022991Y-105927222D01*
X97058729Y-105956552D01*
X97160186Y-106039814D01*
X97243448Y-106141271D01*
X97272778Y-106177009D01*
X97272779Y-106177011D01*
X97356443Y-106333533D01*
X97356443Y-106333534D01*
X97407963Y-106503373D01*
X97425359Y-106680000D01*
X97407963Y-106856627D01*
X97373616Y-106969853D01*
X97356443Y-107026467D01*
X97284224Y-107161578D01*
X97272778Y-107182991D01*
X97243448Y-107218729D01*
X97160186Y-107320186D01*
X97058729Y-107403448D01*
X97022991Y-107432778D01*
X97022989Y-107432779D01*
X96866467Y-107516443D01*
X96809853Y-107533616D01*
X96696627Y-107567963D01*
X96630443Y-107574481D01*
X96564260Y-107581000D01*
X96475740Y-107581000D01*
X96409557Y-107574481D01*
X96343373Y-107567963D01*
X96230147Y-107533616D01*
X96173533Y-107516443D01*
X96017011Y-107432779D01*
X96017009Y-107432778D01*
X95981271Y-107403448D01*
X95879814Y-107320186D01*
X95796552Y-107218729D01*
X95767222Y-107182991D01*
X95755776Y-107161578D01*
X95683557Y-107026467D01*
X95666384Y-106969853D01*
X95632037Y-106856627D01*
X95614641Y-106680000D01*
X95632037Y-106503373D01*
X95683557Y-106333534D01*
X95683557Y-106333533D01*
X95767221Y-106177011D01*
X95767222Y-106177009D01*
X95796552Y-106141271D01*
X95879814Y-106039814D01*
X95981271Y-105956552D01*
X96017009Y-105927222D01*
X96071754Y-105897960D01*
X96173533Y-105843557D01*
X96230147Y-105826384D01*
X96343373Y-105792037D01*
X96409557Y-105785519D01*
X96475740Y-105779000D01*
X96564260Y-105779000D01*
X96630443Y-105785519D01*
X96630443Y-105785519D01*
G37*
G36*
X119546821Y-95681313D02*
X119546824Y-95681314D01*
X119546825Y-95681314D01*
X119707239Y-95729975D01*
X119707241Y-95729976D01*
X119707244Y-95729977D01*
X119855078Y-95808995D01*
X119984659Y-95915341D01*
X120091005Y-96044922D01*
X120170023Y-96192756D01*
X120218687Y-96353179D01*
X120235117Y-96520000D01*
X120218687Y-96686821D01*
X120170023Y-96847244D01*
X120091005Y-96995078D01*
X119984659Y-97124659D01*
X119855078Y-97231005D01*
X119707244Y-97310023D01*
X119707241Y-97310024D01*
X119707239Y-97310025D01*
X119546825Y-97358686D01*
X119546824Y-97358686D01*
X119546821Y-97358687D01*
X119421804Y-97371000D01*
X119338196Y-97371000D01*
X119213179Y-97358687D01*
X119213176Y-97358686D01*
X119213175Y-97358686D01*
X119052761Y-97310025D01*
X119052759Y-97310024D01*
X119052756Y-97310023D01*
X118904922Y-97231005D01*
X118775341Y-97124659D01*
X118668995Y-96995078D01*
X118589977Y-96847244D01*
X118541313Y-96686821D01*
X118524883Y-96520000D01*
X118541313Y-96353179D01*
X118589977Y-96192756D01*
X118668995Y-96044922D01*
X118775341Y-95915341D01*
X118904922Y-95808995D01*
X119052756Y-95729977D01*
X119052759Y-95729976D01*
X119052761Y-95729975D01*
X119213175Y-95681314D01*
X119213176Y-95681314D01*
X119213179Y-95681313D01*
X119338196Y-95669000D01*
X119421804Y-95669000D01*
X119546821Y-95681313D01*
X119546821Y-95681313D01*
G37*
G36*
X122086821Y-95681313D02*
X122086824Y-95681314D01*
X122086825Y-95681314D01*
X122247239Y-95729975D01*
X122247241Y-95729976D01*
X122247244Y-95729977D01*
X122395078Y-95808995D01*
X122524659Y-95915341D01*
X122631005Y-96044922D01*
X122710023Y-96192756D01*
X122758687Y-96353179D01*
X122775117Y-96520000D01*
X122758687Y-96686821D01*
X122710023Y-96847244D01*
X122631005Y-96995078D01*
X122524659Y-97124659D01*
X122395078Y-97231005D01*
X122247244Y-97310023D01*
X122247241Y-97310024D01*
X122247239Y-97310025D01*
X122086825Y-97358686D01*
X122086824Y-97358686D01*
X122086821Y-97358687D01*
X121961804Y-97371000D01*
X121878196Y-97371000D01*
X121753179Y-97358687D01*
X121753176Y-97358686D01*
X121753175Y-97358686D01*
X121592761Y-97310025D01*
X121592759Y-97310024D01*
X121592756Y-97310023D01*
X121444922Y-97231005D01*
X121315341Y-97124659D01*
X121208995Y-96995078D01*
X121129977Y-96847244D01*
X121081313Y-96686821D01*
X121064883Y-96520000D01*
X121081313Y-96353179D01*
X121129977Y-96192756D01*
X121208995Y-96044922D01*
X121315341Y-95915341D01*
X121444922Y-95808995D01*
X121592756Y-95729977D01*
X121592759Y-95729976D01*
X121592761Y-95729975D01*
X121753175Y-95681314D01*
X121753176Y-95681314D01*
X121753179Y-95681313D01*
X121878196Y-95669000D01*
X121961804Y-95669000D01*
X122086821Y-95681313D01*
X122086821Y-95681313D01*
G37*
G36*
X124626821Y-95681313D02*
X124626824Y-95681314D01*
X124626825Y-95681314D01*
X124787239Y-95729975D01*
X124787241Y-95729976D01*
X124787244Y-95729977D01*
X124935078Y-95808995D01*
X125064659Y-95915341D01*
X125171005Y-96044922D01*
X125250023Y-96192756D01*
X125298687Y-96353179D01*
X125315117Y-96520000D01*
X125298687Y-96686821D01*
X125250023Y-96847244D01*
X125171005Y-96995078D01*
X125064659Y-97124659D01*
X124935078Y-97231005D01*
X124787244Y-97310023D01*
X124787241Y-97310024D01*
X124787239Y-97310025D01*
X124626825Y-97358686D01*
X124626824Y-97358686D01*
X124626821Y-97358687D01*
X124501804Y-97371000D01*
X124418196Y-97371000D01*
X124293179Y-97358687D01*
X124293176Y-97358686D01*
X124293175Y-97358686D01*
X124132761Y-97310025D01*
X124132759Y-97310024D01*
X124132756Y-97310023D01*
X123984922Y-97231005D01*
X123855341Y-97124659D01*
X123748995Y-96995078D01*
X123669977Y-96847244D01*
X123621313Y-96686821D01*
X123604883Y-96520000D01*
X123621313Y-96353179D01*
X123669977Y-96192756D01*
X123748995Y-96044922D01*
X123855341Y-95915341D01*
X123984922Y-95808995D01*
X124132756Y-95729977D01*
X124132759Y-95729976D01*
X124132761Y-95729975D01*
X124293175Y-95681314D01*
X124293176Y-95681314D01*
X124293179Y-95681313D01*
X124418196Y-95669000D01*
X124501804Y-95669000D01*
X124626821Y-95681313D01*
X124626821Y-95681313D01*
G37*
G36*
X127166821Y-95681313D02*
X127166824Y-95681314D01*
X127166825Y-95681314D01*
X127327239Y-95729975D01*
X127327241Y-95729976D01*
X127327244Y-95729977D01*
X127475078Y-95808995D01*
X127604659Y-95915341D01*
X127711005Y-96044922D01*
X127790023Y-96192756D01*
X127838687Y-96353179D01*
X127855117Y-96520000D01*
X127838687Y-96686821D01*
X127790023Y-96847244D01*
X127711005Y-96995078D01*
X127604659Y-97124659D01*
X127475078Y-97231005D01*
X127327244Y-97310023D01*
X127327241Y-97310024D01*
X127327239Y-97310025D01*
X127166825Y-97358686D01*
X127166824Y-97358686D01*
X127166821Y-97358687D01*
X127041804Y-97371000D01*
X126958196Y-97371000D01*
X126833179Y-97358687D01*
X126833176Y-97358686D01*
X126833175Y-97358686D01*
X126672761Y-97310025D01*
X126672759Y-97310024D01*
X126672756Y-97310023D01*
X126524922Y-97231005D01*
X126395341Y-97124659D01*
X126288995Y-96995078D01*
X126209977Y-96847244D01*
X126161313Y-96686821D01*
X126144883Y-96520000D01*
X126161313Y-96353179D01*
X126209977Y-96192756D01*
X126288995Y-96044922D01*
X126395341Y-95915341D01*
X126524922Y-95808995D01*
X126672756Y-95729977D01*
X126672759Y-95729976D01*
X126672761Y-95729975D01*
X126833175Y-95681314D01*
X126833176Y-95681314D01*
X126833179Y-95681313D01*
X126958196Y-95669000D01*
X127041804Y-95669000D01*
X127166821Y-95681313D01*
X127166821Y-95681313D01*
G37*
G36*
X129706821Y-95681313D02*
X129706824Y-95681314D01*
X129706825Y-95681314D01*
X129867239Y-95729975D01*
X129867241Y-95729976D01*
X129867244Y-95729977D01*
X130015078Y-95808995D01*
X130144659Y-95915341D01*
X130251005Y-96044922D01*
X130330023Y-96192756D01*
X130378687Y-96353179D01*
X130395117Y-96520000D01*
X130378687Y-96686821D01*
X130330023Y-96847244D01*
X130251005Y-96995078D01*
X130144659Y-97124659D01*
X130015078Y-97231005D01*
X129867244Y-97310023D01*
X129867241Y-97310024D01*
X129867239Y-97310025D01*
X129706825Y-97358686D01*
X129706824Y-97358686D01*
X129706821Y-97358687D01*
X129581804Y-97371000D01*
X129498196Y-97371000D01*
X129373179Y-97358687D01*
X129373176Y-97358686D01*
X129373175Y-97358686D01*
X129212761Y-97310025D01*
X129212759Y-97310024D01*
X129212756Y-97310023D01*
X129064922Y-97231005D01*
X128935341Y-97124659D01*
X128828995Y-96995078D01*
X128749977Y-96847244D01*
X128701313Y-96686821D01*
X128684883Y-96520000D01*
X128701313Y-96353179D01*
X128749977Y-96192756D01*
X128828995Y-96044922D01*
X128935341Y-95915341D01*
X129064922Y-95808995D01*
X129212756Y-95729977D01*
X129212759Y-95729976D01*
X129212761Y-95729975D01*
X129373175Y-95681314D01*
X129373176Y-95681314D01*
X129373179Y-95681313D01*
X129498196Y-95669000D01*
X129581804Y-95669000D01*
X129706821Y-95681313D01*
X129706821Y-95681313D01*
G37*
G36*
X132246821Y-95681313D02*
X132246824Y-95681314D01*
X132246825Y-95681314D01*
X132407239Y-95729975D01*
X132407241Y-95729976D01*
X132407244Y-95729977D01*
X132555078Y-95808995D01*
X132684659Y-95915341D01*
X132791005Y-96044922D01*
X132870023Y-96192756D01*
X132918687Y-96353179D01*
X132935117Y-96520000D01*
X132918687Y-96686821D01*
X132870023Y-96847244D01*
X132791005Y-96995078D01*
X132684659Y-97124659D01*
X132555078Y-97231005D01*
X132407244Y-97310023D01*
X132407241Y-97310024D01*
X132407239Y-97310025D01*
X132246825Y-97358686D01*
X132246824Y-97358686D01*
X132246821Y-97358687D01*
X132121804Y-97371000D01*
X132038196Y-97371000D01*
X131913179Y-97358687D01*
X131913176Y-97358686D01*
X131913175Y-97358686D01*
X131752761Y-97310025D01*
X131752759Y-97310024D01*
X131752756Y-97310023D01*
X131604922Y-97231005D01*
X131475341Y-97124659D01*
X131368995Y-96995078D01*
X131289977Y-96847244D01*
X131241313Y-96686821D01*
X131224883Y-96520000D01*
X131241313Y-96353179D01*
X131289977Y-96192756D01*
X131368995Y-96044922D01*
X131475341Y-95915341D01*
X131604922Y-95808995D01*
X131752756Y-95729977D01*
X131752759Y-95729976D01*
X131752761Y-95729975D01*
X131913175Y-95681314D01*
X131913176Y-95681314D01*
X131913179Y-95681313D01*
X132038196Y-95669000D01*
X132121804Y-95669000D01*
X132246821Y-95681313D01*
X132246821Y-95681313D01*
G37*
G36*
X134786821Y-95681313D02*
X134786824Y-95681314D01*
X134786825Y-95681314D01*
X134947239Y-95729975D01*
X134947241Y-95729976D01*
X134947244Y-95729977D01*
X135095078Y-95808995D01*
X135224659Y-95915341D01*
X135331005Y-96044922D01*
X135410023Y-96192756D01*
X135458687Y-96353179D01*
X135475117Y-96520000D01*
X135458687Y-96686821D01*
X135410023Y-96847244D01*
X135331005Y-96995078D01*
X135224659Y-97124659D01*
X135095078Y-97231005D01*
X134947244Y-97310023D01*
X134947241Y-97310024D01*
X134947239Y-97310025D01*
X134786825Y-97358686D01*
X134786824Y-97358686D01*
X134786821Y-97358687D01*
X134661804Y-97371000D01*
X134578196Y-97371000D01*
X134453179Y-97358687D01*
X134453176Y-97358686D01*
X134453175Y-97358686D01*
X134292761Y-97310025D01*
X134292759Y-97310024D01*
X134292756Y-97310023D01*
X134144922Y-97231005D01*
X134015341Y-97124659D01*
X133908995Y-96995078D01*
X133829977Y-96847244D01*
X133781313Y-96686821D01*
X133764883Y-96520000D01*
X133781313Y-96353179D01*
X133829977Y-96192756D01*
X133908995Y-96044922D01*
X134015341Y-95915341D01*
X134144922Y-95808995D01*
X134292756Y-95729977D01*
X134292759Y-95729976D01*
X134292761Y-95729975D01*
X134453175Y-95681314D01*
X134453176Y-95681314D01*
X134453179Y-95681313D01*
X134578196Y-95669000D01*
X134661804Y-95669000D01*
X134786821Y-95681313D01*
X134786821Y-95681313D01*
G37*
G36*
X90336821Y-95681313D02*
X90336824Y-95681314D01*
X90336825Y-95681314D01*
X90497239Y-95729975D01*
X90497241Y-95729976D01*
X90497244Y-95729977D01*
X90645078Y-95808995D01*
X90774659Y-95915341D01*
X90881005Y-96044922D01*
X90960023Y-96192756D01*
X91008687Y-96353179D01*
X91025117Y-96520000D01*
X91008687Y-96686821D01*
X90960023Y-96847244D01*
X90881005Y-96995078D01*
X90774659Y-97124659D01*
X90645078Y-97231005D01*
X90497244Y-97310023D01*
X90497241Y-97310024D01*
X90497239Y-97310025D01*
X90336825Y-97358686D01*
X90336824Y-97358686D01*
X90336821Y-97358687D01*
X90211804Y-97371000D01*
X90128196Y-97371000D01*
X90003179Y-97358687D01*
X90003176Y-97358686D01*
X90003175Y-97358686D01*
X89842761Y-97310025D01*
X89842759Y-97310024D01*
X89842756Y-97310023D01*
X89694922Y-97231005D01*
X89565341Y-97124659D01*
X89458995Y-96995078D01*
X89379977Y-96847244D01*
X89331313Y-96686821D01*
X89314883Y-96520000D01*
X89331313Y-96353179D01*
X89379977Y-96192756D01*
X89458995Y-96044922D01*
X89565341Y-95915341D01*
X89694922Y-95808995D01*
X89842756Y-95729977D01*
X89842759Y-95729976D01*
X89842761Y-95729975D01*
X90003175Y-95681314D01*
X90003176Y-95681314D01*
X90003179Y-95681313D01*
X90128196Y-95669000D01*
X90211804Y-95669000D01*
X90336821Y-95681313D01*
X90336821Y-95681313D01*
G37*
G36*
X167806821Y-95681313D02*
X167806824Y-95681314D01*
X167806825Y-95681314D01*
X167967239Y-95729975D01*
X167967241Y-95729976D01*
X167967244Y-95729977D01*
X168115078Y-95808995D01*
X168244659Y-95915341D01*
X168351005Y-96044922D01*
X168430023Y-96192756D01*
X168478687Y-96353179D01*
X168495117Y-96520000D01*
X168478687Y-96686821D01*
X168430023Y-96847244D01*
X168351005Y-96995078D01*
X168244659Y-97124659D01*
X168115078Y-97231005D01*
X167967244Y-97310023D01*
X167967241Y-97310024D01*
X167967239Y-97310025D01*
X167806825Y-97358686D01*
X167806824Y-97358686D01*
X167806821Y-97358687D01*
X167681804Y-97371000D01*
X167598196Y-97371000D01*
X167473179Y-97358687D01*
X167473176Y-97358686D01*
X167473175Y-97358686D01*
X167312761Y-97310025D01*
X167312759Y-97310024D01*
X167312756Y-97310023D01*
X167164922Y-97231005D01*
X167035341Y-97124659D01*
X166928995Y-96995078D01*
X166849977Y-96847244D01*
X166801313Y-96686821D01*
X166784883Y-96520000D01*
X166801313Y-96353179D01*
X166849977Y-96192756D01*
X166928995Y-96044922D01*
X167035341Y-95915341D01*
X167164922Y-95808995D01*
X167312756Y-95729977D01*
X167312759Y-95729976D01*
X167312761Y-95729975D01*
X167473175Y-95681314D01*
X167473176Y-95681314D01*
X167473179Y-95681313D01*
X167598196Y-95669000D01*
X167681804Y-95669000D01*
X167806821Y-95681313D01*
X167806821Y-95681313D01*
G37*
G36*
X165266821Y-95681313D02*
X165266824Y-95681314D01*
X165266825Y-95681314D01*
X165427239Y-95729975D01*
X165427241Y-95729976D01*
X165427244Y-95729977D01*
X165575078Y-95808995D01*
X165704659Y-95915341D01*
X165811005Y-96044922D01*
X165890023Y-96192756D01*
X165938687Y-96353179D01*
X165955117Y-96520000D01*
X165938687Y-96686821D01*
X165890023Y-96847244D01*
X165811005Y-96995078D01*
X165704659Y-97124659D01*
X165575078Y-97231005D01*
X165427244Y-97310023D01*
X165427241Y-97310024D01*
X165427239Y-97310025D01*
X165266825Y-97358686D01*
X165266824Y-97358686D01*
X165266821Y-97358687D01*
X165141804Y-97371000D01*
X165058196Y-97371000D01*
X164933179Y-97358687D01*
X164933176Y-97358686D01*
X164933175Y-97358686D01*
X164772761Y-97310025D01*
X164772759Y-97310024D01*
X164772756Y-97310023D01*
X164624922Y-97231005D01*
X164495341Y-97124659D01*
X164388995Y-96995078D01*
X164309977Y-96847244D01*
X164261313Y-96686821D01*
X164244883Y-96520000D01*
X164261313Y-96353179D01*
X164309977Y-96192756D01*
X164388995Y-96044922D01*
X164495341Y-95915341D01*
X164624922Y-95808995D01*
X164772756Y-95729977D01*
X164772759Y-95729976D01*
X164772761Y-95729975D01*
X164933175Y-95681314D01*
X164933176Y-95681314D01*
X164933179Y-95681313D01*
X165058196Y-95669000D01*
X165141804Y-95669000D01*
X165266821Y-95681313D01*
X165266821Y-95681313D01*
G37*
G36*
X162726821Y-95681313D02*
X162726824Y-95681314D01*
X162726825Y-95681314D01*
X162887239Y-95729975D01*
X162887241Y-95729976D01*
X162887244Y-95729977D01*
X163035078Y-95808995D01*
X163164659Y-95915341D01*
X163271005Y-96044922D01*
X163350023Y-96192756D01*
X163398687Y-96353179D01*
X163415117Y-96520000D01*
X163398687Y-96686821D01*
X163350023Y-96847244D01*
X163271005Y-96995078D01*
X163164659Y-97124659D01*
X163035078Y-97231005D01*
X162887244Y-97310023D01*
X162887241Y-97310024D01*
X162887239Y-97310025D01*
X162726825Y-97358686D01*
X162726824Y-97358686D01*
X162726821Y-97358687D01*
X162601804Y-97371000D01*
X162518196Y-97371000D01*
X162393179Y-97358687D01*
X162393176Y-97358686D01*
X162393175Y-97358686D01*
X162232761Y-97310025D01*
X162232759Y-97310024D01*
X162232756Y-97310023D01*
X162084922Y-97231005D01*
X161955341Y-97124659D01*
X161848995Y-96995078D01*
X161769977Y-96847244D01*
X161721313Y-96686821D01*
X161704883Y-96520000D01*
X161721313Y-96353179D01*
X161769977Y-96192756D01*
X161848995Y-96044922D01*
X161955341Y-95915341D01*
X162084922Y-95808995D01*
X162232756Y-95729977D01*
X162232759Y-95729976D01*
X162232761Y-95729975D01*
X162393175Y-95681314D01*
X162393176Y-95681314D01*
X162393179Y-95681313D01*
X162518196Y-95669000D01*
X162601804Y-95669000D01*
X162726821Y-95681313D01*
X162726821Y-95681313D01*
G37*
G36*
X137326821Y-95681313D02*
X137326824Y-95681314D01*
X137326825Y-95681314D01*
X137487239Y-95729975D01*
X137487241Y-95729976D01*
X137487244Y-95729977D01*
X137635078Y-95808995D01*
X137764659Y-95915341D01*
X137871005Y-96044922D01*
X137950023Y-96192756D01*
X137998687Y-96353179D01*
X138015117Y-96520000D01*
X137998687Y-96686821D01*
X137950023Y-96847244D01*
X137871005Y-96995078D01*
X137764659Y-97124659D01*
X137635078Y-97231005D01*
X137487244Y-97310023D01*
X137487241Y-97310024D01*
X137487239Y-97310025D01*
X137326825Y-97358686D01*
X137326824Y-97358686D01*
X137326821Y-97358687D01*
X137201804Y-97371000D01*
X137118196Y-97371000D01*
X136993179Y-97358687D01*
X136993176Y-97358686D01*
X136993175Y-97358686D01*
X136832761Y-97310025D01*
X136832759Y-97310024D01*
X136832756Y-97310023D01*
X136684922Y-97231005D01*
X136555341Y-97124659D01*
X136448995Y-96995078D01*
X136369977Y-96847244D01*
X136321313Y-96686821D01*
X136304883Y-96520000D01*
X136321313Y-96353179D01*
X136369977Y-96192756D01*
X136448995Y-96044922D01*
X136555341Y-95915341D01*
X136684922Y-95808995D01*
X136832756Y-95729977D01*
X136832759Y-95729976D01*
X136832761Y-95729975D01*
X136993175Y-95681314D01*
X136993176Y-95681314D01*
X136993179Y-95681313D01*
X137118196Y-95669000D01*
X137201804Y-95669000D01*
X137326821Y-95681313D01*
X137326821Y-95681313D01*
G37*
G36*
X85256821Y-95681313D02*
X85256824Y-95681314D01*
X85256825Y-95681314D01*
X85417239Y-95729975D01*
X85417241Y-95729976D01*
X85417244Y-95729977D01*
X85565078Y-95808995D01*
X85694659Y-95915341D01*
X85801005Y-96044922D01*
X85880023Y-96192756D01*
X85928687Y-96353179D01*
X85945117Y-96520000D01*
X85928687Y-96686821D01*
X85880023Y-96847244D01*
X85801005Y-96995078D01*
X85694659Y-97124659D01*
X85565078Y-97231005D01*
X85417244Y-97310023D01*
X85417241Y-97310024D01*
X85417239Y-97310025D01*
X85256825Y-97358686D01*
X85256824Y-97358686D01*
X85256821Y-97358687D01*
X85131804Y-97371000D01*
X85048196Y-97371000D01*
X84923179Y-97358687D01*
X84923176Y-97358686D01*
X84923175Y-97358686D01*
X84762761Y-97310025D01*
X84762759Y-97310024D01*
X84762756Y-97310023D01*
X84614922Y-97231005D01*
X84485341Y-97124659D01*
X84378995Y-96995078D01*
X84299977Y-96847244D01*
X84251313Y-96686821D01*
X84234883Y-96520000D01*
X84251313Y-96353179D01*
X84299977Y-96192756D01*
X84378995Y-96044922D01*
X84485341Y-95915341D01*
X84614922Y-95808995D01*
X84762756Y-95729977D01*
X84762759Y-95729976D01*
X84762761Y-95729975D01*
X84923175Y-95681314D01*
X84923176Y-95681314D01*
X84923179Y-95681313D01*
X85048196Y-95669000D01*
X85131804Y-95669000D01*
X85256821Y-95681313D01*
X85256821Y-95681313D01*
G37*
G36*
X87796821Y-95681313D02*
X87796824Y-95681314D01*
X87796825Y-95681314D01*
X87957239Y-95729975D01*
X87957241Y-95729976D01*
X87957244Y-95729977D01*
X88105078Y-95808995D01*
X88234659Y-95915341D01*
X88341005Y-96044922D01*
X88420023Y-96192756D01*
X88468687Y-96353179D01*
X88485117Y-96520000D01*
X88468687Y-96686821D01*
X88420023Y-96847244D01*
X88341005Y-96995078D01*
X88234659Y-97124659D01*
X88105078Y-97231005D01*
X87957244Y-97310023D01*
X87957241Y-97310024D01*
X87957239Y-97310025D01*
X87796825Y-97358686D01*
X87796824Y-97358686D01*
X87796821Y-97358687D01*
X87671804Y-97371000D01*
X87588196Y-97371000D01*
X87463179Y-97358687D01*
X87463176Y-97358686D01*
X87463175Y-97358686D01*
X87302761Y-97310025D01*
X87302759Y-97310024D01*
X87302756Y-97310023D01*
X87154922Y-97231005D01*
X87025341Y-97124659D01*
X86918995Y-96995078D01*
X86839977Y-96847244D01*
X86791313Y-96686821D01*
X86774883Y-96520000D01*
X86791313Y-96353179D01*
X86839977Y-96192756D01*
X86918995Y-96044922D01*
X87025341Y-95915341D01*
X87154922Y-95808995D01*
X87302756Y-95729977D01*
X87302759Y-95729976D01*
X87302761Y-95729975D01*
X87463175Y-95681314D01*
X87463176Y-95681314D01*
X87463179Y-95681313D01*
X87588196Y-95669000D01*
X87671804Y-95669000D01*
X87796821Y-95681313D01*
X87796821Y-95681313D01*
G37*
G36*
X170346821Y-95681313D02*
X170346824Y-95681314D01*
X170346825Y-95681314D01*
X170507239Y-95729975D01*
X170507241Y-95729976D01*
X170507244Y-95729977D01*
X170655078Y-95808995D01*
X170784659Y-95915341D01*
X170891005Y-96044922D01*
X170970023Y-96192756D01*
X171018687Y-96353179D01*
X171035117Y-96520000D01*
X171018687Y-96686821D01*
X170970023Y-96847244D01*
X170891005Y-96995078D01*
X170784659Y-97124659D01*
X170655078Y-97231005D01*
X170507244Y-97310023D01*
X170507241Y-97310024D01*
X170507239Y-97310025D01*
X170346825Y-97358686D01*
X170346824Y-97358686D01*
X170346821Y-97358687D01*
X170221804Y-97371000D01*
X170138196Y-97371000D01*
X170013179Y-97358687D01*
X170013176Y-97358686D01*
X170013175Y-97358686D01*
X169852761Y-97310025D01*
X169852759Y-97310024D01*
X169852756Y-97310023D01*
X169704922Y-97231005D01*
X169575341Y-97124659D01*
X169468995Y-96995078D01*
X169389977Y-96847244D01*
X169341313Y-96686821D01*
X169324883Y-96520000D01*
X169341313Y-96353179D01*
X169389977Y-96192756D01*
X169468995Y-96044922D01*
X169575341Y-95915341D01*
X169704922Y-95808995D01*
X169852756Y-95729977D01*
X169852759Y-95729976D01*
X169852761Y-95729975D01*
X170013175Y-95681314D01*
X170013176Y-95681314D01*
X170013179Y-95681313D01*
X170138196Y-95669000D01*
X170221804Y-95669000D01*
X170346821Y-95681313D01*
X170346821Y-95681313D01*
G37*
G36*
X177966821Y-95681313D02*
X177966824Y-95681314D01*
X177966825Y-95681314D01*
X178127239Y-95729975D01*
X178127241Y-95729976D01*
X178127244Y-95729977D01*
X178275078Y-95808995D01*
X178404659Y-95915341D01*
X178511005Y-96044922D01*
X178590023Y-96192756D01*
X178638687Y-96353179D01*
X178655117Y-96520000D01*
X178638687Y-96686821D01*
X178590023Y-96847244D01*
X178511005Y-96995078D01*
X178404659Y-97124659D01*
X178275078Y-97231005D01*
X178127244Y-97310023D01*
X178127241Y-97310024D01*
X178127239Y-97310025D01*
X177966825Y-97358686D01*
X177966824Y-97358686D01*
X177966821Y-97358687D01*
X177841804Y-97371000D01*
X177758196Y-97371000D01*
X177633179Y-97358687D01*
X177633176Y-97358686D01*
X177633175Y-97358686D01*
X177472761Y-97310025D01*
X177472759Y-97310024D01*
X177472756Y-97310023D01*
X177324922Y-97231005D01*
X177195341Y-97124659D01*
X177088995Y-96995078D01*
X177009977Y-96847244D01*
X176961313Y-96686821D01*
X176944883Y-96520000D01*
X176961313Y-96353179D01*
X177009977Y-96192756D01*
X177088995Y-96044922D01*
X177195341Y-95915341D01*
X177324922Y-95808995D01*
X177472756Y-95729977D01*
X177472759Y-95729976D01*
X177472761Y-95729975D01*
X177633175Y-95681314D01*
X177633176Y-95681314D01*
X177633179Y-95681313D01*
X177758196Y-95669000D01*
X177841804Y-95669000D01*
X177966821Y-95681313D01*
X177966821Y-95681313D01*
G37*
G36*
X175426821Y-95681313D02*
X175426824Y-95681314D01*
X175426825Y-95681314D01*
X175587239Y-95729975D01*
X175587241Y-95729976D01*
X175587244Y-95729977D01*
X175735078Y-95808995D01*
X175864659Y-95915341D01*
X175971005Y-96044922D01*
X176050023Y-96192756D01*
X176098687Y-96353179D01*
X176115117Y-96520000D01*
X176098687Y-96686821D01*
X176050023Y-96847244D01*
X175971005Y-96995078D01*
X175864659Y-97124659D01*
X175735078Y-97231005D01*
X175587244Y-97310023D01*
X175587241Y-97310024D01*
X175587239Y-97310025D01*
X175426825Y-97358686D01*
X175426824Y-97358686D01*
X175426821Y-97358687D01*
X175301804Y-97371000D01*
X175218196Y-97371000D01*
X175093179Y-97358687D01*
X175093176Y-97358686D01*
X175093175Y-97358686D01*
X174932761Y-97310025D01*
X174932759Y-97310024D01*
X174932756Y-97310023D01*
X174784922Y-97231005D01*
X174655341Y-97124659D01*
X174548995Y-96995078D01*
X174469977Y-96847244D01*
X174421313Y-96686821D01*
X174404883Y-96520000D01*
X174421313Y-96353179D01*
X174469977Y-96192756D01*
X174548995Y-96044922D01*
X174655341Y-95915341D01*
X174784922Y-95808995D01*
X174932756Y-95729977D01*
X174932759Y-95729976D01*
X174932761Y-95729975D01*
X175093175Y-95681314D01*
X175093176Y-95681314D01*
X175093179Y-95681313D01*
X175218196Y-95669000D01*
X175301804Y-95669000D01*
X175426821Y-95681313D01*
X175426821Y-95681313D01*
G37*
G36*
X180506821Y-95681313D02*
X180506824Y-95681314D01*
X180506825Y-95681314D01*
X180667239Y-95729975D01*
X180667241Y-95729976D01*
X180667244Y-95729977D01*
X180815078Y-95808995D01*
X180944659Y-95915341D01*
X181051005Y-96044922D01*
X181130023Y-96192756D01*
X181178687Y-96353179D01*
X181195117Y-96520000D01*
X181178687Y-96686821D01*
X181130023Y-96847244D01*
X181051005Y-96995078D01*
X180944659Y-97124659D01*
X180815078Y-97231005D01*
X180667244Y-97310023D01*
X180667241Y-97310024D01*
X180667239Y-97310025D01*
X180506825Y-97358686D01*
X180506824Y-97358686D01*
X180506821Y-97358687D01*
X180381804Y-97371000D01*
X180298196Y-97371000D01*
X180173179Y-97358687D01*
X180173176Y-97358686D01*
X180173175Y-97358686D01*
X180012761Y-97310025D01*
X180012759Y-97310024D01*
X180012756Y-97310023D01*
X179864922Y-97231005D01*
X179735341Y-97124659D01*
X179628995Y-96995078D01*
X179549977Y-96847244D01*
X179501313Y-96686821D01*
X179484883Y-96520000D01*
X179501313Y-96353179D01*
X179549977Y-96192756D01*
X179628995Y-96044922D01*
X179735341Y-95915341D01*
X179864922Y-95808995D01*
X180012756Y-95729977D01*
X180012759Y-95729976D01*
X180012761Y-95729975D01*
X180173175Y-95681314D01*
X180173176Y-95681314D01*
X180173179Y-95681313D01*
X180298196Y-95669000D01*
X180381804Y-95669000D01*
X180506821Y-95681313D01*
X180506821Y-95681313D01*
G37*
G36*
X172886821Y-95681313D02*
X172886824Y-95681314D01*
X172886825Y-95681314D01*
X173047239Y-95729975D01*
X173047241Y-95729976D01*
X173047244Y-95729977D01*
X173195078Y-95808995D01*
X173324659Y-95915341D01*
X173431005Y-96044922D01*
X173510023Y-96192756D01*
X173558687Y-96353179D01*
X173575117Y-96520000D01*
X173558687Y-96686821D01*
X173510023Y-96847244D01*
X173431005Y-96995078D01*
X173324659Y-97124659D01*
X173195078Y-97231005D01*
X173047244Y-97310023D01*
X173047241Y-97310024D01*
X173047239Y-97310025D01*
X172886825Y-97358686D01*
X172886824Y-97358686D01*
X172886821Y-97358687D01*
X172761804Y-97371000D01*
X172678196Y-97371000D01*
X172553179Y-97358687D01*
X172553176Y-97358686D01*
X172553175Y-97358686D01*
X172392761Y-97310025D01*
X172392759Y-97310024D01*
X172392756Y-97310023D01*
X172244922Y-97231005D01*
X172115341Y-97124659D01*
X172008995Y-96995078D01*
X171929977Y-96847244D01*
X171881313Y-96686821D01*
X171864883Y-96520000D01*
X171881313Y-96353179D01*
X171929977Y-96192756D01*
X172008995Y-96044922D01*
X172115341Y-95915341D01*
X172244922Y-95808995D01*
X172392756Y-95729977D01*
X172392759Y-95729976D01*
X172392761Y-95729975D01*
X172553175Y-95681314D01*
X172553176Y-95681314D01*
X172553179Y-95681313D01*
X172678196Y-95669000D01*
X172761804Y-95669000D01*
X172886821Y-95681313D01*
X172886821Y-95681313D01*
G37*
G36*
X72556821Y-95681313D02*
X72556824Y-95681314D01*
X72556825Y-95681314D01*
X72717239Y-95729975D01*
X72717241Y-95729976D01*
X72717244Y-95729977D01*
X72865078Y-95808995D01*
X72994659Y-95915341D01*
X73101005Y-96044922D01*
X73180023Y-96192756D01*
X73228687Y-96353179D01*
X73245117Y-96520000D01*
X73228687Y-96686821D01*
X73180023Y-96847244D01*
X73101005Y-96995078D01*
X72994659Y-97124659D01*
X72865078Y-97231005D01*
X72717244Y-97310023D01*
X72717241Y-97310024D01*
X72717239Y-97310025D01*
X72556825Y-97358686D01*
X72556824Y-97358686D01*
X72556821Y-97358687D01*
X72431804Y-97371000D01*
X72348196Y-97371000D01*
X72223179Y-97358687D01*
X72223176Y-97358686D01*
X72223175Y-97358686D01*
X72062761Y-97310025D01*
X72062759Y-97310024D01*
X72062756Y-97310023D01*
X71914922Y-97231005D01*
X71785341Y-97124659D01*
X71678995Y-96995078D01*
X71599977Y-96847244D01*
X71551313Y-96686821D01*
X71534883Y-96520000D01*
X71551313Y-96353179D01*
X71599977Y-96192756D01*
X71678995Y-96044922D01*
X71785341Y-95915341D01*
X71914922Y-95808995D01*
X72062756Y-95729977D01*
X72062759Y-95729976D01*
X72062761Y-95729975D01*
X72223175Y-95681314D01*
X72223176Y-95681314D01*
X72223179Y-95681313D01*
X72348196Y-95669000D01*
X72431804Y-95669000D01*
X72556821Y-95681313D01*
X72556821Y-95681313D01*
G37*
G36*
X75096821Y-95681313D02*
X75096824Y-95681314D01*
X75096825Y-95681314D01*
X75257239Y-95729975D01*
X75257241Y-95729976D01*
X75257244Y-95729977D01*
X75405078Y-95808995D01*
X75534659Y-95915341D01*
X75641005Y-96044922D01*
X75720023Y-96192756D01*
X75768687Y-96353179D01*
X75785117Y-96520000D01*
X75768687Y-96686821D01*
X75720023Y-96847244D01*
X75641005Y-96995078D01*
X75534659Y-97124659D01*
X75405078Y-97231005D01*
X75257244Y-97310023D01*
X75257241Y-97310024D01*
X75257239Y-97310025D01*
X75096825Y-97358686D01*
X75096824Y-97358686D01*
X75096821Y-97358687D01*
X74971804Y-97371000D01*
X74888196Y-97371000D01*
X74763179Y-97358687D01*
X74763176Y-97358686D01*
X74763175Y-97358686D01*
X74602761Y-97310025D01*
X74602759Y-97310024D01*
X74602756Y-97310023D01*
X74454922Y-97231005D01*
X74325341Y-97124659D01*
X74218995Y-96995078D01*
X74139977Y-96847244D01*
X74091313Y-96686821D01*
X74074883Y-96520000D01*
X74091313Y-96353179D01*
X74139977Y-96192756D01*
X74218995Y-96044922D01*
X74325341Y-95915341D01*
X74454922Y-95808995D01*
X74602756Y-95729977D01*
X74602759Y-95729976D01*
X74602761Y-95729975D01*
X74763175Y-95681314D01*
X74763176Y-95681314D01*
X74763179Y-95681313D01*
X74888196Y-95669000D01*
X74971804Y-95669000D01*
X75096821Y-95681313D01*
X75096821Y-95681313D01*
G37*
G36*
X77636821Y-95681313D02*
X77636824Y-95681314D01*
X77636825Y-95681314D01*
X77797239Y-95729975D01*
X77797241Y-95729976D01*
X77797244Y-95729977D01*
X77945078Y-95808995D01*
X78074659Y-95915341D01*
X78181005Y-96044922D01*
X78260023Y-96192756D01*
X78308687Y-96353179D01*
X78325117Y-96520000D01*
X78308687Y-96686821D01*
X78260023Y-96847244D01*
X78181005Y-96995078D01*
X78074659Y-97124659D01*
X77945078Y-97231005D01*
X77797244Y-97310023D01*
X77797241Y-97310024D01*
X77797239Y-97310025D01*
X77636825Y-97358686D01*
X77636824Y-97358686D01*
X77636821Y-97358687D01*
X77511804Y-97371000D01*
X77428196Y-97371000D01*
X77303179Y-97358687D01*
X77303176Y-97358686D01*
X77303175Y-97358686D01*
X77142761Y-97310025D01*
X77142759Y-97310024D01*
X77142756Y-97310023D01*
X76994922Y-97231005D01*
X76865341Y-97124659D01*
X76758995Y-96995078D01*
X76679977Y-96847244D01*
X76631313Y-96686821D01*
X76614883Y-96520000D01*
X76631313Y-96353179D01*
X76679977Y-96192756D01*
X76758995Y-96044922D01*
X76865341Y-95915341D01*
X76994922Y-95808995D01*
X77142756Y-95729977D01*
X77142759Y-95729976D01*
X77142761Y-95729975D01*
X77303175Y-95681314D01*
X77303176Y-95681314D01*
X77303179Y-95681313D01*
X77428196Y-95669000D01*
X77511804Y-95669000D01*
X77636821Y-95681313D01*
X77636821Y-95681313D01*
G37*
G36*
X80176821Y-95681313D02*
X80176824Y-95681314D01*
X80176825Y-95681314D01*
X80337239Y-95729975D01*
X80337241Y-95729976D01*
X80337244Y-95729977D01*
X80485078Y-95808995D01*
X80614659Y-95915341D01*
X80721005Y-96044922D01*
X80800023Y-96192756D01*
X80848687Y-96353179D01*
X80865117Y-96520000D01*
X80848687Y-96686821D01*
X80800023Y-96847244D01*
X80721005Y-96995078D01*
X80614659Y-97124659D01*
X80485078Y-97231005D01*
X80337244Y-97310023D01*
X80337241Y-97310024D01*
X80337239Y-97310025D01*
X80176825Y-97358686D01*
X80176824Y-97358686D01*
X80176821Y-97358687D01*
X80051804Y-97371000D01*
X79968196Y-97371000D01*
X79843179Y-97358687D01*
X79843176Y-97358686D01*
X79843175Y-97358686D01*
X79682761Y-97310025D01*
X79682759Y-97310024D01*
X79682756Y-97310023D01*
X79534922Y-97231005D01*
X79405341Y-97124659D01*
X79298995Y-96995078D01*
X79219977Y-96847244D01*
X79171313Y-96686821D01*
X79154883Y-96520000D01*
X79171313Y-96353179D01*
X79219977Y-96192756D01*
X79298995Y-96044922D01*
X79405341Y-95915341D01*
X79534922Y-95808995D01*
X79682756Y-95729977D01*
X79682759Y-95729976D01*
X79682761Y-95729975D01*
X79843175Y-95681314D01*
X79843176Y-95681314D01*
X79843179Y-95681313D01*
X79968196Y-95669000D01*
X80051804Y-95669000D01*
X80176821Y-95681313D01*
X80176821Y-95681313D01*
G37*
G36*
X82716821Y-95681313D02*
X82716824Y-95681314D01*
X82716825Y-95681314D01*
X82877239Y-95729975D01*
X82877241Y-95729976D01*
X82877244Y-95729977D01*
X83025078Y-95808995D01*
X83154659Y-95915341D01*
X83261005Y-96044922D01*
X83340023Y-96192756D01*
X83388687Y-96353179D01*
X83405117Y-96520000D01*
X83388687Y-96686821D01*
X83340023Y-96847244D01*
X83261005Y-96995078D01*
X83154659Y-97124659D01*
X83025078Y-97231005D01*
X82877244Y-97310023D01*
X82877241Y-97310024D01*
X82877239Y-97310025D01*
X82716825Y-97358686D01*
X82716824Y-97358686D01*
X82716821Y-97358687D01*
X82591804Y-97371000D01*
X82508196Y-97371000D01*
X82383179Y-97358687D01*
X82383176Y-97358686D01*
X82383175Y-97358686D01*
X82222761Y-97310025D01*
X82222759Y-97310024D01*
X82222756Y-97310023D01*
X82074922Y-97231005D01*
X81945341Y-97124659D01*
X81838995Y-96995078D01*
X81759977Y-96847244D01*
X81711313Y-96686821D01*
X81694883Y-96520000D01*
X81711313Y-96353179D01*
X81759977Y-96192756D01*
X81838995Y-96044922D01*
X81945341Y-95915341D01*
X82074922Y-95808995D01*
X82222756Y-95729977D01*
X82222759Y-95729976D01*
X82222761Y-95729975D01*
X82383175Y-95681314D01*
X82383176Y-95681314D01*
X82383179Y-95681313D01*
X82508196Y-95669000D01*
X82591804Y-95669000D01*
X82716821Y-95681313D01*
X82716821Y-95681313D01*
G37*
G36*
X167806821Y-88061313D02*
X167806824Y-88061314D01*
X167806825Y-88061314D01*
X167967239Y-88109975D01*
X167967241Y-88109976D01*
X167967244Y-88109977D01*
X168115078Y-88188995D01*
X168244659Y-88295341D01*
X168351005Y-88424922D01*
X168430023Y-88572756D01*
X168478687Y-88733179D01*
X168495117Y-88900000D01*
X168478687Y-89066821D01*
X168430023Y-89227244D01*
X168351005Y-89375078D01*
X168244659Y-89504659D01*
X168115078Y-89611005D01*
X167967244Y-89690023D01*
X167967241Y-89690024D01*
X167967239Y-89690025D01*
X167806825Y-89738686D01*
X167806824Y-89738686D01*
X167806821Y-89738687D01*
X167681804Y-89751000D01*
X167598196Y-89751000D01*
X167473179Y-89738687D01*
X167473176Y-89738686D01*
X167473175Y-89738686D01*
X167312761Y-89690025D01*
X167312759Y-89690024D01*
X167312756Y-89690023D01*
X167164922Y-89611005D01*
X167035341Y-89504659D01*
X166928995Y-89375078D01*
X166849977Y-89227244D01*
X166801313Y-89066821D01*
X166784883Y-88900000D01*
X166801313Y-88733179D01*
X166849977Y-88572756D01*
X166928995Y-88424922D01*
X167035341Y-88295341D01*
X167164922Y-88188995D01*
X167312756Y-88109977D01*
X167312759Y-88109976D01*
X167312761Y-88109975D01*
X167473175Y-88061314D01*
X167473176Y-88061314D01*
X167473179Y-88061313D01*
X167598196Y-88049000D01*
X167681804Y-88049000D01*
X167806821Y-88061313D01*
X167806821Y-88061313D01*
G37*
G36*
X134786821Y-88061313D02*
X134786824Y-88061314D01*
X134786825Y-88061314D01*
X134947239Y-88109975D01*
X134947241Y-88109976D01*
X134947244Y-88109977D01*
X135095078Y-88188995D01*
X135224659Y-88295341D01*
X135331005Y-88424922D01*
X135410023Y-88572756D01*
X135458687Y-88733179D01*
X135475117Y-88900000D01*
X135458687Y-89066821D01*
X135410023Y-89227244D01*
X135331005Y-89375078D01*
X135224659Y-89504659D01*
X135095078Y-89611005D01*
X134947244Y-89690023D01*
X134947241Y-89690024D01*
X134947239Y-89690025D01*
X134786825Y-89738686D01*
X134786824Y-89738686D01*
X134786821Y-89738687D01*
X134661804Y-89751000D01*
X134578196Y-89751000D01*
X134453179Y-89738687D01*
X134453176Y-89738686D01*
X134453175Y-89738686D01*
X134292761Y-89690025D01*
X134292759Y-89690024D01*
X134292756Y-89690023D01*
X134144922Y-89611005D01*
X134015341Y-89504659D01*
X133908995Y-89375078D01*
X133829977Y-89227244D01*
X133781313Y-89066821D01*
X133764883Y-88900000D01*
X133781313Y-88733179D01*
X133829977Y-88572756D01*
X133908995Y-88424922D01*
X134015341Y-88295341D01*
X134144922Y-88188995D01*
X134292756Y-88109977D01*
X134292759Y-88109976D01*
X134292761Y-88109975D01*
X134453175Y-88061314D01*
X134453176Y-88061314D01*
X134453179Y-88061313D01*
X134578196Y-88049000D01*
X134661804Y-88049000D01*
X134786821Y-88061313D01*
X134786821Y-88061313D01*
G37*
G36*
X132246821Y-88061313D02*
X132246824Y-88061314D01*
X132246825Y-88061314D01*
X132407239Y-88109975D01*
X132407241Y-88109976D01*
X132407244Y-88109977D01*
X132555078Y-88188995D01*
X132684659Y-88295341D01*
X132791005Y-88424922D01*
X132870023Y-88572756D01*
X132918687Y-88733179D01*
X132935117Y-88900000D01*
X132918687Y-89066821D01*
X132870023Y-89227244D01*
X132791005Y-89375078D01*
X132684659Y-89504659D01*
X132555078Y-89611005D01*
X132407244Y-89690023D01*
X132407241Y-89690024D01*
X132407239Y-89690025D01*
X132246825Y-89738686D01*
X132246824Y-89738686D01*
X132246821Y-89738687D01*
X132121804Y-89751000D01*
X132038196Y-89751000D01*
X131913179Y-89738687D01*
X131913176Y-89738686D01*
X131913175Y-89738686D01*
X131752761Y-89690025D01*
X131752759Y-89690024D01*
X131752756Y-89690023D01*
X131604922Y-89611005D01*
X131475341Y-89504659D01*
X131368995Y-89375078D01*
X131289977Y-89227244D01*
X131241313Y-89066821D01*
X131224883Y-88900000D01*
X131241313Y-88733179D01*
X131289977Y-88572756D01*
X131368995Y-88424922D01*
X131475341Y-88295341D01*
X131604922Y-88188995D01*
X131752756Y-88109977D01*
X131752759Y-88109976D01*
X131752761Y-88109975D01*
X131913175Y-88061314D01*
X131913176Y-88061314D01*
X131913179Y-88061313D01*
X132038196Y-88049000D01*
X132121804Y-88049000D01*
X132246821Y-88061313D01*
X132246821Y-88061313D01*
G37*
G36*
X138011000Y-89751000D02*
X136309000Y-89751000D01*
X136309000Y-88049000D01*
X138011000Y-88049000D01*
X138011000Y-89751000D01*
X138011000Y-89751000D01*
G37*
G36*
X129706821Y-88061313D02*
X129706824Y-88061314D01*
X129706825Y-88061314D01*
X129867239Y-88109975D01*
X129867241Y-88109976D01*
X129867244Y-88109977D01*
X130015078Y-88188995D01*
X130144659Y-88295341D01*
X130251005Y-88424922D01*
X130330023Y-88572756D01*
X130378687Y-88733179D01*
X130395117Y-88900000D01*
X130378687Y-89066821D01*
X130330023Y-89227244D01*
X130251005Y-89375078D01*
X130144659Y-89504659D01*
X130015078Y-89611005D01*
X129867244Y-89690023D01*
X129867241Y-89690024D01*
X129867239Y-89690025D01*
X129706825Y-89738686D01*
X129706824Y-89738686D01*
X129706821Y-89738687D01*
X129581804Y-89751000D01*
X129498196Y-89751000D01*
X129373179Y-89738687D01*
X129373176Y-89738686D01*
X129373175Y-89738686D01*
X129212761Y-89690025D01*
X129212759Y-89690024D01*
X129212756Y-89690023D01*
X129064922Y-89611005D01*
X128935341Y-89504659D01*
X128828995Y-89375078D01*
X128749977Y-89227244D01*
X128701313Y-89066821D01*
X128684883Y-88900000D01*
X128701313Y-88733179D01*
X128749977Y-88572756D01*
X128828995Y-88424922D01*
X128935341Y-88295341D01*
X129064922Y-88188995D01*
X129212756Y-88109977D01*
X129212759Y-88109976D01*
X129212761Y-88109975D01*
X129373175Y-88061314D01*
X129373176Y-88061314D01*
X129373179Y-88061313D01*
X129498196Y-88049000D01*
X129581804Y-88049000D01*
X129706821Y-88061313D01*
X129706821Y-88061313D01*
G37*
G36*
X127166821Y-88061313D02*
X127166824Y-88061314D01*
X127166825Y-88061314D01*
X127327239Y-88109975D01*
X127327241Y-88109976D01*
X127327244Y-88109977D01*
X127475078Y-88188995D01*
X127604659Y-88295341D01*
X127711005Y-88424922D01*
X127790023Y-88572756D01*
X127838687Y-88733179D01*
X127855117Y-88900000D01*
X127838687Y-89066821D01*
X127790023Y-89227244D01*
X127711005Y-89375078D01*
X127604659Y-89504659D01*
X127475078Y-89611005D01*
X127327244Y-89690023D01*
X127327241Y-89690024D01*
X127327239Y-89690025D01*
X127166825Y-89738686D01*
X127166824Y-89738686D01*
X127166821Y-89738687D01*
X127041804Y-89751000D01*
X126958196Y-89751000D01*
X126833179Y-89738687D01*
X126833176Y-89738686D01*
X126833175Y-89738686D01*
X126672761Y-89690025D01*
X126672759Y-89690024D01*
X126672756Y-89690023D01*
X126524922Y-89611005D01*
X126395341Y-89504659D01*
X126288995Y-89375078D01*
X126209977Y-89227244D01*
X126161313Y-89066821D01*
X126144883Y-88900000D01*
X126161313Y-88733179D01*
X126209977Y-88572756D01*
X126288995Y-88424922D01*
X126395341Y-88295341D01*
X126524922Y-88188995D01*
X126672756Y-88109977D01*
X126672759Y-88109976D01*
X126672761Y-88109975D01*
X126833175Y-88061314D01*
X126833176Y-88061314D01*
X126833179Y-88061313D01*
X126958196Y-88049000D01*
X127041804Y-88049000D01*
X127166821Y-88061313D01*
X127166821Y-88061313D01*
G37*
G36*
X124626821Y-88061313D02*
X124626824Y-88061314D01*
X124626825Y-88061314D01*
X124787239Y-88109975D01*
X124787241Y-88109976D01*
X124787244Y-88109977D01*
X124935078Y-88188995D01*
X125064659Y-88295341D01*
X125171005Y-88424922D01*
X125250023Y-88572756D01*
X125298687Y-88733179D01*
X125315117Y-88900000D01*
X125298687Y-89066821D01*
X125250023Y-89227244D01*
X125171005Y-89375078D01*
X125064659Y-89504659D01*
X124935078Y-89611005D01*
X124787244Y-89690023D01*
X124787241Y-89690024D01*
X124787239Y-89690025D01*
X124626825Y-89738686D01*
X124626824Y-89738686D01*
X124626821Y-89738687D01*
X124501804Y-89751000D01*
X124418196Y-89751000D01*
X124293179Y-89738687D01*
X124293176Y-89738686D01*
X124293175Y-89738686D01*
X124132761Y-89690025D01*
X124132759Y-89690024D01*
X124132756Y-89690023D01*
X123984922Y-89611005D01*
X123855341Y-89504659D01*
X123748995Y-89375078D01*
X123669977Y-89227244D01*
X123621313Y-89066821D01*
X123604883Y-88900000D01*
X123621313Y-88733179D01*
X123669977Y-88572756D01*
X123748995Y-88424922D01*
X123855341Y-88295341D01*
X123984922Y-88188995D01*
X124132756Y-88109977D01*
X124132759Y-88109976D01*
X124132761Y-88109975D01*
X124293175Y-88061314D01*
X124293176Y-88061314D01*
X124293179Y-88061313D01*
X124418196Y-88049000D01*
X124501804Y-88049000D01*
X124626821Y-88061313D01*
X124626821Y-88061313D01*
G37*
G36*
X122086821Y-88061313D02*
X122086824Y-88061314D01*
X122086825Y-88061314D01*
X122247239Y-88109975D01*
X122247241Y-88109976D01*
X122247244Y-88109977D01*
X122395078Y-88188995D01*
X122524659Y-88295341D01*
X122631005Y-88424922D01*
X122710023Y-88572756D01*
X122758687Y-88733179D01*
X122775117Y-88900000D01*
X122758687Y-89066821D01*
X122710023Y-89227244D01*
X122631005Y-89375078D01*
X122524659Y-89504659D01*
X122395078Y-89611005D01*
X122247244Y-89690023D01*
X122247241Y-89690024D01*
X122247239Y-89690025D01*
X122086825Y-89738686D01*
X122086824Y-89738686D01*
X122086821Y-89738687D01*
X121961804Y-89751000D01*
X121878196Y-89751000D01*
X121753179Y-89738687D01*
X121753176Y-89738686D01*
X121753175Y-89738686D01*
X121592761Y-89690025D01*
X121592759Y-89690024D01*
X121592756Y-89690023D01*
X121444922Y-89611005D01*
X121315341Y-89504659D01*
X121208995Y-89375078D01*
X121129977Y-89227244D01*
X121081313Y-89066821D01*
X121064883Y-88900000D01*
X121081313Y-88733179D01*
X121129977Y-88572756D01*
X121208995Y-88424922D01*
X121315341Y-88295341D01*
X121444922Y-88188995D01*
X121592756Y-88109977D01*
X121592759Y-88109976D01*
X121592761Y-88109975D01*
X121753175Y-88061314D01*
X121753176Y-88061314D01*
X121753179Y-88061313D01*
X121878196Y-88049000D01*
X121961804Y-88049000D01*
X122086821Y-88061313D01*
X122086821Y-88061313D01*
G37*
G36*
X181191000Y-89751000D02*
X179489000Y-89751000D01*
X179489000Y-88049000D01*
X181191000Y-88049000D01*
X181191000Y-89751000D01*
X181191000Y-89751000D01*
G37*
G36*
X177966821Y-88061313D02*
X177966824Y-88061314D01*
X177966825Y-88061314D01*
X178127239Y-88109975D01*
X178127241Y-88109976D01*
X178127244Y-88109977D01*
X178275078Y-88188995D01*
X178404659Y-88295341D01*
X178511005Y-88424922D01*
X178590023Y-88572756D01*
X178638687Y-88733179D01*
X178655117Y-88900000D01*
X178638687Y-89066821D01*
X178590023Y-89227244D01*
X178511005Y-89375078D01*
X178404659Y-89504659D01*
X178275078Y-89611005D01*
X178127244Y-89690023D01*
X178127241Y-89690024D01*
X178127239Y-89690025D01*
X177966825Y-89738686D01*
X177966824Y-89738686D01*
X177966821Y-89738687D01*
X177841804Y-89751000D01*
X177758196Y-89751000D01*
X177633179Y-89738687D01*
X177633176Y-89738686D01*
X177633175Y-89738686D01*
X177472761Y-89690025D01*
X177472759Y-89690024D01*
X177472756Y-89690023D01*
X177324922Y-89611005D01*
X177195341Y-89504659D01*
X177088995Y-89375078D01*
X177009977Y-89227244D01*
X176961313Y-89066821D01*
X176944883Y-88900000D01*
X176961313Y-88733179D01*
X177009977Y-88572756D01*
X177088995Y-88424922D01*
X177195341Y-88295341D01*
X177324922Y-88188995D01*
X177472756Y-88109977D01*
X177472759Y-88109976D01*
X177472761Y-88109975D01*
X177633175Y-88061314D01*
X177633176Y-88061314D01*
X177633179Y-88061313D01*
X177758196Y-88049000D01*
X177841804Y-88049000D01*
X177966821Y-88061313D01*
X177966821Y-88061313D01*
G37*
G36*
X72556821Y-88061313D02*
X72556824Y-88061314D01*
X72556825Y-88061314D01*
X72717239Y-88109975D01*
X72717241Y-88109976D01*
X72717244Y-88109977D01*
X72865078Y-88188995D01*
X72994659Y-88295341D01*
X73101005Y-88424922D01*
X73180023Y-88572756D01*
X73228687Y-88733179D01*
X73245117Y-88900000D01*
X73228687Y-89066821D01*
X73180023Y-89227244D01*
X73101005Y-89375078D01*
X72994659Y-89504659D01*
X72865078Y-89611005D01*
X72717244Y-89690023D01*
X72717241Y-89690024D01*
X72717239Y-89690025D01*
X72556825Y-89738686D01*
X72556824Y-89738686D01*
X72556821Y-89738687D01*
X72431804Y-89751000D01*
X72348196Y-89751000D01*
X72223179Y-89738687D01*
X72223176Y-89738686D01*
X72223175Y-89738686D01*
X72062761Y-89690025D01*
X72062759Y-89690024D01*
X72062756Y-89690023D01*
X71914922Y-89611005D01*
X71785341Y-89504659D01*
X71678995Y-89375078D01*
X71599977Y-89227244D01*
X71551313Y-89066821D01*
X71534883Y-88900000D01*
X71551313Y-88733179D01*
X71599977Y-88572756D01*
X71678995Y-88424922D01*
X71785341Y-88295341D01*
X71914922Y-88188995D01*
X72062756Y-88109977D01*
X72062759Y-88109976D01*
X72062761Y-88109975D01*
X72223175Y-88061314D01*
X72223176Y-88061314D01*
X72223179Y-88061313D01*
X72348196Y-88049000D01*
X72431804Y-88049000D01*
X72556821Y-88061313D01*
X72556821Y-88061313D01*
G37*
G36*
X75096821Y-88061313D02*
X75096824Y-88061314D01*
X75096825Y-88061314D01*
X75257239Y-88109975D01*
X75257241Y-88109976D01*
X75257244Y-88109977D01*
X75405078Y-88188995D01*
X75534659Y-88295341D01*
X75641005Y-88424922D01*
X75720023Y-88572756D01*
X75768687Y-88733179D01*
X75785117Y-88900000D01*
X75768687Y-89066821D01*
X75720023Y-89227244D01*
X75641005Y-89375078D01*
X75534659Y-89504659D01*
X75405078Y-89611005D01*
X75257244Y-89690023D01*
X75257241Y-89690024D01*
X75257239Y-89690025D01*
X75096825Y-89738686D01*
X75096824Y-89738686D01*
X75096821Y-89738687D01*
X74971804Y-89751000D01*
X74888196Y-89751000D01*
X74763179Y-89738687D01*
X74763176Y-89738686D01*
X74763175Y-89738686D01*
X74602761Y-89690025D01*
X74602759Y-89690024D01*
X74602756Y-89690023D01*
X74454922Y-89611005D01*
X74325341Y-89504659D01*
X74218995Y-89375078D01*
X74139977Y-89227244D01*
X74091313Y-89066821D01*
X74074883Y-88900000D01*
X74091313Y-88733179D01*
X74139977Y-88572756D01*
X74218995Y-88424922D01*
X74325341Y-88295341D01*
X74454922Y-88188995D01*
X74602756Y-88109977D01*
X74602759Y-88109976D01*
X74602761Y-88109975D01*
X74763175Y-88061314D01*
X74763176Y-88061314D01*
X74763179Y-88061313D01*
X74888196Y-88049000D01*
X74971804Y-88049000D01*
X75096821Y-88061313D01*
X75096821Y-88061313D01*
G37*
G36*
X91021000Y-89751000D02*
X89319000Y-89751000D01*
X89319000Y-88049000D01*
X91021000Y-88049000D01*
X91021000Y-89751000D01*
X91021000Y-89751000D01*
G37*
G36*
X82716821Y-88061313D02*
X82716824Y-88061314D01*
X82716825Y-88061314D01*
X82877239Y-88109975D01*
X82877241Y-88109976D01*
X82877244Y-88109977D01*
X83025078Y-88188995D01*
X83154659Y-88295341D01*
X83261005Y-88424922D01*
X83340023Y-88572756D01*
X83388687Y-88733179D01*
X83405117Y-88900000D01*
X83388687Y-89066821D01*
X83340023Y-89227244D01*
X83261005Y-89375078D01*
X83154659Y-89504659D01*
X83025078Y-89611005D01*
X82877244Y-89690023D01*
X82877241Y-89690024D01*
X82877239Y-89690025D01*
X82716825Y-89738686D01*
X82716824Y-89738686D01*
X82716821Y-89738687D01*
X82591804Y-89751000D01*
X82508196Y-89751000D01*
X82383179Y-89738687D01*
X82383176Y-89738686D01*
X82383175Y-89738686D01*
X82222761Y-89690025D01*
X82222759Y-89690024D01*
X82222756Y-89690023D01*
X82074922Y-89611005D01*
X81945341Y-89504659D01*
X81838995Y-89375078D01*
X81759977Y-89227244D01*
X81711313Y-89066821D01*
X81694883Y-88900000D01*
X81711313Y-88733179D01*
X81759977Y-88572756D01*
X81838995Y-88424922D01*
X81945341Y-88295341D01*
X82074922Y-88188995D01*
X82222756Y-88109977D01*
X82222759Y-88109976D01*
X82222761Y-88109975D01*
X82383175Y-88061314D01*
X82383176Y-88061314D01*
X82383179Y-88061313D01*
X82508196Y-88049000D01*
X82591804Y-88049000D01*
X82716821Y-88061313D01*
X82716821Y-88061313D01*
G37*
G36*
X77636821Y-88061313D02*
X77636824Y-88061314D01*
X77636825Y-88061314D01*
X77797239Y-88109975D01*
X77797241Y-88109976D01*
X77797244Y-88109977D01*
X77945078Y-88188995D01*
X78074659Y-88295341D01*
X78181005Y-88424922D01*
X78260023Y-88572756D01*
X78308687Y-88733179D01*
X78325117Y-88900000D01*
X78308687Y-89066821D01*
X78260023Y-89227244D01*
X78181005Y-89375078D01*
X78074659Y-89504659D01*
X77945078Y-89611005D01*
X77797244Y-89690023D01*
X77797241Y-89690024D01*
X77797239Y-89690025D01*
X77636825Y-89738686D01*
X77636824Y-89738686D01*
X77636821Y-89738687D01*
X77511804Y-89751000D01*
X77428196Y-89751000D01*
X77303179Y-89738687D01*
X77303176Y-89738686D01*
X77303175Y-89738686D01*
X77142761Y-89690025D01*
X77142759Y-89690024D01*
X77142756Y-89690023D01*
X76994922Y-89611005D01*
X76865341Y-89504659D01*
X76758995Y-89375078D01*
X76679977Y-89227244D01*
X76631313Y-89066821D01*
X76614883Y-88900000D01*
X76631313Y-88733179D01*
X76679977Y-88572756D01*
X76758995Y-88424922D01*
X76865341Y-88295341D01*
X76994922Y-88188995D01*
X77142756Y-88109977D01*
X77142759Y-88109976D01*
X77142761Y-88109975D01*
X77303175Y-88061314D01*
X77303176Y-88061314D01*
X77303179Y-88061313D01*
X77428196Y-88049000D01*
X77511804Y-88049000D01*
X77636821Y-88061313D01*
X77636821Y-88061313D01*
G37*
G36*
X172886821Y-88061313D02*
X172886824Y-88061314D01*
X172886825Y-88061314D01*
X173047239Y-88109975D01*
X173047241Y-88109976D01*
X173047244Y-88109977D01*
X173195078Y-88188995D01*
X173324659Y-88295341D01*
X173431005Y-88424922D01*
X173510023Y-88572756D01*
X173558687Y-88733179D01*
X173575117Y-88900000D01*
X173558687Y-89066821D01*
X173510023Y-89227244D01*
X173431005Y-89375078D01*
X173324659Y-89504659D01*
X173195078Y-89611005D01*
X173047244Y-89690023D01*
X173047241Y-89690024D01*
X173047239Y-89690025D01*
X172886825Y-89738686D01*
X172886824Y-89738686D01*
X172886821Y-89738687D01*
X172761804Y-89751000D01*
X172678196Y-89751000D01*
X172553179Y-89738687D01*
X172553176Y-89738686D01*
X172553175Y-89738686D01*
X172392761Y-89690025D01*
X172392759Y-89690024D01*
X172392756Y-89690023D01*
X172244922Y-89611005D01*
X172115341Y-89504659D01*
X172008995Y-89375078D01*
X171929977Y-89227244D01*
X171881313Y-89066821D01*
X171864883Y-88900000D01*
X171881313Y-88733179D01*
X171929977Y-88572756D01*
X172008995Y-88424922D01*
X172115341Y-88295341D01*
X172244922Y-88188995D01*
X172392756Y-88109977D01*
X172392759Y-88109976D01*
X172392761Y-88109975D01*
X172553175Y-88061314D01*
X172553176Y-88061314D01*
X172553179Y-88061313D01*
X172678196Y-88049000D01*
X172761804Y-88049000D01*
X172886821Y-88061313D01*
X172886821Y-88061313D01*
G37*
G36*
X170346821Y-88061313D02*
X170346824Y-88061314D01*
X170346825Y-88061314D01*
X170507239Y-88109975D01*
X170507241Y-88109976D01*
X170507244Y-88109977D01*
X170655078Y-88188995D01*
X170784659Y-88295341D01*
X170891005Y-88424922D01*
X170970023Y-88572756D01*
X171018687Y-88733179D01*
X171035117Y-88900000D01*
X171018687Y-89066821D01*
X170970023Y-89227244D01*
X170891005Y-89375078D01*
X170784659Y-89504659D01*
X170655078Y-89611005D01*
X170507244Y-89690023D01*
X170507241Y-89690024D01*
X170507239Y-89690025D01*
X170346825Y-89738686D01*
X170346824Y-89738686D01*
X170346821Y-89738687D01*
X170221804Y-89751000D01*
X170138196Y-89751000D01*
X170013179Y-89738687D01*
X170013176Y-89738686D01*
X170013175Y-89738686D01*
X169852761Y-89690025D01*
X169852759Y-89690024D01*
X169852756Y-89690023D01*
X169704922Y-89611005D01*
X169575341Y-89504659D01*
X169468995Y-89375078D01*
X169389977Y-89227244D01*
X169341313Y-89066821D01*
X169324883Y-88900000D01*
X169341313Y-88733179D01*
X169389977Y-88572756D01*
X169468995Y-88424922D01*
X169575341Y-88295341D01*
X169704922Y-88188995D01*
X169852756Y-88109977D01*
X169852759Y-88109976D01*
X169852761Y-88109975D01*
X170013175Y-88061314D01*
X170013176Y-88061314D01*
X170013179Y-88061313D01*
X170138196Y-88049000D01*
X170221804Y-88049000D01*
X170346821Y-88061313D01*
X170346821Y-88061313D01*
G37*
G36*
X80176821Y-88061313D02*
X80176824Y-88061314D01*
X80176825Y-88061314D01*
X80337239Y-88109975D01*
X80337241Y-88109976D01*
X80337244Y-88109977D01*
X80485078Y-88188995D01*
X80614659Y-88295341D01*
X80721005Y-88424922D01*
X80800023Y-88572756D01*
X80848687Y-88733179D01*
X80865117Y-88900000D01*
X80848687Y-89066821D01*
X80800023Y-89227244D01*
X80721005Y-89375078D01*
X80614659Y-89504659D01*
X80485078Y-89611005D01*
X80337244Y-89690023D01*
X80337241Y-89690024D01*
X80337239Y-89690025D01*
X80176825Y-89738686D01*
X80176824Y-89738686D01*
X80176821Y-89738687D01*
X80051804Y-89751000D01*
X79968196Y-89751000D01*
X79843179Y-89738687D01*
X79843176Y-89738686D01*
X79843175Y-89738686D01*
X79682761Y-89690025D01*
X79682759Y-89690024D01*
X79682756Y-89690023D01*
X79534922Y-89611005D01*
X79405341Y-89504659D01*
X79298995Y-89375078D01*
X79219977Y-89227244D01*
X79171313Y-89066821D01*
X79154883Y-88900000D01*
X79171313Y-88733179D01*
X79219977Y-88572756D01*
X79298995Y-88424922D01*
X79405341Y-88295341D01*
X79534922Y-88188995D01*
X79682756Y-88109977D01*
X79682759Y-88109976D01*
X79682761Y-88109975D01*
X79843175Y-88061314D01*
X79843176Y-88061314D01*
X79843179Y-88061313D01*
X79968196Y-88049000D01*
X80051804Y-88049000D01*
X80176821Y-88061313D01*
X80176821Y-88061313D01*
G37*
G36*
X175426821Y-88061313D02*
X175426824Y-88061314D01*
X175426825Y-88061314D01*
X175587239Y-88109975D01*
X175587241Y-88109976D01*
X175587244Y-88109977D01*
X175735078Y-88188995D01*
X175864659Y-88295341D01*
X175971005Y-88424922D01*
X176050023Y-88572756D01*
X176098687Y-88733179D01*
X176115117Y-88900000D01*
X176098687Y-89066821D01*
X176050023Y-89227244D01*
X175971005Y-89375078D01*
X175864659Y-89504659D01*
X175735078Y-89611005D01*
X175587244Y-89690023D01*
X175587241Y-89690024D01*
X175587239Y-89690025D01*
X175426825Y-89738686D01*
X175426824Y-89738686D01*
X175426821Y-89738687D01*
X175301804Y-89751000D01*
X175218196Y-89751000D01*
X175093179Y-89738687D01*
X175093176Y-89738686D01*
X175093175Y-89738686D01*
X174932761Y-89690025D01*
X174932759Y-89690024D01*
X174932756Y-89690023D01*
X174784922Y-89611005D01*
X174655341Y-89504659D01*
X174548995Y-89375078D01*
X174469977Y-89227244D01*
X174421313Y-89066821D01*
X174404883Y-88900000D01*
X174421313Y-88733179D01*
X174469977Y-88572756D01*
X174548995Y-88424922D01*
X174655341Y-88295341D01*
X174784922Y-88188995D01*
X174932756Y-88109977D01*
X174932759Y-88109976D01*
X174932761Y-88109975D01*
X175093175Y-88061314D01*
X175093176Y-88061314D01*
X175093179Y-88061313D01*
X175218196Y-88049000D01*
X175301804Y-88049000D01*
X175426821Y-88061313D01*
X175426821Y-88061313D01*
G37*
G36*
X85256821Y-88061313D02*
X85256824Y-88061314D01*
X85256825Y-88061314D01*
X85417239Y-88109975D01*
X85417241Y-88109976D01*
X85417244Y-88109977D01*
X85565078Y-88188995D01*
X85694659Y-88295341D01*
X85801005Y-88424922D01*
X85880023Y-88572756D01*
X85928687Y-88733179D01*
X85945117Y-88900000D01*
X85928687Y-89066821D01*
X85880023Y-89227244D01*
X85801005Y-89375078D01*
X85694659Y-89504659D01*
X85565078Y-89611005D01*
X85417244Y-89690023D01*
X85417241Y-89690024D01*
X85417239Y-89690025D01*
X85256825Y-89738686D01*
X85256824Y-89738686D01*
X85256821Y-89738687D01*
X85131804Y-89751000D01*
X85048196Y-89751000D01*
X84923179Y-89738687D01*
X84923176Y-89738686D01*
X84923175Y-89738686D01*
X84762761Y-89690025D01*
X84762759Y-89690024D01*
X84762756Y-89690023D01*
X84614922Y-89611005D01*
X84485341Y-89504659D01*
X84378995Y-89375078D01*
X84299977Y-89227244D01*
X84251313Y-89066821D01*
X84234883Y-88900000D01*
X84251313Y-88733179D01*
X84299977Y-88572756D01*
X84378995Y-88424922D01*
X84485341Y-88295341D01*
X84614922Y-88188995D01*
X84762756Y-88109977D01*
X84762759Y-88109976D01*
X84762761Y-88109975D01*
X84923175Y-88061314D01*
X84923176Y-88061314D01*
X84923179Y-88061313D01*
X85048196Y-88049000D01*
X85131804Y-88049000D01*
X85256821Y-88061313D01*
X85256821Y-88061313D01*
G37*
G36*
X119546821Y-88061313D02*
X119546824Y-88061314D01*
X119546825Y-88061314D01*
X119707239Y-88109975D01*
X119707241Y-88109976D01*
X119707244Y-88109977D01*
X119855078Y-88188995D01*
X119984659Y-88295341D01*
X120091005Y-88424922D01*
X120170023Y-88572756D01*
X120218687Y-88733179D01*
X120235117Y-88900000D01*
X120218687Y-89066821D01*
X120170023Y-89227244D01*
X120091005Y-89375078D01*
X119984659Y-89504659D01*
X119855078Y-89611005D01*
X119707244Y-89690023D01*
X119707241Y-89690024D01*
X119707239Y-89690025D01*
X119546825Y-89738686D01*
X119546824Y-89738686D01*
X119546821Y-89738687D01*
X119421804Y-89751000D01*
X119338196Y-89751000D01*
X119213179Y-89738687D01*
X119213176Y-89738686D01*
X119213175Y-89738686D01*
X119052761Y-89690025D01*
X119052759Y-89690024D01*
X119052756Y-89690023D01*
X118904922Y-89611005D01*
X118775341Y-89504659D01*
X118668995Y-89375078D01*
X118589977Y-89227244D01*
X118541313Y-89066821D01*
X118524883Y-88900000D01*
X118541313Y-88733179D01*
X118589977Y-88572756D01*
X118668995Y-88424922D01*
X118775341Y-88295341D01*
X118904922Y-88188995D01*
X119052756Y-88109977D01*
X119052759Y-88109976D01*
X119052761Y-88109975D01*
X119213175Y-88061314D01*
X119213176Y-88061314D01*
X119213179Y-88061313D01*
X119338196Y-88049000D01*
X119421804Y-88049000D01*
X119546821Y-88061313D01*
X119546821Y-88061313D01*
G37*
G36*
X87796821Y-88061313D02*
X87796824Y-88061314D01*
X87796825Y-88061314D01*
X87957239Y-88109975D01*
X87957241Y-88109976D01*
X87957244Y-88109977D01*
X88105078Y-88188995D01*
X88234659Y-88295341D01*
X88341005Y-88424922D01*
X88420023Y-88572756D01*
X88468687Y-88733179D01*
X88485117Y-88900000D01*
X88468687Y-89066821D01*
X88420023Y-89227244D01*
X88341005Y-89375078D01*
X88234659Y-89504659D01*
X88105078Y-89611005D01*
X87957244Y-89690023D01*
X87957241Y-89690024D01*
X87957239Y-89690025D01*
X87796825Y-89738686D01*
X87796824Y-89738686D01*
X87796821Y-89738687D01*
X87671804Y-89751000D01*
X87588196Y-89751000D01*
X87463179Y-89738687D01*
X87463176Y-89738686D01*
X87463175Y-89738686D01*
X87302761Y-89690025D01*
X87302759Y-89690024D01*
X87302756Y-89690023D01*
X87154922Y-89611005D01*
X87025341Y-89504659D01*
X86918995Y-89375078D01*
X86839977Y-89227244D01*
X86791313Y-89066821D01*
X86774883Y-88900000D01*
X86791313Y-88733179D01*
X86839977Y-88572756D01*
X86918995Y-88424922D01*
X87025341Y-88295341D01*
X87154922Y-88188995D01*
X87302756Y-88109977D01*
X87302759Y-88109976D01*
X87302761Y-88109975D01*
X87463175Y-88061314D01*
X87463176Y-88061314D01*
X87463179Y-88061313D01*
X87588196Y-88049000D01*
X87671804Y-88049000D01*
X87796821Y-88061313D01*
X87796821Y-88061313D01*
G37*
G36*
X165266821Y-88061313D02*
X165266824Y-88061314D01*
X165266825Y-88061314D01*
X165427239Y-88109975D01*
X165427241Y-88109976D01*
X165427244Y-88109977D01*
X165575078Y-88188995D01*
X165704659Y-88295341D01*
X165811005Y-88424922D01*
X165890023Y-88572756D01*
X165938687Y-88733179D01*
X165955117Y-88900000D01*
X165938687Y-89066821D01*
X165890023Y-89227244D01*
X165811005Y-89375078D01*
X165704659Y-89504659D01*
X165575078Y-89611005D01*
X165427244Y-89690023D01*
X165427241Y-89690024D01*
X165427239Y-89690025D01*
X165266825Y-89738686D01*
X165266824Y-89738686D01*
X165266821Y-89738687D01*
X165141804Y-89751000D01*
X165058196Y-89751000D01*
X164933179Y-89738687D01*
X164933176Y-89738686D01*
X164933175Y-89738686D01*
X164772761Y-89690025D01*
X164772759Y-89690024D01*
X164772756Y-89690023D01*
X164624922Y-89611005D01*
X164495341Y-89504659D01*
X164388995Y-89375078D01*
X164309977Y-89227244D01*
X164261313Y-89066821D01*
X164244883Y-88900000D01*
X164261313Y-88733179D01*
X164309977Y-88572756D01*
X164388995Y-88424922D01*
X164495341Y-88295341D01*
X164624922Y-88188995D01*
X164772756Y-88109977D01*
X164772759Y-88109976D01*
X164772761Y-88109975D01*
X164933175Y-88061314D01*
X164933176Y-88061314D01*
X164933179Y-88061313D01*
X165058196Y-88049000D01*
X165141804Y-88049000D01*
X165266821Y-88061313D01*
X165266821Y-88061313D01*
G37*
G36*
X162726821Y-88061313D02*
X162726824Y-88061314D01*
X162726825Y-88061314D01*
X162887239Y-88109975D01*
X162887241Y-88109976D01*
X162887244Y-88109977D01*
X163035078Y-88188995D01*
X163164659Y-88295341D01*
X163271005Y-88424922D01*
X163350023Y-88572756D01*
X163398687Y-88733179D01*
X163415117Y-88900000D01*
X163398687Y-89066821D01*
X163350023Y-89227244D01*
X163271005Y-89375078D01*
X163164659Y-89504659D01*
X163035078Y-89611005D01*
X162887244Y-89690023D01*
X162887241Y-89690024D01*
X162887239Y-89690025D01*
X162726825Y-89738686D01*
X162726824Y-89738686D01*
X162726821Y-89738687D01*
X162601804Y-89751000D01*
X162518196Y-89751000D01*
X162393179Y-89738687D01*
X162393176Y-89738686D01*
X162393175Y-89738686D01*
X162232761Y-89690025D01*
X162232759Y-89690024D01*
X162232756Y-89690023D01*
X162084922Y-89611005D01*
X161955341Y-89504659D01*
X161848995Y-89375078D01*
X161769977Y-89227244D01*
X161721313Y-89066821D01*
X161704883Y-88900000D01*
X161721313Y-88733179D01*
X161769977Y-88572756D01*
X161848995Y-88424922D01*
X161955341Y-88295341D01*
X162084922Y-88188995D01*
X162232756Y-88109977D01*
X162232759Y-88109976D01*
X162232761Y-88109975D01*
X162393175Y-88061314D01*
X162393176Y-88061314D01*
X162393179Y-88061313D01*
X162518196Y-88049000D01*
X162601804Y-88049000D01*
X162726821Y-88061313D01*
X162726821Y-88061313D01*
G37*
G36*
X115818228Y-75381703D02*
X115973100Y-75445853D01*
X116112481Y-75538985D01*
X116231015Y-75657519D01*
X116324147Y-75796900D01*
X116388297Y-75951772D01*
X116421000Y-76116184D01*
X116421000Y-76283816D01*
X116388297Y-76448228D01*
X116324147Y-76603100D01*
X116231015Y-76742481D01*
X116112481Y-76861015D01*
X115973100Y-76954147D01*
X115818228Y-77018297D01*
X115653816Y-77051000D01*
X115486184Y-77051000D01*
X115321772Y-77018297D01*
X115166900Y-76954147D01*
X115027519Y-76861015D01*
X114908985Y-76742481D01*
X114815853Y-76603100D01*
X114751703Y-76448228D01*
X114719000Y-76283816D01*
X114719000Y-76116184D01*
X114751703Y-75951772D01*
X114815853Y-75796900D01*
X114908985Y-75657519D01*
X115027519Y-75538985D01*
X115166900Y-75445853D01*
X115321772Y-75381703D01*
X115486184Y-75349000D01*
X115653816Y-75349000D01*
X115818228Y-75381703D01*
X115818228Y-75381703D01*
G37*
G36*
X141136821Y-75361313D02*
X141136824Y-75361314D01*
X141136825Y-75361314D01*
X141297239Y-75409975D01*
X141297241Y-75409976D01*
X141297244Y-75409977D01*
X141445078Y-75488995D01*
X141574659Y-75595341D01*
X141681005Y-75724922D01*
X141760023Y-75872756D01*
X141760024Y-75872759D01*
X141760025Y-75872761D01*
X141808686Y-76033175D01*
X141808687Y-76033179D01*
X141825117Y-76200000D01*
X141808687Y-76366821D01*
X141808686Y-76366824D01*
X141808686Y-76366825D01*
X141783993Y-76448228D01*
X141760023Y-76527244D01*
X141681005Y-76675078D01*
X141574659Y-76804659D01*
X141445078Y-76911005D01*
X141297244Y-76990023D01*
X141297241Y-76990024D01*
X141297239Y-76990025D01*
X141136825Y-77038686D01*
X141136824Y-77038686D01*
X141136821Y-77038687D01*
X141011804Y-77051000D01*
X140928196Y-77051000D01*
X140803179Y-77038687D01*
X140803176Y-77038686D01*
X140803175Y-77038686D01*
X140642761Y-76990025D01*
X140642759Y-76990024D01*
X140642756Y-76990023D01*
X140494922Y-76911005D01*
X140365341Y-76804659D01*
X140258995Y-76675078D01*
X140179977Y-76527244D01*
X140156008Y-76448228D01*
X140131314Y-76366825D01*
X140131314Y-76366824D01*
X140131313Y-76366821D01*
X140114883Y-76200000D01*
X140131313Y-76033179D01*
X140131314Y-76033175D01*
X140179975Y-75872761D01*
X140179976Y-75872759D01*
X140179977Y-75872756D01*
X140258995Y-75724922D01*
X140365341Y-75595341D01*
X140494922Y-75488995D01*
X140642756Y-75409977D01*
X140642759Y-75409976D01*
X140642761Y-75409975D01*
X140803175Y-75361314D01*
X140803176Y-75361314D01*
X140803179Y-75361313D01*
X140928196Y-75349000D01*
X141011804Y-75349000D01*
X141136821Y-75361313D01*
X141136821Y-75361313D01*
G37*
G36*
X131058228Y-75381703D02*
X131213100Y-75445853D01*
X131352481Y-75538985D01*
X131471015Y-75657519D01*
X131564147Y-75796900D01*
X131628297Y-75951772D01*
X131661000Y-76116184D01*
X131661000Y-76283816D01*
X131628297Y-76448228D01*
X131564147Y-76603100D01*
X131471015Y-76742481D01*
X131352481Y-76861015D01*
X131213100Y-76954147D01*
X131058228Y-77018297D01*
X130893816Y-77051000D01*
X130726184Y-77051000D01*
X130561772Y-77018297D01*
X130406900Y-76954147D01*
X130267519Y-76861015D01*
X130148985Y-76742481D01*
X130055853Y-76603100D01*
X129991703Y-76448228D01*
X129959000Y-76283816D01*
X129959000Y-76116184D01*
X129991703Y-75951772D01*
X130055853Y-75796900D01*
X130148985Y-75657519D01*
X130267519Y-75538985D01*
X130406900Y-75445853D01*
X130561772Y-75381703D01*
X130726184Y-75349000D01*
X130893816Y-75349000D01*
X131058228Y-75381703D01*
X131058228Y-75381703D01*
G37*
G36*
X125896821Y-75361313D02*
X125896824Y-75361314D01*
X125896825Y-75361314D01*
X126057239Y-75409975D01*
X126057241Y-75409976D01*
X126057244Y-75409977D01*
X126205078Y-75488995D01*
X126334659Y-75595341D01*
X126441005Y-75724922D01*
X126520023Y-75872756D01*
X126520024Y-75872759D01*
X126520025Y-75872761D01*
X126568686Y-76033175D01*
X126568687Y-76033179D01*
X126585117Y-76200000D01*
X126568687Y-76366821D01*
X126568686Y-76366824D01*
X126568686Y-76366825D01*
X126543993Y-76448228D01*
X126520023Y-76527244D01*
X126441005Y-76675078D01*
X126334659Y-76804659D01*
X126205078Y-76911005D01*
X126057244Y-76990023D01*
X126057241Y-76990024D01*
X126057239Y-76990025D01*
X125896825Y-77038686D01*
X125896824Y-77038686D01*
X125896821Y-77038687D01*
X125771804Y-77051000D01*
X125688196Y-77051000D01*
X125563179Y-77038687D01*
X125563176Y-77038686D01*
X125563175Y-77038686D01*
X125402761Y-76990025D01*
X125402759Y-76990024D01*
X125402756Y-76990023D01*
X125254922Y-76911005D01*
X125125341Y-76804659D01*
X125018995Y-76675078D01*
X124939977Y-76527244D01*
X124916008Y-76448228D01*
X124891314Y-76366825D01*
X124891314Y-76366824D01*
X124891313Y-76366821D01*
X124874883Y-76200000D01*
X124891313Y-76033179D01*
X124891314Y-76033175D01*
X124939975Y-75872761D01*
X124939976Y-75872759D01*
X124939977Y-75872756D01*
X125018995Y-75724922D01*
X125125341Y-75595341D01*
X125254922Y-75488995D01*
X125402756Y-75409977D01*
X125402759Y-75409976D01*
X125402761Y-75409975D01*
X125563175Y-75361314D01*
X125563176Y-75361314D01*
X125563179Y-75361313D01*
X125688196Y-75349000D01*
X125771804Y-75349000D01*
X125896821Y-75361313D01*
X125896821Y-75361313D01*
G37*
G36*
X170065600Y-73495600D02*
X165963600Y-73495600D01*
X165963600Y-69393600D01*
X170065600Y-69393600D01*
X170065600Y-73495600D01*
X170065600Y-73495600D01*
G37*
G36*
X76065600Y-73495600D02*
X71963600Y-73495600D01*
X71963600Y-69393600D01*
X76065600Y-69393600D01*
X76065600Y-73495600D01*
X76065600Y-73495600D01*
G37*
G36*
X185847052Y-66433618D02*
X185847054Y-66433619D01*
X185847055Y-66433619D01*
X186220313Y-66588227D01*
X186220314Y-66588228D01*
X186556239Y-66812686D01*
X186841914Y-67098361D01*
X186841916Y-67098364D01*
X187066373Y-67434287D01*
X187208003Y-67776213D01*
X187220982Y-67807548D01*
X187299800Y-68203793D01*
X187299800Y-68607807D01*
X187223016Y-68993827D01*
X187220981Y-69004055D01*
X187066373Y-69377313D01*
X187066372Y-69377314D01*
X186841914Y-69713239D01*
X186556239Y-69998914D01*
X186556236Y-69998916D01*
X186220313Y-70223373D01*
X185847055Y-70377981D01*
X185847054Y-70377981D01*
X185847052Y-70377982D01*
X185450807Y-70456800D01*
X185046793Y-70456800D01*
X184650548Y-70377982D01*
X184650546Y-70377981D01*
X184650545Y-70377981D01*
X184277287Y-70223373D01*
X183941364Y-69998916D01*
X183941361Y-69998914D01*
X183655686Y-69713239D01*
X183431228Y-69377314D01*
X183431227Y-69377313D01*
X183276619Y-69004055D01*
X183274585Y-68993827D01*
X183197800Y-68607807D01*
X183197800Y-68203793D01*
X183276618Y-67807548D01*
X183289597Y-67776213D01*
X183431227Y-67434287D01*
X183655684Y-67098364D01*
X183655686Y-67098361D01*
X183941361Y-66812686D01*
X184277286Y-66588228D01*
X184277287Y-66588227D01*
X184650545Y-66433619D01*
X184650546Y-66433619D01*
X184650548Y-66433618D01*
X185046793Y-66354800D01*
X185450807Y-66354800D01*
X185847052Y-66433618D01*
X185847052Y-66433618D01*
G37*
G36*
X91847052Y-66433618D02*
X91847054Y-66433619D01*
X91847055Y-66433619D01*
X92220313Y-66588227D01*
X92220314Y-66588228D01*
X92556239Y-66812686D01*
X92841914Y-67098361D01*
X92841916Y-67098364D01*
X93066373Y-67434287D01*
X93208003Y-67776213D01*
X93220982Y-67807548D01*
X93299800Y-68203793D01*
X93299800Y-68607807D01*
X93223016Y-68993827D01*
X93220981Y-69004055D01*
X93066373Y-69377313D01*
X93066372Y-69377314D01*
X92841914Y-69713239D01*
X92556239Y-69998914D01*
X92556236Y-69998916D01*
X92220313Y-70223373D01*
X91847055Y-70377981D01*
X91847054Y-70377981D01*
X91847052Y-70377982D01*
X91450807Y-70456800D01*
X91046793Y-70456800D01*
X90650548Y-70377982D01*
X90650546Y-70377981D01*
X90650545Y-70377981D01*
X90277287Y-70223373D01*
X89941364Y-69998916D01*
X89941361Y-69998914D01*
X89655686Y-69713239D01*
X89431228Y-69377314D01*
X89431227Y-69377313D01*
X89276619Y-69004055D01*
X89274585Y-68993827D01*
X89197800Y-68607807D01*
X89197800Y-68203793D01*
X89276618Y-67807548D01*
X89289597Y-67776213D01*
X89431227Y-67434287D01*
X89655684Y-67098364D01*
X89655686Y-67098361D01*
X89941361Y-66812686D01*
X90277286Y-66588228D01*
X90277287Y-66588227D01*
X90650545Y-66433619D01*
X90650546Y-66433619D01*
X90650548Y-66433618D01*
X91046793Y-66354800D01*
X91450807Y-66354800D01*
X91847052Y-66433618D01*
X91847052Y-66433618D01*
G37*
G36*
X69349452Y-66433618D02*
X69349454Y-66433619D01*
X69349455Y-66433619D01*
X69722713Y-66588227D01*
X69722714Y-66588228D01*
X70058639Y-66812686D01*
X70344314Y-67098361D01*
X70344316Y-67098364D01*
X70568773Y-67434287D01*
X70710403Y-67776213D01*
X70723382Y-67807548D01*
X70802200Y-68203793D01*
X70802200Y-68607807D01*
X70725416Y-68993827D01*
X70723381Y-69004055D01*
X70568773Y-69377313D01*
X70568772Y-69377314D01*
X70344314Y-69713239D01*
X70058639Y-69998914D01*
X70058636Y-69998916D01*
X69722713Y-70223373D01*
X69349455Y-70377981D01*
X69349454Y-70377981D01*
X69349452Y-70377982D01*
X68953207Y-70456800D01*
X68549193Y-70456800D01*
X68152948Y-70377982D01*
X68152946Y-70377981D01*
X68152945Y-70377981D01*
X67779687Y-70223373D01*
X67443764Y-69998916D01*
X67443761Y-69998914D01*
X67158086Y-69713239D01*
X66933628Y-69377314D01*
X66933627Y-69377313D01*
X66779019Y-69004055D01*
X66776985Y-68993827D01*
X66700200Y-68607807D01*
X66700200Y-68203793D01*
X66779018Y-67807548D01*
X66791997Y-67776213D01*
X66933627Y-67434287D01*
X67158084Y-67098364D01*
X67158086Y-67098361D01*
X67443761Y-66812686D01*
X67779686Y-66588228D01*
X67779687Y-66588227D01*
X68152945Y-66433619D01*
X68152946Y-66433619D01*
X68152948Y-66433618D01*
X68549193Y-66354800D01*
X68953207Y-66354800D01*
X69349452Y-66433618D01*
X69349452Y-66433618D01*
G37*
G36*
X163349452Y-66433618D02*
X163349454Y-66433619D01*
X163349455Y-66433619D01*
X163722713Y-66588227D01*
X163722714Y-66588228D01*
X164058639Y-66812686D01*
X164344314Y-67098361D01*
X164344316Y-67098364D01*
X164568773Y-67434287D01*
X164710403Y-67776213D01*
X164723382Y-67807548D01*
X164802200Y-68203793D01*
X164802200Y-68607807D01*
X164725416Y-68993827D01*
X164723381Y-69004055D01*
X164568773Y-69377313D01*
X164568772Y-69377314D01*
X164344314Y-69713239D01*
X164058639Y-69998914D01*
X164058636Y-69998916D01*
X163722713Y-70223373D01*
X163349455Y-70377981D01*
X163349454Y-70377981D01*
X163349452Y-70377982D01*
X162953207Y-70456800D01*
X162549193Y-70456800D01*
X162152948Y-70377982D01*
X162152946Y-70377981D01*
X162152945Y-70377981D01*
X161779687Y-70223373D01*
X161443764Y-69998916D01*
X161443761Y-69998914D01*
X161158086Y-69713239D01*
X160933628Y-69377314D01*
X160933627Y-69377313D01*
X160779019Y-69004055D01*
X160776985Y-68993827D01*
X160700200Y-68607807D01*
X160700200Y-68203793D01*
X160779018Y-67807548D01*
X160791997Y-67776213D01*
X160933627Y-67434287D01*
X161158084Y-67098364D01*
X161158086Y-67098361D01*
X161443761Y-66812686D01*
X161779686Y-66588228D01*
X161779687Y-66588227D01*
X162152945Y-66433619D01*
X162152946Y-66433619D01*
X162152948Y-66433618D01*
X162549193Y-66354800D01*
X162953207Y-66354800D01*
X163349452Y-66433618D01*
X163349452Y-66433618D01*
G37*
G36*
X136002915Y-67787334D02*
X136111491Y-67820271D01*
X136211556Y-67873756D01*
X136299264Y-67945736D01*
X136371244Y-68033443D01*
X136424729Y-68133508D01*
X136457666Y-68242084D01*
X136466000Y-68326702D01*
X136466000Y-68833297D01*
X136457666Y-68917916D01*
X136424729Y-69026492D01*
X136371244Y-69126557D01*
X136299264Y-69214264D01*
X136211557Y-69286244D01*
X136111492Y-69339729D01*
X136002916Y-69372666D01*
X135890000Y-69383787D01*
X135777085Y-69372666D01*
X135668509Y-69339729D01*
X135568444Y-69286244D01*
X135480737Y-69214264D01*
X135408757Y-69126557D01*
X135365240Y-69045143D01*
X135351627Y-69024768D01*
X135334299Y-69007441D01*
X135313925Y-68993827D01*
X135291286Y-68984450D01*
X135267253Y-68979669D01*
X135242748Y-68979669D01*
X135218715Y-68984449D01*
X135196076Y-68993827D01*
X135175701Y-69007440D01*
X135158374Y-69024768D01*
X135144760Y-69045143D01*
X135101244Y-69126557D01*
X135029264Y-69214264D01*
X134941557Y-69286244D01*
X134841492Y-69339729D01*
X134732916Y-69372666D01*
X134620000Y-69383787D01*
X134507085Y-69372666D01*
X134398509Y-69339729D01*
X134298444Y-69286244D01*
X134210737Y-69214264D01*
X134147626Y-69137364D01*
X134130299Y-69120036D01*
X134109924Y-69106423D01*
X134087285Y-69097045D01*
X134063252Y-69092265D01*
X134038748Y-69092265D01*
X134014714Y-69097046D01*
X133992075Y-69106423D01*
X133971701Y-69120037D01*
X133954373Y-69137364D01*
X133940760Y-69157739D01*
X133931382Y-69180378D01*
X133926000Y-69216663D01*
X133926000Y-69381000D01*
X132774000Y-69381000D01*
X132774000Y-67779000D01*
X133926000Y-67779000D01*
X133926000Y-67943337D01*
X133928402Y-67967723D01*
X133935515Y-67991172D01*
X133947066Y-68012783D01*
X133962612Y-68031725D01*
X133981554Y-68047271D01*
X134003165Y-68058822D01*
X134026614Y-68065935D01*
X134051000Y-68068337D01*
X134075386Y-68065935D01*
X134098835Y-68058822D01*
X134120446Y-68047271D01*
X134147626Y-68022636D01*
X134210734Y-67945739D01*
X134210736Y-67945736D01*
X134298443Y-67873756D01*
X134398508Y-67820271D01*
X134507084Y-67787334D01*
X134620000Y-67776213D01*
X134732915Y-67787334D01*
X134841491Y-67820271D01*
X134941556Y-67873756D01*
X135029264Y-67945736D01*
X135101244Y-68033443D01*
X135144767Y-68114869D01*
X135158373Y-68135232D01*
X135175700Y-68152560D01*
X135196075Y-68166174D01*
X135218713Y-68175551D01*
X135242747Y-68180332D01*
X135267251Y-68180332D01*
X135291285Y-68175552D01*
X135313924Y-68166175D01*
X135334298Y-68152561D01*
X135351626Y-68135234D01*
X135365240Y-68114858D01*
X135408756Y-68033444D01*
X135480734Y-67945739D01*
X135480736Y-67945736D01*
X135568443Y-67873756D01*
X135668508Y-67820271D01*
X135777084Y-67787334D01*
X135890000Y-67776213D01*
X136002915Y-67787334D01*
X136002915Y-67787334D01*
G37*
G36*
X122032915Y-67787334D02*
X122141491Y-67820271D01*
X122241556Y-67873756D01*
X122329264Y-67945736D01*
X122401244Y-68033443D01*
X122454729Y-68133508D01*
X122487666Y-68242084D01*
X122496000Y-68326702D01*
X122496000Y-68833297D01*
X122487666Y-68917916D01*
X122454729Y-69026492D01*
X122401244Y-69126557D01*
X122329264Y-69214264D01*
X122241557Y-69286244D01*
X122141492Y-69339729D01*
X122032916Y-69372666D01*
X121920000Y-69383787D01*
X121807085Y-69372666D01*
X121698509Y-69339729D01*
X121598444Y-69286244D01*
X121510737Y-69214264D01*
X121438757Y-69126557D01*
X121395240Y-69045143D01*
X121381627Y-69024768D01*
X121364299Y-69007441D01*
X121343925Y-68993827D01*
X121321286Y-68984450D01*
X121297253Y-68979669D01*
X121272748Y-68979669D01*
X121248715Y-68984449D01*
X121226076Y-68993827D01*
X121205701Y-69007440D01*
X121188374Y-69024768D01*
X121174760Y-69045143D01*
X121131244Y-69126557D01*
X121059264Y-69214264D01*
X120971557Y-69286244D01*
X120871492Y-69339729D01*
X120762916Y-69372666D01*
X120650000Y-69383787D01*
X120537085Y-69372666D01*
X120428509Y-69339729D01*
X120328444Y-69286244D01*
X120240737Y-69214264D01*
X120177626Y-69137364D01*
X120160299Y-69120036D01*
X120139924Y-69106423D01*
X120117285Y-69097045D01*
X120093252Y-69092265D01*
X120068748Y-69092265D01*
X120044714Y-69097046D01*
X120022075Y-69106423D01*
X120001701Y-69120037D01*
X119984373Y-69137364D01*
X119970760Y-69157739D01*
X119961382Y-69180378D01*
X119956000Y-69216663D01*
X119956000Y-69381000D01*
X118804000Y-69381000D01*
X118804000Y-67779000D01*
X119956000Y-67779000D01*
X119956000Y-67943337D01*
X119958402Y-67967723D01*
X119965515Y-67991172D01*
X119977066Y-68012783D01*
X119992612Y-68031725D01*
X120011554Y-68047271D01*
X120033165Y-68058822D01*
X120056614Y-68065935D01*
X120081000Y-68068337D01*
X120105386Y-68065935D01*
X120128835Y-68058822D01*
X120150446Y-68047271D01*
X120177626Y-68022636D01*
X120240734Y-67945739D01*
X120240736Y-67945736D01*
X120328443Y-67873756D01*
X120428508Y-67820271D01*
X120537084Y-67787334D01*
X120650000Y-67776213D01*
X120762915Y-67787334D01*
X120871491Y-67820271D01*
X120971556Y-67873756D01*
X121059264Y-67945736D01*
X121131244Y-68033443D01*
X121174767Y-68114869D01*
X121188373Y-68135232D01*
X121205700Y-68152560D01*
X121226075Y-68166174D01*
X121248713Y-68175551D01*
X121272747Y-68180332D01*
X121297251Y-68180332D01*
X121321285Y-68175552D01*
X121343924Y-68166175D01*
X121364298Y-68152561D01*
X121381626Y-68135234D01*
X121395240Y-68114858D01*
X121438756Y-68033444D01*
X121510734Y-67945739D01*
X121510736Y-67945736D01*
X121598443Y-67873756D01*
X121698508Y-67820271D01*
X121807084Y-67787334D01*
X121920000Y-67776213D01*
X122032915Y-67787334D01*
X122032915Y-67787334D01*
G37*
G36*
X189753652Y-61777818D02*
X189753654Y-61777819D01*
X189753655Y-61777819D01*
X190126913Y-61932427D01*
X190126914Y-61932428D01*
X190462839Y-62156886D01*
X190748514Y-62442561D01*
X190748516Y-62442564D01*
X190972973Y-62778487D01*
X191127581Y-63151745D01*
X191206400Y-63547994D01*
X191206400Y-63952006D01*
X191127581Y-64348255D01*
X190972973Y-64721513D01*
X190972972Y-64721514D01*
X190748514Y-65057439D01*
X190462839Y-65343114D01*
X190462836Y-65343116D01*
X190126913Y-65567573D01*
X189753655Y-65722181D01*
X189753654Y-65722181D01*
X189753652Y-65722182D01*
X189357407Y-65801000D01*
X188953393Y-65801000D01*
X188557148Y-65722182D01*
X188557146Y-65722181D01*
X188557145Y-65722181D01*
X188183887Y-65567573D01*
X187847964Y-65343116D01*
X187847961Y-65343114D01*
X187562286Y-65057439D01*
X187337828Y-64721514D01*
X187337827Y-64721513D01*
X187183219Y-64348255D01*
X187104400Y-63952006D01*
X187104400Y-63547994D01*
X187183219Y-63151745D01*
X187337827Y-62778487D01*
X187562284Y-62442564D01*
X187562286Y-62442561D01*
X187847961Y-62156886D01*
X188183886Y-61932428D01*
X188183887Y-61932427D01*
X188557145Y-61777819D01*
X188557146Y-61777819D01*
X188557148Y-61777818D01*
X188953393Y-61699000D01*
X189357407Y-61699000D01*
X189753652Y-61777818D01*
X189753652Y-61777818D01*
G37*
G36*
X159442852Y-61777818D02*
X159442854Y-61777819D01*
X159442855Y-61777819D01*
X159816113Y-61932427D01*
X159816114Y-61932428D01*
X160152039Y-62156886D01*
X160437714Y-62442561D01*
X160437716Y-62442564D01*
X160662173Y-62778487D01*
X160816781Y-63151745D01*
X160895600Y-63547994D01*
X160895600Y-63952006D01*
X160816781Y-64348255D01*
X160662173Y-64721513D01*
X160662172Y-64721514D01*
X160437714Y-65057439D01*
X160152039Y-65343114D01*
X160152036Y-65343116D01*
X159816113Y-65567573D01*
X159442855Y-65722181D01*
X159442854Y-65722181D01*
X159442852Y-65722182D01*
X159046607Y-65801000D01*
X158642593Y-65801000D01*
X158246348Y-65722182D01*
X158246346Y-65722181D01*
X158246345Y-65722181D01*
X157873087Y-65567573D01*
X157537164Y-65343116D01*
X157537161Y-65343114D01*
X157251486Y-65057439D01*
X157027028Y-64721514D01*
X157027027Y-64721513D01*
X156872419Y-64348255D01*
X156793600Y-63952006D01*
X156793600Y-63547994D01*
X156872419Y-63151745D01*
X157027027Y-62778487D01*
X157251484Y-62442564D01*
X157251486Y-62442561D01*
X157537161Y-62156886D01*
X157873086Y-61932428D01*
X157873087Y-61932427D01*
X158246345Y-61777819D01*
X158246346Y-61777819D01*
X158246348Y-61777818D01*
X158642593Y-61699000D01*
X159046607Y-61699000D01*
X159442852Y-61777818D01*
X159442852Y-61777818D01*
G37*
G36*
X95753652Y-61777818D02*
X95753654Y-61777819D01*
X95753655Y-61777819D01*
X96126913Y-61932427D01*
X96126914Y-61932428D01*
X96462839Y-62156886D01*
X96748514Y-62442561D01*
X96748516Y-62442564D01*
X96972973Y-62778487D01*
X97127581Y-63151745D01*
X97206400Y-63547994D01*
X97206400Y-63952006D01*
X97127581Y-64348255D01*
X96972973Y-64721513D01*
X96972972Y-64721514D01*
X96748514Y-65057439D01*
X96462839Y-65343114D01*
X96462836Y-65343116D01*
X96126913Y-65567573D01*
X95753655Y-65722181D01*
X95753654Y-65722181D01*
X95753652Y-65722182D01*
X95357407Y-65801000D01*
X94953393Y-65801000D01*
X94557148Y-65722182D01*
X94557146Y-65722181D01*
X94557145Y-65722181D01*
X94183887Y-65567573D01*
X93847964Y-65343116D01*
X93847961Y-65343114D01*
X93562286Y-65057439D01*
X93337828Y-64721514D01*
X93337827Y-64721513D01*
X93183219Y-64348255D01*
X93104400Y-63952006D01*
X93104400Y-63547994D01*
X93183219Y-63151745D01*
X93337827Y-62778487D01*
X93562284Y-62442564D01*
X93562286Y-62442561D01*
X93847961Y-62156886D01*
X94183886Y-61932428D01*
X94183887Y-61932427D01*
X94557145Y-61777819D01*
X94557146Y-61777819D01*
X94557148Y-61777818D01*
X94953393Y-61699000D01*
X95357407Y-61699000D01*
X95753652Y-61777818D01*
X95753652Y-61777818D01*
G37*
G36*
X65442852Y-61777818D02*
X65442854Y-61777819D01*
X65442855Y-61777819D01*
X65816113Y-61932427D01*
X65816114Y-61932428D01*
X66152039Y-62156886D01*
X66437714Y-62442561D01*
X66437716Y-62442564D01*
X66662173Y-62778487D01*
X66816781Y-63151745D01*
X66895600Y-63547994D01*
X66895600Y-63952006D01*
X66816781Y-64348255D01*
X66662173Y-64721513D01*
X66662172Y-64721514D01*
X66437714Y-65057439D01*
X66152039Y-65343114D01*
X66152036Y-65343116D01*
X65816113Y-65567573D01*
X65442855Y-65722181D01*
X65442854Y-65722181D01*
X65442852Y-65722182D01*
X65046607Y-65801000D01*
X64642593Y-65801000D01*
X64246348Y-65722182D01*
X64246346Y-65722181D01*
X64246345Y-65722181D01*
X63873087Y-65567573D01*
X63537164Y-65343116D01*
X63537161Y-65343114D01*
X63251486Y-65057439D01*
X63027028Y-64721514D01*
X63027027Y-64721513D01*
X62872419Y-64348255D01*
X62793600Y-63952006D01*
X62793600Y-63547994D01*
X62872419Y-63151745D01*
X63027027Y-62778487D01*
X63251484Y-62442564D01*
X63251486Y-62442561D01*
X63537161Y-62156886D01*
X63873086Y-61932428D01*
X63873087Y-61932427D01*
X64246345Y-61777819D01*
X64246346Y-61777819D01*
X64246348Y-61777818D01*
X64642593Y-61699000D01*
X65046607Y-61699000D01*
X65442852Y-61777818D01*
X65442852Y-61777818D01*
G37*
G36*
X125457000Y-59126000D02*
X121355000Y-59126000D01*
X121355000Y-55024000D01*
X125457000Y-55024000D01*
X125457000Y-59126000D01*
X125457000Y-59126000D01*
G37*
G36*
X131192252Y-55102818D02*
X131192254Y-55102819D01*
X131192255Y-55102819D01*
X131565513Y-55257427D01*
X131565514Y-55257428D01*
X131901439Y-55481886D01*
X132187114Y-55767561D01*
X132187116Y-55767564D01*
X132411573Y-56103487D01*
X132566181Y-56476745D01*
X132645000Y-56872994D01*
X132645000Y-57277006D01*
X132566181Y-57673255D01*
X132411573Y-58046513D01*
X132411572Y-58046514D01*
X132187114Y-58382439D01*
X131901439Y-58668114D01*
X131901436Y-58668116D01*
X131565513Y-58892573D01*
X131192255Y-59047181D01*
X131192254Y-59047181D01*
X131192252Y-59047182D01*
X130796007Y-59126000D01*
X130391993Y-59126000D01*
X129995748Y-59047182D01*
X129995746Y-59047181D01*
X129995745Y-59047181D01*
X129622487Y-58892573D01*
X129286564Y-58668116D01*
X129286561Y-58668114D01*
X129000886Y-58382439D01*
X128776428Y-58046514D01*
X128776427Y-58046513D01*
X128621819Y-57673255D01*
X128543000Y-57277006D01*
X128543000Y-56872994D01*
X128621819Y-56476745D01*
X128776427Y-56103487D01*
X129000884Y-55767564D01*
X129000886Y-55767561D01*
X129286561Y-55481886D01*
X129622486Y-55257428D01*
X129622487Y-55257427D01*
X129995745Y-55102819D01*
X129995746Y-55102819D01*
X129995748Y-55102818D01*
X130391993Y-55024000D01*
X130796007Y-55024000D01*
X131192252Y-55102818D01*
X131192252Y-55102818D01*
G37*
G36*
X191832352Y-49989018D02*
X191832354Y-49989019D01*
X191832355Y-49989019D01*
X192205613Y-50143627D01*
X192367427Y-50251748D01*
X192541539Y-50368086D01*
X192827214Y-50653761D01*
X192827216Y-50653764D01*
X193051673Y-50989687D01*
X193169885Y-51275078D01*
X193206282Y-51362948D01*
X193285100Y-51759193D01*
X193285100Y-52163207D01*
X193229423Y-52443116D01*
X193206281Y-52559455D01*
X193051673Y-52932713D01*
X193051672Y-52932714D01*
X192827214Y-53268639D01*
X192541539Y-53554314D01*
X192541536Y-53554316D01*
X192205613Y-53778773D01*
X191832355Y-53933381D01*
X191832354Y-53933381D01*
X191832352Y-53933382D01*
X191436107Y-54012200D01*
X191032093Y-54012200D01*
X190635848Y-53933382D01*
X190635846Y-53933381D01*
X190635845Y-53933381D01*
X190262587Y-53778773D01*
X189926664Y-53554316D01*
X189926661Y-53554314D01*
X189640986Y-53268639D01*
X189416528Y-52932714D01*
X189416527Y-52932713D01*
X189261919Y-52559455D01*
X189238778Y-52443116D01*
X189183100Y-52163207D01*
X189183100Y-51759193D01*
X189261918Y-51362948D01*
X189298315Y-51275078D01*
X189416527Y-50989687D01*
X189640984Y-50653764D01*
X189640986Y-50653761D01*
X189926661Y-50368086D01*
X190100773Y-50251748D01*
X190262587Y-50143627D01*
X190635845Y-49989019D01*
X190635846Y-49989019D01*
X190635848Y-49989018D01*
X191032093Y-49910200D01*
X191436107Y-49910200D01*
X191832352Y-49989018D01*
X191832352Y-49989018D01*
G37*
G36*
X97832352Y-49989018D02*
X97832354Y-49989019D01*
X97832355Y-49989019D01*
X98205613Y-50143627D01*
X98367427Y-50251748D01*
X98541539Y-50368086D01*
X98827214Y-50653761D01*
X98827216Y-50653764D01*
X99051673Y-50989687D01*
X99169885Y-51275078D01*
X99206282Y-51362948D01*
X99285100Y-51759193D01*
X99285100Y-52163207D01*
X99229423Y-52443116D01*
X99206281Y-52559455D01*
X99051673Y-52932713D01*
X99051672Y-52932714D01*
X98827214Y-53268639D01*
X98541539Y-53554314D01*
X98541536Y-53554316D01*
X98205613Y-53778773D01*
X97832355Y-53933381D01*
X97832354Y-53933381D01*
X97832352Y-53933382D01*
X97436107Y-54012200D01*
X97032093Y-54012200D01*
X96635848Y-53933382D01*
X96635846Y-53933381D01*
X96635845Y-53933381D01*
X96262587Y-53778773D01*
X95926664Y-53554316D01*
X95926661Y-53554314D01*
X95640986Y-53268639D01*
X95416528Y-52932714D01*
X95416527Y-52932713D01*
X95261919Y-52559455D01*
X95238778Y-52443116D01*
X95183100Y-52163207D01*
X95183100Y-51759193D01*
X95261918Y-51362948D01*
X95298315Y-51275078D01*
X95416527Y-50989687D01*
X95640984Y-50653764D01*
X95640986Y-50653761D01*
X95926661Y-50368086D01*
X96100773Y-50251748D01*
X96262587Y-50143627D01*
X96635845Y-49989019D01*
X96635846Y-49989019D01*
X96635848Y-49989018D01*
X97032093Y-49910200D01*
X97436107Y-49910200D01*
X97832352Y-49989018D01*
X97832352Y-49989018D01*
G37*
G36*
X127598252Y-48877818D02*
X127598254Y-48877819D01*
X127598255Y-48877819D01*
X127971513Y-49032427D01*
X127971514Y-49032428D01*
X128307439Y-49256886D01*
X128593114Y-49542561D01*
X128593116Y-49542564D01*
X128817573Y-49878487D01*
X128967732Y-50241004D01*
X128972182Y-50251748D01*
X129051000Y-50647993D01*
X129051000Y-51052007D01*
X128989151Y-51362945D01*
X128972181Y-51448255D01*
X128817573Y-51821513D01*
X128817572Y-51821514D01*
X128593114Y-52157439D01*
X128307439Y-52443114D01*
X128307436Y-52443116D01*
X127971513Y-52667573D01*
X127598255Y-52822181D01*
X127598254Y-52822181D01*
X127598252Y-52822182D01*
X127202007Y-52901000D01*
X126797993Y-52901000D01*
X126401748Y-52822182D01*
X126401746Y-52822181D01*
X126401745Y-52822181D01*
X126028487Y-52667573D01*
X125692564Y-52443116D01*
X125692561Y-52443114D01*
X125406886Y-52157439D01*
X125182428Y-51821514D01*
X125182427Y-51821513D01*
X125027819Y-51448255D01*
X125010850Y-51362945D01*
X124949000Y-51052007D01*
X124949000Y-50647993D01*
X125027818Y-50251748D01*
X125032268Y-50241004D01*
X125182427Y-49878487D01*
X125406884Y-49542564D01*
X125406886Y-49542561D01*
X125692561Y-49256886D01*
X126028486Y-49032428D01*
X126028487Y-49032427D01*
X126401745Y-48877819D01*
X126401746Y-48877819D01*
X126401748Y-48877818D01*
X126797993Y-48799000D01*
X127202007Y-48799000D01*
X127598252Y-48877818D01*
X127598252Y-48877818D01*
G37*
G36*
X177712821Y-49961313D02*
X177712824Y-49961314D01*
X177712825Y-49961314D01*
X177873239Y-50009975D01*
X177873241Y-50009976D01*
X177873244Y-50009977D01*
X178021078Y-50088995D01*
X178150659Y-50195341D01*
X178257005Y-50324922D01*
X178336023Y-50472756D01*
X178384687Y-50633179D01*
X178401117Y-50800000D01*
X178384687Y-50966821D01*
X178384686Y-50966824D01*
X178384686Y-50966825D01*
X178358847Y-51052006D01*
X178336023Y-51127244D01*
X178257005Y-51275078D01*
X178150659Y-51404659D01*
X178021078Y-51511005D01*
X177873244Y-51590023D01*
X177873241Y-51590024D01*
X177873239Y-51590025D01*
X177712825Y-51638686D01*
X177712824Y-51638686D01*
X177712821Y-51638687D01*
X177587804Y-51651000D01*
X177504196Y-51651000D01*
X177379179Y-51638687D01*
X177379176Y-51638686D01*
X177379175Y-51638686D01*
X177218761Y-51590025D01*
X177218759Y-51590024D01*
X177218756Y-51590023D01*
X177070922Y-51511005D01*
X176941341Y-51404659D01*
X176834995Y-51275078D01*
X176755977Y-51127244D01*
X176733154Y-51052006D01*
X176707314Y-50966825D01*
X176707314Y-50966824D01*
X176707313Y-50966821D01*
X176690883Y-50800000D01*
X176707313Y-50633179D01*
X176755977Y-50472756D01*
X176834995Y-50324922D01*
X176941341Y-50195341D01*
X177070922Y-50088995D01*
X177218756Y-50009977D01*
X177218759Y-50009976D01*
X177218761Y-50009975D01*
X177379175Y-49961314D01*
X177379176Y-49961314D01*
X177379179Y-49961313D01*
X177504196Y-49949000D01*
X177587804Y-49949000D01*
X177712821Y-49961313D01*
X177712821Y-49961313D01*
G37*
G36*
X82716821Y-48691313D02*
X82716824Y-48691314D01*
X82716825Y-48691314D01*
X82877239Y-48739975D01*
X82877241Y-48739976D01*
X82877244Y-48739977D01*
X83025078Y-48818995D01*
X83154659Y-48925341D01*
X83261005Y-49054922D01*
X83340023Y-49202756D01*
X83340024Y-49202759D01*
X83340025Y-49202761D01*
X83388686Y-49363175D01*
X83388687Y-49363179D01*
X83405117Y-49530000D01*
X83388687Y-49696821D01*
X83340023Y-49857244D01*
X83261005Y-50005078D01*
X83154659Y-50134659D01*
X83025078Y-50241005D01*
X82877244Y-50320023D01*
X82877241Y-50320024D01*
X82877239Y-50320025D01*
X82716825Y-50368686D01*
X82716824Y-50368686D01*
X82716821Y-50368687D01*
X82591804Y-50381000D01*
X82508196Y-50381000D01*
X82383179Y-50368687D01*
X82383176Y-50368686D01*
X82383175Y-50368686D01*
X82222761Y-50320025D01*
X82222759Y-50320024D01*
X82222756Y-50320023D01*
X82074922Y-50241005D01*
X81945341Y-50134659D01*
X81838995Y-50005078D01*
X81759977Y-49857244D01*
X81711313Y-49696821D01*
X81694883Y-49530000D01*
X81711313Y-49363179D01*
X81711314Y-49363175D01*
X81759975Y-49202761D01*
X81759976Y-49202759D01*
X81759977Y-49202756D01*
X81838995Y-49054922D01*
X81945341Y-48925341D01*
X82074922Y-48818995D01*
X82222756Y-48739977D01*
X82222759Y-48739976D01*
X82222761Y-48739975D01*
X82383175Y-48691314D01*
X82383176Y-48691314D01*
X82383179Y-48691313D01*
X82508196Y-48679000D01*
X82591804Y-48679000D01*
X82716821Y-48691313D01*
X82716821Y-48691313D01*
G37*
G36*
X65442852Y-44277818D02*
X65442854Y-44277819D01*
X65442855Y-44277819D01*
X65816113Y-44432427D01*
X65816114Y-44432428D01*
X66152039Y-44656886D01*
X66437714Y-44942561D01*
X66437716Y-44942564D01*
X66662173Y-45278487D01*
X66816781Y-45651745D01*
X66816782Y-45651748D01*
X66895600Y-46047993D01*
X66895600Y-46452007D01*
X66884060Y-46510025D01*
X66816781Y-46848255D01*
X66662173Y-47221513D01*
X66662172Y-47221514D01*
X66437714Y-47557439D01*
X66152039Y-47843114D01*
X66152036Y-47843116D01*
X65816113Y-48067573D01*
X65442855Y-48222181D01*
X65442854Y-48222181D01*
X65442852Y-48222182D01*
X65046607Y-48301000D01*
X64642593Y-48301000D01*
X64246348Y-48222182D01*
X64246346Y-48222181D01*
X64246345Y-48222181D01*
X63873087Y-48067573D01*
X63537164Y-47843116D01*
X63537161Y-47843114D01*
X63251486Y-47557439D01*
X63027028Y-47221514D01*
X63027027Y-47221513D01*
X62872419Y-46848255D01*
X62805141Y-46510025D01*
X62793600Y-46452007D01*
X62793600Y-46047993D01*
X62872418Y-45651748D01*
X62872419Y-45651745D01*
X63027027Y-45278487D01*
X63251484Y-44942564D01*
X63251486Y-44942561D01*
X63537161Y-44656886D01*
X63873086Y-44432428D01*
X63873087Y-44432427D01*
X64246345Y-44277819D01*
X64246346Y-44277819D01*
X64246348Y-44277818D01*
X64642593Y-44199000D01*
X65046607Y-44199000D01*
X65442852Y-44277818D01*
X65442852Y-44277818D01*
G37*
G36*
X95753652Y-44277818D02*
X95753654Y-44277819D01*
X95753655Y-44277819D01*
X96126913Y-44432427D01*
X96126914Y-44432428D01*
X96462839Y-44656886D01*
X96748514Y-44942561D01*
X96748516Y-44942564D01*
X96972973Y-45278487D01*
X97127581Y-45651745D01*
X97127582Y-45651748D01*
X97206400Y-46047993D01*
X97206400Y-46452007D01*
X97194860Y-46510025D01*
X97127581Y-46848255D01*
X96972973Y-47221513D01*
X96972972Y-47221514D01*
X96748514Y-47557439D01*
X96462839Y-47843114D01*
X96462836Y-47843116D01*
X96126913Y-48067573D01*
X95753655Y-48222181D01*
X95753654Y-48222181D01*
X95753652Y-48222182D01*
X95357407Y-48301000D01*
X94953393Y-48301000D01*
X94557148Y-48222182D01*
X94557146Y-48222181D01*
X94557145Y-48222181D01*
X94183887Y-48067573D01*
X93847964Y-47843116D01*
X93847961Y-47843114D01*
X93562286Y-47557439D01*
X93337828Y-47221514D01*
X93337827Y-47221513D01*
X93183219Y-46848255D01*
X93115941Y-46510025D01*
X93104400Y-46452007D01*
X93104400Y-46047993D01*
X93183218Y-45651748D01*
X93183219Y-45651745D01*
X93337827Y-45278487D01*
X93562284Y-44942564D01*
X93562286Y-44942561D01*
X93847961Y-44656886D01*
X94183886Y-44432428D01*
X94183887Y-44432427D01*
X94557145Y-44277819D01*
X94557146Y-44277819D01*
X94557148Y-44277818D01*
X94953393Y-44199000D01*
X95357407Y-44199000D01*
X95753652Y-44277818D01*
X95753652Y-44277818D01*
G37*
G36*
X159442852Y-44277818D02*
X159442854Y-44277819D01*
X159442855Y-44277819D01*
X159816113Y-44432427D01*
X159816114Y-44432428D01*
X160152039Y-44656886D01*
X160437714Y-44942561D01*
X160437716Y-44942564D01*
X160662173Y-45278487D01*
X160816781Y-45651745D01*
X160816782Y-45651748D01*
X160895600Y-46047993D01*
X160895600Y-46452007D01*
X160884060Y-46510025D01*
X160816781Y-46848255D01*
X160662173Y-47221513D01*
X160662172Y-47221514D01*
X160437714Y-47557439D01*
X160152039Y-47843114D01*
X160152036Y-47843116D01*
X159816113Y-48067573D01*
X159442855Y-48222181D01*
X159442854Y-48222181D01*
X159442852Y-48222182D01*
X159046607Y-48301000D01*
X158642593Y-48301000D01*
X158246348Y-48222182D01*
X158246346Y-48222181D01*
X158246345Y-48222181D01*
X157873087Y-48067573D01*
X157537164Y-47843116D01*
X157537161Y-47843114D01*
X157251486Y-47557439D01*
X157027028Y-47221514D01*
X157027027Y-47221513D01*
X156872419Y-46848255D01*
X156805141Y-46510025D01*
X156793600Y-46452007D01*
X156793600Y-46047993D01*
X156872418Y-45651748D01*
X156872419Y-45651745D01*
X157027027Y-45278487D01*
X157251484Y-44942564D01*
X157251486Y-44942561D01*
X157537161Y-44656886D01*
X157873086Y-44432428D01*
X157873087Y-44432427D01*
X158246345Y-44277819D01*
X158246346Y-44277819D01*
X158246348Y-44277818D01*
X158642593Y-44199000D01*
X159046607Y-44199000D01*
X159442852Y-44277818D01*
X159442852Y-44277818D01*
G37*
G36*
X189753652Y-44277818D02*
X189753654Y-44277819D01*
X189753655Y-44277819D01*
X190126913Y-44432427D01*
X190126914Y-44432428D01*
X190462839Y-44656886D01*
X190748514Y-44942561D01*
X190748516Y-44942564D01*
X190972973Y-45278487D01*
X191127581Y-45651745D01*
X191127582Y-45651748D01*
X191206400Y-46047993D01*
X191206400Y-46452007D01*
X191194860Y-46510025D01*
X191127581Y-46848255D01*
X190972973Y-47221513D01*
X190972972Y-47221514D01*
X190748514Y-47557439D01*
X190462839Y-47843114D01*
X190462836Y-47843116D01*
X190126913Y-48067573D01*
X189753655Y-48222181D01*
X189753654Y-48222181D01*
X189753652Y-48222182D01*
X189357407Y-48301000D01*
X188953393Y-48301000D01*
X188557148Y-48222182D01*
X188557146Y-48222181D01*
X188557145Y-48222181D01*
X188183887Y-48067573D01*
X187847964Y-47843116D01*
X187847961Y-47843114D01*
X187562286Y-47557439D01*
X187337828Y-47221514D01*
X187337827Y-47221513D01*
X187183219Y-46848255D01*
X187115941Y-46510025D01*
X187104400Y-46452007D01*
X187104400Y-46047993D01*
X187183218Y-45651748D01*
X187183219Y-45651745D01*
X187337827Y-45278487D01*
X187562284Y-44942564D01*
X187562286Y-44942561D01*
X187847961Y-44656886D01*
X188183886Y-44432428D01*
X188183887Y-44432427D01*
X188557145Y-44277819D01*
X188557146Y-44277819D01*
X188557148Y-44277818D01*
X188953393Y-44199000D01*
X189357407Y-44199000D01*
X189753652Y-44277818D01*
X189753652Y-44277818D01*
G37*
G36*
X113196821Y-44881313D02*
X113196824Y-44881314D01*
X113196825Y-44881314D01*
X113357239Y-44929975D01*
X113357241Y-44929976D01*
X113357244Y-44929977D01*
X113505078Y-45008995D01*
X113634659Y-45115341D01*
X113741005Y-45244922D01*
X113820023Y-45392756D01*
X113868687Y-45553179D01*
X113885117Y-45720000D01*
X113868687Y-45886821D01*
X113820023Y-46047244D01*
X113741005Y-46195078D01*
X113634659Y-46324659D01*
X113505078Y-46431005D01*
X113357244Y-46510023D01*
X113357241Y-46510024D01*
X113357239Y-46510025D01*
X113196825Y-46558686D01*
X113196824Y-46558686D01*
X113196821Y-46558687D01*
X113071804Y-46571000D01*
X112988196Y-46571000D01*
X112863179Y-46558687D01*
X112863176Y-46558686D01*
X112863175Y-46558686D01*
X112702761Y-46510025D01*
X112702759Y-46510024D01*
X112702756Y-46510023D01*
X112554922Y-46431005D01*
X112425341Y-46324659D01*
X112318995Y-46195078D01*
X112239977Y-46047244D01*
X112191313Y-45886821D01*
X112174883Y-45720000D01*
X112191313Y-45553179D01*
X112239977Y-45392756D01*
X112318995Y-45244922D01*
X112425341Y-45115341D01*
X112554922Y-45008995D01*
X112702756Y-44929977D01*
X112702759Y-44929976D01*
X112702761Y-44929975D01*
X112863175Y-44881314D01*
X112863176Y-44881314D01*
X112863179Y-44881313D01*
X112988196Y-44869000D01*
X113071804Y-44869000D01*
X113196821Y-44881313D01*
X113196821Y-44881313D01*
G37*
G36*
X120816821Y-44881313D02*
X120816824Y-44881314D01*
X120816825Y-44881314D01*
X120977239Y-44929975D01*
X120977241Y-44929976D01*
X120977244Y-44929977D01*
X121125078Y-45008995D01*
X121254659Y-45115341D01*
X121361005Y-45244922D01*
X121440023Y-45392756D01*
X121488687Y-45553179D01*
X121505117Y-45720000D01*
X121488687Y-45886821D01*
X121440023Y-46047244D01*
X121361005Y-46195078D01*
X121254659Y-46324659D01*
X121125078Y-46431005D01*
X120977244Y-46510023D01*
X120977241Y-46510024D01*
X120977239Y-46510025D01*
X120816825Y-46558686D01*
X120816824Y-46558686D01*
X120816821Y-46558687D01*
X120691804Y-46571000D01*
X120608196Y-46571000D01*
X120483179Y-46558687D01*
X120483176Y-46558686D01*
X120483175Y-46558686D01*
X120322761Y-46510025D01*
X120322759Y-46510024D01*
X120322756Y-46510023D01*
X120174922Y-46431005D01*
X120045341Y-46324659D01*
X119938995Y-46195078D01*
X119859977Y-46047244D01*
X119811313Y-45886821D01*
X119794883Y-45720000D01*
X119811313Y-45553179D01*
X119859977Y-45392756D01*
X119938995Y-45244922D01*
X120045341Y-45115341D01*
X120174922Y-45008995D01*
X120322756Y-44929977D01*
X120322759Y-44929976D01*
X120322761Y-44929975D01*
X120483175Y-44881314D01*
X120483176Y-44881314D01*
X120483179Y-44881313D01*
X120608196Y-44869000D01*
X120691804Y-44869000D01*
X120816821Y-44881313D01*
X120816821Y-44881313D01*
G37*
G36*
X137326821Y-44881313D02*
X137326824Y-44881314D01*
X137326825Y-44881314D01*
X137487239Y-44929975D01*
X137487241Y-44929976D01*
X137487244Y-44929977D01*
X137635078Y-45008995D01*
X137764659Y-45115341D01*
X137871005Y-45244922D01*
X137950023Y-45392756D01*
X137998687Y-45553179D01*
X138015117Y-45720000D01*
X137998687Y-45886821D01*
X137950023Y-46047244D01*
X137871005Y-46195078D01*
X137764659Y-46324659D01*
X137635078Y-46431005D01*
X137487244Y-46510023D01*
X137487241Y-46510024D01*
X137487239Y-46510025D01*
X137326825Y-46558686D01*
X137326824Y-46558686D01*
X137326821Y-46558687D01*
X137201804Y-46571000D01*
X137118196Y-46571000D01*
X136993179Y-46558687D01*
X136993176Y-46558686D01*
X136993175Y-46558686D01*
X136832761Y-46510025D01*
X136832759Y-46510024D01*
X136832756Y-46510023D01*
X136684922Y-46431005D01*
X136555341Y-46324659D01*
X136448995Y-46195078D01*
X136369977Y-46047244D01*
X136321313Y-45886821D01*
X136304883Y-45720000D01*
X136321313Y-45553179D01*
X136369977Y-45392756D01*
X136448995Y-45244922D01*
X136555341Y-45115341D01*
X136684922Y-45008995D01*
X136832756Y-44929977D01*
X136832759Y-44929976D01*
X136832761Y-44929975D01*
X136993175Y-44881314D01*
X136993176Y-44881314D01*
X136993179Y-44881313D01*
X137118196Y-44869000D01*
X137201804Y-44869000D01*
X137326821Y-44881313D01*
X137326821Y-44881313D01*
G37*
G36*
X141136821Y-44881313D02*
X141136824Y-44881314D01*
X141136825Y-44881314D01*
X141297239Y-44929975D01*
X141297241Y-44929976D01*
X141297244Y-44929977D01*
X141445078Y-45008995D01*
X141574659Y-45115341D01*
X141681005Y-45244922D01*
X141760023Y-45392756D01*
X141808687Y-45553179D01*
X141825117Y-45720000D01*
X141808687Y-45886821D01*
X141760023Y-46047244D01*
X141681005Y-46195078D01*
X141574659Y-46324659D01*
X141445078Y-46431005D01*
X141297244Y-46510023D01*
X141297241Y-46510024D01*
X141297239Y-46510025D01*
X141136825Y-46558686D01*
X141136824Y-46558686D01*
X141136821Y-46558687D01*
X141011804Y-46571000D01*
X140928196Y-46571000D01*
X140803179Y-46558687D01*
X140803176Y-46558686D01*
X140803175Y-46558686D01*
X140642761Y-46510025D01*
X140642759Y-46510024D01*
X140642756Y-46510023D01*
X140494922Y-46431005D01*
X140365341Y-46324659D01*
X140258995Y-46195078D01*
X140179977Y-46047244D01*
X140131313Y-45886821D01*
X140114883Y-45720000D01*
X140131313Y-45553179D01*
X140179977Y-45392756D01*
X140258995Y-45244922D01*
X140365341Y-45115341D01*
X140494922Y-45008995D01*
X140642756Y-44929977D01*
X140642759Y-44929976D01*
X140642761Y-44929975D01*
X140803175Y-44881314D01*
X140803176Y-44881314D01*
X140803179Y-44881313D01*
X140928196Y-44869000D01*
X141011804Y-44869000D01*
X141136821Y-44881313D01*
X141136821Y-44881313D01*
G37*
G36*
X117006821Y-44881313D02*
X117006824Y-44881314D01*
X117006825Y-44881314D01*
X117167239Y-44929975D01*
X117167241Y-44929976D01*
X117167244Y-44929977D01*
X117315078Y-45008995D01*
X117444659Y-45115341D01*
X117551005Y-45244922D01*
X117630023Y-45392756D01*
X117678687Y-45553179D01*
X117695117Y-45720000D01*
X117678687Y-45886821D01*
X117630023Y-46047244D01*
X117551005Y-46195078D01*
X117444659Y-46324659D01*
X117315078Y-46431005D01*
X117167244Y-46510023D01*
X117167241Y-46510024D01*
X117167239Y-46510025D01*
X117006825Y-46558686D01*
X117006824Y-46558686D01*
X117006821Y-46558687D01*
X116881804Y-46571000D01*
X116798196Y-46571000D01*
X116673179Y-46558687D01*
X116673176Y-46558686D01*
X116673175Y-46558686D01*
X116512761Y-46510025D01*
X116512759Y-46510024D01*
X116512756Y-46510023D01*
X116364922Y-46431005D01*
X116235341Y-46324659D01*
X116128995Y-46195078D01*
X116049977Y-46047244D01*
X116001313Y-45886821D01*
X115984883Y-45720000D01*
X116001313Y-45553179D01*
X116049977Y-45392756D01*
X116128995Y-45244922D01*
X116235341Y-45115341D01*
X116364922Y-45008995D01*
X116512756Y-44929977D01*
X116512759Y-44929976D01*
X116512761Y-44929975D01*
X116673175Y-44881314D01*
X116673176Y-44881314D01*
X116673179Y-44881313D01*
X116798196Y-44869000D01*
X116881804Y-44869000D01*
X117006821Y-44881313D01*
X117006821Y-44881313D01*
G37*
G36*
X163349452Y-39622018D02*
X163349454Y-39622019D01*
X163349455Y-39622019D01*
X163722713Y-39776627D01*
X163851738Y-39862839D01*
X164058639Y-40001086D01*
X164344314Y-40286761D01*
X164344316Y-40286764D01*
X164568773Y-40622687D01*
X164678763Y-40888228D01*
X164723382Y-40995948D01*
X164802200Y-41392193D01*
X164802200Y-41796206D01*
X164723381Y-42192455D01*
X164568773Y-42565713D01*
X164568772Y-42565714D01*
X164344314Y-42901639D01*
X164058639Y-43187314D01*
X164058636Y-43187316D01*
X163722713Y-43411773D01*
X163349455Y-43566381D01*
X163349454Y-43566381D01*
X163349452Y-43566382D01*
X162953207Y-43645200D01*
X162549193Y-43645200D01*
X162152948Y-43566382D01*
X162152946Y-43566381D01*
X162152945Y-43566381D01*
X161779687Y-43411773D01*
X161443764Y-43187316D01*
X161443761Y-43187314D01*
X161158086Y-42901639D01*
X160933628Y-42565714D01*
X160933627Y-42565713D01*
X160779019Y-42192455D01*
X160700200Y-41796206D01*
X160700200Y-41392193D01*
X160779018Y-40995948D01*
X160823637Y-40888228D01*
X160933627Y-40622687D01*
X161158084Y-40286764D01*
X161158086Y-40286761D01*
X161443761Y-40001086D01*
X161650662Y-39862839D01*
X161779687Y-39776627D01*
X162152945Y-39622019D01*
X162152946Y-39622019D01*
X162152948Y-39622018D01*
X162549193Y-39543200D01*
X162953207Y-39543200D01*
X163349452Y-39622018D01*
X163349452Y-39622018D01*
G37*
G36*
X69349452Y-39622018D02*
X69349454Y-39622019D01*
X69349455Y-39622019D01*
X69722713Y-39776627D01*
X69851738Y-39862839D01*
X70058639Y-40001086D01*
X70344314Y-40286761D01*
X70344316Y-40286764D01*
X70568773Y-40622687D01*
X70678763Y-40888228D01*
X70723382Y-40995948D01*
X70802200Y-41392193D01*
X70802200Y-41796206D01*
X70723381Y-42192455D01*
X70568773Y-42565713D01*
X70568772Y-42565714D01*
X70344314Y-42901639D01*
X70058639Y-43187314D01*
X70058636Y-43187316D01*
X69722713Y-43411773D01*
X69349455Y-43566381D01*
X69349454Y-43566381D01*
X69349452Y-43566382D01*
X68953207Y-43645200D01*
X68549193Y-43645200D01*
X68152948Y-43566382D01*
X68152946Y-43566381D01*
X68152945Y-43566381D01*
X67779687Y-43411773D01*
X67443764Y-43187316D01*
X67443761Y-43187314D01*
X67158086Y-42901639D01*
X66933628Y-42565714D01*
X66933627Y-42565713D01*
X66779019Y-42192455D01*
X66700200Y-41796206D01*
X66700200Y-41392193D01*
X66779018Y-40995948D01*
X66823637Y-40888228D01*
X66933627Y-40622687D01*
X67158084Y-40286764D01*
X67158086Y-40286761D01*
X67443761Y-40001086D01*
X67650662Y-39862839D01*
X67779687Y-39776627D01*
X68152945Y-39622019D01*
X68152946Y-39622019D01*
X68152948Y-39622018D01*
X68549193Y-39543200D01*
X68953207Y-39543200D01*
X69349452Y-39622018D01*
X69349452Y-39622018D01*
G37*
G36*
X91847052Y-39622018D02*
X91847054Y-39622019D01*
X91847055Y-39622019D01*
X92220313Y-39776627D01*
X92349338Y-39862839D01*
X92556239Y-40001086D01*
X92841914Y-40286761D01*
X92841916Y-40286764D01*
X93066373Y-40622687D01*
X93176363Y-40888228D01*
X93220982Y-40995948D01*
X93299800Y-41392193D01*
X93299800Y-41796206D01*
X93220981Y-42192455D01*
X93066373Y-42565713D01*
X93066372Y-42565714D01*
X92841914Y-42901639D01*
X92556239Y-43187314D01*
X92556236Y-43187316D01*
X92220313Y-43411773D01*
X91847055Y-43566381D01*
X91847054Y-43566381D01*
X91847052Y-43566382D01*
X91450807Y-43645200D01*
X91046793Y-43645200D01*
X90650548Y-43566382D01*
X90650546Y-43566381D01*
X90650545Y-43566381D01*
X90277287Y-43411773D01*
X89941364Y-43187316D01*
X89941361Y-43187314D01*
X89655686Y-42901639D01*
X89431228Y-42565714D01*
X89431227Y-42565713D01*
X89276619Y-42192455D01*
X89197800Y-41796206D01*
X89197800Y-41392193D01*
X89276618Y-40995948D01*
X89321237Y-40888228D01*
X89431227Y-40622687D01*
X89655684Y-40286764D01*
X89655686Y-40286761D01*
X89941361Y-40001086D01*
X90148262Y-39862839D01*
X90277287Y-39776627D01*
X90650545Y-39622019D01*
X90650546Y-39622019D01*
X90650548Y-39622018D01*
X91046793Y-39543200D01*
X91450807Y-39543200D01*
X91847052Y-39622018D01*
X91847052Y-39622018D01*
G37*
G36*
X185847052Y-39622018D02*
X185847054Y-39622019D01*
X185847055Y-39622019D01*
X186220313Y-39776627D01*
X186349338Y-39862839D01*
X186556239Y-40001086D01*
X186841914Y-40286761D01*
X186841916Y-40286764D01*
X187066373Y-40622687D01*
X187176363Y-40888228D01*
X187220982Y-40995948D01*
X187299800Y-41392193D01*
X187299800Y-41796206D01*
X187220981Y-42192455D01*
X187066373Y-42565713D01*
X187066372Y-42565714D01*
X186841914Y-42901639D01*
X186556239Y-43187314D01*
X186556236Y-43187316D01*
X186220313Y-43411773D01*
X185847055Y-43566381D01*
X185847054Y-43566381D01*
X185847052Y-43566382D01*
X185450807Y-43645200D01*
X185046793Y-43645200D01*
X184650548Y-43566382D01*
X184650546Y-43566381D01*
X184650545Y-43566381D01*
X184277287Y-43411773D01*
X183941364Y-43187316D01*
X183941361Y-43187314D01*
X183655686Y-42901639D01*
X183431228Y-42565714D01*
X183431227Y-42565713D01*
X183276619Y-42192455D01*
X183197800Y-41796206D01*
X183197800Y-41392193D01*
X183276618Y-40995948D01*
X183321237Y-40888228D01*
X183431227Y-40622687D01*
X183655684Y-40286764D01*
X183655686Y-40286761D01*
X183941361Y-40001086D01*
X184148262Y-39862839D01*
X184277287Y-39776627D01*
X184650545Y-39622019D01*
X184650546Y-39622019D01*
X184650548Y-39622018D01*
X185046793Y-39543200D01*
X185450807Y-39543200D01*
X185847052Y-39622018D01*
X185847052Y-39622018D01*
G37*
G36*
X177794228Y-39821703D02*
X177949100Y-39885853D01*
X178088481Y-39978985D01*
X178207015Y-40097519D01*
X178300147Y-40236900D01*
X178364297Y-40391772D01*
X178397000Y-40556184D01*
X178397000Y-40723816D01*
X178364297Y-40888228D01*
X178300147Y-41043100D01*
X178207015Y-41182481D01*
X178088481Y-41301015D01*
X177949100Y-41394147D01*
X177794228Y-41458297D01*
X177629816Y-41491000D01*
X177462184Y-41491000D01*
X177297772Y-41458297D01*
X177142900Y-41394147D01*
X177003519Y-41301015D01*
X176884985Y-41182481D01*
X176791853Y-41043100D01*
X176727703Y-40888228D01*
X176695000Y-40723816D01*
X176695000Y-40556184D01*
X176727703Y-40391772D01*
X176791853Y-40236900D01*
X176884985Y-40097519D01*
X177003519Y-39978985D01*
X177142900Y-39885853D01*
X177297772Y-39821703D01*
X177462184Y-39789000D01*
X177629816Y-39789000D01*
X177794228Y-39821703D01*
X177794228Y-39821703D01*
G37*
G36*
X74612852Y-36583218D02*
X74612854Y-36583219D01*
X74612855Y-36583219D01*
X74986113Y-36737827D01*
X74986114Y-36737828D01*
X75322039Y-36962286D01*
X75607714Y-37247961D01*
X75607716Y-37247964D01*
X75832173Y-37583887D01*
X75986781Y-37957145D01*
X76065600Y-38353394D01*
X76065600Y-38757406D01*
X75986781Y-39153655D01*
X75832173Y-39526913D01*
X75832172Y-39526914D01*
X75607714Y-39862839D01*
X75322039Y-40148514D01*
X75322036Y-40148516D01*
X74986113Y-40372973D01*
X74612855Y-40527581D01*
X74612854Y-40527581D01*
X74612852Y-40527582D01*
X74216607Y-40606400D01*
X73812593Y-40606400D01*
X73416348Y-40527582D01*
X73416346Y-40527581D01*
X73416345Y-40527581D01*
X73043087Y-40372973D01*
X72707164Y-40148516D01*
X72707161Y-40148514D01*
X72421486Y-39862839D01*
X72197028Y-39526914D01*
X72197027Y-39526913D01*
X72042419Y-39153655D01*
X71963600Y-38757406D01*
X71963600Y-38353394D01*
X72042419Y-37957145D01*
X72197027Y-37583887D01*
X72421484Y-37247964D01*
X72421486Y-37247961D01*
X72707161Y-36962286D01*
X73043086Y-36737828D01*
X73043087Y-36737827D01*
X73416345Y-36583219D01*
X73416346Y-36583219D01*
X73416348Y-36583218D01*
X73812593Y-36504400D01*
X74216607Y-36504400D01*
X74612852Y-36583218D01*
X74612852Y-36583218D01*
G37*
G36*
X168612852Y-36583218D02*
X168612854Y-36583219D01*
X168612855Y-36583219D01*
X168986113Y-36737827D01*
X168986114Y-36737828D01*
X169322039Y-36962286D01*
X169607714Y-37247961D01*
X169607716Y-37247964D01*
X169832173Y-37583887D01*
X169986781Y-37957145D01*
X170065600Y-38353394D01*
X170065600Y-38757406D01*
X169986781Y-39153655D01*
X169832173Y-39526913D01*
X169832172Y-39526914D01*
X169607714Y-39862839D01*
X169322039Y-40148514D01*
X169322036Y-40148516D01*
X168986113Y-40372973D01*
X168612855Y-40527581D01*
X168612854Y-40527581D01*
X168612852Y-40527582D01*
X168216607Y-40606400D01*
X167812593Y-40606400D01*
X167416348Y-40527582D01*
X167416346Y-40527581D01*
X167416345Y-40527581D01*
X167043087Y-40372973D01*
X166707164Y-40148516D01*
X166707161Y-40148514D01*
X166421486Y-39862839D01*
X166197028Y-39526914D01*
X166197027Y-39526913D01*
X166042419Y-39153655D01*
X165963600Y-38757406D01*
X165963600Y-38353394D01*
X166042419Y-37957145D01*
X166197027Y-37583887D01*
X166421484Y-37247964D01*
X166421486Y-37247961D01*
X166707161Y-36962286D01*
X167043086Y-36737828D01*
X167043087Y-36737827D01*
X167416345Y-36583219D01*
X167416346Y-36583219D01*
X167416348Y-36583218D01*
X167812593Y-36504400D01*
X168216607Y-36504400D01*
X168612852Y-36583218D01*
X168612852Y-36583218D01*
G37*
G36*
X82798228Y-38551703D02*
X82953100Y-38615853D01*
X83092481Y-38708985D01*
X83211015Y-38827519D01*
X83304147Y-38966900D01*
X83368297Y-39121772D01*
X83401000Y-39286184D01*
X83401000Y-39453816D01*
X83368297Y-39618228D01*
X83304147Y-39773100D01*
X83211015Y-39912481D01*
X83092481Y-40031015D01*
X82953100Y-40124147D01*
X82798228Y-40188297D01*
X82633816Y-40221000D01*
X82466184Y-40221000D01*
X82301772Y-40188297D01*
X82146900Y-40124147D01*
X82007519Y-40031015D01*
X81888985Y-39912481D01*
X81795853Y-39773100D01*
X81731703Y-39618228D01*
X81699000Y-39453816D01*
X81699000Y-39286184D01*
X81731703Y-39121772D01*
X81795853Y-38966900D01*
X81888985Y-38827519D01*
X82007519Y-38708985D01*
X82146900Y-38615853D01*
X82301772Y-38551703D01*
X82466184Y-38519000D01*
X82633816Y-38519000D01*
X82798228Y-38551703D01*
X82798228Y-38551703D01*
G37*
G36*
X141218228Y-34741703D02*
X141373100Y-34805853D01*
X141512481Y-34898985D01*
X141631015Y-35017519D01*
X141724147Y-35156900D01*
X141788297Y-35311772D01*
X141821000Y-35476184D01*
X141821000Y-35643816D01*
X141788297Y-35808228D01*
X141724147Y-35963100D01*
X141631015Y-36102481D01*
X141512481Y-36221015D01*
X141373100Y-36314147D01*
X141218228Y-36378297D01*
X141053816Y-36411000D01*
X140886184Y-36411000D01*
X140721772Y-36378297D01*
X140566900Y-36314147D01*
X140427519Y-36221015D01*
X140308985Y-36102481D01*
X140215853Y-35963100D01*
X140151703Y-35808228D01*
X140119000Y-35643816D01*
X140119000Y-35476184D01*
X140151703Y-35311772D01*
X140215853Y-35156900D01*
X140308985Y-35017519D01*
X140427519Y-34898985D01*
X140566900Y-34805853D01*
X140721772Y-34741703D01*
X140886184Y-34709000D01*
X141053816Y-34709000D01*
X141218228Y-34741703D01*
X141218228Y-34741703D01*
G37*
G36*
X113278228Y-34741703D02*
X113433100Y-34805853D01*
X113572481Y-34898985D01*
X113691015Y-35017519D01*
X113784147Y-35156900D01*
X113848297Y-35311772D01*
X113881000Y-35476184D01*
X113881000Y-35643816D01*
X113848297Y-35808228D01*
X113784147Y-35963100D01*
X113691015Y-36102481D01*
X113572481Y-36221015D01*
X113433100Y-36314147D01*
X113278228Y-36378297D01*
X113113816Y-36411000D01*
X112946184Y-36411000D01*
X112781772Y-36378297D01*
X112626900Y-36314147D01*
X112487519Y-36221015D01*
X112368985Y-36102481D01*
X112275853Y-35963100D01*
X112211703Y-35808228D01*
X112179000Y-35643816D01*
X112179000Y-35476184D01*
X112211703Y-35311772D01*
X112275853Y-35156900D01*
X112368985Y-35017519D01*
X112487519Y-34898985D01*
X112626900Y-34805853D01*
X112781772Y-34741703D01*
X112946184Y-34709000D01*
X113113816Y-34709000D01*
X113278228Y-34741703D01*
X113278228Y-34741703D01*
G37*
G36*
X137408228Y-34741703D02*
X137563100Y-34805853D01*
X137702481Y-34898985D01*
X137821015Y-35017519D01*
X137914147Y-35156900D01*
X137978297Y-35311772D01*
X138011000Y-35476184D01*
X138011000Y-35643816D01*
X137978297Y-35808228D01*
X137914147Y-35963100D01*
X137821015Y-36102481D01*
X137702481Y-36221015D01*
X137563100Y-36314147D01*
X137408228Y-36378297D01*
X137243816Y-36411000D01*
X137076184Y-36411000D01*
X136911772Y-36378297D01*
X136756900Y-36314147D01*
X136617519Y-36221015D01*
X136498985Y-36102481D01*
X136405853Y-35963100D01*
X136341703Y-35808228D01*
X136309000Y-35643816D01*
X136309000Y-35476184D01*
X136341703Y-35311772D01*
X136405853Y-35156900D01*
X136498985Y-35017519D01*
X136617519Y-34898985D01*
X136756900Y-34805853D01*
X136911772Y-34741703D01*
X137076184Y-34709000D01*
X137243816Y-34709000D01*
X137408228Y-34741703D01*
X137408228Y-34741703D01*
G37*
G36*
X117088228Y-34741703D02*
X117243100Y-34805853D01*
X117382481Y-34898985D01*
X117501015Y-35017519D01*
X117594147Y-35156900D01*
X117658297Y-35311772D01*
X117691000Y-35476184D01*
X117691000Y-35643816D01*
X117658297Y-35808228D01*
X117594147Y-35963100D01*
X117501015Y-36102481D01*
X117382481Y-36221015D01*
X117243100Y-36314147D01*
X117088228Y-36378297D01*
X116923816Y-36411000D01*
X116756184Y-36411000D01*
X116591772Y-36378297D01*
X116436900Y-36314147D01*
X116297519Y-36221015D01*
X116178985Y-36102481D01*
X116085853Y-35963100D01*
X116021703Y-35808228D01*
X115989000Y-35643816D01*
X115989000Y-35476184D01*
X116021703Y-35311772D01*
X116085853Y-35156900D01*
X116178985Y-35017519D01*
X116297519Y-34898985D01*
X116436900Y-34805853D01*
X116591772Y-34741703D01*
X116756184Y-34709000D01*
X116923816Y-34709000D01*
X117088228Y-34741703D01*
X117088228Y-34741703D01*
G37*
G36*
X120898228Y-34741703D02*
X121053100Y-34805853D01*
X121192481Y-34898985D01*
X121311015Y-35017519D01*
X121404147Y-35156900D01*
X121468297Y-35311772D01*
X121501000Y-35476184D01*
X121501000Y-35643816D01*
X121468297Y-35808228D01*
X121404147Y-35963100D01*
X121311015Y-36102481D01*
X121192481Y-36221015D01*
X121053100Y-36314147D01*
X120898228Y-36378297D01*
X120733816Y-36411000D01*
X120566184Y-36411000D01*
X120401772Y-36378297D01*
X120246900Y-36314147D01*
X120107519Y-36221015D01*
X119988985Y-36102481D01*
X119895853Y-35963100D01*
X119831703Y-35808228D01*
X119799000Y-35643816D01*
X119799000Y-35476184D01*
X119831703Y-35311772D01*
X119895853Y-35156900D01*
X119988985Y-35017519D01*
X120107519Y-34898985D01*
X120246900Y-34805853D01*
X120401772Y-34741703D01*
X120566184Y-34709000D01*
X120733816Y-34709000D01*
X120898228Y-34741703D01*
X120898228Y-34741703D01*
G37*
G36*
X196481000Y-33921000D02*
X194679000Y-33921000D01*
X194679000Y-32119000D01*
X196481000Y-32119000D01*
X196481000Y-33921000D01*
X196481000Y-33921000D01*
G37*
G36*
X195690443Y-29585519D02*
X195756627Y-29592037D01*
X195869853Y-29626384D01*
X195926467Y-29643557D01*
X196013311Y-29689977D01*
X196082991Y-29727222D01*
X196118729Y-29756552D01*
X196220186Y-29839814D01*
X196303448Y-29941271D01*
X196332778Y-29977009D01*
X196332779Y-29977011D01*
X196416443Y-30133533D01*
X196433616Y-30190147D01*
X196467963Y-30303373D01*
X196485359Y-30480000D01*
X196467963Y-30656627D01*
X196433616Y-30769853D01*
X196416443Y-30826467D01*
X196347698Y-30955078D01*
X196332778Y-30982991D01*
X196303448Y-31018729D01*
X196220186Y-31120186D01*
X196118729Y-31203448D01*
X196082991Y-31232778D01*
X196082989Y-31232779D01*
X195926467Y-31316443D01*
X195919069Y-31318687D01*
X195756627Y-31367963D01*
X195690443Y-31374481D01*
X195624260Y-31381000D01*
X195535740Y-31381000D01*
X195469557Y-31374481D01*
X195403373Y-31367963D01*
X195240931Y-31318687D01*
X195233533Y-31316443D01*
X195077011Y-31232779D01*
X195077009Y-31232778D01*
X195041271Y-31203448D01*
X194939814Y-31120186D01*
X194856552Y-31018729D01*
X194827222Y-30982991D01*
X194812302Y-30955078D01*
X194743557Y-30826467D01*
X194726384Y-30769853D01*
X194692037Y-30656627D01*
X194674641Y-30480000D01*
X194692037Y-30303373D01*
X194726384Y-30190147D01*
X194743557Y-30133533D01*
X194827221Y-29977011D01*
X194827222Y-29977009D01*
X194856552Y-29941271D01*
X194939814Y-29839814D01*
X195041271Y-29756552D01*
X195077009Y-29727222D01*
X195146689Y-29689977D01*
X195233533Y-29643557D01*
X195290147Y-29626384D01*
X195403373Y-29592037D01*
X195469557Y-29585519D01*
X195535740Y-29579000D01*
X195624260Y-29579000D01*
X195690443Y-29585519D01*
X195690443Y-29585519D01*
G37*
G36*
X152566821Y-29641313D02*
X152566824Y-29641314D01*
X152566825Y-29641314D01*
X152727239Y-29689975D01*
X152727241Y-29689976D01*
X152727244Y-29689977D01*
X152875078Y-29768995D01*
X153004659Y-29875341D01*
X153111005Y-30004922D01*
X153190023Y-30152756D01*
X153190024Y-30152759D01*
X153190025Y-30152761D01*
X153235713Y-30303375D01*
X153238687Y-30313179D01*
X153255117Y-30480000D01*
X153238687Y-30646821D01*
X153238686Y-30646824D01*
X153238686Y-30646825D01*
X153235713Y-30656627D01*
X153190023Y-30807244D01*
X153111005Y-30955078D01*
X153004659Y-31084659D01*
X152875078Y-31191005D01*
X152727244Y-31270023D01*
X152727241Y-31270024D01*
X152727239Y-31270025D01*
X152566825Y-31318686D01*
X152566824Y-31318686D01*
X152566821Y-31318687D01*
X152441804Y-31331000D01*
X152358196Y-31331000D01*
X152233179Y-31318687D01*
X152233176Y-31318686D01*
X152233175Y-31318686D01*
X152072761Y-31270025D01*
X152072759Y-31270024D01*
X152072756Y-31270023D01*
X151924922Y-31191005D01*
X151795341Y-31084659D01*
X151688995Y-30955078D01*
X151609977Y-30807244D01*
X151564288Y-30656627D01*
X151561314Y-30646825D01*
X151561314Y-30646824D01*
X151561313Y-30646821D01*
X151544883Y-30480000D01*
X151561313Y-30313179D01*
X151564287Y-30303375D01*
X151609975Y-30152761D01*
X151609976Y-30152759D01*
X151609977Y-30152756D01*
X151688995Y-30004922D01*
X151795341Y-29875341D01*
X151924922Y-29768995D01*
X152072756Y-29689977D01*
X152072759Y-29689976D01*
X152072761Y-29689975D01*
X152233175Y-29641314D01*
X152233176Y-29641314D01*
X152233179Y-29641313D01*
X152358196Y-29629000D01*
X152441804Y-29629000D01*
X152566821Y-29641313D01*
X152566821Y-29641313D01*
G37*
G36*
X110656821Y-29641313D02*
X110656824Y-29641314D01*
X110656825Y-29641314D01*
X110817239Y-29689975D01*
X110817241Y-29689976D01*
X110817244Y-29689977D01*
X110965078Y-29768995D01*
X111094659Y-29875341D01*
X111201005Y-30004922D01*
X111280023Y-30152756D01*
X111280024Y-30152759D01*
X111280025Y-30152761D01*
X111325713Y-30303375D01*
X111328687Y-30313179D01*
X111345117Y-30480000D01*
X111328687Y-30646821D01*
X111328686Y-30646824D01*
X111328686Y-30646825D01*
X111325713Y-30656627D01*
X111280023Y-30807244D01*
X111201005Y-30955078D01*
X111094659Y-31084659D01*
X110965078Y-31191005D01*
X110817244Y-31270023D01*
X110817241Y-31270024D01*
X110817239Y-31270025D01*
X110656825Y-31318686D01*
X110656824Y-31318686D01*
X110656821Y-31318687D01*
X110531804Y-31331000D01*
X110448196Y-31331000D01*
X110323179Y-31318687D01*
X110323176Y-31318686D01*
X110323175Y-31318686D01*
X110162761Y-31270025D01*
X110162759Y-31270024D01*
X110162756Y-31270023D01*
X110014922Y-31191005D01*
X109885341Y-31084659D01*
X109778995Y-30955078D01*
X109699977Y-30807244D01*
X109654288Y-30656627D01*
X109651314Y-30646825D01*
X109651314Y-30646824D01*
X109651313Y-30646821D01*
X109634883Y-30480000D01*
X109651313Y-30313179D01*
X109654287Y-30303375D01*
X109699975Y-30152761D01*
X109699976Y-30152759D01*
X109699977Y-30152756D01*
X109778995Y-30004922D01*
X109885341Y-29875341D01*
X110014922Y-29768995D01*
X110162756Y-29689977D01*
X110162759Y-29689976D01*
X110162761Y-29689975D01*
X110323175Y-29641314D01*
X110323176Y-29641314D01*
X110323179Y-29641313D01*
X110448196Y-29629000D01*
X110531804Y-29629000D01*
X110656821Y-29641313D01*
X110656821Y-29641313D01*
G37*
G36*
X103036821Y-29641313D02*
X103036824Y-29641314D01*
X103036825Y-29641314D01*
X103197239Y-29689975D01*
X103197241Y-29689976D01*
X103197244Y-29689977D01*
X103345078Y-29768995D01*
X103474659Y-29875341D01*
X103581005Y-30004922D01*
X103660023Y-30152756D01*
X103660024Y-30152759D01*
X103660025Y-30152761D01*
X103705713Y-30303375D01*
X103708687Y-30313179D01*
X103725117Y-30480000D01*
X103708687Y-30646821D01*
X103708686Y-30646824D01*
X103708686Y-30646825D01*
X103705713Y-30656627D01*
X103660023Y-30807244D01*
X103581005Y-30955078D01*
X103474659Y-31084659D01*
X103345078Y-31191005D01*
X103197244Y-31270023D01*
X103197241Y-31270024D01*
X103197239Y-31270025D01*
X103036825Y-31318686D01*
X103036824Y-31318686D01*
X103036821Y-31318687D01*
X102911804Y-31331000D01*
X102828196Y-31331000D01*
X102703179Y-31318687D01*
X102703176Y-31318686D01*
X102703175Y-31318686D01*
X102542761Y-31270025D01*
X102542759Y-31270024D01*
X102542756Y-31270023D01*
X102394922Y-31191005D01*
X102265341Y-31084659D01*
X102158995Y-30955078D01*
X102079977Y-30807244D01*
X102034288Y-30656627D01*
X102031314Y-30646825D01*
X102031314Y-30646824D01*
X102031313Y-30646821D01*
X102014883Y-30480000D01*
X102031313Y-30313179D01*
X102034287Y-30303375D01*
X102079975Y-30152761D01*
X102079976Y-30152759D01*
X102079977Y-30152756D01*
X102158995Y-30004922D01*
X102265341Y-29875341D01*
X102394922Y-29768995D01*
X102542756Y-29689977D01*
X102542759Y-29689976D01*
X102542761Y-29689975D01*
X102703175Y-29641314D01*
X102703176Y-29641314D01*
X102703179Y-29641313D01*
X102828196Y-29629000D01*
X102911804Y-29629000D01*
X103036821Y-29641313D01*
X103036821Y-29641313D01*
G37*
G36*
X124626821Y-29641313D02*
X124626824Y-29641314D01*
X124626825Y-29641314D01*
X124787239Y-29689975D01*
X124787241Y-29689976D01*
X124787244Y-29689977D01*
X124935078Y-29768995D01*
X125064659Y-29875341D01*
X125171005Y-30004922D01*
X125250023Y-30152756D01*
X125250024Y-30152759D01*
X125250025Y-30152761D01*
X125295713Y-30303375D01*
X125298687Y-30313179D01*
X125315117Y-30480000D01*
X125298687Y-30646821D01*
X125298686Y-30646824D01*
X125298686Y-30646825D01*
X125295713Y-30656627D01*
X125250023Y-30807244D01*
X125171005Y-30955078D01*
X125064659Y-31084659D01*
X124935078Y-31191005D01*
X124787244Y-31270023D01*
X124787241Y-31270024D01*
X124787239Y-31270025D01*
X124626825Y-31318686D01*
X124626824Y-31318686D01*
X124626821Y-31318687D01*
X124501804Y-31331000D01*
X124418196Y-31331000D01*
X124293179Y-31318687D01*
X124293176Y-31318686D01*
X124293175Y-31318686D01*
X124132761Y-31270025D01*
X124132759Y-31270024D01*
X124132756Y-31270023D01*
X123984922Y-31191005D01*
X123855341Y-31084659D01*
X123748995Y-30955078D01*
X123669977Y-30807244D01*
X123624288Y-30656627D01*
X123621314Y-30646825D01*
X123621314Y-30646824D01*
X123621313Y-30646821D01*
X123604883Y-30480000D01*
X123621313Y-30313179D01*
X123624287Y-30303375D01*
X123669975Y-30152761D01*
X123669976Y-30152759D01*
X123669977Y-30152756D01*
X123748995Y-30004922D01*
X123855341Y-29875341D01*
X123984922Y-29768995D01*
X124132756Y-29689977D01*
X124132759Y-29689976D01*
X124132761Y-29689975D01*
X124293175Y-29641314D01*
X124293176Y-29641314D01*
X124293179Y-29641313D01*
X124418196Y-29629000D01*
X124501804Y-29629000D01*
X124626821Y-29641313D01*
X124626821Y-29641313D01*
G37*
G36*
X132246821Y-29641313D02*
X132246824Y-29641314D01*
X132246825Y-29641314D01*
X132407239Y-29689975D01*
X132407241Y-29689976D01*
X132407244Y-29689977D01*
X132555078Y-29768995D01*
X132684659Y-29875341D01*
X132791005Y-30004922D01*
X132870023Y-30152756D01*
X132870024Y-30152759D01*
X132870025Y-30152761D01*
X132915713Y-30303375D01*
X132918687Y-30313179D01*
X132935117Y-30480000D01*
X132918687Y-30646821D01*
X132918686Y-30646824D01*
X132918686Y-30646825D01*
X132915713Y-30656627D01*
X132870023Y-30807244D01*
X132791005Y-30955078D01*
X132684659Y-31084659D01*
X132555078Y-31191005D01*
X132407244Y-31270023D01*
X132407241Y-31270024D01*
X132407239Y-31270025D01*
X132246825Y-31318686D01*
X132246824Y-31318686D01*
X132246821Y-31318687D01*
X132121804Y-31331000D01*
X132038196Y-31331000D01*
X131913179Y-31318687D01*
X131913176Y-31318686D01*
X131913175Y-31318686D01*
X131752761Y-31270025D01*
X131752759Y-31270024D01*
X131752756Y-31270023D01*
X131604922Y-31191005D01*
X131475341Y-31084659D01*
X131368995Y-30955078D01*
X131289977Y-30807244D01*
X131244288Y-30656627D01*
X131241314Y-30646825D01*
X131241314Y-30646824D01*
X131241313Y-30646821D01*
X131224883Y-30480000D01*
X131241313Y-30313179D01*
X131244287Y-30303375D01*
X131289975Y-30152761D01*
X131289976Y-30152759D01*
X131289977Y-30152756D01*
X131368995Y-30004922D01*
X131475341Y-29875341D01*
X131604922Y-29768995D01*
X131752756Y-29689977D01*
X131752759Y-29689976D01*
X131752761Y-29689975D01*
X131913175Y-29641314D01*
X131913176Y-29641314D01*
X131913179Y-29641313D01*
X132038196Y-29629000D01*
X132121804Y-29629000D01*
X132246821Y-29641313D01*
X132246821Y-29641313D01*
G37*
G36*
X144946821Y-29641313D02*
X144946824Y-29641314D01*
X144946825Y-29641314D01*
X145107239Y-29689975D01*
X145107241Y-29689976D01*
X145107244Y-29689977D01*
X145255078Y-29768995D01*
X145384659Y-29875341D01*
X145491005Y-30004922D01*
X145570023Y-30152756D01*
X145570024Y-30152759D01*
X145570025Y-30152761D01*
X145615713Y-30303375D01*
X145618687Y-30313179D01*
X145635117Y-30480000D01*
X145618687Y-30646821D01*
X145618686Y-30646824D01*
X145618686Y-30646825D01*
X145615713Y-30656627D01*
X145570023Y-30807244D01*
X145491005Y-30955078D01*
X145384659Y-31084659D01*
X145255078Y-31191005D01*
X145107244Y-31270023D01*
X145107241Y-31270024D01*
X145107239Y-31270025D01*
X144946825Y-31318686D01*
X144946824Y-31318686D01*
X144946821Y-31318687D01*
X144821804Y-31331000D01*
X144738196Y-31331000D01*
X144613179Y-31318687D01*
X144613176Y-31318686D01*
X144613175Y-31318686D01*
X144452761Y-31270025D01*
X144452759Y-31270024D01*
X144452756Y-31270023D01*
X144304922Y-31191005D01*
X144175341Y-31084659D01*
X144068995Y-30955078D01*
X143989977Y-30807244D01*
X143944288Y-30656627D01*
X143941314Y-30646825D01*
X143941314Y-30646824D01*
X143941313Y-30646821D01*
X143924883Y-30480000D01*
X143941313Y-30313179D01*
X143944287Y-30303375D01*
X143989975Y-30152761D01*
X143989976Y-30152759D01*
X143989977Y-30152756D01*
X144068995Y-30004922D01*
X144175341Y-29875341D01*
X144304922Y-29768995D01*
X144452756Y-29689977D01*
X144452759Y-29689976D01*
X144452761Y-29689975D01*
X144613175Y-29641314D01*
X144613176Y-29641314D01*
X144613179Y-29641313D01*
X144738196Y-29629000D01*
X144821804Y-29629000D01*
X144946821Y-29641313D01*
X144946821Y-29641313D01*
G37*
G36*
X203575256Y-26331298D02*
X203681579Y-26352447D01*
X203982042Y-26476903D01*
X204248852Y-26655180D01*
X204252454Y-26657587D01*
X204482413Y-26887546D01*
X204482415Y-26887549D01*
X204663097Y-27157958D01*
X204736572Y-27335341D01*
X204787553Y-27458422D01*
X204851000Y-27777389D01*
X204851000Y-28102611D01*
X204818253Y-28267239D01*
X204787553Y-28421579D01*
X204663097Y-28722042D01*
X204484820Y-28988852D01*
X204482413Y-28992454D01*
X204252454Y-29222413D01*
X204252451Y-29222415D01*
X203982042Y-29403097D01*
X203681579Y-29527553D01*
X203575256Y-29548702D01*
X203362611Y-29591000D01*
X203037389Y-29591000D01*
X202824744Y-29548702D01*
X202718421Y-29527553D01*
X202417958Y-29403097D01*
X202147549Y-29222415D01*
X202147546Y-29222413D01*
X201917587Y-28992454D01*
X201915180Y-28988852D01*
X201736903Y-28722042D01*
X201612447Y-28421579D01*
X201581747Y-28267239D01*
X201549000Y-28102611D01*
X201549000Y-27777389D01*
X201612447Y-27458422D01*
X201663429Y-27335341D01*
X201736903Y-27157958D01*
X201917585Y-26887549D01*
X201917587Y-26887546D01*
X202147546Y-26657587D01*
X202151148Y-26655180D01*
X202417958Y-26476903D01*
X202718421Y-26352447D01*
X202824744Y-26331298D01*
X203037389Y-26289000D01*
X203362611Y-26289000D01*
X203575256Y-26331298D01*
X203575256Y-26331298D01*
G37*
G36*
X51175256Y-26331298D02*
X51281579Y-26352447D01*
X51582042Y-26476903D01*
X51848852Y-26655180D01*
X51852454Y-26657587D01*
X52082413Y-26887546D01*
X52082415Y-26887549D01*
X52263097Y-27157958D01*
X52336572Y-27335341D01*
X52387553Y-27458422D01*
X52451000Y-27777389D01*
X52451000Y-28102611D01*
X52418253Y-28267239D01*
X52387553Y-28421579D01*
X52263097Y-28722042D01*
X52084820Y-28988852D01*
X52082413Y-28992454D01*
X51852454Y-29222413D01*
X51852451Y-29222415D01*
X51582042Y-29403097D01*
X51281579Y-29527553D01*
X51175256Y-29548702D01*
X50962611Y-29591000D01*
X50637389Y-29591000D01*
X50424744Y-29548702D01*
X50318421Y-29527553D01*
X50017958Y-29403097D01*
X49747549Y-29222415D01*
X49747546Y-29222413D01*
X49517587Y-28992454D01*
X49515180Y-28988852D01*
X49336903Y-28722042D01*
X49212447Y-28421579D01*
X49181747Y-28267239D01*
X49149000Y-28102611D01*
X49149000Y-27777389D01*
X49212447Y-27458422D01*
X49263429Y-27335341D01*
X49336903Y-27157958D01*
X49517585Y-26887549D01*
X49517587Y-26887546D01*
X49747546Y-26657587D01*
X49751148Y-26655180D01*
X50017958Y-26476903D01*
X50318421Y-26352447D01*
X50424744Y-26331298D01*
X50637389Y-26289000D01*
X50962611Y-26289000D01*
X51175256Y-26331298D01*
X51175256Y-26331298D01*
G37*
G36*
X145631000Y-28791000D02*
X143929000Y-28791000D01*
X143929000Y-27089000D01*
X145631000Y-27089000D01*
X145631000Y-28791000D01*
X145631000Y-28791000D01*
G37*
G36*
X110656821Y-27101313D02*
X110656824Y-27101314D01*
X110656825Y-27101314D01*
X110817239Y-27149975D01*
X110817241Y-27149976D01*
X110817244Y-27149977D01*
X110965078Y-27228995D01*
X111094659Y-27335341D01*
X111201005Y-27464922D01*
X111280023Y-27612756D01*
X111328687Y-27773179D01*
X111345117Y-27940000D01*
X111328687Y-28106821D01*
X111280023Y-28267244D01*
X111201005Y-28415078D01*
X111094659Y-28544659D01*
X110965078Y-28651005D01*
X110817244Y-28730023D01*
X110817241Y-28730024D01*
X110817239Y-28730025D01*
X110656825Y-28778686D01*
X110656824Y-28778686D01*
X110656821Y-28778687D01*
X110531804Y-28791000D01*
X110448196Y-28791000D01*
X110323179Y-28778687D01*
X110323176Y-28778686D01*
X110323175Y-28778686D01*
X110162761Y-28730025D01*
X110162759Y-28730024D01*
X110162756Y-28730023D01*
X110014922Y-28651005D01*
X109885341Y-28544659D01*
X109778995Y-28415078D01*
X109699977Y-28267244D01*
X109651313Y-28106821D01*
X109634883Y-27940000D01*
X109651313Y-27773179D01*
X109699977Y-27612756D01*
X109778995Y-27464922D01*
X109885341Y-27335341D01*
X110014922Y-27228995D01*
X110162756Y-27149977D01*
X110162759Y-27149976D01*
X110162761Y-27149975D01*
X110323175Y-27101314D01*
X110323176Y-27101314D01*
X110323179Y-27101313D01*
X110448196Y-27089000D01*
X110531804Y-27089000D01*
X110656821Y-27101313D01*
X110656821Y-27101313D01*
G37*
G36*
X152566821Y-27101313D02*
X152566824Y-27101314D01*
X152566825Y-27101314D01*
X152727239Y-27149975D01*
X152727241Y-27149976D01*
X152727244Y-27149977D01*
X152875078Y-27228995D01*
X153004659Y-27335341D01*
X153111005Y-27464922D01*
X153190023Y-27612756D01*
X153238687Y-27773179D01*
X153255117Y-27940000D01*
X153238687Y-28106821D01*
X153190023Y-28267244D01*
X153111005Y-28415078D01*
X153004659Y-28544659D01*
X152875078Y-28651005D01*
X152727244Y-28730023D01*
X152727241Y-28730024D01*
X152727239Y-28730025D01*
X152566825Y-28778686D01*
X152566824Y-28778686D01*
X152566821Y-28778687D01*
X152441804Y-28791000D01*
X152358196Y-28791000D01*
X152233179Y-28778687D01*
X152233176Y-28778686D01*
X152233175Y-28778686D01*
X152072761Y-28730025D01*
X152072759Y-28730024D01*
X152072756Y-28730023D01*
X151924922Y-28651005D01*
X151795341Y-28544659D01*
X151688995Y-28415078D01*
X151609977Y-28267244D01*
X151561313Y-28106821D01*
X151544883Y-27940000D01*
X151561313Y-27773179D01*
X151609977Y-27612756D01*
X151688995Y-27464922D01*
X151795341Y-27335341D01*
X151924922Y-27228995D01*
X152072756Y-27149977D01*
X152072759Y-27149976D01*
X152072761Y-27149975D01*
X152233175Y-27101314D01*
X152233176Y-27101314D01*
X152233179Y-27101313D01*
X152358196Y-27089000D01*
X152441804Y-27089000D01*
X152566821Y-27101313D01*
X152566821Y-27101313D01*
G37*
G36*
X103721000Y-28791000D02*
X102019000Y-28791000D01*
X102019000Y-27089000D01*
X103721000Y-27089000D01*
X103721000Y-28791000D01*
X103721000Y-28791000D01*
G37*
G36*
X125311000Y-28791000D02*
X123609000Y-28791000D01*
X123609000Y-27089000D01*
X125311000Y-27089000D01*
X125311000Y-28791000D01*
X125311000Y-28791000D01*
G37*
G36*
X132246821Y-27101313D02*
X132246824Y-27101314D01*
X132246825Y-27101314D01*
X132407239Y-27149975D01*
X132407241Y-27149976D01*
X132407244Y-27149977D01*
X132555078Y-27228995D01*
X132684659Y-27335341D01*
X132791005Y-27464922D01*
X132870023Y-27612756D01*
X132918687Y-27773179D01*
X132935117Y-27940000D01*
X132918687Y-28106821D01*
X132870023Y-28267244D01*
X132791005Y-28415078D01*
X132684659Y-28544659D01*
X132555078Y-28651005D01*
X132407244Y-28730023D01*
X132407241Y-28730024D01*
X132407239Y-28730025D01*
X132246825Y-28778686D01*
X132246824Y-28778686D01*
X132246821Y-28778687D01*
X132121804Y-28791000D01*
X132038196Y-28791000D01*
X131913179Y-28778687D01*
X131913176Y-28778686D01*
X131913175Y-28778686D01*
X131752761Y-28730025D01*
X131752759Y-28730024D01*
X131752756Y-28730023D01*
X131604922Y-28651005D01*
X131475341Y-28544659D01*
X131368995Y-28415078D01*
X131289977Y-28267244D01*
X131241313Y-28106821D01*
X131224883Y-27940000D01*
X131241313Y-27773179D01*
X131289977Y-27612756D01*
X131368995Y-27464922D01*
X131475341Y-27335341D01*
X131604922Y-27228995D01*
X131752756Y-27149977D01*
X131752759Y-27149976D01*
X131752761Y-27149975D01*
X131913175Y-27101314D01*
X131913176Y-27101314D01*
X131913179Y-27101313D01*
X132038196Y-27089000D01*
X132121804Y-27089000D01*
X132246821Y-27101313D01*
X132246821Y-27101313D01*
G37*
M02*
