G04 #@! TF.GenerationSoftware,KiCad,Pcbnew,5.0.2+dfsg1-1~bpo9+1*
G04 #@! TF.CreationDate,2020-04-30T19:20:10-04:00*
G04 #@! TF.ProjectId,NixieTest,4e697869-6554-4657-9374-2e6b69636164,rev?*
G04 #@! TF.SameCoordinates,Original*
G04 #@! TF.FileFunction,Copper,L2,Bot*
G04 #@! TF.FilePolarity,Positive*
%FSLAX46Y46*%
G04 Gerber Fmt 4.6, Leading zero omitted, Abs format (unit mm)*
G04 Created by KiCad (PCBNEW 5.0.2+dfsg1-1~bpo9+1) date Thu 30 Apr 2020 07:20:10 PM EDT*
%MOMM*%
%LPD*%
G01*
G04 APERTURE LIST*
G04 #@! TA.AperFunction,ComponentPad*
%ADD10O,1.700000X1.700000*%
G04 #@! TD*
G04 #@! TA.AperFunction,ComponentPad*
%ADD11R,1.700000X1.700000*%
G04 #@! TD*
G04 #@! TA.AperFunction,ComponentPad*
%ADD12O,1.050000X1.500000*%
G04 #@! TD*
G04 #@! TA.AperFunction,ComponentPad*
%ADD13R,1.050000X1.500000*%
G04 #@! TD*
G04 #@! TA.AperFunction,ComponentPad*
%ADD14C,1.600000*%
G04 #@! TD*
G04 #@! TA.AperFunction,ComponentPad*
%ADD15O,1.600000X1.600000*%
G04 #@! TD*
G04 #@! TA.AperFunction,ComponentPad*
%ADD16R,1.600000X1.600000*%
G04 #@! TD*
G04 #@! TA.AperFunction,ComponentPad*
%ADD17C,4.000000*%
G04 #@! TD*
G04 #@! TA.AperFunction,ComponentPad*
%ADD18R,4.000000X4.000000*%
G04 #@! TD*
G04 #@! TA.AperFunction,ViaPad*
%ADD19C,0.800000*%
G04 #@! TD*
G04 #@! TA.AperFunction,Conductor*
%ADD20C,0.250000*%
G04 #@! TD*
G04 #@! TA.AperFunction,Conductor*
%ADD21C,0.254000*%
G04 #@! TD*
G04 APERTURE END LIST*
D10*
G04 #@! TO.P,J1,2*
G04 #@! TO.N,+5V*
X149860000Y-106680000D03*
D11*
G04 #@! TO.P,J1,1*
G04 #@! TO.N,GND*
X152400000Y-106680000D03*
G04 #@! TD*
G04 #@! TO.P,J2,1*
G04 #@! TO.N,GND*
X195580000Y-33020000D03*
D10*
G04 #@! TO.P,J2,2*
G04 #@! TO.N,HT*
X195580000Y-30480000D03*
G04 #@! TD*
D11*
G04 #@! TO.P,J3,1*
G04 #@! TO.N,Net-(J3-Pad1)*
X111760000Y-106680000D03*
D10*
G04 #@! TO.P,J3,2*
G04 #@! TO.N,Net-(J3-Pad2)*
X109220000Y-106680000D03*
G04 #@! TO.P,J3,3*
G04 #@! TO.N,Net-(J3-Pad3)*
X106680000Y-106680000D03*
G04 #@! TO.P,J3,4*
G04 #@! TO.N,Net-(J3-Pad4)*
X104140000Y-106680000D03*
G04 #@! TO.P,J3,5*
G04 #@! TO.N,Net-(J3-Pad5)*
X101600000Y-106680000D03*
G04 #@! TO.P,J3,6*
G04 #@! TO.N,Net-(J3-Pad6)*
X99060000Y-106680000D03*
G04 #@! TO.P,J3,7*
G04 #@! TO.N,Net-(J3-Pad7)*
X96520000Y-106680000D03*
G04 #@! TD*
D12*
G04 #@! TO.P,Q1,2*
G04 #@! TO.N,Net-(Q1-Pad2)*
X134620000Y-68580000D03*
G04 #@! TO.P,Q1,3*
G04 #@! TO.N,Net-(Q1-Pad3)*
X135890000Y-68580000D03*
D13*
G04 #@! TO.P,Q1,1*
G04 #@! TO.N,GND*
X133350000Y-68580000D03*
G04 #@! TD*
G04 #@! TO.P,Q2,1*
G04 #@! TO.N,GND*
X119380000Y-68580000D03*
D12*
G04 #@! TO.P,Q2,3*
G04 #@! TO.N,Net-(Q2-Pad3)*
X121920000Y-68580000D03*
G04 #@! TO.P,Q2,2*
G04 #@! TO.N,Net-(Q2-Pad2)*
X120650000Y-68580000D03*
G04 #@! TD*
D14*
G04 #@! TO.P,R1,1*
G04 #@! TO.N,Net-(R1-Pad1)*
X113030000Y-35560000D03*
D15*
G04 #@! TO.P,R1,2*
G04 #@! TO.N,Net-(J3-Pad1)*
X113030000Y-45720000D03*
G04 #@! TD*
G04 #@! TO.P,R3,2*
G04 #@! TO.N,Net-(N1-PadA)*
X82550000Y-49530000D03*
D14*
G04 #@! TO.P,R3,1*
G04 #@! TO.N,Net-(R3-Pad1)*
X82550000Y-39370000D03*
G04 #@! TD*
D15*
G04 #@! TO.P,R4,2*
G04 #@! TO.N,Net-(J3-Pad1)*
X140970000Y-45720000D03*
D14*
G04 #@! TO.P,R4,1*
G04 #@! TO.N,Net-(R4-Pad1)*
X140970000Y-35560000D03*
G04 #@! TD*
G04 #@! TO.P,R8,1*
G04 #@! TO.N,Net-(R8-Pad1)*
X177546000Y-40640000D03*
D15*
G04 #@! TO.P,R8,2*
G04 #@! TO.N,Net-(N2-PadA)*
X177546000Y-50800000D03*
G04 #@! TD*
D14*
G04 #@! TO.P,R10,1*
G04 #@! TO.N,Net-(J3-Pad1)*
X120650000Y-35560000D03*
D15*
G04 #@! TO.P,R10,2*
G04 #@! TO.N,Net-(R10-Pad2)*
X120650000Y-45720000D03*
G04 #@! TD*
G04 #@! TO.P,R11,2*
G04 #@! TO.N,Net-(J3-Pad5)*
X140970000Y-76200000D03*
D14*
G04 #@! TO.P,R11,1*
G04 #@! TO.N,Net-(Q1-Pad2)*
X130810000Y-76200000D03*
G04 #@! TD*
G04 #@! TO.P,R14,1*
G04 #@! TO.N,Net-(Q2-Pad2)*
X115570000Y-76200000D03*
D15*
G04 #@! TO.P,R14,2*
G04 #@! TO.N,Net-(J3-Pad7)*
X125730000Y-76200000D03*
G04 #@! TD*
D14*
G04 #@! TO.P,R15,1*
G04 #@! TO.N,Net-(N3-PadC2)*
X137160000Y-35560000D03*
D15*
G04 #@! TO.P,R15,2*
G04 #@! TO.N,Net-(Q1-Pad3)*
X137160000Y-45720000D03*
G04 #@! TD*
G04 #@! TO.P,R16,2*
G04 #@! TO.N,Net-(Q2-Pad3)*
X116840000Y-45720000D03*
D14*
G04 #@! TO.P,R16,1*
G04 #@! TO.N,Net-(N3-PadC1)*
X116840000Y-35560000D03*
G04 #@! TD*
D16*
G04 #@! TO.P,U1,1*
G04 #@! TO.N,Net-(R1-Pad1)*
X102870000Y-27940000D03*
D15*
G04 #@! TO.P,U1,3*
G04 #@! TO.N,Net-(R3-Pad1)*
X110490000Y-30480000D03*
G04 #@! TO.P,U1,2*
G04 #@! TO.N,GND*
X102870000Y-30480000D03*
G04 #@! TO.P,U1,4*
G04 #@! TO.N,HT*
X110490000Y-27940000D03*
G04 #@! TD*
D16*
G04 #@! TO.P,U2,1*
G04 #@! TO.N,Net-(N1-Pad8)*
X90170000Y-88900000D03*
D15*
G04 #@! TO.P,U2,9*
G04 #@! TO.N,Net-(N1-Pad3)*
X72390000Y-96520000D03*
G04 #@! TO.P,U2,2*
G04 #@! TO.N,Net-(N1-Pad9)*
X87630000Y-88900000D03*
G04 #@! TO.P,U2,10*
G04 #@! TO.N,Net-(N1-Pad7)*
X74930000Y-96520000D03*
G04 #@! TO.P,U2,3*
G04 #@! TO.N,Net-(U2-Pad3)*
X85090000Y-88900000D03*
G04 #@! TO.P,U2,11*
G04 #@! TO.N,Net-(N1-Pad6)*
X77470000Y-96520000D03*
G04 #@! TO.P,U2,4*
G04 #@! TO.N,Net-(U2-Pad4)*
X82550000Y-88900000D03*
G04 #@! TO.P,U2,12*
G04 #@! TO.N,GND*
X80010000Y-96520000D03*
G04 #@! TO.P,U2,5*
G04 #@! TO.N,+5V*
X80010000Y-88900000D03*
G04 #@! TO.P,U2,13*
G04 #@! TO.N,Net-(N1-Pad4)*
X82550000Y-96520000D03*
G04 #@! TO.P,U2,6*
G04 #@! TO.N,Net-(U2-Pad6)*
X77470000Y-88900000D03*
G04 #@! TO.P,U2,14*
G04 #@! TO.N,Net-(N1-Pad5)*
X85090000Y-96520000D03*
G04 #@! TO.P,U2,7*
G04 #@! TO.N,Net-(U2-Pad7)*
X74930000Y-88900000D03*
G04 #@! TO.P,U2,15*
G04 #@! TO.N,Net-(N1-Pad1)*
X87630000Y-96520000D03*
G04 #@! TO.P,U2,8*
G04 #@! TO.N,Net-(N1-Pad2)*
X72390000Y-88900000D03*
G04 #@! TO.P,U2,16*
G04 #@! TO.N,Net-(N1-Pad0)*
X90170000Y-96520000D03*
G04 #@! TD*
D16*
G04 #@! TO.P,U3,1*
G04 #@! TO.N,Net-(J3-Pad4)*
X137160000Y-88900000D03*
D15*
G04 #@! TO.P,U3,9*
G04 #@! TO.N,Net-(U3-Pad9)*
X119380000Y-96520000D03*
G04 #@! TO.P,U3,2*
G04 #@! TO.N,Net-(J3-Pad2)*
X134620000Y-88900000D03*
G04 #@! TO.P,U3,10*
G04 #@! TO.N,Net-(J3-Pad6)*
X121920000Y-96520000D03*
G04 #@! TO.P,U3,3*
G04 #@! TO.N,Net-(J3-Pad3)*
X132080000Y-88900000D03*
G04 #@! TO.P,U3,11*
G04 #@! TO.N,Net-(U3-Pad11)*
X124460000Y-96520000D03*
G04 #@! TO.P,U3,4*
G04 #@! TO.N,Net-(U2-Pad3)*
X129540000Y-88900000D03*
G04 #@! TO.P,U3,12*
G04 #@! TO.N,Net-(U3-Pad12)*
X127000000Y-96520000D03*
G04 #@! TO.P,U3,5*
G04 #@! TO.N,Net-(U2-Pad6)*
X127000000Y-88900000D03*
G04 #@! TO.P,U3,13*
G04 #@! TO.N,Net-(U3-Pad13)*
X129540000Y-96520000D03*
G04 #@! TO.P,U3,6*
G04 #@! TO.N,Net-(U2-Pad7)*
X124460000Y-88900000D03*
G04 #@! TO.P,U3,14*
G04 #@! TO.N,Net-(U3-Pad14)*
X132080000Y-96520000D03*
G04 #@! TO.P,U3,7*
G04 #@! TO.N,Net-(U2-Pad4)*
X121920000Y-88900000D03*
G04 #@! TO.P,U3,15*
G04 #@! TO.N,+5V*
X134620000Y-96520000D03*
G04 #@! TO.P,U3,8*
G04 #@! TO.N,GND*
X119380000Y-88900000D03*
G04 #@! TO.P,U3,16*
G04 #@! TO.N,+5V*
X137160000Y-96520000D03*
G04 #@! TD*
G04 #@! TO.P,U4,4*
G04 #@! TO.N,HT*
X152400000Y-27940000D03*
G04 #@! TO.P,U4,2*
G04 #@! TO.N,GND*
X144780000Y-30480000D03*
G04 #@! TO.P,U4,3*
G04 #@! TO.N,Net-(R8-Pad1)*
X152400000Y-30480000D03*
D16*
G04 #@! TO.P,U4,1*
G04 #@! TO.N,Net-(R4-Pad1)*
X144780000Y-27940000D03*
G04 #@! TD*
D15*
G04 #@! TO.P,U5,16*
G04 #@! TO.N,Net-(N2-Pad0)*
X180340000Y-96520000D03*
G04 #@! TO.P,U5,8*
G04 #@! TO.N,Net-(N2-Pad2)*
X162560000Y-88900000D03*
G04 #@! TO.P,U5,15*
G04 #@! TO.N,Net-(N2-Pad1)*
X177800000Y-96520000D03*
G04 #@! TO.P,U5,7*
G04 #@! TO.N,Net-(U3-Pad12)*
X165100000Y-88900000D03*
G04 #@! TO.P,U5,14*
G04 #@! TO.N,Net-(N2-Pad5)*
X175260000Y-96520000D03*
G04 #@! TO.P,U5,6*
G04 #@! TO.N,Net-(U3-Pad13)*
X167640000Y-88900000D03*
G04 #@! TO.P,U5,13*
G04 #@! TO.N,Net-(N2-Pad4)*
X172720000Y-96520000D03*
G04 #@! TO.P,U5,5*
G04 #@! TO.N,+5V*
X170180000Y-88900000D03*
G04 #@! TO.P,U5,12*
G04 #@! TO.N,GND*
X170180000Y-96520000D03*
G04 #@! TO.P,U5,4*
G04 #@! TO.N,Net-(U3-Pad11)*
X172720000Y-88900000D03*
G04 #@! TO.P,U5,11*
G04 #@! TO.N,Net-(N2-Pad6)*
X167640000Y-96520000D03*
G04 #@! TO.P,U5,3*
G04 #@! TO.N,Net-(U3-Pad14)*
X175260000Y-88900000D03*
G04 #@! TO.P,U5,10*
G04 #@! TO.N,Net-(N2-Pad7)*
X165100000Y-96520000D03*
G04 #@! TO.P,U5,2*
G04 #@! TO.N,Net-(N2-Pad9)*
X177800000Y-88900000D03*
G04 #@! TO.P,U5,9*
G04 #@! TO.N,Net-(N2-Pad3)*
X162560000Y-96520000D03*
D16*
G04 #@! TO.P,U5,1*
G04 #@! TO.N,Net-(N2-Pad8)*
X180340000Y-88900000D03*
G04 #@! TD*
G04 #@! TO.P,U6,1*
G04 #@! TO.N,Net-(R10-Pad2)*
X124460000Y-27940000D03*
D15*
G04 #@! TO.P,U6,3*
G04 #@! TO.N,Net-(N3-PadA)*
X132080000Y-30480000D03*
G04 #@! TO.P,U6,2*
G04 #@! TO.N,GND*
X124460000Y-30480000D03*
G04 #@! TO.P,U6,4*
G04 #@! TO.N,HT*
X132080000Y-27940000D03*
G04 #@! TD*
D17*
G04 #@! TO.P,N1,8*
G04 #@! TO.N,Net-(N1-Pad8)*
X91248800Y-41594200D03*
G04 #@! TO.P,N1,9*
G04 #@! TO.N,Net-(N1-Pad9)*
X95155400Y-46250000D03*
G04 #@! TO.P,N1,5*
G04 #@! TO.N,Net-(N1-Pad5)*
X97234100Y-51961200D03*
G04 #@! TO.P,N1,7*
G04 #@! TO.N,Net-(N1-Pad7)*
X95155400Y-63750000D03*
G04 #@! TO.P,N1,3*
G04 #@! TO.N,Net-(N1-Pad3)*
X91248800Y-68405800D03*
D18*
G04 #@! TO.P,N1,A*
G04 #@! TO.N,Net-(N1-PadA)*
X74014600Y-71444600D03*
D17*
G04 #@! TO.P,N1,6*
G04 #@! TO.N,Net-(N1-Pad6)*
X68751200Y-68405800D03*
G04 #@! TO.P,N1,0*
G04 #@! TO.N,Net-(N1-Pad0)*
X64844600Y-63750000D03*
G04 #@! TO.P,N1,2*
G04 #@! TO.N,Net-(N1-Pad2)*
X64844600Y-46250000D03*
G04 #@! TO.P,N1,4*
G04 #@! TO.N,Net-(N1-Pad4)*
X68751200Y-41594200D03*
G04 #@! TO.P,N1,1*
G04 #@! TO.N,Net-(N1-Pad1)*
X74014600Y-38555400D03*
G04 #@! TD*
G04 #@! TO.P,N2,1*
G04 #@! TO.N,Net-(N2-Pad1)*
X168014600Y-38555400D03*
G04 #@! TO.P,N2,4*
G04 #@! TO.N,Net-(N2-Pad4)*
X162751200Y-41594200D03*
G04 #@! TO.P,N2,2*
G04 #@! TO.N,Net-(N2-Pad2)*
X158844600Y-46250000D03*
G04 #@! TO.P,N2,0*
G04 #@! TO.N,Net-(N2-Pad0)*
X158844600Y-63750000D03*
G04 #@! TO.P,N2,6*
G04 #@! TO.N,Net-(N2-Pad6)*
X162751200Y-68405800D03*
D18*
G04 #@! TO.P,N2,A*
G04 #@! TO.N,Net-(N2-PadA)*
X168014600Y-71444600D03*
D17*
G04 #@! TO.P,N2,3*
G04 #@! TO.N,Net-(N2-Pad3)*
X185248800Y-68405800D03*
G04 #@! TO.P,N2,7*
G04 #@! TO.N,Net-(N2-Pad7)*
X189155400Y-63750000D03*
G04 #@! TO.P,N2,5*
G04 #@! TO.N,Net-(N2-Pad5)*
X191234100Y-51961200D03*
G04 #@! TO.P,N2,9*
G04 #@! TO.N,Net-(N2-Pad9)*
X189155400Y-46250000D03*
G04 #@! TO.P,N2,8*
G04 #@! TO.N,Net-(N2-Pad8)*
X185248800Y-41594200D03*
G04 #@! TD*
G04 #@! TO.P,N3,C1*
G04 #@! TO.N,Net-(N3-PadC1)*
X127000000Y-50850000D03*
D18*
G04 #@! TO.P,N3,A*
G04 #@! TO.N,Net-(N3-PadA)*
X123406000Y-57075000D03*
D17*
G04 #@! TO.P,N3,C2*
G04 #@! TO.N,Net-(N3-PadC2)*
X130594000Y-57075000D03*
G04 #@! TD*
D19*
G04 #@! TO.N,+5V*
X163322000Y-86106000D03*
X152146000Y-86106000D03*
X146558000Y-86106000D03*
X96821917Y-98091917D03*
G04 #@! TO.N,Net-(J3-Pad1)*
X99314000Y-98552000D03*
X98552000Y-101346000D03*
G04 #@! TO.N,Net-(J3-Pad2)*
X125730000Y-98298000D03*
G04 #@! TO.N,Net-(J3-Pad4)*
X130810000Y-98298000D03*
G04 #@! TO.N,Net-(J3-Pad5)*
X107188000Y-83312000D03*
X106934000Y-93726000D03*
G04 #@! TO.N,Net-(J3-Pad6)*
X105664000Y-98044000D03*
G04 #@! TO.N,Net-(J3-Pad7)*
X106172000Y-95758000D03*
G04 #@! TO.N,Net-(R10-Pad2)*
X122936000Y-38100000D03*
G04 #@! TO.N,Net-(N1-Pad3)*
X70076200Y-84455000D03*
G04 #@! TO.N,Net-(N1-Pad9)*
X87630000Y-57150000D03*
G04 #@! TO.N,Net-(N1-Pad7)*
X93980000Y-97155000D03*
X101600000Y-73660000D03*
G04 #@! TO.N,Net-(U2-Pad3)*
X116840000Y-91440000D03*
G04 #@! TO.N,Net-(U2-Pad6)*
X120650000Y-86360000D03*
G04 #@! TO.N,Net-(N1-Pad1)*
X94615000Y-82440000D03*
G04 #@! TO.N,Net-(N1-Pad2)*
X72390000Y-62865000D03*
X73660000Y-74930000D03*
G04 #@! TO.N,Net-(N1-Pad0)*
X83185000Y-81280000D03*
X97155000Y-83765000D03*
X85725000Y-83765000D03*
G04 #@! TO.N,Net-(U3-Pad12)*
X152400000Y-93726000D03*
G04 #@! TO.N,Net-(U3-Pad13)*
X165100000Y-93726000D03*
G04 #@! TO.N,Net-(U3-Pad14)*
X163830000Y-94615000D03*
X154940000Y-97155000D03*
G04 #@! TO.N,Net-(N2-Pad5)*
X190992526Y-79233196D03*
G04 #@! TO.N,Net-(N2-Pad4)*
X185420000Y-74295000D03*
X180340000Y-74295000D03*
X171450000Y-59690000D03*
G04 #@! TO.N,Net-(N2-Pad6)*
X147955000Y-99060000D03*
X147955000Y-83185000D03*
X158115000Y-83185000D03*
G04 #@! TO.N,Net-(N2-Pad7)*
X169672000Y-100965000D03*
G04 #@! TO.N,Net-(N2-Pad3)*
X193675000Y-74168000D03*
X167640000Y-102870000D03*
G04 #@! TO.N,Net-(N3-PadA)*
X129269000Y-53405999D03*
X128905000Y-38100000D03*
G04 #@! TD*
D20*
G04 #@! TO.N,+5V*
X133820001Y-97319999D02*
X134620000Y-96520000D01*
X134620000Y-96520000D02*
X137160000Y-96520000D01*
X163322000Y-86106000D02*
X152146000Y-86106000D01*
X137160000Y-95504000D02*
X137160000Y-96520000D01*
X146558000Y-86106000D02*
X137160000Y-95504000D01*
X139700000Y-96520000D02*
X149860000Y-106680000D01*
X137160000Y-96520000D02*
X139700000Y-96520000D01*
X99060000Y-100330000D02*
X130810000Y-100330000D01*
X96821917Y-98091917D02*
X99060000Y-100330000D01*
X130810000Y-100330000D02*
X133350000Y-97790000D01*
X133350000Y-97790000D02*
X133820001Y-97319999D01*
X131354999Y-99785001D02*
X133350000Y-97790000D01*
G04 #@! TO.N,HT*
X129286000Y-25146000D02*
X132080000Y-27940000D01*
X113284000Y-25146000D02*
X129286000Y-25146000D01*
X110490000Y-27940000D02*
X113284000Y-25146000D01*
X132879999Y-27140001D02*
X132879999Y-26886001D01*
X132080000Y-27940000D02*
X132879999Y-27140001D01*
X132879999Y-26886001D02*
X134874000Y-24892000D01*
X149352000Y-24892000D02*
X152400000Y-27940000D01*
X134874000Y-24892000D02*
X149352000Y-24892000D01*
X153199999Y-27140001D02*
X192494001Y-27140001D01*
X152400000Y-27940000D02*
X153199999Y-27140001D01*
X192494001Y-27394001D02*
X195580000Y-30480000D01*
X192494001Y-27140001D02*
X192494001Y-27394001D01*
G04 #@! TO.N,Net-(J3-Pad1)*
X106462999Y-52287001D02*
X106462999Y-91403001D01*
X113030000Y-45720000D02*
X106462999Y-52287001D01*
X106462999Y-91403001D02*
X99314000Y-98552000D01*
X111760000Y-105580000D02*
X111760000Y-106680000D01*
X107526000Y-101346000D02*
X111760000Y-105580000D01*
X98552000Y-101346000D02*
X107526000Y-101346000D01*
X131609999Y-36359999D02*
X140170001Y-44920001D01*
X121449999Y-36359999D02*
X131609999Y-36359999D01*
X140170001Y-44920001D02*
X140970000Y-45720000D01*
X120650000Y-35560000D02*
X121449999Y-36359999D01*
X120650000Y-38100000D02*
X113030000Y-45720000D01*
X120650000Y-35560000D02*
X120650000Y-38100000D01*
G04 #@! TO.N,Net-(J3-Pad2)*
X134620000Y-88900000D02*
X128125001Y-95394999D01*
X128125001Y-95394999D02*
X128125001Y-97060001D01*
X128125001Y-97060001D02*
X126887002Y-98298000D01*
X126887002Y-98298000D02*
X125730000Y-98298000D01*
G04 #@! TO.N,Net-(J3-Pad4)*
X130810000Y-95250000D02*
X130810000Y-98298000D01*
X137160000Y-88900000D02*
X130810000Y-95250000D01*
G04 #@! TO.N,Net-(J3-Pad5)*
X107188000Y-93472000D02*
X106934000Y-93726000D01*
X107188000Y-83312000D02*
X107188000Y-93472000D01*
G04 #@! TO.N,Net-(J3-Pad6)*
X120396000Y-98044000D02*
X105664000Y-98044000D01*
X121920000Y-96520000D02*
X120396000Y-98044000D01*
G04 #@! TO.N,Net-(J3-Pad7)*
X125730000Y-76200000D02*
X106172000Y-95758000D01*
G04 #@! TO.N,Net-(Q1-Pad2)*
X134620000Y-72390000D02*
X134620000Y-68580000D01*
X130810000Y-76200000D02*
X134620000Y-72390000D01*
G04 #@! TO.N,Net-(Q2-Pad2)*
X120650000Y-71120000D02*
X120650000Y-68580000D01*
X115570000Y-76200000D02*
X120650000Y-71120000D01*
G04 #@! TO.N,Net-(R1-Pad1)*
X103920000Y-27940000D02*
X102870000Y-27940000D01*
X105410000Y-27940000D02*
X102870000Y-27940000D01*
X113030000Y-35560000D02*
X105410000Y-27940000D01*
G04 #@! TO.N,Net-(N1-PadA)*
X74014600Y-58065400D02*
X74014600Y-71444600D01*
X82550000Y-49530000D02*
X74014600Y-58065400D01*
G04 #@! TO.N,Net-(R8-Pad1)*
X168185999Y-31279999D02*
X177546000Y-40640000D01*
X153199999Y-31279999D02*
X168185999Y-31279999D01*
X152400000Y-30480000D02*
X153199999Y-31279999D01*
G04 #@! TO.N,Net-(R10-Pad2)*
X120650000Y-40386000D02*
X122936000Y-38100000D01*
X120650000Y-45720000D02*
X120650000Y-40386000D01*
G04 #@! TO.N,Net-(N1-Pad8)*
X91248800Y-49416902D02*
X91248800Y-48260000D01*
X91248800Y-48260000D02*
X91248800Y-41594200D01*
X91248800Y-50304902D02*
X91248800Y-48260000D01*
X96592401Y-55648503D02*
X91248800Y-50304902D01*
X96592401Y-60857999D02*
X96592401Y-55648503D01*
X98080401Y-62345999D02*
X96592401Y-60857999D01*
X90170000Y-88900000D02*
X90170000Y-83185000D01*
X93415401Y-79939599D02*
X98080401Y-79939599D01*
X90170000Y-83185000D02*
X93415401Y-79939599D01*
X98080401Y-79939599D02*
X98080401Y-62345999D01*
G04 #@! TO.N,Net-(N1-Pad3)*
X70076200Y-94206200D02*
X70076200Y-84455000D01*
X72390000Y-96520000D02*
X70076200Y-94206200D01*
G04 #@! TO.N,Net-(N1-Pad9)*
X87630000Y-88900000D02*
X87630000Y-57150000D01*
G04 #@! TO.N,Net-(N1-Pad7)*
X101600000Y-91440000D02*
X101600000Y-73660000D01*
X95885000Y-97155000D02*
X101600000Y-91440000D01*
X93980000Y-97155000D02*
X95885000Y-97155000D01*
G04 #@! TO.N,Net-(U2-Pad3)*
X127000000Y-91440000D02*
X129540000Y-88900000D01*
X116840000Y-91440000D02*
X127000000Y-91440000D01*
G04 #@! TO.N,Net-(N1-Pad6)*
X68751200Y-95434202D02*
X68751200Y-93980000D01*
X75744999Y-98245001D02*
X71561999Y-98245001D01*
X77470000Y-96520000D02*
X75744999Y-98245001D01*
X68751200Y-94546202D02*
X68751200Y-93980000D01*
X71561999Y-98245001D02*
X68751200Y-95434202D01*
X68751200Y-93980000D02*
X68751200Y-68405800D01*
G04 #@! TO.N,Net-(U2-Pad6)*
X124460000Y-86360000D02*
X127000000Y-88900000D01*
X120650000Y-86360000D02*
X124460000Y-86360000D01*
G04 #@! TO.N,Net-(N1-Pad5)*
X99234099Y-53961199D02*
X97234100Y-51961200D01*
X99234099Y-89120903D02*
X99234099Y-53961199D01*
X85090000Y-96520000D02*
X86360000Y-97790000D01*
X90998001Y-98245001D02*
X86815001Y-98245001D01*
X92654999Y-96588003D02*
X90998001Y-98245001D01*
X92654999Y-95700003D02*
X92654999Y-96588003D01*
X99234099Y-89120903D02*
X92654999Y-95700003D01*
X86815001Y-98245001D02*
X86360000Y-97790000D01*
G04 #@! TO.N,Net-(N1-Pad1)*
X94615000Y-89535000D02*
X94615000Y-82440000D01*
X87630000Y-96520000D02*
X94615000Y-89535000D01*
G04 #@! TO.N,Net-(N1-Pad2)*
X71590001Y-52995401D02*
X64844600Y-46250000D01*
X71590001Y-62065001D02*
X72390000Y-62865000D01*
X71590001Y-52995401D02*
X71590001Y-62065001D01*
X72390000Y-76200000D02*
X72390000Y-88900000D01*
X73660000Y-74930000D02*
X72390000Y-76200000D01*
G04 #@! TO.N,Net-(N1-Pad0)*
X97155000Y-89535000D02*
X97155000Y-83765000D01*
X90170000Y-96520000D02*
X97155000Y-89535000D01*
X85670000Y-83765000D02*
X85725000Y-83765000D01*
X83185000Y-81280000D02*
X85670000Y-83765000D01*
G04 #@! TO.N,Net-(U3-Pad12)*
X160274000Y-93726000D02*
X165100000Y-88900000D01*
X160274000Y-93726000D02*
X152400000Y-93726000D01*
G04 #@! TO.N,Net-(U3-Pad13)*
X167640000Y-91186000D02*
X167640000Y-88900000D01*
X165100000Y-93726000D02*
X167640000Y-91186000D01*
G04 #@! TO.N,Net-(U3-Pad14)*
X157480000Y-94615000D02*
X154940000Y-97155000D01*
X163830000Y-94615000D02*
X157480000Y-94615000D01*
G04 #@! TO.N,Net-(N2-Pad0)*
X149388999Y-73205601D02*
X158844600Y-63750000D01*
X149388999Y-94074001D02*
X149388999Y-73205601D01*
X172248999Y-104611001D02*
X159925999Y-104611001D01*
X159925999Y-104611001D02*
X149388999Y-94074001D01*
X180340000Y-96520000D02*
X172248999Y-104611001D01*
G04 #@! TO.N,Net-(N2-Pad5)*
X190992526Y-79798881D02*
X190992526Y-79233196D01*
X177710003Y-94794999D02*
X190992526Y-81512476D01*
X190992526Y-81512476D02*
X190992526Y-79798881D01*
X176985001Y-94794999D02*
X177710003Y-94794999D01*
X175260000Y-96520000D02*
X176985001Y-94794999D01*
G04 #@! TO.N,Net-(N2-Pad4)*
X162751200Y-41594200D02*
X162751200Y-44422627D01*
X185420000Y-74295000D02*
X180340000Y-74295000D01*
X171450000Y-53121427D02*
X171594999Y-53266426D01*
X171450000Y-59690000D02*
X171450000Y-53121427D01*
X162751200Y-44422627D02*
X171450000Y-53121427D01*
G04 #@! TO.N,Net-(N2-Pad6)*
X147955000Y-99060000D02*
X147955000Y-83185000D01*
X158115000Y-73042000D02*
X162751200Y-68405800D01*
X158115000Y-83185000D02*
X158115000Y-73042000D01*
G04 #@! TO.N,Net-(N2-Pad7)*
X169672000Y-101092000D02*
X165100000Y-96520000D01*
G04 #@! TO.N,Net-(N2-Pad9)*
X177800000Y-57605400D02*
X189155400Y-46250000D01*
X177800000Y-88900000D02*
X177800000Y-57605400D01*
G04 #@! TO.N,Net-(N2-Pad3)*
X191011000Y-74168000D02*
X192278000Y-74168000D01*
X185248800Y-68405800D02*
X191011000Y-74168000D01*
X162560000Y-96520000D02*
X162560000Y-100330000D01*
X165100000Y-100330000D02*
X167640000Y-102870000D01*
X162560000Y-100330000D02*
X165100000Y-100330000D01*
X192278000Y-74168000D02*
X193675000Y-74168000D01*
G04 #@! TO.N,Net-(N2-Pad8)*
X188828602Y-41594200D02*
X188077227Y-41594200D01*
X196850000Y-75565000D02*
X196850000Y-49615598D01*
X188077227Y-41594200D02*
X185248800Y-41594200D01*
X180340000Y-88900000D02*
X180340000Y-87850000D01*
X194945000Y-77470000D02*
X196850000Y-75565000D01*
X196850000Y-49615598D02*
X188828602Y-41594200D01*
X180340000Y-87850000D02*
X190720000Y-77470000D01*
X190720000Y-77470000D02*
X194945000Y-77470000D01*
G04 #@! TO.N,Net-(N3-PadA)*
X129925001Y-39120001D02*
X128905000Y-38100000D01*
X129925001Y-52749998D02*
X129925001Y-39120001D01*
X129269000Y-53405999D02*
X129925001Y-52749998D01*
G04 #@! TD*
D21*
G04 #@! TO.N,GND*
G36*
X207570001Y-111050000D02*
X46430000Y-111050000D01*
X46430000Y-106235431D01*
X48565000Y-106235431D01*
X48565000Y-107124569D01*
X48905259Y-107946026D01*
X49533974Y-108574741D01*
X50355431Y-108915000D01*
X51244569Y-108915000D01*
X52066026Y-108574741D01*
X52694741Y-107946026D01*
X53035000Y-107124569D01*
X53035000Y-106235431D01*
X52694741Y-105413974D01*
X52066026Y-104785259D01*
X51244569Y-104445000D01*
X50355431Y-104445000D01*
X49533974Y-104785259D01*
X48905259Y-105413974D01*
X48565000Y-106235431D01*
X46430000Y-106235431D01*
X46430000Y-63167784D01*
X61917600Y-63167784D01*
X61917600Y-64332216D01*
X62363209Y-65408012D01*
X63186588Y-66231391D01*
X64262384Y-66677000D01*
X65426816Y-66677000D01*
X66502612Y-66231391D01*
X67325991Y-65408012D01*
X67771600Y-64332216D01*
X67771600Y-63167784D01*
X67325991Y-62091988D01*
X66502612Y-61268609D01*
X65426816Y-60823000D01*
X64262384Y-60823000D01*
X63186588Y-61268609D01*
X62363209Y-62091988D01*
X61917600Y-63167784D01*
X46430000Y-63167784D01*
X46430000Y-45667784D01*
X61917600Y-45667784D01*
X61917600Y-46832216D01*
X62363209Y-47908012D01*
X63186588Y-48731391D01*
X64262384Y-49177000D01*
X65426816Y-49177000D01*
X66032830Y-48925981D01*
X70538001Y-53431154D01*
X70538002Y-61961391D01*
X70517393Y-62065001D01*
X70599039Y-62475470D01*
X70599040Y-62475471D01*
X70831553Y-62823450D01*
X70919389Y-62882140D01*
X71063000Y-63025752D01*
X71063000Y-63128957D01*
X71265024Y-63616685D01*
X71638315Y-63989976D01*
X72126043Y-64192000D01*
X72653957Y-64192000D01*
X72962600Y-64064155D01*
X72962601Y-68499439D01*
X72014600Y-68499439D01*
X71678200Y-68566353D01*
X71678200Y-67823584D01*
X71232591Y-66747788D01*
X70409212Y-65924409D01*
X69333416Y-65478800D01*
X68168984Y-65478800D01*
X67093188Y-65924409D01*
X66269809Y-66747788D01*
X65824200Y-67823584D01*
X65824200Y-68988016D01*
X66269809Y-70063812D01*
X67093188Y-70887191D01*
X67699201Y-71138210D01*
X67699200Y-93876391D01*
X67699200Y-95330597D01*
X67678592Y-95434202D01*
X67699200Y-95537807D01*
X67699200Y-95537810D01*
X67760238Y-95844671D01*
X67992751Y-96192651D01*
X68080591Y-96251344D01*
X70744859Y-98915613D01*
X70803550Y-99003450D01*
X71151529Y-99235963D01*
X71458390Y-99297001D01*
X71458393Y-99297001D01*
X71561998Y-99317609D01*
X71665603Y-99297001D01*
X75641394Y-99297001D01*
X75744999Y-99317609D01*
X75848604Y-99297001D01*
X75848608Y-99297001D01*
X76155469Y-99235963D01*
X76503448Y-99003450D01*
X76562141Y-98915610D01*
X77242226Y-98235526D01*
X77299909Y-98247000D01*
X77640091Y-98247000D01*
X78143842Y-98146798D01*
X78715097Y-97765097D01*
X78931150Y-97441751D01*
X79272577Y-97751041D01*
X79660961Y-97911904D01*
X79883000Y-97789915D01*
X79883000Y-96647000D01*
X79863000Y-96647000D01*
X79863000Y-96393000D01*
X79883000Y-96393000D01*
X79883000Y-95250085D01*
X79660961Y-95128096D01*
X79272577Y-95288959D01*
X78931150Y-95598249D01*
X78715097Y-95274903D01*
X78143842Y-94893202D01*
X77640091Y-94793000D01*
X77299909Y-94793000D01*
X76796158Y-94893202D01*
X76224903Y-95274903D01*
X76200000Y-95312173D01*
X76175097Y-95274903D01*
X75603842Y-94893202D01*
X75100091Y-94793000D01*
X74759909Y-94793000D01*
X74256158Y-94893202D01*
X73684903Y-95274903D01*
X73660000Y-95312173D01*
X73635097Y-95274903D01*
X73063842Y-94893202D01*
X72560091Y-94793000D01*
X72219909Y-94793000D01*
X72162226Y-94804474D01*
X71128200Y-93770449D01*
X71128200Y-90120099D01*
X71144903Y-90145097D01*
X71716158Y-90526798D01*
X72219909Y-90627000D01*
X72560091Y-90627000D01*
X73063842Y-90526798D01*
X73635097Y-90145097D01*
X73835593Y-89845035D01*
X73895423Y-89934577D01*
X74370091Y-90251740D01*
X74788667Y-90335000D01*
X75071333Y-90335000D01*
X75489909Y-90251740D01*
X75964577Y-89934577D01*
X76200000Y-89582242D01*
X76435423Y-89934577D01*
X76910091Y-90251740D01*
X77328667Y-90335000D01*
X77611333Y-90335000D01*
X78029909Y-90251740D01*
X78504577Y-89934577D01*
X78740000Y-89582242D01*
X78975423Y-89934577D01*
X79450091Y-90251740D01*
X79868667Y-90335000D01*
X80151333Y-90335000D01*
X80569909Y-90251740D01*
X81044577Y-89934577D01*
X81280000Y-89582242D01*
X81515423Y-89934577D01*
X81990091Y-90251740D01*
X82408667Y-90335000D01*
X82691333Y-90335000D01*
X83109909Y-90251740D01*
X83584577Y-89934577D01*
X83820000Y-89582242D01*
X84055423Y-89934577D01*
X84530091Y-90251740D01*
X84948667Y-90335000D01*
X85231333Y-90335000D01*
X85649909Y-90251740D01*
X86124577Y-89934577D01*
X86184407Y-89845035D01*
X86384903Y-90145097D01*
X86956158Y-90526798D01*
X87459909Y-90627000D01*
X87800091Y-90627000D01*
X88303842Y-90526798D01*
X88652080Y-90294113D01*
X88701670Y-90368330D01*
X89008303Y-90573215D01*
X89370000Y-90645161D01*
X90970000Y-90645161D01*
X91331697Y-90573215D01*
X91638330Y-90368330D01*
X91843215Y-90061697D01*
X91915161Y-89700000D01*
X91915161Y-88100000D01*
X91843215Y-87738303D01*
X91638330Y-87431670D01*
X91331697Y-87226785D01*
X91222000Y-87204965D01*
X91222000Y-83620751D01*
X93851153Y-80991599D01*
X97976792Y-80991599D01*
X98080401Y-81012208D01*
X98182099Y-80991979D01*
X98182099Y-82915438D01*
X97906685Y-82640024D01*
X97418957Y-82438000D01*
X96891043Y-82438000D01*
X96403315Y-82640024D01*
X96030024Y-83013315D01*
X95828000Y-83501043D01*
X95828000Y-84028957D01*
X96030024Y-84516685D01*
X96103001Y-84589662D01*
X96103000Y-89099247D01*
X95684231Y-89518016D01*
X95667000Y-89431391D01*
X95667000Y-83264661D01*
X95739976Y-83191685D01*
X95942000Y-82703957D01*
X95942000Y-82176043D01*
X95739976Y-81688315D01*
X95366685Y-81315024D01*
X94878957Y-81113000D01*
X94351043Y-81113000D01*
X93863315Y-81315024D01*
X93490024Y-81688315D01*
X93288000Y-82176043D01*
X93288000Y-82703957D01*
X93490024Y-83191685D01*
X93563001Y-83264662D01*
X93563000Y-89099247D01*
X87857775Y-94804474D01*
X87800091Y-94793000D01*
X87459909Y-94793000D01*
X86956158Y-94893202D01*
X86384903Y-95274903D01*
X86360000Y-95312173D01*
X86335097Y-95274903D01*
X85763842Y-94893202D01*
X85260091Y-94793000D01*
X84919909Y-94793000D01*
X84416158Y-94893202D01*
X83844903Y-95274903D01*
X83820000Y-95312173D01*
X83795097Y-95274903D01*
X83223842Y-94893202D01*
X82720091Y-94793000D01*
X82379909Y-94793000D01*
X81876158Y-94893202D01*
X81304903Y-95274903D01*
X81088850Y-95598249D01*
X80747423Y-95288959D01*
X80359039Y-95128096D01*
X80137000Y-95250085D01*
X80137000Y-96393000D01*
X80157000Y-96393000D01*
X80157000Y-96647000D01*
X80137000Y-96647000D01*
X80137000Y-97789915D01*
X80359039Y-97911904D01*
X80747423Y-97751041D01*
X81088850Y-97441751D01*
X81304903Y-97765097D01*
X81876158Y-98146798D01*
X82379909Y-98247000D01*
X82720091Y-98247000D01*
X83223842Y-98146798D01*
X83795097Y-97765097D01*
X83820000Y-97727827D01*
X83844903Y-97765097D01*
X84416158Y-98146798D01*
X84919909Y-98247000D01*
X85260091Y-98247000D01*
X85317774Y-98235526D01*
X85997860Y-98915612D01*
X86056552Y-99003450D01*
X86296246Y-99163609D01*
X86404531Y-99235963D01*
X86815001Y-99317610D01*
X86918610Y-99297001D01*
X90894396Y-99297001D01*
X90998001Y-99317609D01*
X91101606Y-99297001D01*
X91101610Y-99297001D01*
X91408471Y-99235963D01*
X91756450Y-99003450D01*
X91815143Y-98915610D01*
X92845957Y-97884796D01*
X92855024Y-97906685D01*
X93228315Y-98279976D01*
X93716043Y-98482000D01*
X94243957Y-98482000D01*
X94731685Y-98279976D01*
X94804661Y-98207000D01*
X95781395Y-98207000D01*
X95786917Y-98208098D01*
X95786917Y-98297791D01*
X95944486Y-98678197D01*
X96235637Y-98969348D01*
X96616043Y-99126917D01*
X96782116Y-99126917D01*
X98077476Y-100422278D01*
X97965720Y-100468569D01*
X97674569Y-100759720D01*
X97517000Y-101140126D01*
X97517000Y-101551874D01*
X97674569Y-101932280D01*
X97965720Y-102223431D01*
X98346126Y-102381000D01*
X98757874Y-102381000D01*
X99138280Y-102223431D01*
X99255711Y-102106000D01*
X107211199Y-102106000D01*
X110467296Y-105362098D01*
X110452191Y-105372191D01*
X110311843Y-105582235D01*
X110302816Y-105627619D01*
X110290625Y-105609375D01*
X109799418Y-105281161D01*
X109366256Y-105195000D01*
X109073744Y-105195000D01*
X108640582Y-105281161D01*
X108149375Y-105609375D01*
X107950000Y-105907761D01*
X107750625Y-105609375D01*
X107259418Y-105281161D01*
X106826256Y-105195000D01*
X106533744Y-105195000D01*
X106100582Y-105281161D01*
X105609375Y-105609375D01*
X105410000Y-105907761D01*
X105210625Y-105609375D01*
X104719418Y-105281161D01*
X104286256Y-105195000D01*
X103993744Y-105195000D01*
X103560582Y-105281161D01*
X103069375Y-105609375D01*
X102870000Y-105907761D01*
X102670625Y-105609375D01*
X102179418Y-105281161D01*
X101746256Y-105195000D01*
X101453744Y-105195000D01*
X101020582Y-105281161D01*
X100529375Y-105609375D01*
X100330000Y-105907761D01*
X100130625Y-105609375D01*
X99639418Y-105281161D01*
X99206256Y-105195000D01*
X98913744Y-105195000D01*
X98480582Y-105281161D01*
X97989375Y-105609375D01*
X97790000Y-105907761D01*
X97590625Y-105609375D01*
X97099418Y-105281161D01*
X96666256Y-105195000D01*
X96373744Y-105195000D01*
X95940582Y-105281161D01*
X95449375Y-105609375D01*
X95121161Y-106100582D01*
X95005908Y-106680000D01*
X95121161Y-107259418D01*
X95449375Y-107750625D01*
X95940582Y-108078839D01*
X96373744Y-108165000D01*
X96666256Y-108165000D01*
X97099418Y-108078839D01*
X97590625Y-107750625D01*
X97790000Y-107452239D01*
X97989375Y-107750625D01*
X98480582Y-108078839D01*
X98913744Y-108165000D01*
X99206256Y-108165000D01*
X99639418Y-108078839D01*
X100130625Y-107750625D01*
X100330000Y-107452239D01*
X100529375Y-107750625D01*
X101020582Y-108078839D01*
X101453744Y-108165000D01*
X101746256Y-108165000D01*
X102179418Y-108078839D01*
X102670625Y-107750625D01*
X102870000Y-107452239D01*
X103069375Y-107750625D01*
X103560582Y-108078839D01*
X103993744Y-108165000D01*
X104286256Y-108165000D01*
X104719418Y-108078839D01*
X105210625Y-107750625D01*
X105410000Y-107452239D01*
X105609375Y-107750625D01*
X106100582Y-108078839D01*
X106533744Y-108165000D01*
X106826256Y-108165000D01*
X107259418Y-108078839D01*
X107750625Y-107750625D01*
X107950000Y-107452239D01*
X108149375Y-107750625D01*
X108640582Y-108078839D01*
X109073744Y-108165000D01*
X109366256Y-108165000D01*
X109799418Y-108078839D01*
X110290625Y-107750625D01*
X110302816Y-107732381D01*
X110311843Y-107777765D01*
X110452191Y-107987809D01*
X110662235Y-108128157D01*
X110910000Y-108177440D01*
X112610000Y-108177440D01*
X112857765Y-108128157D01*
X113067809Y-107987809D01*
X113208157Y-107777765D01*
X113257440Y-107530000D01*
X113257440Y-105830000D01*
X113208157Y-105582235D01*
X113067809Y-105372191D01*
X112857765Y-105231843D01*
X112610000Y-105182560D01*
X112408483Y-105182560D01*
X112307929Y-105032071D01*
X112244473Y-104989671D01*
X108344801Y-101090000D01*
X130735153Y-101090000D01*
X130810000Y-101104888D01*
X130884847Y-101090000D01*
X130884852Y-101090000D01*
X131106537Y-101045904D01*
X131357929Y-100877929D01*
X131400331Y-100814470D01*
X133940329Y-98274474D01*
X133940333Y-98274468D01*
X134296113Y-97918688D01*
X134478667Y-97955000D01*
X134761333Y-97955000D01*
X135179909Y-97871740D01*
X135654577Y-97554577D01*
X135838043Y-97280000D01*
X135941957Y-97280000D01*
X136125423Y-97554577D01*
X136600091Y-97871740D01*
X137018667Y-97955000D01*
X137301333Y-97955000D01*
X137719909Y-97871740D01*
X138194577Y-97554577D01*
X138378043Y-97280000D01*
X139385199Y-97280000D01*
X148418791Y-106313593D01*
X148345908Y-106680000D01*
X148461161Y-107259418D01*
X148789375Y-107750625D01*
X149280582Y-108078839D01*
X149713744Y-108165000D01*
X150006256Y-108165000D01*
X150439418Y-108078839D01*
X150930625Y-107750625D01*
X150945096Y-107728967D01*
X151011673Y-107889698D01*
X151190301Y-108068327D01*
X151423690Y-108165000D01*
X152114250Y-108165000D01*
X152273000Y-108006250D01*
X152273000Y-106807000D01*
X152527000Y-106807000D01*
X152527000Y-108006250D01*
X152685750Y-108165000D01*
X153376310Y-108165000D01*
X153609699Y-108068327D01*
X153788327Y-107889698D01*
X153885000Y-107656309D01*
X153885000Y-106965750D01*
X153726250Y-106807000D01*
X152527000Y-106807000D01*
X152273000Y-106807000D01*
X152253000Y-106807000D01*
X152253000Y-106553000D01*
X152273000Y-106553000D01*
X152273000Y-105353750D01*
X152527000Y-105353750D01*
X152527000Y-106553000D01*
X153726250Y-106553000D01*
X153885000Y-106394250D01*
X153885000Y-106235431D01*
X200965000Y-106235431D01*
X200965000Y-107124569D01*
X201305259Y-107946026D01*
X201933974Y-108574741D01*
X202755431Y-108915000D01*
X203644569Y-108915000D01*
X204466026Y-108574741D01*
X205094741Y-107946026D01*
X205435000Y-107124569D01*
X205435000Y-106235431D01*
X205094741Y-105413974D01*
X204466026Y-104785259D01*
X203644569Y-104445000D01*
X202755431Y-104445000D01*
X201933974Y-104785259D01*
X201305259Y-105413974D01*
X200965000Y-106235431D01*
X153885000Y-106235431D01*
X153885000Y-105703691D01*
X153788327Y-105470302D01*
X153609699Y-105291673D01*
X153376310Y-105195000D01*
X152685750Y-105195000D01*
X152527000Y-105353750D01*
X152273000Y-105353750D01*
X152114250Y-105195000D01*
X151423690Y-105195000D01*
X151190301Y-105291673D01*
X151011673Y-105470302D01*
X150945096Y-105631033D01*
X150930625Y-105609375D01*
X150439418Y-105281161D01*
X150006256Y-105195000D01*
X149713744Y-105195000D01*
X149493593Y-105238791D01*
X140290331Y-96035530D01*
X140247929Y-95972071D01*
X139996537Y-95804096D01*
X139774852Y-95760000D01*
X139774847Y-95760000D01*
X139700000Y-95745112D01*
X139625153Y-95760000D01*
X138378043Y-95760000D01*
X138218129Y-95520672D01*
X146597802Y-87141000D01*
X146763874Y-87141000D01*
X146903001Y-87083372D01*
X146903000Y-98235339D01*
X146830024Y-98308315D01*
X146628000Y-98796043D01*
X146628000Y-99323957D01*
X146830024Y-99811685D01*
X147203315Y-100184976D01*
X147691043Y-100387000D01*
X148218957Y-100387000D01*
X148706685Y-100184976D01*
X149079976Y-99811685D01*
X149282000Y-99323957D01*
X149282000Y-98796043D01*
X149079976Y-98308315D01*
X149007000Y-98235339D01*
X149007000Y-95179753D01*
X159108859Y-105281613D01*
X159167550Y-105369450D01*
X159515529Y-105601963D01*
X159822390Y-105663001D01*
X159822394Y-105663001D01*
X159925998Y-105683609D01*
X160029602Y-105663001D01*
X172145394Y-105663001D01*
X172248999Y-105683609D01*
X172352604Y-105663001D01*
X172352608Y-105663001D01*
X172659469Y-105601963D01*
X173007448Y-105369450D01*
X173066141Y-105281610D01*
X180112226Y-98235526D01*
X180169909Y-98247000D01*
X180510091Y-98247000D01*
X181013842Y-98146798D01*
X181585097Y-97765097D01*
X181966798Y-97193842D01*
X182100833Y-96520000D01*
X181966798Y-95846158D01*
X181585097Y-95274903D01*
X181013842Y-94893202D01*
X180510091Y-94793000D01*
X180169909Y-94793000D01*
X179666158Y-94893202D01*
X179094903Y-95274903D01*
X179070000Y-95312173D01*
X179045097Y-95274903D01*
X178848927Y-95143826D01*
X191663138Y-82329616D01*
X191750975Y-82270925D01*
X191983488Y-81922946D01*
X192044526Y-81616085D01*
X192044526Y-81616081D01*
X192065134Y-81512477D01*
X192044526Y-81408873D01*
X192044526Y-80057857D01*
X192117502Y-79984881D01*
X192319526Y-79497153D01*
X192319526Y-78969239D01*
X192134273Y-78522000D01*
X194841395Y-78522000D01*
X194945000Y-78542608D01*
X195048605Y-78522000D01*
X195048609Y-78522000D01*
X195355470Y-78460962D01*
X195703449Y-78228449D01*
X195762142Y-78140609D01*
X197520615Y-76382138D01*
X197608449Y-76323449D01*
X197690936Y-76200000D01*
X197840962Y-75975470D01*
X197892667Y-75715528D01*
X197902000Y-75668609D01*
X197902000Y-75668605D01*
X197922608Y-75565000D01*
X197902000Y-75461395D01*
X197902000Y-49719203D01*
X197922608Y-49615598D01*
X197902000Y-49511993D01*
X197902000Y-49511989D01*
X197840962Y-49205128D01*
X197608449Y-48857149D01*
X197520615Y-48798460D01*
X189645744Y-40923591D01*
X189587051Y-40835751D01*
X189239072Y-40603238D01*
X188932211Y-40542200D01*
X188932207Y-40542200D01*
X188828602Y-40521592D01*
X188724997Y-40542200D01*
X187981209Y-40542200D01*
X187730191Y-39936188D01*
X186906812Y-39112809D01*
X185831016Y-38667200D01*
X184666584Y-38667200D01*
X183590788Y-39112809D01*
X182767409Y-39936188D01*
X182321800Y-41011984D01*
X182321800Y-42176416D01*
X182767409Y-43252212D01*
X183590788Y-44075591D01*
X184666584Y-44521200D01*
X185831016Y-44521200D01*
X186906812Y-44075591D01*
X187730191Y-43252212D01*
X187981209Y-42646200D01*
X188392851Y-42646200D01*
X189069651Y-43323000D01*
X188573184Y-43323000D01*
X187497388Y-43768609D01*
X186674009Y-44591988D01*
X186228400Y-45667784D01*
X186228400Y-46832216D01*
X186479419Y-47438229D01*
X177129389Y-56788260D01*
X177041552Y-56846951D01*
X176908290Y-57046391D01*
X176809038Y-57194931D01*
X176727392Y-57605400D01*
X176748001Y-57709010D01*
X176748000Y-87525879D01*
X176554903Y-87654903D01*
X176354407Y-87954965D01*
X176294577Y-87865423D01*
X175819909Y-87548260D01*
X175401333Y-87465000D01*
X175118667Y-87465000D01*
X174700091Y-87548260D01*
X174225423Y-87865423D01*
X173990000Y-88217758D01*
X173754577Y-87865423D01*
X173279909Y-87548260D01*
X172861333Y-87465000D01*
X172578667Y-87465000D01*
X172160091Y-87548260D01*
X171685423Y-87865423D01*
X171450000Y-88217758D01*
X171214577Y-87865423D01*
X170739909Y-87548260D01*
X170321333Y-87465000D01*
X170038667Y-87465000D01*
X169620091Y-87548260D01*
X169145423Y-87865423D01*
X168910000Y-88217758D01*
X168674577Y-87865423D01*
X168199909Y-87548260D01*
X167781333Y-87465000D01*
X167498667Y-87465000D01*
X167080091Y-87548260D01*
X166605423Y-87865423D01*
X166370000Y-88217758D01*
X166134577Y-87865423D01*
X165659909Y-87548260D01*
X165241333Y-87465000D01*
X164958667Y-87465000D01*
X164540091Y-87548260D01*
X164065423Y-87865423D01*
X164005593Y-87954965D01*
X163805097Y-87654903D01*
X163233842Y-87273202D01*
X162730091Y-87173000D01*
X162389909Y-87173000D01*
X161886158Y-87273202D01*
X161314903Y-87654903D01*
X160933202Y-88226158D01*
X160799167Y-88900000D01*
X160933202Y-89573842D01*
X161314903Y-90145097D01*
X161886158Y-90526798D01*
X162313414Y-90611784D01*
X159959199Y-92966000D01*
X153103711Y-92966000D01*
X152986280Y-92848569D01*
X152605874Y-92691000D01*
X152194126Y-92691000D01*
X151813720Y-92848569D01*
X151522569Y-93139720D01*
X151365000Y-93520126D01*
X151365000Y-93931874D01*
X151522569Y-94312280D01*
X151813720Y-94603431D01*
X152194126Y-94761000D01*
X152605874Y-94761000D01*
X152986280Y-94603431D01*
X153103711Y-94486000D01*
X156534197Y-94486000D01*
X154900199Y-96120000D01*
X154734126Y-96120000D01*
X154353720Y-96277569D01*
X154062569Y-96568720D01*
X153905000Y-96949126D01*
X153905000Y-97102251D01*
X150440999Y-93638250D01*
X150440999Y-85900126D01*
X151111000Y-85900126D01*
X151111000Y-86311874D01*
X151268569Y-86692280D01*
X151559720Y-86983431D01*
X151940126Y-87141000D01*
X152351874Y-87141000D01*
X152732280Y-86983431D01*
X152849711Y-86866000D01*
X162618289Y-86866000D01*
X162735720Y-86983431D01*
X163116126Y-87141000D01*
X163527874Y-87141000D01*
X163908280Y-86983431D01*
X164199431Y-86692280D01*
X164357000Y-86311874D01*
X164357000Y-85900126D01*
X164199431Y-85519720D01*
X163908280Y-85228569D01*
X163527874Y-85071000D01*
X163116126Y-85071000D01*
X162735720Y-85228569D01*
X162618289Y-85346000D01*
X152849711Y-85346000D01*
X152732280Y-85228569D01*
X152351874Y-85071000D01*
X151940126Y-85071000D01*
X151559720Y-85228569D01*
X151268569Y-85519720D01*
X151111000Y-85900126D01*
X150440999Y-85900126D01*
X150440999Y-82921043D01*
X156788000Y-82921043D01*
X156788000Y-83448957D01*
X156990024Y-83936685D01*
X157363315Y-84309976D01*
X157851043Y-84512000D01*
X158378957Y-84512000D01*
X158866685Y-84309976D01*
X159239976Y-83936685D01*
X159442000Y-83448957D01*
X159442000Y-82921043D01*
X159239976Y-82433315D01*
X159167000Y-82360339D01*
X159167000Y-73477751D01*
X161562971Y-71081781D01*
X162168984Y-71332800D01*
X163333416Y-71332800D01*
X164409212Y-70887191D01*
X165069439Y-70226964D01*
X165069439Y-73444600D01*
X165141385Y-73806297D01*
X165346270Y-74112930D01*
X165652903Y-74317815D01*
X166014600Y-74389761D01*
X170014600Y-74389761D01*
X170376297Y-74317815D01*
X170682930Y-74112930D01*
X170887815Y-73806297D01*
X170959761Y-73444600D01*
X170959761Y-69444600D01*
X170887815Y-69082903D01*
X170682930Y-68776270D01*
X170376297Y-68571385D01*
X170014600Y-68499439D01*
X166014600Y-68499439D01*
X165678200Y-68566353D01*
X165678200Y-67823584D01*
X165232591Y-66747788D01*
X164409212Y-65924409D01*
X163333416Y-65478800D01*
X162168984Y-65478800D01*
X161093188Y-65924409D01*
X160269809Y-66747788D01*
X159824200Y-67823584D01*
X159824200Y-68988016D01*
X160075219Y-69594029D01*
X157444389Y-72224860D01*
X157356552Y-72283551D01*
X157297862Y-72371387D01*
X157124038Y-72631531D01*
X157042392Y-73042000D01*
X157063001Y-73145610D01*
X157063000Y-82360339D01*
X156990024Y-82433315D01*
X156788000Y-82921043D01*
X150440999Y-82921043D01*
X150440999Y-73641352D01*
X157656371Y-66425981D01*
X158262384Y-66677000D01*
X159426816Y-66677000D01*
X160502612Y-66231391D01*
X161325991Y-65408012D01*
X161771600Y-64332216D01*
X161771600Y-63167784D01*
X161325991Y-62091988D01*
X160502612Y-61268609D01*
X159426816Y-60823000D01*
X158262384Y-60823000D01*
X157186588Y-61268609D01*
X156363209Y-62091988D01*
X155917600Y-63167784D01*
X155917600Y-64332216D01*
X156168619Y-64938229D01*
X148718388Y-72388461D01*
X148630551Y-72447152D01*
X148482291Y-72669038D01*
X148398037Y-72795132D01*
X148316391Y-73205601D01*
X148337000Y-73309211D01*
X148337000Y-81906895D01*
X148218957Y-81858000D01*
X147691043Y-81858000D01*
X147203315Y-82060024D01*
X146830024Y-82433315D01*
X146628000Y-82921043D01*
X146628000Y-83448957D01*
X146830024Y-83936685D01*
X146903001Y-84009662D01*
X146903001Y-85128628D01*
X146763874Y-85071000D01*
X146352126Y-85071000D01*
X145971720Y-85228569D01*
X145680569Y-85519720D01*
X145523000Y-85900126D01*
X145523000Y-86066198D01*
X136675530Y-94913669D01*
X136612071Y-94956071D01*
X136444096Y-95207464D01*
X136429178Y-95282460D01*
X136125423Y-95485423D01*
X135941957Y-95760000D01*
X135838043Y-95760000D01*
X135654577Y-95485423D01*
X135179909Y-95168260D01*
X134761333Y-95085000D01*
X134478667Y-95085000D01*
X134060091Y-95168260D01*
X133585423Y-95485423D01*
X133350000Y-95837758D01*
X133114577Y-95485423D01*
X132639909Y-95168260D01*
X132221333Y-95085000D01*
X132049801Y-95085000D01*
X136787362Y-90347440D01*
X137960000Y-90347440D01*
X138207765Y-90298157D01*
X138417809Y-90157809D01*
X138558157Y-89947765D01*
X138607440Y-89700000D01*
X138607440Y-88100000D01*
X138558157Y-87852235D01*
X138417809Y-87642191D01*
X138207765Y-87501843D01*
X137960000Y-87452560D01*
X136360000Y-87452560D01*
X136112235Y-87501843D01*
X135902191Y-87642191D01*
X135761843Y-87852235D01*
X135735215Y-87986106D01*
X135654577Y-87865423D01*
X135179909Y-87548260D01*
X134761333Y-87465000D01*
X134478667Y-87465000D01*
X134060091Y-87548260D01*
X133585423Y-87865423D01*
X133350000Y-88217758D01*
X133114577Y-87865423D01*
X132639909Y-87548260D01*
X132221333Y-87465000D01*
X131938667Y-87465000D01*
X131520091Y-87548260D01*
X131045423Y-87865423D01*
X130810000Y-88217758D01*
X130574577Y-87865423D01*
X130099909Y-87548260D01*
X129681333Y-87465000D01*
X129398667Y-87465000D01*
X128980091Y-87548260D01*
X128505423Y-87865423D01*
X128270000Y-88217758D01*
X128034577Y-87865423D01*
X127559909Y-87548260D01*
X127141333Y-87465000D01*
X126858667Y-87465000D01*
X126676114Y-87501312D01*
X125050331Y-85875530D01*
X125007929Y-85812071D01*
X124756537Y-85644096D01*
X124534852Y-85600000D01*
X124534847Y-85600000D01*
X124460000Y-85585112D01*
X124385153Y-85600000D01*
X121353711Y-85600000D01*
X121236280Y-85482569D01*
X120855874Y-85325000D01*
X120444126Y-85325000D01*
X120063720Y-85482569D01*
X119772569Y-85773720D01*
X119615000Y-86154126D01*
X119615000Y-86565874D01*
X119772569Y-86946280D01*
X120063720Y-87237431D01*
X120444126Y-87395000D01*
X120855874Y-87395000D01*
X121236280Y-87237431D01*
X121353711Y-87120000D01*
X124145199Y-87120000D01*
X124490199Y-87465000D01*
X124318667Y-87465000D01*
X123900091Y-87548260D01*
X123425423Y-87865423D01*
X123190000Y-88217758D01*
X122954577Y-87865423D01*
X122479909Y-87548260D01*
X122061333Y-87465000D01*
X121778667Y-87465000D01*
X121360091Y-87548260D01*
X120885423Y-87865423D01*
X120629053Y-88249108D01*
X120532389Y-88044866D01*
X120117423Y-87668959D01*
X119729039Y-87508096D01*
X119507000Y-87630085D01*
X119507000Y-88773000D01*
X119527000Y-88773000D01*
X119527000Y-89027000D01*
X119507000Y-89027000D01*
X119507000Y-90169915D01*
X119729039Y-90291904D01*
X120117423Y-90131041D01*
X120532389Y-89755134D01*
X120629053Y-89550892D01*
X120885423Y-89934577D01*
X121360091Y-90251740D01*
X121778667Y-90335000D01*
X122061333Y-90335000D01*
X122479909Y-90251740D01*
X122954577Y-89934577D01*
X123190000Y-89582242D01*
X123425423Y-89934577D01*
X123900091Y-90251740D01*
X124318667Y-90335000D01*
X124601333Y-90335000D01*
X125019909Y-90251740D01*
X125494577Y-89934577D01*
X125730000Y-89582242D01*
X125965423Y-89934577D01*
X126440091Y-90251740D01*
X126858667Y-90335000D01*
X127030199Y-90335000D01*
X126685199Y-90680000D01*
X117543711Y-90680000D01*
X117426280Y-90562569D01*
X117045874Y-90405000D01*
X116634126Y-90405000D01*
X116253720Y-90562569D01*
X115962569Y-90853720D01*
X115805000Y-91234126D01*
X115805000Y-91645874D01*
X115962569Y-92026280D01*
X116253720Y-92317431D01*
X116634126Y-92475000D01*
X117045874Y-92475000D01*
X117426280Y-92317431D01*
X117543711Y-92200000D01*
X126925153Y-92200000D01*
X127000000Y-92214888D01*
X127074847Y-92200000D01*
X127074852Y-92200000D01*
X127296537Y-92155904D01*
X127547929Y-91987929D01*
X127590331Y-91924470D01*
X129216114Y-90298688D01*
X129398667Y-90335000D01*
X129681333Y-90335000D01*
X130099909Y-90251740D01*
X130574577Y-89934577D01*
X130810000Y-89582242D01*
X131045423Y-89934577D01*
X131520091Y-90251740D01*
X131938667Y-90335000D01*
X132110198Y-90335000D01*
X127640531Y-94804668D01*
X127577072Y-94847070D01*
X127409097Y-95098463D01*
X127401482Y-95136747D01*
X127141333Y-95085000D01*
X126858667Y-95085000D01*
X126440091Y-95168260D01*
X125965423Y-95485423D01*
X125730000Y-95837758D01*
X125494577Y-95485423D01*
X125019909Y-95168260D01*
X124601333Y-95085000D01*
X124318667Y-95085000D01*
X123900091Y-95168260D01*
X123425423Y-95485423D01*
X123190000Y-95837758D01*
X122954577Y-95485423D01*
X122479909Y-95168260D01*
X122061333Y-95085000D01*
X121778667Y-95085000D01*
X121360091Y-95168260D01*
X120885423Y-95485423D01*
X120650000Y-95837758D01*
X120414577Y-95485423D01*
X119939909Y-95168260D01*
X119521333Y-95085000D01*
X119238667Y-95085000D01*
X118820091Y-95168260D01*
X118345423Y-95485423D01*
X118028260Y-95960091D01*
X117916887Y-96520000D01*
X118028260Y-97079909D01*
X118164629Y-97284000D01*
X106367711Y-97284000D01*
X106250280Y-97166569D01*
X105869874Y-97009000D01*
X105458126Y-97009000D01*
X105077720Y-97166569D01*
X104786569Y-97457720D01*
X104629000Y-97838126D01*
X104629000Y-98249874D01*
X104786569Y-98630280D01*
X105077720Y-98921431D01*
X105458126Y-99079000D01*
X105869874Y-99079000D01*
X106250280Y-98921431D01*
X106367711Y-98804000D01*
X120321153Y-98804000D01*
X120396000Y-98818888D01*
X120470847Y-98804000D01*
X120470852Y-98804000D01*
X120692537Y-98759904D01*
X120943929Y-98591929D01*
X120986331Y-98528470D01*
X121596114Y-97918688D01*
X121778667Y-97955000D01*
X122061333Y-97955000D01*
X122479909Y-97871740D01*
X122954577Y-97554577D01*
X123190000Y-97202242D01*
X123425423Y-97554577D01*
X123900091Y-97871740D01*
X124318667Y-97955000D01*
X124601333Y-97955000D01*
X124765310Y-97922383D01*
X124695000Y-98092126D01*
X124695000Y-98503874D01*
X124852569Y-98884280D01*
X125143720Y-99175431D01*
X125524126Y-99333000D01*
X125935874Y-99333000D01*
X126316280Y-99175431D01*
X126433711Y-99058000D01*
X126812155Y-99058000D01*
X126887002Y-99072888D01*
X126961849Y-99058000D01*
X126961854Y-99058000D01*
X127183539Y-99013904D01*
X127434931Y-98845929D01*
X127477333Y-98782470D01*
X128609474Y-97650330D01*
X128629101Y-97637216D01*
X128980091Y-97871740D01*
X129398667Y-97955000D01*
X129681333Y-97955000D01*
X129845310Y-97922383D01*
X129775000Y-98092126D01*
X129775000Y-98503874D01*
X129932569Y-98884280D01*
X130223720Y-99175431D01*
X130604126Y-99333000D01*
X130732199Y-99333000D01*
X130495199Y-99570000D01*
X99560916Y-99570000D01*
X99900280Y-99429431D01*
X100191431Y-99138280D01*
X100349000Y-98757874D01*
X100349000Y-98591801D01*
X106428001Y-92512802D01*
X106428001Y-92815316D01*
X106347720Y-92848569D01*
X106056569Y-93139720D01*
X105899000Y-93520126D01*
X105899000Y-93931874D01*
X106056569Y-94312280D01*
X106299744Y-94555455D01*
X106132199Y-94723000D01*
X105966126Y-94723000D01*
X105585720Y-94880569D01*
X105294569Y-95171720D01*
X105137000Y-95552126D01*
X105137000Y-95963874D01*
X105294569Y-96344280D01*
X105585720Y-96635431D01*
X105966126Y-96793000D01*
X106377874Y-96793000D01*
X106758280Y-96635431D01*
X107049431Y-96344280D01*
X107207000Y-95963874D01*
X107207000Y-95797801D01*
X113755760Y-89249041D01*
X117988086Y-89249041D01*
X118227611Y-89755134D01*
X118642577Y-90131041D01*
X119030961Y-90291904D01*
X119253000Y-90169915D01*
X119253000Y-89027000D01*
X118109371Y-89027000D01*
X117988086Y-89249041D01*
X113755760Y-89249041D01*
X114453842Y-88550959D01*
X117988086Y-88550959D01*
X118109371Y-88773000D01*
X119253000Y-88773000D01*
X119253000Y-87630085D01*
X119030961Y-87508096D01*
X118642577Y-87668959D01*
X118227611Y-88044866D01*
X117988086Y-88550959D01*
X114453842Y-88550959D01*
X125406114Y-77598688D01*
X125588667Y-77635000D01*
X125871333Y-77635000D01*
X126289909Y-77551740D01*
X126764577Y-77234577D01*
X127081740Y-76759909D01*
X127193113Y-76200000D01*
X127136336Y-75914561D01*
X129375000Y-75914561D01*
X129375000Y-76485439D01*
X129593466Y-77012862D01*
X129997138Y-77416534D01*
X130524561Y-77635000D01*
X131095439Y-77635000D01*
X131622862Y-77416534D01*
X132026534Y-77012862D01*
X132245000Y-76485439D01*
X132245000Y-76200000D01*
X139506887Y-76200000D01*
X139618260Y-76759909D01*
X139935423Y-77234577D01*
X140410091Y-77551740D01*
X140828667Y-77635000D01*
X141111333Y-77635000D01*
X141529909Y-77551740D01*
X142004577Y-77234577D01*
X142321740Y-76759909D01*
X142433113Y-76200000D01*
X142321740Y-75640091D01*
X142004577Y-75165423D01*
X141529909Y-74848260D01*
X141111333Y-74765000D01*
X140828667Y-74765000D01*
X140410091Y-74848260D01*
X139935423Y-75165423D01*
X139618260Y-75640091D01*
X139506887Y-76200000D01*
X132245000Y-76200000D01*
X132245000Y-75914561D01*
X132223103Y-75861698D01*
X135104473Y-72980329D01*
X135167929Y-72937929D01*
X135263344Y-72795131D01*
X135335904Y-72686538D01*
X135355625Y-72587391D01*
X135380000Y-72464852D01*
X135380000Y-72464848D01*
X135394888Y-72390000D01*
X135380000Y-72315152D01*
X135380000Y-69859347D01*
X135437392Y-69897695D01*
X135890000Y-69987725D01*
X136342609Y-69897695D01*
X136726313Y-69641313D01*
X136982695Y-69257608D01*
X137050000Y-68919245D01*
X137050000Y-68240754D01*
X136982695Y-67902391D01*
X136726313Y-67518687D01*
X136342608Y-67262305D01*
X135890000Y-67172275D01*
X135437391Y-67262305D01*
X135255000Y-67384175D01*
X135072608Y-67262305D01*
X134620000Y-67172275D01*
X134167391Y-67262305D01*
X134166016Y-67263224D01*
X134001309Y-67195000D01*
X133635750Y-67195000D01*
X133477000Y-67353750D01*
X133477000Y-68155291D01*
X133460000Y-68240755D01*
X133460000Y-68919246D01*
X133477000Y-69004710D01*
X133477000Y-69806250D01*
X133635750Y-69965000D01*
X133860001Y-69965000D01*
X133860000Y-72075198D01*
X131148302Y-74786897D01*
X131095439Y-74765000D01*
X130524561Y-74765000D01*
X129997138Y-74983466D01*
X129593466Y-75387138D01*
X129375000Y-75914561D01*
X127136336Y-75914561D01*
X127081740Y-75640091D01*
X126764577Y-75165423D01*
X126289909Y-74848260D01*
X125871333Y-74765000D01*
X125588667Y-74765000D01*
X125170091Y-74848260D01*
X124695423Y-75165423D01*
X124378260Y-75640091D01*
X124266887Y-76200000D01*
X124331312Y-76523886D01*
X107948000Y-92907199D01*
X107948000Y-84015711D01*
X108065431Y-83898280D01*
X108223000Y-83517874D01*
X108223000Y-83106126D01*
X108065431Y-82725720D01*
X107774280Y-82434569D01*
X107393874Y-82277000D01*
X107222999Y-82277000D01*
X107222999Y-75914561D01*
X114135000Y-75914561D01*
X114135000Y-76485439D01*
X114353466Y-77012862D01*
X114757138Y-77416534D01*
X115284561Y-77635000D01*
X115855439Y-77635000D01*
X116382862Y-77416534D01*
X116786534Y-77012862D01*
X117005000Y-76485439D01*
X117005000Y-75914561D01*
X116983103Y-75861698D01*
X121134473Y-71710329D01*
X121197929Y-71667929D01*
X121365904Y-71416537D01*
X121410000Y-71194852D01*
X121410000Y-71194847D01*
X121424888Y-71120000D01*
X121410000Y-71045153D01*
X121410000Y-69859347D01*
X121467392Y-69897695D01*
X121920000Y-69987725D01*
X122372609Y-69897695D01*
X122756313Y-69641313D01*
X123012695Y-69257608D01*
X123080000Y-68919245D01*
X123080000Y-68865750D01*
X132190000Y-68865750D01*
X132190000Y-69456310D01*
X132286673Y-69689699D01*
X132465302Y-69868327D01*
X132698691Y-69965000D01*
X133064250Y-69965000D01*
X133223000Y-69806250D01*
X133223000Y-68707000D01*
X132348750Y-68707000D01*
X132190000Y-68865750D01*
X123080000Y-68865750D01*
X123080000Y-68240754D01*
X123012695Y-67902391D01*
X122879928Y-67703690D01*
X132190000Y-67703690D01*
X132190000Y-68294250D01*
X132348750Y-68453000D01*
X133223000Y-68453000D01*
X133223000Y-67353750D01*
X133064250Y-67195000D01*
X132698691Y-67195000D01*
X132465302Y-67291673D01*
X132286673Y-67470301D01*
X132190000Y-67703690D01*
X122879928Y-67703690D01*
X122756313Y-67518687D01*
X122372608Y-67262305D01*
X121920000Y-67172275D01*
X121467391Y-67262305D01*
X121285000Y-67384175D01*
X121102608Y-67262305D01*
X120650000Y-67172275D01*
X120197391Y-67262305D01*
X120196016Y-67263224D01*
X120031309Y-67195000D01*
X119665750Y-67195000D01*
X119507000Y-67353750D01*
X119507000Y-68155291D01*
X119490000Y-68240755D01*
X119490000Y-68919246D01*
X119507000Y-69004710D01*
X119507000Y-69806250D01*
X119665750Y-69965000D01*
X119890000Y-69965000D01*
X119890000Y-70805198D01*
X115908302Y-74786897D01*
X115855439Y-74765000D01*
X115284561Y-74765000D01*
X114757138Y-74983466D01*
X114353466Y-75387138D01*
X114135000Y-75914561D01*
X107222999Y-75914561D01*
X107222999Y-68865750D01*
X118220000Y-68865750D01*
X118220000Y-69456310D01*
X118316673Y-69689699D01*
X118495302Y-69868327D01*
X118728691Y-69965000D01*
X119094250Y-69965000D01*
X119253000Y-69806250D01*
X119253000Y-68707000D01*
X118378750Y-68707000D01*
X118220000Y-68865750D01*
X107222999Y-68865750D01*
X107222999Y-67703690D01*
X118220000Y-67703690D01*
X118220000Y-68294250D01*
X118378750Y-68453000D01*
X119253000Y-68453000D01*
X119253000Y-67353750D01*
X119094250Y-67195000D01*
X118728691Y-67195000D01*
X118495302Y-67291673D01*
X118316673Y-67470301D01*
X118220000Y-67703690D01*
X107222999Y-67703690D01*
X107222999Y-55075000D01*
X120460839Y-55075000D01*
X120460839Y-59075000D01*
X120532785Y-59436697D01*
X120737670Y-59743330D01*
X121044303Y-59948215D01*
X121406000Y-60020161D01*
X125406000Y-60020161D01*
X125767697Y-59948215D01*
X126074330Y-59743330D01*
X126279215Y-59436697D01*
X126351161Y-59075000D01*
X126351161Y-55075000D01*
X126279215Y-54713303D01*
X126074330Y-54406670D01*
X125767697Y-54201785D01*
X125406000Y-54129839D01*
X121406000Y-54129839D01*
X121044303Y-54201785D01*
X120737670Y-54406670D01*
X120532785Y-54713303D01*
X120460839Y-55075000D01*
X107222999Y-55075000D01*
X107222999Y-52601802D01*
X112706114Y-47118688D01*
X112888667Y-47155000D01*
X113171333Y-47155000D01*
X113589909Y-47071740D01*
X114064577Y-46754577D01*
X114381740Y-46279909D01*
X114493113Y-45720000D01*
X115376887Y-45720000D01*
X115488260Y-46279909D01*
X115805423Y-46754577D01*
X116280091Y-47071740D01*
X116698667Y-47155000D01*
X116981333Y-47155000D01*
X117399909Y-47071740D01*
X117874577Y-46754577D01*
X118191740Y-46279909D01*
X118303113Y-45720000D01*
X118191740Y-45160091D01*
X117874577Y-44685423D01*
X117399909Y-44368260D01*
X116981333Y-44285000D01*
X116698667Y-44285000D01*
X116280091Y-44368260D01*
X115805423Y-44685423D01*
X115488260Y-45160091D01*
X115376887Y-45720000D01*
X114493113Y-45720000D01*
X114428688Y-45396113D01*
X121134476Y-38690327D01*
X121197929Y-38647929D01*
X121240327Y-38584476D01*
X121240329Y-38584474D01*
X121365903Y-38396538D01*
X121365904Y-38396537D01*
X121410000Y-38174852D01*
X121410000Y-38174848D01*
X121424888Y-38100001D01*
X121410000Y-38025154D01*
X121410000Y-37126931D01*
X121449998Y-37134887D01*
X121524845Y-37119999D01*
X122597346Y-37119999D01*
X122349720Y-37222569D01*
X122058569Y-37513720D01*
X121901000Y-37894126D01*
X121901000Y-38060198D01*
X120165528Y-39795671D01*
X120102072Y-39838071D01*
X120059672Y-39901527D01*
X120059671Y-39901528D01*
X119934097Y-40089463D01*
X119875112Y-40386000D01*
X119890001Y-40460852D01*
X119890000Y-44501956D01*
X119615423Y-44685423D01*
X119298260Y-45160091D01*
X119186887Y-45720000D01*
X119298260Y-46279909D01*
X119615423Y-46754577D01*
X120090091Y-47071740D01*
X120508667Y-47155000D01*
X120791333Y-47155000D01*
X121209909Y-47071740D01*
X121684577Y-46754577D01*
X122001740Y-46279909D01*
X122113113Y-45720000D01*
X122001740Y-45160091D01*
X121684577Y-44685423D01*
X121410000Y-44501957D01*
X121410000Y-40700801D01*
X122975802Y-39135000D01*
X123141874Y-39135000D01*
X123522280Y-38977431D01*
X123813431Y-38686280D01*
X123971000Y-38305874D01*
X123971000Y-37894126D01*
X123813431Y-37513720D01*
X123522280Y-37222569D01*
X123274654Y-37119999D01*
X128008340Y-37119999D01*
X127780024Y-37348315D01*
X127578000Y-37836043D01*
X127578000Y-38363957D01*
X127780024Y-38851685D01*
X128153315Y-39224976D01*
X128641043Y-39427000D01*
X128744248Y-39427000D01*
X128873002Y-39555754D01*
X128873001Y-48583598D01*
X128658012Y-48368609D01*
X127582216Y-47923000D01*
X126417784Y-47923000D01*
X125341988Y-48368609D01*
X124518609Y-49191988D01*
X124073000Y-50267784D01*
X124073000Y-51432216D01*
X124518609Y-52508012D01*
X125341988Y-53331391D01*
X126417784Y-53777000D01*
X127582216Y-53777000D01*
X127942000Y-53627973D01*
X127942000Y-53669956D01*
X128144024Y-54157684D01*
X128517315Y-54530975D01*
X128857650Y-54671947D01*
X128112609Y-55416988D01*
X127667000Y-56492784D01*
X127667000Y-57657216D01*
X128112609Y-58733012D01*
X128935988Y-59556391D01*
X130011784Y-60002000D01*
X131176216Y-60002000D01*
X132252012Y-59556391D01*
X133075391Y-58733012D01*
X133521000Y-57657216D01*
X133521000Y-56492784D01*
X133075391Y-55416988D01*
X132252012Y-54593609D01*
X131176216Y-54148000D01*
X130397987Y-54148000D01*
X130596000Y-53669956D01*
X130596000Y-53566879D01*
X130683450Y-53508447D01*
X130915963Y-53160468D01*
X130969406Y-52891792D01*
X130997610Y-52749998D01*
X130977001Y-52646389D01*
X130977001Y-45720000D01*
X135696887Y-45720000D01*
X135808260Y-46279909D01*
X136125423Y-46754577D01*
X136600091Y-47071740D01*
X137018667Y-47155000D01*
X137301333Y-47155000D01*
X137719909Y-47071740D01*
X138194577Y-46754577D01*
X138511740Y-46279909D01*
X138623113Y-45720000D01*
X138511740Y-45160091D01*
X138194577Y-44685423D01*
X137719909Y-44368260D01*
X137301333Y-44285000D01*
X137018667Y-44285000D01*
X136600091Y-44368260D01*
X136125423Y-44685423D01*
X135808260Y-45160091D01*
X135696887Y-45720000D01*
X130977001Y-45720000D01*
X130977001Y-39223604D01*
X130997609Y-39120000D01*
X130977001Y-39016396D01*
X130977001Y-39016392D01*
X130915963Y-38709531D01*
X130683450Y-38361552D01*
X130595613Y-38302861D01*
X130232000Y-37939248D01*
X130232000Y-37836043D01*
X130029976Y-37348315D01*
X129801660Y-37119999D01*
X131295198Y-37119999D01*
X139571312Y-45396114D01*
X139506887Y-45720000D01*
X139618260Y-46279909D01*
X139935423Y-46754577D01*
X140410091Y-47071740D01*
X140828667Y-47155000D01*
X141111333Y-47155000D01*
X141529909Y-47071740D01*
X142004577Y-46754577D01*
X142321740Y-46279909D01*
X142433113Y-45720000D01*
X142422727Y-45667784D01*
X155917600Y-45667784D01*
X155917600Y-46832216D01*
X156363209Y-47908012D01*
X157186588Y-48731391D01*
X158262384Y-49177000D01*
X159426816Y-49177000D01*
X160502612Y-48731391D01*
X161325991Y-47908012D01*
X161771600Y-46832216D01*
X161771600Y-45667784D01*
X161325991Y-44591988D01*
X160502612Y-43768609D01*
X159426816Y-43323000D01*
X158262384Y-43323000D01*
X157186588Y-43768609D01*
X156363209Y-44591988D01*
X155917600Y-45667784D01*
X142422727Y-45667784D01*
X142321740Y-45160091D01*
X142004577Y-44685423D01*
X141529909Y-44368260D01*
X141111333Y-44285000D01*
X140828667Y-44285000D01*
X140646114Y-44321312D01*
X137336786Y-41011984D01*
X159824200Y-41011984D01*
X159824200Y-42176416D01*
X160269809Y-43252212D01*
X161093188Y-44075591D01*
X161697806Y-44326032D01*
X161678592Y-44422627D01*
X161760238Y-44833096D01*
X161760239Y-44833097D01*
X161992752Y-45181076D01*
X162080589Y-45239767D01*
X170398001Y-53557181D01*
X170398000Y-58865339D01*
X170325024Y-58938315D01*
X170123000Y-59426043D01*
X170123000Y-59953957D01*
X170325024Y-60441685D01*
X170698315Y-60814976D01*
X171186043Y-61017000D01*
X171713957Y-61017000D01*
X172201685Y-60814976D01*
X172574976Y-60441685D01*
X172777000Y-59953957D01*
X172777000Y-59426043D01*
X172574976Y-58938315D01*
X172502000Y-58865339D01*
X172502000Y-53802552D01*
X172585961Y-53676896D01*
X172667608Y-53266426D01*
X172585961Y-52855957D01*
X172412138Y-52595813D01*
X172267142Y-52450818D01*
X172267139Y-52450813D01*
X172267138Y-52450812D01*
X172208449Y-52362978D01*
X172120615Y-52304289D01*
X170616326Y-50800000D01*
X175785167Y-50800000D01*
X175919202Y-51473842D01*
X176300903Y-52045097D01*
X176872158Y-52426798D01*
X177375909Y-52527000D01*
X177716091Y-52527000D01*
X178219842Y-52426798D01*
X178791097Y-52045097D01*
X179172798Y-51473842D01*
X179306833Y-50800000D01*
X179172798Y-50126158D01*
X178791097Y-49554903D01*
X178219842Y-49173202D01*
X177716091Y-49073000D01*
X177375909Y-49073000D01*
X176872158Y-49173202D01*
X176300903Y-49554903D01*
X175919202Y-50126158D01*
X175785167Y-50800000D01*
X170616326Y-50800000D01*
X164043428Y-44227104D01*
X164409212Y-44075591D01*
X165232591Y-43252212D01*
X165678200Y-42176416D01*
X165678200Y-41011984D01*
X165232591Y-39936188D01*
X164409212Y-39112809D01*
X163333416Y-38667200D01*
X162168984Y-38667200D01*
X161093188Y-39112809D01*
X160269809Y-39936188D01*
X159824200Y-41011984D01*
X137336786Y-41011984D01*
X134297986Y-37973184D01*
X165087600Y-37973184D01*
X165087600Y-39137616D01*
X165533209Y-40213412D01*
X166356588Y-41036791D01*
X167432384Y-41482400D01*
X168596816Y-41482400D01*
X169672612Y-41036791D01*
X170495991Y-40213412D01*
X170941600Y-39137616D01*
X170941600Y-37973184D01*
X170495991Y-36897388D01*
X169672612Y-36074009D01*
X168596816Y-35628400D01*
X167432384Y-35628400D01*
X166356588Y-36074009D01*
X165533209Y-36897388D01*
X165087600Y-37973184D01*
X134297986Y-37973184D01*
X132200330Y-35875529D01*
X132157928Y-35812070D01*
X131906536Y-35644095D01*
X131684851Y-35599999D01*
X131684846Y-35599999D01*
X131609999Y-35585111D01*
X131535152Y-35599999D01*
X122085000Y-35599999D01*
X122085000Y-35274561D01*
X122060942Y-35216478D01*
X135433000Y-35216478D01*
X135433000Y-35903522D01*
X135695920Y-36538267D01*
X136181733Y-37024080D01*
X136816478Y-37287000D01*
X137503522Y-37287000D01*
X138138267Y-37024080D01*
X138624080Y-36538267D01*
X138887000Y-35903522D01*
X138887000Y-35274561D01*
X139535000Y-35274561D01*
X139535000Y-35845439D01*
X139753466Y-36372862D01*
X140157138Y-36776534D01*
X140684561Y-36995000D01*
X141255439Y-36995000D01*
X141782862Y-36776534D01*
X142186534Y-36372862D01*
X142405000Y-35845439D01*
X142405000Y-35274561D01*
X142186534Y-34747138D01*
X141782862Y-34343466D01*
X141255439Y-34125000D01*
X140684561Y-34125000D01*
X140157138Y-34343466D01*
X139753466Y-34747138D01*
X139535000Y-35274561D01*
X138887000Y-35274561D01*
X138887000Y-35216478D01*
X138624080Y-34581733D01*
X138138267Y-34095920D01*
X137503522Y-33833000D01*
X136816478Y-33833000D01*
X136181733Y-34095920D01*
X135695920Y-34581733D01*
X135433000Y-35216478D01*
X122060942Y-35216478D01*
X121866534Y-34747138D01*
X121462862Y-34343466D01*
X120935439Y-34125000D01*
X120364561Y-34125000D01*
X119837138Y-34343466D01*
X119433466Y-34747138D01*
X119215000Y-35274561D01*
X119215000Y-35845439D01*
X119433466Y-36372862D01*
X119837138Y-36776534D01*
X119890000Y-36798430D01*
X119890001Y-37785196D01*
X113353887Y-44321312D01*
X113171333Y-44285000D01*
X112888667Y-44285000D01*
X112470091Y-44368260D01*
X111995423Y-44685423D01*
X111678260Y-45160091D01*
X111566887Y-45720000D01*
X111631312Y-46043886D01*
X105978529Y-51696670D01*
X105915070Y-51739072D01*
X105747095Y-51990465D01*
X105702999Y-52212150D01*
X105702999Y-52212154D01*
X105688111Y-52287001D01*
X105702999Y-52361848D01*
X105703000Y-91088197D01*
X99274199Y-97517000D01*
X99108126Y-97517000D01*
X98727720Y-97674569D01*
X98436569Y-97965720D01*
X98279000Y-98346126D01*
X98279000Y-98474198D01*
X97856917Y-98052116D01*
X97856917Y-97886043D01*
X97699348Y-97505637D01*
X97408197Y-97214486D01*
X97341070Y-97186681D01*
X102270615Y-92257138D01*
X102358449Y-92198449D01*
X102499115Y-91987929D01*
X102590962Y-91850470D01*
X102672609Y-91440000D01*
X102652000Y-91336391D01*
X102652000Y-74484661D01*
X102724976Y-74411685D01*
X102927000Y-73923957D01*
X102927000Y-73396043D01*
X102724976Y-72908315D01*
X102351685Y-72535024D01*
X101863957Y-72333000D01*
X101336043Y-72333000D01*
X100848315Y-72535024D01*
X100475024Y-72908315D01*
X100286099Y-73364419D01*
X100286099Y-54064808D01*
X100306708Y-53961199D01*
X100225061Y-53550729D01*
X100051238Y-53290585D01*
X100051237Y-53290584D01*
X99992548Y-53202750D01*
X99910659Y-53148034D01*
X100161100Y-52543416D01*
X100161100Y-51378984D01*
X99715491Y-50303188D01*
X98892112Y-49479809D01*
X97816316Y-49034200D01*
X96651884Y-49034200D01*
X95576088Y-49479809D01*
X94752709Y-50303188D01*
X94307100Y-51378984D01*
X94307100Y-51875451D01*
X92300800Y-49869151D01*
X92300800Y-47007005D01*
X92674009Y-47908012D01*
X93497388Y-48731391D01*
X94573184Y-49177000D01*
X95737616Y-49177000D01*
X96813412Y-48731391D01*
X97636791Y-47908012D01*
X98082400Y-46832216D01*
X98082400Y-45667784D01*
X97636791Y-44591988D01*
X96813412Y-43768609D01*
X95737616Y-43323000D01*
X94573184Y-43323000D01*
X93497388Y-43768609D01*
X92674009Y-44591988D01*
X92300800Y-45492995D01*
X92300800Y-44326609D01*
X92906812Y-44075591D01*
X93730191Y-43252212D01*
X94175800Y-42176416D01*
X94175800Y-41011984D01*
X93730191Y-39936188D01*
X92906812Y-39112809D01*
X91831016Y-38667200D01*
X90666584Y-38667200D01*
X89590788Y-39112809D01*
X88767409Y-39936188D01*
X88321800Y-41011984D01*
X88321800Y-42176416D01*
X88767409Y-43252212D01*
X89590788Y-44075591D01*
X90196801Y-44326609D01*
X90196800Y-48156391D01*
X90196800Y-50201296D01*
X90176192Y-50304902D01*
X90196800Y-50408507D01*
X90196800Y-50408510D01*
X90257838Y-50715371D01*
X90490351Y-51063351D01*
X90578191Y-51122044D01*
X95540402Y-56084256D01*
X95540401Y-60754394D01*
X95526755Y-60823000D01*
X94573184Y-60823000D01*
X93497388Y-61268609D01*
X92674009Y-62091988D01*
X92228400Y-63167784D01*
X92228400Y-64332216D01*
X92674009Y-65408012D01*
X93497388Y-66231391D01*
X94573184Y-66677000D01*
X95737616Y-66677000D01*
X96813412Y-66231391D01*
X97028402Y-66016401D01*
X97028401Y-78887599D01*
X93519004Y-78887599D01*
X93415400Y-78866991D01*
X93311796Y-78887599D01*
X93311792Y-78887599D01*
X93004931Y-78948637D01*
X92656952Y-79181150D01*
X92598261Y-79268987D01*
X89499389Y-82367860D01*
X89411552Y-82426551D01*
X89352862Y-82514387D01*
X89179038Y-82774531D01*
X89097392Y-83185000D01*
X89118001Y-83288608D01*
X89118000Y-87204965D01*
X89008303Y-87226785D01*
X88701670Y-87431670D01*
X88682000Y-87461108D01*
X88682000Y-69857616D01*
X88767409Y-70063812D01*
X89590788Y-70887191D01*
X90666584Y-71332800D01*
X91831016Y-71332800D01*
X92906812Y-70887191D01*
X93730191Y-70063812D01*
X94175800Y-68988016D01*
X94175800Y-67823584D01*
X93730191Y-66747788D01*
X92906812Y-65924409D01*
X91831016Y-65478800D01*
X90666584Y-65478800D01*
X89590788Y-65924409D01*
X88767409Y-66747788D01*
X88682000Y-66953984D01*
X88682000Y-57974661D01*
X88754976Y-57901685D01*
X88957000Y-57413957D01*
X88957000Y-56886043D01*
X88754976Y-56398315D01*
X88381685Y-56025024D01*
X87893957Y-55823000D01*
X87366043Y-55823000D01*
X86878315Y-56025024D01*
X86505024Y-56398315D01*
X86303000Y-56886043D01*
X86303000Y-57413957D01*
X86505024Y-57901685D01*
X86578001Y-57974662D01*
X86578000Y-82741339D01*
X86476685Y-82640024D01*
X85988957Y-82438000D01*
X85830753Y-82438000D01*
X84512000Y-81119249D01*
X84512000Y-81016043D01*
X84309976Y-80528315D01*
X83936685Y-80155024D01*
X83448957Y-79953000D01*
X82921043Y-79953000D01*
X82433315Y-80155024D01*
X82060024Y-80528315D01*
X81858000Y-81016043D01*
X81858000Y-81543957D01*
X82060024Y-82031685D01*
X82433315Y-82404976D01*
X82921043Y-82607000D01*
X83024249Y-82607000D01*
X84398000Y-83980753D01*
X84398000Y-84028957D01*
X84600024Y-84516685D01*
X84973315Y-84889976D01*
X85461043Y-85092000D01*
X85988957Y-85092000D01*
X86476685Y-84889976D01*
X86578000Y-84788661D01*
X86578000Y-87525879D01*
X86384903Y-87654903D01*
X86184407Y-87954965D01*
X86124577Y-87865423D01*
X85649909Y-87548260D01*
X85231333Y-87465000D01*
X84948667Y-87465000D01*
X84530091Y-87548260D01*
X84055423Y-87865423D01*
X83820000Y-88217758D01*
X83584577Y-87865423D01*
X83109909Y-87548260D01*
X82691333Y-87465000D01*
X82408667Y-87465000D01*
X81990091Y-87548260D01*
X81515423Y-87865423D01*
X81280000Y-88217758D01*
X81044577Y-87865423D01*
X80569909Y-87548260D01*
X80151333Y-87465000D01*
X79868667Y-87465000D01*
X79450091Y-87548260D01*
X78975423Y-87865423D01*
X78740000Y-88217758D01*
X78504577Y-87865423D01*
X78029909Y-87548260D01*
X77611333Y-87465000D01*
X77328667Y-87465000D01*
X76910091Y-87548260D01*
X76435423Y-87865423D01*
X76200000Y-88217758D01*
X75964577Y-87865423D01*
X75489909Y-87548260D01*
X75071333Y-87465000D01*
X74788667Y-87465000D01*
X74370091Y-87548260D01*
X73895423Y-87865423D01*
X73835593Y-87954965D01*
X73635097Y-87654903D01*
X73442000Y-87525880D01*
X73442000Y-76635751D01*
X73820752Y-76257000D01*
X73923957Y-76257000D01*
X74411685Y-76054976D01*
X74784976Y-75681685D01*
X74987000Y-75193957D01*
X74987000Y-74666043D01*
X74872560Y-74389761D01*
X76014600Y-74389761D01*
X76376297Y-74317815D01*
X76682930Y-74112930D01*
X76887815Y-73806297D01*
X76959761Y-73444600D01*
X76959761Y-69444600D01*
X76887815Y-69082903D01*
X76682930Y-68776270D01*
X76376297Y-68571385D01*
X76014600Y-68499439D01*
X75066600Y-68499439D01*
X75066600Y-58501151D01*
X82322226Y-51245526D01*
X82379909Y-51257000D01*
X82720091Y-51257000D01*
X83223842Y-51156798D01*
X83795097Y-50775097D01*
X84176798Y-50203842D01*
X84310833Y-49530000D01*
X84176798Y-48856158D01*
X83795097Y-48284903D01*
X83223842Y-47903202D01*
X82720091Y-47803000D01*
X82379909Y-47803000D01*
X81876158Y-47903202D01*
X81304903Y-48284903D01*
X80923202Y-48856158D01*
X80789167Y-49530000D01*
X80834474Y-49757773D01*
X73343991Y-57248258D01*
X73256151Y-57306951D01*
X73023638Y-57654931D01*
X72962600Y-57961792D01*
X72962600Y-57961795D01*
X72941992Y-58065400D01*
X72962600Y-58169005D01*
X72962600Y-61665845D01*
X72653957Y-61538000D01*
X72642001Y-61538000D01*
X72642001Y-53099010D01*
X72662610Y-52995401D01*
X72580963Y-52584931D01*
X72407140Y-52324787D01*
X72407139Y-52324786D01*
X72348450Y-52236952D01*
X72260616Y-52178263D01*
X67520581Y-47438230D01*
X67771600Y-46832216D01*
X67771600Y-45667784D01*
X67325991Y-44591988D01*
X66502612Y-43768609D01*
X65426816Y-43323000D01*
X64262384Y-43323000D01*
X63186588Y-43768609D01*
X62363209Y-44591988D01*
X61917600Y-45667784D01*
X46430000Y-45667784D01*
X46430000Y-41011984D01*
X65824200Y-41011984D01*
X65824200Y-42176416D01*
X66269809Y-43252212D01*
X67093188Y-44075591D01*
X68168984Y-44521200D01*
X69333416Y-44521200D01*
X70409212Y-44075591D01*
X71232591Y-43252212D01*
X71678200Y-42176416D01*
X71678200Y-41011984D01*
X71232591Y-39936188D01*
X70409212Y-39112809D01*
X69333416Y-38667200D01*
X68168984Y-38667200D01*
X67093188Y-39112809D01*
X66269809Y-39936188D01*
X65824200Y-41011984D01*
X46430000Y-41011984D01*
X46430000Y-37973184D01*
X71087600Y-37973184D01*
X71087600Y-39137616D01*
X71533209Y-40213412D01*
X72356588Y-41036791D01*
X73432384Y-41482400D01*
X74596816Y-41482400D01*
X75672612Y-41036791D01*
X76495991Y-40213412D01*
X76941600Y-39137616D01*
X76941600Y-39026478D01*
X80823000Y-39026478D01*
X80823000Y-39713522D01*
X81085920Y-40348267D01*
X81571733Y-40834080D01*
X82206478Y-41097000D01*
X82893522Y-41097000D01*
X83528267Y-40834080D01*
X84014080Y-40348267D01*
X84277000Y-39713522D01*
X84277000Y-39026478D01*
X84014080Y-38391733D01*
X83528267Y-37905920D01*
X82893522Y-37643000D01*
X82206478Y-37643000D01*
X81571733Y-37905920D01*
X81085920Y-38391733D01*
X80823000Y-39026478D01*
X76941600Y-39026478D01*
X76941600Y-37973184D01*
X76495991Y-36897388D01*
X75672612Y-36074009D01*
X74596816Y-35628400D01*
X73432384Y-35628400D01*
X72356588Y-36074009D01*
X71533209Y-36897388D01*
X71087600Y-37973184D01*
X46430000Y-37973184D01*
X46430000Y-30829039D01*
X101478096Y-30829039D01*
X101638959Y-31217423D01*
X102014866Y-31632389D01*
X102520959Y-31871914D01*
X102743000Y-31750629D01*
X102743000Y-30607000D01*
X102997000Y-30607000D01*
X102997000Y-31750629D01*
X103219041Y-31871914D01*
X103725134Y-31632389D01*
X104101041Y-31217423D01*
X104261904Y-30829039D01*
X104139915Y-30607000D01*
X102997000Y-30607000D01*
X102743000Y-30607000D01*
X101600085Y-30607000D01*
X101478096Y-30829039D01*
X46430000Y-30829039D01*
X46430000Y-27495431D01*
X48565000Y-27495431D01*
X48565000Y-28384569D01*
X48905259Y-29206026D01*
X49533974Y-29834741D01*
X50355431Y-30175000D01*
X51244569Y-30175000D01*
X52066026Y-29834741D01*
X52694741Y-29206026D01*
X53035000Y-28384569D01*
X53035000Y-27495431D01*
X52887776Y-27140000D01*
X101422560Y-27140000D01*
X101422560Y-28740000D01*
X101471843Y-28987765D01*
X101612191Y-29197809D01*
X101822235Y-29338157D01*
X101977361Y-29369013D01*
X101638959Y-29742577D01*
X101478096Y-30130961D01*
X101600085Y-30353000D01*
X102743000Y-30353000D01*
X102743000Y-30333000D01*
X102997000Y-30333000D01*
X102997000Y-30353000D01*
X104139915Y-30353000D01*
X104261904Y-30130961D01*
X104101041Y-29742577D01*
X103762639Y-29369013D01*
X103917765Y-29338157D01*
X104127809Y-29197809D01*
X104268157Y-28987765D01*
X104317440Y-28740000D01*
X104317440Y-28700000D01*
X105095199Y-28700000D01*
X111616896Y-35221699D01*
X111595000Y-35274561D01*
X111595000Y-35845439D01*
X111813466Y-36372862D01*
X112217138Y-36776534D01*
X112744561Y-36995000D01*
X113315439Y-36995000D01*
X113842862Y-36776534D01*
X114246534Y-36372862D01*
X114465000Y-35845439D01*
X114465000Y-35274561D01*
X114440942Y-35216478D01*
X115113000Y-35216478D01*
X115113000Y-35903522D01*
X115375920Y-36538267D01*
X115861733Y-37024080D01*
X116496478Y-37287000D01*
X117183522Y-37287000D01*
X117818267Y-37024080D01*
X118304080Y-36538267D01*
X118567000Y-35903522D01*
X118567000Y-35216478D01*
X118304080Y-34581733D01*
X117818267Y-34095920D01*
X117183522Y-33833000D01*
X116496478Y-33833000D01*
X115861733Y-34095920D01*
X115375920Y-34581733D01*
X115113000Y-35216478D01*
X114440942Y-35216478D01*
X114246534Y-34747138D01*
X113842862Y-34343466D01*
X113315439Y-34125000D01*
X112744561Y-34125000D01*
X112691699Y-34146896D01*
X110736586Y-32191784D01*
X111163842Y-32106798D01*
X111735097Y-31725097D01*
X112116798Y-31153842D01*
X112181405Y-30829039D01*
X123068096Y-30829039D01*
X123228959Y-31217423D01*
X123604866Y-31632389D01*
X124110959Y-31871914D01*
X124333000Y-31750629D01*
X124333000Y-30607000D01*
X124587000Y-30607000D01*
X124587000Y-31750629D01*
X124809041Y-31871914D01*
X125315134Y-31632389D01*
X125691041Y-31217423D01*
X125851904Y-30829039D01*
X125729915Y-30607000D01*
X124587000Y-30607000D01*
X124333000Y-30607000D01*
X123190085Y-30607000D01*
X123068096Y-30829039D01*
X112181405Y-30829039D01*
X112250833Y-30480000D01*
X112116798Y-29806158D01*
X111735097Y-29234903D01*
X111697827Y-29210000D01*
X111735097Y-29185097D01*
X112116798Y-28613842D01*
X112250833Y-27940000D01*
X112205526Y-27712226D01*
X112777752Y-27140000D01*
X123012560Y-27140000D01*
X123012560Y-28740000D01*
X123061843Y-28987765D01*
X123202191Y-29197809D01*
X123412235Y-29338157D01*
X123567361Y-29369013D01*
X123228959Y-29742577D01*
X123068096Y-30130961D01*
X123190085Y-30353000D01*
X124333000Y-30353000D01*
X124333000Y-30333000D01*
X124587000Y-30333000D01*
X124587000Y-30353000D01*
X125729915Y-30353000D01*
X125851904Y-30130961D01*
X125691041Y-29742577D01*
X125352639Y-29369013D01*
X125507765Y-29338157D01*
X125717809Y-29197809D01*
X125858157Y-28987765D01*
X125907440Y-28740000D01*
X125907440Y-27140000D01*
X125858157Y-26892235D01*
X125717809Y-26682191D01*
X125507765Y-26541843D01*
X125260000Y-26492560D01*
X123660000Y-26492560D01*
X123412235Y-26541843D01*
X123202191Y-26682191D01*
X123061843Y-26892235D01*
X123012560Y-27140000D01*
X112777752Y-27140000D01*
X113719753Y-26198000D01*
X128850249Y-26198000D01*
X130364474Y-27712226D01*
X130319167Y-27940000D01*
X130453202Y-28613842D01*
X130834903Y-29185097D01*
X130872173Y-29210000D01*
X130834903Y-29234903D01*
X130453202Y-29806158D01*
X130319167Y-30480000D01*
X130453202Y-31153842D01*
X130834903Y-31725097D01*
X131406158Y-32106798D01*
X131909909Y-32207000D01*
X132250091Y-32207000D01*
X132753842Y-32106798D01*
X133325097Y-31725097D01*
X133706798Y-31153842D01*
X133771405Y-30829039D01*
X143388096Y-30829039D01*
X143548959Y-31217423D01*
X143924866Y-31632389D01*
X144430959Y-31871914D01*
X144653000Y-31750629D01*
X144653000Y-30607000D01*
X144907000Y-30607000D01*
X144907000Y-31750629D01*
X145129041Y-31871914D01*
X145635134Y-31632389D01*
X146011041Y-31217423D01*
X146171904Y-30829039D01*
X146049915Y-30607000D01*
X144907000Y-30607000D01*
X144653000Y-30607000D01*
X143510085Y-30607000D01*
X143388096Y-30829039D01*
X133771405Y-30829039D01*
X133840833Y-30480000D01*
X133706798Y-29806158D01*
X133325097Y-29234903D01*
X133287827Y-29210000D01*
X133325097Y-29185097D01*
X133706798Y-28613842D01*
X133840833Y-27940000D01*
X133788037Y-27674575D01*
X133870961Y-27550471D01*
X133912596Y-27341155D01*
X134113751Y-27140000D01*
X143332560Y-27140000D01*
X143332560Y-28740000D01*
X143381843Y-28987765D01*
X143522191Y-29197809D01*
X143732235Y-29338157D01*
X143887361Y-29369013D01*
X143548959Y-29742577D01*
X143388096Y-30130961D01*
X143510085Y-30353000D01*
X144653000Y-30353000D01*
X144653000Y-30333000D01*
X144907000Y-30333000D01*
X144907000Y-30353000D01*
X146049915Y-30353000D01*
X146171904Y-30130961D01*
X146011041Y-29742577D01*
X145672639Y-29369013D01*
X145827765Y-29338157D01*
X146037809Y-29197809D01*
X146178157Y-28987765D01*
X146227440Y-28740000D01*
X146227440Y-27140000D01*
X146178157Y-26892235D01*
X146037809Y-26682191D01*
X145827765Y-26541843D01*
X145580000Y-26492560D01*
X143980000Y-26492560D01*
X143732235Y-26541843D01*
X143522191Y-26682191D01*
X143381843Y-26892235D01*
X143332560Y-27140000D01*
X134113751Y-27140000D01*
X135309752Y-25944000D01*
X148916249Y-25944000D01*
X150684474Y-27712226D01*
X150639167Y-27940000D01*
X150773202Y-28613842D01*
X151154903Y-29185097D01*
X151192173Y-29210000D01*
X151154903Y-29234903D01*
X150773202Y-29806158D01*
X150639167Y-30480000D01*
X150773202Y-31153842D01*
X151154903Y-31725097D01*
X151726158Y-32106798D01*
X152229909Y-32207000D01*
X152570091Y-32207000D01*
X152665425Y-32188037D01*
X152789529Y-32270961D01*
X153096390Y-32331999D01*
X153096394Y-32331999D01*
X153199998Y-32352607D01*
X153303602Y-32331999D01*
X167750248Y-32331999D01*
X175819000Y-40400752D01*
X175819000Y-40983522D01*
X176081920Y-41618267D01*
X176567733Y-42104080D01*
X177202478Y-42367000D01*
X177889522Y-42367000D01*
X178524267Y-42104080D01*
X179010080Y-41618267D01*
X179273000Y-40983522D01*
X179273000Y-40296478D01*
X179010080Y-39661733D01*
X178524267Y-39175920D01*
X177889522Y-38913000D01*
X177306752Y-38913000D01*
X171699502Y-33305750D01*
X194095000Y-33305750D01*
X194095000Y-33996310D01*
X194191673Y-34229699D01*
X194370302Y-34408327D01*
X194603691Y-34505000D01*
X195294250Y-34505000D01*
X195453000Y-34346250D01*
X195453000Y-33147000D01*
X195707000Y-33147000D01*
X195707000Y-34346250D01*
X195865750Y-34505000D01*
X196556309Y-34505000D01*
X196789698Y-34408327D01*
X196968327Y-34229699D01*
X197065000Y-33996310D01*
X197065000Y-33305750D01*
X196906250Y-33147000D01*
X195707000Y-33147000D01*
X195453000Y-33147000D01*
X194253750Y-33147000D01*
X194095000Y-33305750D01*
X171699502Y-33305750D01*
X169003141Y-30609390D01*
X168944448Y-30521550D01*
X168596469Y-30289037D01*
X168289608Y-30227999D01*
X168289604Y-30227999D01*
X168185999Y-30207391D01*
X168082394Y-30227999D01*
X154110707Y-30227999D01*
X154026798Y-29806158D01*
X153645097Y-29234903D01*
X153607827Y-29210000D01*
X153645097Y-29185097D01*
X154026798Y-28613842D01*
X154110707Y-28192001D01*
X191794745Y-28192001D01*
X191823390Y-28211141D01*
X193821952Y-30209704D01*
X193768187Y-30480000D01*
X193906103Y-31173351D01*
X194275613Y-31726361D01*
X194191673Y-31810301D01*
X194095000Y-32043690D01*
X194095000Y-32734250D01*
X194253750Y-32893000D01*
X195453000Y-32893000D01*
X195453000Y-32873000D01*
X195707000Y-32873000D01*
X195707000Y-32893000D01*
X196906250Y-32893000D01*
X197065000Y-32734250D01*
X197065000Y-32043690D01*
X196968327Y-31810301D01*
X196884387Y-31726361D01*
X197253897Y-31173351D01*
X197391813Y-30480000D01*
X197253897Y-29786649D01*
X196861145Y-29198855D01*
X196273351Y-28806103D01*
X195755017Y-28703000D01*
X195404983Y-28703000D01*
X195309704Y-28721952D01*
X194083183Y-27495431D01*
X200965000Y-27495431D01*
X200965000Y-28384569D01*
X201305259Y-29206026D01*
X201933974Y-29834741D01*
X202755431Y-30175000D01*
X203644569Y-30175000D01*
X204466026Y-29834741D01*
X205094741Y-29206026D01*
X205435000Y-28384569D01*
X205435000Y-27495431D01*
X205094741Y-26673974D01*
X204466026Y-26045259D01*
X203644569Y-25705000D01*
X202755431Y-25705000D01*
X201933974Y-26045259D01*
X201305259Y-26673974D01*
X200965000Y-27495431D01*
X194083183Y-27495431D01*
X193526598Y-26938847D01*
X193484963Y-26729531D01*
X193252450Y-26381552D01*
X192904471Y-26149039D01*
X192597610Y-26088001D01*
X192494001Y-26067392D01*
X192390392Y-26088001D01*
X153303602Y-26088001D01*
X153199998Y-26067393D01*
X153096394Y-26088001D01*
X153096390Y-26088001D01*
X152789529Y-26149039D01*
X152665425Y-26231963D01*
X152570091Y-26213000D01*
X152229909Y-26213000D01*
X152172226Y-26224474D01*
X150169142Y-24221391D01*
X150110449Y-24133551D01*
X149762470Y-23901038D01*
X149455609Y-23840000D01*
X149455605Y-23840000D01*
X149352000Y-23819392D01*
X149248395Y-23840000D01*
X134977603Y-23840000D01*
X134873999Y-23819392D01*
X134770395Y-23840000D01*
X134770391Y-23840000D01*
X134463530Y-23901038D01*
X134115551Y-24133551D01*
X134056860Y-24221388D01*
X132209388Y-26068861D01*
X132121551Y-26127552D01*
X132064456Y-26213000D01*
X131909909Y-26213000D01*
X131852226Y-26224474D01*
X130103142Y-24475391D01*
X130044449Y-24387551D01*
X129696470Y-24155038D01*
X129389609Y-24094000D01*
X129389605Y-24094000D01*
X129286000Y-24073392D01*
X129182395Y-24094000D01*
X113387609Y-24094000D01*
X113284000Y-24073391D01*
X113180391Y-24094000D01*
X112873530Y-24155038D01*
X112525551Y-24387551D01*
X112466862Y-24475385D01*
X110717774Y-26224474D01*
X110660091Y-26213000D01*
X110319909Y-26213000D01*
X109816158Y-26313202D01*
X109244903Y-26694903D01*
X108863202Y-27266158D01*
X108729167Y-27940000D01*
X108863202Y-28613842D01*
X109244903Y-29185097D01*
X109282173Y-29210000D01*
X109244903Y-29234903D01*
X108863202Y-29806158D01*
X108778216Y-30233414D01*
X106000331Y-27455530D01*
X105957929Y-27392071D01*
X105706537Y-27224096D01*
X105484852Y-27180000D01*
X105484847Y-27180000D01*
X105410000Y-27165112D01*
X105335153Y-27180000D01*
X104317440Y-27180000D01*
X104317440Y-27140000D01*
X104268157Y-26892235D01*
X104127809Y-26682191D01*
X103917765Y-26541843D01*
X103670000Y-26492560D01*
X102070000Y-26492560D01*
X101822235Y-26541843D01*
X101612191Y-26682191D01*
X101471843Y-26892235D01*
X101422560Y-27140000D01*
X52887776Y-27140000D01*
X52694741Y-26673974D01*
X52066026Y-26045259D01*
X51244569Y-25705000D01*
X50355431Y-25705000D01*
X49533974Y-26045259D01*
X48905259Y-26673974D01*
X48565000Y-27495431D01*
X46430000Y-27495431D01*
X46430000Y-23570000D01*
X207570000Y-23570000D01*
X207570001Y-111050000D01*
X207570001Y-111050000D01*
G37*
X207570001Y-111050000D02*
X46430000Y-111050000D01*
X46430000Y-106235431D01*
X48565000Y-106235431D01*
X48565000Y-107124569D01*
X48905259Y-107946026D01*
X49533974Y-108574741D01*
X50355431Y-108915000D01*
X51244569Y-108915000D01*
X52066026Y-108574741D01*
X52694741Y-107946026D01*
X53035000Y-107124569D01*
X53035000Y-106235431D01*
X52694741Y-105413974D01*
X52066026Y-104785259D01*
X51244569Y-104445000D01*
X50355431Y-104445000D01*
X49533974Y-104785259D01*
X48905259Y-105413974D01*
X48565000Y-106235431D01*
X46430000Y-106235431D01*
X46430000Y-63167784D01*
X61917600Y-63167784D01*
X61917600Y-64332216D01*
X62363209Y-65408012D01*
X63186588Y-66231391D01*
X64262384Y-66677000D01*
X65426816Y-66677000D01*
X66502612Y-66231391D01*
X67325991Y-65408012D01*
X67771600Y-64332216D01*
X67771600Y-63167784D01*
X67325991Y-62091988D01*
X66502612Y-61268609D01*
X65426816Y-60823000D01*
X64262384Y-60823000D01*
X63186588Y-61268609D01*
X62363209Y-62091988D01*
X61917600Y-63167784D01*
X46430000Y-63167784D01*
X46430000Y-45667784D01*
X61917600Y-45667784D01*
X61917600Y-46832216D01*
X62363209Y-47908012D01*
X63186588Y-48731391D01*
X64262384Y-49177000D01*
X65426816Y-49177000D01*
X66032830Y-48925981D01*
X70538001Y-53431154D01*
X70538002Y-61961391D01*
X70517393Y-62065001D01*
X70599039Y-62475470D01*
X70599040Y-62475471D01*
X70831553Y-62823450D01*
X70919389Y-62882140D01*
X71063000Y-63025752D01*
X71063000Y-63128957D01*
X71265024Y-63616685D01*
X71638315Y-63989976D01*
X72126043Y-64192000D01*
X72653957Y-64192000D01*
X72962600Y-64064155D01*
X72962601Y-68499439D01*
X72014600Y-68499439D01*
X71678200Y-68566353D01*
X71678200Y-67823584D01*
X71232591Y-66747788D01*
X70409212Y-65924409D01*
X69333416Y-65478800D01*
X68168984Y-65478800D01*
X67093188Y-65924409D01*
X66269809Y-66747788D01*
X65824200Y-67823584D01*
X65824200Y-68988016D01*
X66269809Y-70063812D01*
X67093188Y-70887191D01*
X67699201Y-71138210D01*
X67699200Y-93876391D01*
X67699200Y-95330597D01*
X67678592Y-95434202D01*
X67699200Y-95537807D01*
X67699200Y-95537810D01*
X67760238Y-95844671D01*
X67992751Y-96192651D01*
X68080591Y-96251344D01*
X70744859Y-98915613D01*
X70803550Y-99003450D01*
X71151529Y-99235963D01*
X71458390Y-99297001D01*
X71458393Y-99297001D01*
X71561998Y-99317609D01*
X71665603Y-99297001D01*
X75641394Y-99297001D01*
X75744999Y-99317609D01*
X75848604Y-99297001D01*
X75848608Y-99297001D01*
X76155469Y-99235963D01*
X76503448Y-99003450D01*
X76562141Y-98915610D01*
X77242226Y-98235526D01*
X77299909Y-98247000D01*
X77640091Y-98247000D01*
X78143842Y-98146798D01*
X78715097Y-97765097D01*
X78931150Y-97441751D01*
X79272577Y-97751041D01*
X79660961Y-97911904D01*
X79883000Y-97789915D01*
X79883000Y-96647000D01*
X79863000Y-96647000D01*
X79863000Y-96393000D01*
X79883000Y-96393000D01*
X79883000Y-95250085D01*
X79660961Y-95128096D01*
X79272577Y-95288959D01*
X78931150Y-95598249D01*
X78715097Y-95274903D01*
X78143842Y-94893202D01*
X77640091Y-94793000D01*
X77299909Y-94793000D01*
X76796158Y-94893202D01*
X76224903Y-95274903D01*
X76200000Y-95312173D01*
X76175097Y-95274903D01*
X75603842Y-94893202D01*
X75100091Y-94793000D01*
X74759909Y-94793000D01*
X74256158Y-94893202D01*
X73684903Y-95274903D01*
X73660000Y-95312173D01*
X73635097Y-95274903D01*
X73063842Y-94893202D01*
X72560091Y-94793000D01*
X72219909Y-94793000D01*
X72162226Y-94804474D01*
X71128200Y-93770449D01*
X71128200Y-90120099D01*
X71144903Y-90145097D01*
X71716158Y-90526798D01*
X72219909Y-90627000D01*
X72560091Y-90627000D01*
X73063842Y-90526798D01*
X73635097Y-90145097D01*
X73835593Y-89845035D01*
X73895423Y-89934577D01*
X74370091Y-90251740D01*
X74788667Y-90335000D01*
X75071333Y-90335000D01*
X75489909Y-90251740D01*
X75964577Y-89934577D01*
X76200000Y-89582242D01*
X76435423Y-89934577D01*
X76910091Y-90251740D01*
X77328667Y-90335000D01*
X77611333Y-90335000D01*
X78029909Y-90251740D01*
X78504577Y-89934577D01*
X78740000Y-89582242D01*
X78975423Y-89934577D01*
X79450091Y-90251740D01*
X79868667Y-90335000D01*
X80151333Y-90335000D01*
X80569909Y-90251740D01*
X81044577Y-89934577D01*
X81280000Y-89582242D01*
X81515423Y-89934577D01*
X81990091Y-90251740D01*
X82408667Y-90335000D01*
X82691333Y-90335000D01*
X83109909Y-90251740D01*
X83584577Y-89934577D01*
X83820000Y-89582242D01*
X84055423Y-89934577D01*
X84530091Y-90251740D01*
X84948667Y-90335000D01*
X85231333Y-90335000D01*
X85649909Y-90251740D01*
X86124577Y-89934577D01*
X86184407Y-89845035D01*
X86384903Y-90145097D01*
X86956158Y-90526798D01*
X87459909Y-90627000D01*
X87800091Y-90627000D01*
X88303842Y-90526798D01*
X88652080Y-90294113D01*
X88701670Y-90368330D01*
X89008303Y-90573215D01*
X89370000Y-90645161D01*
X90970000Y-90645161D01*
X91331697Y-90573215D01*
X91638330Y-90368330D01*
X91843215Y-90061697D01*
X91915161Y-89700000D01*
X91915161Y-88100000D01*
X91843215Y-87738303D01*
X91638330Y-87431670D01*
X91331697Y-87226785D01*
X91222000Y-87204965D01*
X91222000Y-83620751D01*
X93851153Y-80991599D01*
X97976792Y-80991599D01*
X98080401Y-81012208D01*
X98182099Y-80991979D01*
X98182099Y-82915438D01*
X97906685Y-82640024D01*
X97418957Y-82438000D01*
X96891043Y-82438000D01*
X96403315Y-82640024D01*
X96030024Y-83013315D01*
X95828000Y-83501043D01*
X95828000Y-84028957D01*
X96030024Y-84516685D01*
X96103001Y-84589662D01*
X96103000Y-89099247D01*
X95684231Y-89518016D01*
X95667000Y-89431391D01*
X95667000Y-83264661D01*
X95739976Y-83191685D01*
X95942000Y-82703957D01*
X95942000Y-82176043D01*
X95739976Y-81688315D01*
X95366685Y-81315024D01*
X94878957Y-81113000D01*
X94351043Y-81113000D01*
X93863315Y-81315024D01*
X93490024Y-81688315D01*
X93288000Y-82176043D01*
X93288000Y-82703957D01*
X93490024Y-83191685D01*
X93563001Y-83264662D01*
X93563000Y-89099247D01*
X87857775Y-94804474D01*
X87800091Y-94793000D01*
X87459909Y-94793000D01*
X86956158Y-94893202D01*
X86384903Y-95274903D01*
X86360000Y-95312173D01*
X86335097Y-95274903D01*
X85763842Y-94893202D01*
X85260091Y-94793000D01*
X84919909Y-94793000D01*
X84416158Y-94893202D01*
X83844903Y-95274903D01*
X83820000Y-95312173D01*
X83795097Y-95274903D01*
X83223842Y-94893202D01*
X82720091Y-94793000D01*
X82379909Y-94793000D01*
X81876158Y-94893202D01*
X81304903Y-95274903D01*
X81088850Y-95598249D01*
X80747423Y-95288959D01*
X80359039Y-95128096D01*
X80137000Y-95250085D01*
X80137000Y-96393000D01*
X80157000Y-96393000D01*
X80157000Y-96647000D01*
X80137000Y-96647000D01*
X80137000Y-97789915D01*
X80359039Y-97911904D01*
X80747423Y-97751041D01*
X81088850Y-97441751D01*
X81304903Y-97765097D01*
X81876158Y-98146798D01*
X82379909Y-98247000D01*
X82720091Y-98247000D01*
X83223842Y-98146798D01*
X83795097Y-97765097D01*
X83820000Y-97727827D01*
X83844903Y-97765097D01*
X84416158Y-98146798D01*
X84919909Y-98247000D01*
X85260091Y-98247000D01*
X85317774Y-98235526D01*
X85997860Y-98915612D01*
X86056552Y-99003450D01*
X86296246Y-99163609D01*
X86404531Y-99235963D01*
X86815001Y-99317610D01*
X86918610Y-99297001D01*
X90894396Y-99297001D01*
X90998001Y-99317609D01*
X91101606Y-99297001D01*
X91101610Y-99297001D01*
X91408471Y-99235963D01*
X91756450Y-99003450D01*
X91815143Y-98915610D01*
X92845957Y-97884796D01*
X92855024Y-97906685D01*
X93228315Y-98279976D01*
X93716043Y-98482000D01*
X94243957Y-98482000D01*
X94731685Y-98279976D01*
X94804661Y-98207000D01*
X95781395Y-98207000D01*
X95786917Y-98208098D01*
X95786917Y-98297791D01*
X95944486Y-98678197D01*
X96235637Y-98969348D01*
X96616043Y-99126917D01*
X96782116Y-99126917D01*
X98077476Y-100422278D01*
X97965720Y-100468569D01*
X97674569Y-100759720D01*
X97517000Y-101140126D01*
X97517000Y-101551874D01*
X97674569Y-101932280D01*
X97965720Y-102223431D01*
X98346126Y-102381000D01*
X98757874Y-102381000D01*
X99138280Y-102223431D01*
X99255711Y-102106000D01*
X107211199Y-102106000D01*
X110467296Y-105362098D01*
X110452191Y-105372191D01*
X110311843Y-105582235D01*
X110302816Y-105627619D01*
X110290625Y-105609375D01*
X109799418Y-105281161D01*
X109366256Y-105195000D01*
X109073744Y-105195000D01*
X108640582Y-105281161D01*
X108149375Y-105609375D01*
X107950000Y-105907761D01*
X107750625Y-105609375D01*
X107259418Y-105281161D01*
X106826256Y-105195000D01*
X106533744Y-105195000D01*
X106100582Y-105281161D01*
X105609375Y-105609375D01*
X105410000Y-105907761D01*
X105210625Y-105609375D01*
X104719418Y-105281161D01*
X104286256Y-105195000D01*
X103993744Y-105195000D01*
X103560582Y-105281161D01*
X103069375Y-105609375D01*
X102870000Y-105907761D01*
X102670625Y-105609375D01*
X102179418Y-105281161D01*
X101746256Y-105195000D01*
X101453744Y-105195000D01*
X101020582Y-105281161D01*
X100529375Y-105609375D01*
X100330000Y-105907761D01*
X100130625Y-105609375D01*
X99639418Y-105281161D01*
X99206256Y-105195000D01*
X98913744Y-105195000D01*
X98480582Y-105281161D01*
X97989375Y-105609375D01*
X97790000Y-105907761D01*
X97590625Y-105609375D01*
X97099418Y-105281161D01*
X96666256Y-105195000D01*
X96373744Y-105195000D01*
X95940582Y-105281161D01*
X95449375Y-105609375D01*
X95121161Y-106100582D01*
X95005908Y-106680000D01*
X95121161Y-107259418D01*
X95449375Y-107750625D01*
X95940582Y-108078839D01*
X96373744Y-108165000D01*
X96666256Y-108165000D01*
X97099418Y-108078839D01*
X97590625Y-107750625D01*
X97790000Y-107452239D01*
X97989375Y-107750625D01*
X98480582Y-108078839D01*
X98913744Y-108165000D01*
X99206256Y-108165000D01*
X99639418Y-108078839D01*
X100130625Y-107750625D01*
X100330000Y-107452239D01*
X100529375Y-107750625D01*
X101020582Y-108078839D01*
X101453744Y-108165000D01*
X101746256Y-108165000D01*
X102179418Y-108078839D01*
X102670625Y-107750625D01*
X102870000Y-107452239D01*
X103069375Y-107750625D01*
X103560582Y-108078839D01*
X103993744Y-108165000D01*
X104286256Y-108165000D01*
X104719418Y-108078839D01*
X105210625Y-107750625D01*
X105410000Y-107452239D01*
X105609375Y-107750625D01*
X106100582Y-108078839D01*
X106533744Y-108165000D01*
X106826256Y-108165000D01*
X107259418Y-108078839D01*
X107750625Y-107750625D01*
X107950000Y-107452239D01*
X108149375Y-107750625D01*
X108640582Y-108078839D01*
X109073744Y-108165000D01*
X109366256Y-108165000D01*
X109799418Y-108078839D01*
X110290625Y-107750625D01*
X110302816Y-107732381D01*
X110311843Y-107777765D01*
X110452191Y-107987809D01*
X110662235Y-108128157D01*
X110910000Y-108177440D01*
X112610000Y-108177440D01*
X112857765Y-108128157D01*
X113067809Y-107987809D01*
X113208157Y-107777765D01*
X113257440Y-107530000D01*
X113257440Y-105830000D01*
X113208157Y-105582235D01*
X113067809Y-105372191D01*
X112857765Y-105231843D01*
X112610000Y-105182560D01*
X112408483Y-105182560D01*
X112307929Y-105032071D01*
X112244473Y-104989671D01*
X108344801Y-101090000D01*
X130735153Y-101090000D01*
X130810000Y-101104888D01*
X130884847Y-101090000D01*
X130884852Y-101090000D01*
X131106537Y-101045904D01*
X131357929Y-100877929D01*
X131400331Y-100814470D01*
X133940329Y-98274474D01*
X133940333Y-98274468D01*
X134296113Y-97918688D01*
X134478667Y-97955000D01*
X134761333Y-97955000D01*
X135179909Y-97871740D01*
X135654577Y-97554577D01*
X135838043Y-97280000D01*
X135941957Y-97280000D01*
X136125423Y-97554577D01*
X136600091Y-97871740D01*
X137018667Y-97955000D01*
X137301333Y-97955000D01*
X137719909Y-97871740D01*
X138194577Y-97554577D01*
X138378043Y-97280000D01*
X139385199Y-97280000D01*
X148418791Y-106313593D01*
X148345908Y-106680000D01*
X148461161Y-107259418D01*
X148789375Y-107750625D01*
X149280582Y-108078839D01*
X149713744Y-108165000D01*
X150006256Y-108165000D01*
X150439418Y-108078839D01*
X150930625Y-107750625D01*
X150945096Y-107728967D01*
X151011673Y-107889698D01*
X151190301Y-108068327D01*
X151423690Y-108165000D01*
X152114250Y-108165000D01*
X152273000Y-108006250D01*
X152273000Y-106807000D01*
X152527000Y-106807000D01*
X152527000Y-108006250D01*
X152685750Y-108165000D01*
X153376310Y-108165000D01*
X153609699Y-108068327D01*
X153788327Y-107889698D01*
X153885000Y-107656309D01*
X153885000Y-106965750D01*
X153726250Y-106807000D01*
X152527000Y-106807000D01*
X152273000Y-106807000D01*
X152253000Y-106807000D01*
X152253000Y-106553000D01*
X152273000Y-106553000D01*
X152273000Y-105353750D01*
X152527000Y-105353750D01*
X152527000Y-106553000D01*
X153726250Y-106553000D01*
X153885000Y-106394250D01*
X153885000Y-106235431D01*
X200965000Y-106235431D01*
X200965000Y-107124569D01*
X201305259Y-107946026D01*
X201933974Y-108574741D01*
X202755431Y-108915000D01*
X203644569Y-108915000D01*
X204466026Y-108574741D01*
X205094741Y-107946026D01*
X205435000Y-107124569D01*
X205435000Y-106235431D01*
X205094741Y-105413974D01*
X204466026Y-104785259D01*
X203644569Y-104445000D01*
X202755431Y-104445000D01*
X201933974Y-104785259D01*
X201305259Y-105413974D01*
X200965000Y-106235431D01*
X153885000Y-106235431D01*
X153885000Y-105703691D01*
X153788327Y-105470302D01*
X153609699Y-105291673D01*
X153376310Y-105195000D01*
X152685750Y-105195000D01*
X152527000Y-105353750D01*
X152273000Y-105353750D01*
X152114250Y-105195000D01*
X151423690Y-105195000D01*
X151190301Y-105291673D01*
X151011673Y-105470302D01*
X150945096Y-105631033D01*
X150930625Y-105609375D01*
X150439418Y-105281161D01*
X150006256Y-105195000D01*
X149713744Y-105195000D01*
X149493593Y-105238791D01*
X140290331Y-96035530D01*
X140247929Y-95972071D01*
X139996537Y-95804096D01*
X139774852Y-95760000D01*
X139774847Y-95760000D01*
X139700000Y-95745112D01*
X139625153Y-95760000D01*
X138378043Y-95760000D01*
X138218129Y-95520672D01*
X146597802Y-87141000D01*
X146763874Y-87141000D01*
X146903001Y-87083372D01*
X146903000Y-98235339D01*
X146830024Y-98308315D01*
X146628000Y-98796043D01*
X146628000Y-99323957D01*
X146830024Y-99811685D01*
X147203315Y-100184976D01*
X147691043Y-100387000D01*
X148218957Y-100387000D01*
X148706685Y-100184976D01*
X149079976Y-99811685D01*
X149282000Y-99323957D01*
X149282000Y-98796043D01*
X149079976Y-98308315D01*
X149007000Y-98235339D01*
X149007000Y-95179753D01*
X159108859Y-105281613D01*
X159167550Y-105369450D01*
X159515529Y-105601963D01*
X159822390Y-105663001D01*
X159822394Y-105663001D01*
X159925998Y-105683609D01*
X160029602Y-105663001D01*
X172145394Y-105663001D01*
X172248999Y-105683609D01*
X172352604Y-105663001D01*
X172352608Y-105663001D01*
X172659469Y-105601963D01*
X173007448Y-105369450D01*
X173066141Y-105281610D01*
X180112226Y-98235526D01*
X180169909Y-98247000D01*
X180510091Y-98247000D01*
X181013842Y-98146798D01*
X181585097Y-97765097D01*
X181966798Y-97193842D01*
X182100833Y-96520000D01*
X181966798Y-95846158D01*
X181585097Y-95274903D01*
X181013842Y-94893202D01*
X180510091Y-94793000D01*
X180169909Y-94793000D01*
X179666158Y-94893202D01*
X179094903Y-95274903D01*
X179070000Y-95312173D01*
X179045097Y-95274903D01*
X178848927Y-95143826D01*
X191663138Y-82329616D01*
X191750975Y-82270925D01*
X191983488Y-81922946D01*
X192044526Y-81616085D01*
X192044526Y-81616081D01*
X192065134Y-81512477D01*
X192044526Y-81408873D01*
X192044526Y-80057857D01*
X192117502Y-79984881D01*
X192319526Y-79497153D01*
X192319526Y-78969239D01*
X192134273Y-78522000D01*
X194841395Y-78522000D01*
X194945000Y-78542608D01*
X195048605Y-78522000D01*
X195048609Y-78522000D01*
X195355470Y-78460962D01*
X195703449Y-78228449D01*
X195762142Y-78140609D01*
X197520615Y-76382138D01*
X197608449Y-76323449D01*
X197690936Y-76200000D01*
X197840962Y-75975470D01*
X197892667Y-75715528D01*
X197902000Y-75668609D01*
X197902000Y-75668605D01*
X197922608Y-75565000D01*
X197902000Y-75461395D01*
X197902000Y-49719203D01*
X197922608Y-49615598D01*
X197902000Y-49511993D01*
X197902000Y-49511989D01*
X197840962Y-49205128D01*
X197608449Y-48857149D01*
X197520615Y-48798460D01*
X189645744Y-40923591D01*
X189587051Y-40835751D01*
X189239072Y-40603238D01*
X188932211Y-40542200D01*
X188932207Y-40542200D01*
X188828602Y-40521592D01*
X188724997Y-40542200D01*
X187981209Y-40542200D01*
X187730191Y-39936188D01*
X186906812Y-39112809D01*
X185831016Y-38667200D01*
X184666584Y-38667200D01*
X183590788Y-39112809D01*
X182767409Y-39936188D01*
X182321800Y-41011984D01*
X182321800Y-42176416D01*
X182767409Y-43252212D01*
X183590788Y-44075591D01*
X184666584Y-44521200D01*
X185831016Y-44521200D01*
X186906812Y-44075591D01*
X187730191Y-43252212D01*
X187981209Y-42646200D01*
X188392851Y-42646200D01*
X189069651Y-43323000D01*
X188573184Y-43323000D01*
X187497388Y-43768609D01*
X186674009Y-44591988D01*
X186228400Y-45667784D01*
X186228400Y-46832216D01*
X186479419Y-47438229D01*
X177129389Y-56788260D01*
X177041552Y-56846951D01*
X176908290Y-57046391D01*
X176809038Y-57194931D01*
X176727392Y-57605400D01*
X176748001Y-57709010D01*
X176748000Y-87525879D01*
X176554903Y-87654903D01*
X176354407Y-87954965D01*
X176294577Y-87865423D01*
X175819909Y-87548260D01*
X175401333Y-87465000D01*
X175118667Y-87465000D01*
X174700091Y-87548260D01*
X174225423Y-87865423D01*
X173990000Y-88217758D01*
X173754577Y-87865423D01*
X173279909Y-87548260D01*
X172861333Y-87465000D01*
X172578667Y-87465000D01*
X172160091Y-87548260D01*
X171685423Y-87865423D01*
X171450000Y-88217758D01*
X171214577Y-87865423D01*
X170739909Y-87548260D01*
X170321333Y-87465000D01*
X170038667Y-87465000D01*
X169620091Y-87548260D01*
X169145423Y-87865423D01*
X168910000Y-88217758D01*
X168674577Y-87865423D01*
X168199909Y-87548260D01*
X167781333Y-87465000D01*
X167498667Y-87465000D01*
X167080091Y-87548260D01*
X166605423Y-87865423D01*
X166370000Y-88217758D01*
X166134577Y-87865423D01*
X165659909Y-87548260D01*
X165241333Y-87465000D01*
X164958667Y-87465000D01*
X164540091Y-87548260D01*
X164065423Y-87865423D01*
X164005593Y-87954965D01*
X163805097Y-87654903D01*
X163233842Y-87273202D01*
X162730091Y-87173000D01*
X162389909Y-87173000D01*
X161886158Y-87273202D01*
X161314903Y-87654903D01*
X160933202Y-88226158D01*
X160799167Y-88900000D01*
X160933202Y-89573842D01*
X161314903Y-90145097D01*
X161886158Y-90526798D01*
X162313414Y-90611784D01*
X159959199Y-92966000D01*
X153103711Y-92966000D01*
X152986280Y-92848569D01*
X152605874Y-92691000D01*
X152194126Y-92691000D01*
X151813720Y-92848569D01*
X151522569Y-93139720D01*
X151365000Y-93520126D01*
X151365000Y-93931874D01*
X151522569Y-94312280D01*
X151813720Y-94603431D01*
X152194126Y-94761000D01*
X152605874Y-94761000D01*
X152986280Y-94603431D01*
X153103711Y-94486000D01*
X156534197Y-94486000D01*
X154900199Y-96120000D01*
X154734126Y-96120000D01*
X154353720Y-96277569D01*
X154062569Y-96568720D01*
X153905000Y-96949126D01*
X153905000Y-97102251D01*
X150440999Y-93638250D01*
X150440999Y-85900126D01*
X151111000Y-85900126D01*
X151111000Y-86311874D01*
X151268569Y-86692280D01*
X151559720Y-86983431D01*
X151940126Y-87141000D01*
X152351874Y-87141000D01*
X152732280Y-86983431D01*
X152849711Y-86866000D01*
X162618289Y-86866000D01*
X162735720Y-86983431D01*
X163116126Y-87141000D01*
X163527874Y-87141000D01*
X163908280Y-86983431D01*
X164199431Y-86692280D01*
X164357000Y-86311874D01*
X164357000Y-85900126D01*
X164199431Y-85519720D01*
X163908280Y-85228569D01*
X163527874Y-85071000D01*
X163116126Y-85071000D01*
X162735720Y-85228569D01*
X162618289Y-85346000D01*
X152849711Y-85346000D01*
X152732280Y-85228569D01*
X152351874Y-85071000D01*
X151940126Y-85071000D01*
X151559720Y-85228569D01*
X151268569Y-85519720D01*
X151111000Y-85900126D01*
X150440999Y-85900126D01*
X150440999Y-82921043D01*
X156788000Y-82921043D01*
X156788000Y-83448957D01*
X156990024Y-83936685D01*
X157363315Y-84309976D01*
X157851043Y-84512000D01*
X158378957Y-84512000D01*
X158866685Y-84309976D01*
X159239976Y-83936685D01*
X159442000Y-83448957D01*
X159442000Y-82921043D01*
X159239976Y-82433315D01*
X159167000Y-82360339D01*
X159167000Y-73477751D01*
X161562971Y-71081781D01*
X162168984Y-71332800D01*
X163333416Y-71332800D01*
X164409212Y-70887191D01*
X165069439Y-70226964D01*
X165069439Y-73444600D01*
X165141385Y-73806297D01*
X165346270Y-74112930D01*
X165652903Y-74317815D01*
X166014600Y-74389761D01*
X170014600Y-74389761D01*
X170376297Y-74317815D01*
X170682930Y-74112930D01*
X170887815Y-73806297D01*
X170959761Y-73444600D01*
X170959761Y-69444600D01*
X170887815Y-69082903D01*
X170682930Y-68776270D01*
X170376297Y-68571385D01*
X170014600Y-68499439D01*
X166014600Y-68499439D01*
X165678200Y-68566353D01*
X165678200Y-67823584D01*
X165232591Y-66747788D01*
X164409212Y-65924409D01*
X163333416Y-65478800D01*
X162168984Y-65478800D01*
X161093188Y-65924409D01*
X160269809Y-66747788D01*
X159824200Y-67823584D01*
X159824200Y-68988016D01*
X160075219Y-69594029D01*
X157444389Y-72224860D01*
X157356552Y-72283551D01*
X157297862Y-72371387D01*
X157124038Y-72631531D01*
X157042392Y-73042000D01*
X157063001Y-73145610D01*
X157063000Y-82360339D01*
X156990024Y-82433315D01*
X156788000Y-82921043D01*
X150440999Y-82921043D01*
X150440999Y-73641352D01*
X157656371Y-66425981D01*
X158262384Y-66677000D01*
X159426816Y-66677000D01*
X160502612Y-66231391D01*
X161325991Y-65408012D01*
X161771600Y-64332216D01*
X161771600Y-63167784D01*
X161325991Y-62091988D01*
X160502612Y-61268609D01*
X159426816Y-60823000D01*
X158262384Y-60823000D01*
X157186588Y-61268609D01*
X156363209Y-62091988D01*
X155917600Y-63167784D01*
X155917600Y-64332216D01*
X156168619Y-64938229D01*
X148718388Y-72388461D01*
X148630551Y-72447152D01*
X148482291Y-72669038D01*
X148398037Y-72795132D01*
X148316391Y-73205601D01*
X148337000Y-73309211D01*
X148337000Y-81906895D01*
X148218957Y-81858000D01*
X147691043Y-81858000D01*
X147203315Y-82060024D01*
X146830024Y-82433315D01*
X146628000Y-82921043D01*
X146628000Y-83448957D01*
X146830024Y-83936685D01*
X146903001Y-84009662D01*
X146903001Y-85128628D01*
X146763874Y-85071000D01*
X146352126Y-85071000D01*
X145971720Y-85228569D01*
X145680569Y-85519720D01*
X145523000Y-85900126D01*
X145523000Y-86066198D01*
X136675530Y-94913669D01*
X136612071Y-94956071D01*
X136444096Y-95207464D01*
X136429178Y-95282460D01*
X136125423Y-95485423D01*
X135941957Y-95760000D01*
X135838043Y-95760000D01*
X135654577Y-95485423D01*
X135179909Y-95168260D01*
X134761333Y-95085000D01*
X134478667Y-95085000D01*
X134060091Y-95168260D01*
X133585423Y-95485423D01*
X133350000Y-95837758D01*
X133114577Y-95485423D01*
X132639909Y-95168260D01*
X132221333Y-95085000D01*
X132049801Y-95085000D01*
X136787362Y-90347440D01*
X137960000Y-90347440D01*
X138207765Y-90298157D01*
X138417809Y-90157809D01*
X138558157Y-89947765D01*
X138607440Y-89700000D01*
X138607440Y-88100000D01*
X138558157Y-87852235D01*
X138417809Y-87642191D01*
X138207765Y-87501843D01*
X137960000Y-87452560D01*
X136360000Y-87452560D01*
X136112235Y-87501843D01*
X135902191Y-87642191D01*
X135761843Y-87852235D01*
X135735215Y-87986106D01*
X135654577Y-87865423D01*
X135179909Y-87548260D01*
X134761333Y-87465000D01*
X134478667Y-87465000D01*
X134060091Y-87548260D01*
X133585423Y-87865423D01*
X133350000Y-88217758D01*
X133114577Y-87865423D01*
X132639909Y-87548260D01*
X132221333Y-87465000D01*
X131938667Y-87465000D01*
X131520091Y-87548260D01*
X131045423Y-87865423D01*
X130810000Y-88217758D01*
X130574577Y-87865423D01*
X130099909Y-87548260D01*
X129681333Y-87465000D01*
X129398667Y-87465000D01*
X128980091Y-87548260D01*
X128505423Y-87865423D01*
X128270000Y-88217758D01*
X128034577Y-87865423D01*
X127559909Y-87548260D01*
X127141333Y-87465000D01*
X126858667Y-87465000D01*
X126676114Y-87501312D01*
X125050331Y-85875530D01*
X125007929Y-85812071D01*
X124756537Y-85644096D01*
X124534852Y-85600000D01*
X124534847Y-85600000D01*
X124460000Y-85585112D01*
X124385153Y-85600000D01*
X121353711Y-85600000D01*
X121236280Y-85482569D01*
X120855874Y-85325000D01*
X120444126Y-85325000D01*
X120063720Y-85482569D01*
X119772569Y-85773720D01*
X119615000Y-86154126D01*
X119615000Y-86565874D01*
X119772569Y-86946280D01*
X120063720Y-87237431D01*
X120444126Y-87395000D01*
X120855874Y-87395000D01*
X121236280Y-87237431D01*
X121353711Y-87120000D01*
X124145199Y-87120000D01*
X124490199Y-87465000D01*
X124318667Y-87465000D01*
X123900091Y-87548260D01*
X123425423Y-87865423D01*
X123190000Y-88217758D01*
X122954577Y-87865423D01*
X122479909Y-87548260D01*
X122061333Y-87465000D01*
X121778667Y-87465000D01*
X121360091Y-87548260D01*
X120885423Y-87865423D01*
X120629053Y-88249108D01*
X120532389Y-88044866D01*
X120117423Y-87668959D01*
X119729039Y-87508096D01*
X119507000Y-87630085D01*
X119507000Y-88773000D01*
X119527000Y-88773000D01*
X119527000Y-89027000D01*
X119507000Y-89027000D01*
X119507000Y-90169915D01*
X119729039Y-90291904D01*
X120117423Y-90131041D01*
X120532389Y-89755134D01*
X120629053Y-89550892D01*
X120885423Y-89934577D01*
X121360091Y-90251740D01*
X121778667Y-90335000D01*
X122061333Y-90335000D01*
X122479909Y-90251740D01*
X122954577Y-89934577D01*
X123190000Y-89582242D01*
X123425423Y-89934577D01*
X123900091Y-90251740D01*
X124318667Y-90335000D01*
X124601333Y-90335000D01*
X125019909Y-90251740D01*
X125494577Y-89934577D01*
X125730000Y-89582242D01*
X125965423Y-89934577D01*
X126440091Y-90251740D01*
X126858667Y-90335000D01*
X127030199Y-90335000D01*
X126685199Y-90680000D01*
X117543711Y-90680000D01*
X117426280Y-90562569D01*
X117045874Y-90405000D01*
X116634126Y-90405000D01*
X116253720Y-90562569D01*
X115962569Y-90853720D01*
X115805000Y-91234126D01*
X115805000Y-91645874D01*
X115962569Y-92026280D01*
X116253720Y-92317431D01*
X116634126Y-92475000D01*
X117045874Y-92475000D01*
X117426280Y-92317431D01*
X117543711Y-92200000D01*
X126925153Y-92200000D01*
X127000000Y-92214888D01*
X127074847Y-92200000D01*
X127074852Y-92200000D01*
X127296537Y-92155904D01*
X127547929Y-91987929D01*
X127590331Y-91924470D01*
X129216114Y-90298688D01*
X129398667Y-90335000D01*
X129681333Y-90335000D01*
X130099909Y-90251740D01*
X130574577Y-89934577D01*
X130810000Y-89582242D01*
X131045423Y-89934577D01*
X131520091Y-90251740D01*
X131938667Y-90335000D01*
X132110198Y-90335000D01*
X127640531Y-94804668D01*
X127577072Y-94847070D01*
X127409097Y-95098463D01*
X127401482Y-95136747D01*
X127141333Y-95085000D01*
X126858667Y-95085000D01*
X126440091Y-95168260D01*
X125965423Y-95485423D01*
X125730000Y-95837758D01*
X125494577Y-95485423D01*
X125019909Y-95168260D01*
X124601333Y-95085000D01*
X124318667Y-95085000D01*
X123900091Y-95168260D01*
X123425423Y-95485423D01*
X123190000Y-95837758D01*
X122954577Y-95485423D01*
X122479909Y-95168260D01*
X122061333Y-95085000D01*
X121778667Y-95085000D01*
X121360091Y-95168260D01*
X120885423Y-95485423D01*
X120650000Y-95837758D01*
X120414577Y-95485423D01*
X119939909Y-95168260D01*
X119521333Y-95085000D01*
X119238667Y-95085000D01*
X118820091Y-95168260D01*
X118345423Y-95485423D01*
X118028260Y-95960091D01*
X117916887Y-96520000D01*
X118028260Y-97079909D01*
X118164629Y-97284000D01*
X106367711Y-97284000D01*
X106250280Y-97166569D01*
X105869874Y-97009000D01*
X105458126Y-97009000D01*
X105077720Y-97166569D01*
X104786569Y-97457720D01*
X104629000Y-97838126D01*
X104629000Y-98249874D01*
X104786569Y-98630280D01*
X105077720Y-98921431D01*
X105458126Y-99079000D01*
X105869874Y-99079000D01*
X106250280Y-98921431D01*
X106367711Y-98804000D01*
X120321153Y-98804000D01*
X120396000Y-98818888D01*
X120470847Y-98804000D01*
X120470852Y-98804000D01*
X120692537Y-98759904D01*
X120943929Y-98591929D01*
X120986331Y-98528470D01*
X121596114Y-97918688D01*
X121778667Y-97955000D01*
X122061333Y-97955000D01*
X122479909Y-97871740D01*
X122954577Y-97554577D01*
X123190000Y-97202242D01*
X123425423Y-97554577D01*
X123900091Y-97871740D01*
X124318667Y-97955000D01*
X124601333Y-97955000D01*
X124765310Y-97922383D01*
X124695000Y-98092126D01*
X124695000Y-98503874D01*
X124852569Y-98884280D01*
X125143720Y-99175431D01*
X125524126Y-99333000D01*
X125935874Y-99333000D01*
X126316280Y-99175431D01*
X126433711Y-99058000D01*
X126812155Y-99058000D01*
X126887002Y-99072888D01*
X126961849Y-99058000D01*
X126961854Y-99058000D01*
X127183539Y-99013904D01*
X127434931Y-98845929D01*
X127477333Y-98782470D01*
X128609474Y-97650330D01*
X128629101Y-97637216D01*
X128980091Y-97871740D01*
X129398667Y-97955000D01*
X129681333Y-97955000D01*
X129845310Y-97922383D01*
X129775000Y-98092126D01*
X129775000Y-98503874D01*
X129932569Y-98884280D01*
X130223720Y-99175431D01*
X130604126Y-99333000D01*
X130732199Y-99333000D01*
X130495199Y-99570000D01*
X99560916Y-99570000D01*
X99900280Y-99429431D01*
X100191431Y-99138280D01*
X100349000Y-98757874D01*
X100349000Y-98591801D01*
X106428001Y-92512802D01*
X106428001Y-92815316D01*
X106347720Y-92848569D01*
X106056569Y-93139720D01*
X105899000Y-93520126D01*
X105899000Y-93931874D01*
X106056569Y-94312280D01*
X106299744Y-94555455D01*
X106132199Y-94723000D01*
X105966126Y-94723000D01*
X105585720Y-94880569D01*
X105294569Y-95171720D01*
X105137000Y-95552126D01*
X105137000Y-95963874D01*
X105294569Y-96344280D01*
X105585720Y-96635431D01*
X105966126Y-96793000D01*
X106377874Y-96793000D01*
X106758280Y-96635431D01*
X107049431Y-96344280D01*
X107207000Y-95963874D01*
X107207000Y-95797801D01*
X113755760Y-89249041D01*
X117988086Y-89249041D01*
X118227611Y-89755134D01*
X118642577Y-90131041D01*
X119030961Y-90291904D01*
X119253000Y-90169915D01*
X119253000Y-89027000D01*
X118109371Y-89027000D01*
X117988086Y-89249041D01*
X113755760Y-89249041D01*
X114453842Y-88550959D01*
X117988086Y-88550959D01*
X118109371Y-88773000D01*
X119253000Y-88773000D01*
X119253000Y-87630085D01*
X119030961Y-87508096D01*
X118642577Y-87668959D01*
X118227611Y-88044866D01*
X117988086Y-88550959D01*
X114453842Y-88550959D01*
X125406114Y-77598688D01*
X125588667Y-77635000D01*
X125871333Y-77635000D01*
X126289909Y-77551740D01*
X126764577Y-77234577D01*
X127081740Y-76759909D01*
X127193113Y-76200000D01*
X127136336Y-75914561D01*
X129375000Y-75914561D01*
X129375000Y-76485439D01*
X129593466Y-77012862D01*
X129997138Y-77416534D01*
X130524561Y-77635000D01*
X131095439Y-77635000D01*
X131622862Y-77416534D01*
X132026534Y-77012862D01*
X132245000Y-76485439D01*
X132245000Y-76200000D01*
X139506887Y-76200000D01*
X139618260Y-76759909D01*
X139935423Y-77234577D01*
X140410091Y-77551740D01*
X140828667Y-77635000D01*
X141111333Y-77635000D01*
X141529909Y-77551740D01*
X142004577Y-77234577D01*
X142321740Y-76759909D01*
X142433113Y-76200000D01*
X142321740Y-75640091D01*
X142004577Y-75165423D01*
X141529909Y-74848260D01*
X141111333Y-74765000D01*
X140828667Y-74765000D01*
X140410091Y-74848260D01*
X139935423Y-75165423D01*
X139618260Y-75640091D01*
X139506887Y-76200000D01*
X132245000Y-76200000D01*
X132245000Y-75914561D01*
X132223103Y-75861698D01*
X135104473Y-72980329D01*
X135167929Y-72937929D01*
X135263344Y-72795131D01*
X135335904Y-72686538D01*
X135355625Y-72587391D01*
X135380000Y-72464852D01*
X135380000Y-72464848D01*
X135394888Y-72390000D01*
X135380000Y-72315152D01*
X135380000Y-69859347D01*
X135437392Y-69897695D01*
X135890000Y-69987725D01*
X136342609Y-69897695D01*
X136726313Y-69641313D01*
X136982695Y-69257608D01*
X137050000Y-68919245D01*
X137050000Y-68240754D01*
X136982695Y-67902391D01*
X136726313Y-67518687D01*
X136342608Y-67262305D01*
X135890000Y-67172275D01*
X135437391Y-67262305D01*
X135255000Y-67384175D01*
X135072608Y-67262305D01*
X134620000Y-67172275D01*
X134167391Y-67262305D01*
X134166016Y-67263224D01*
X134001309Y-67195000D01*
X133635750Y-67195000D01*
X133477000Y-67353750D01*
X133477000Y-68155291D01*
X133460000Y-68240755D01*
X133460000Y-68919246D01*
X133477000Y-69004710D01*
X133477000Y-69806250D01*
X133635750Y-69965000D01*
X133860001Y-69965000D01*
X133860000Y-72075198D01*
X131148302Y-74786897D01*
X131095439Y-74765000D01*
X130524561Y-74765000D01*
X129997138Y-74983466D01*
X129593466Y-75387138D01*
X129375000Y-75914561D01*
X127136336Y-75914561D01*
X127081740Y-75640091D01*
X126764577Y-75165423D01*
X126289909Y-74848260D01*
X125871333Y-74765000D01*
X125588667Y-74765000D01*
X125170091Y-74848260D01*
X124695423Y-75165423D01*
X124378260Y-75640091D01*
X124266887Y-76200000D01*
X124331312Y-76523886D01*
X107948000Y-92907199D01*
X107948000Y-84015711D01*
X108065431Y-83898280D01*
X108223000Y-83517874D01*
X108223000Y-83106126D01*
X108065431Y-82725720D01*
X107774280Y-82434569D01*
X107393874Y-82277000D01*
X107222999Y-82277000D01*
X107222999Y-75914561D01*
X114135000Y-75914561D01*
X114135000Y-76485439D01*
X114353466Y-77012862D01*
X114757138Y-77416534D01*
X115284561Y-77635000D01*
X115855439Y-77635000D01*
X116382862Y-77416534D01*
X116786534Y-77012862D01*
X117005000Y-76485439D01*
X117005000Y-75914561D01*
X116983103Y-75861698D01*
X121134473Y-71710329D01*
X121197929Y-71667929D01*
X121365904Y-71416537D01*
X121410000Y-71194852D01*
X121410000Y-71194847D01*
X121424888Y-71120000D01*
X121410000Y-71045153D01*
X121410000Y-69859347D01*
X121467392Y-69897695D01*
X121920000Y-69987725D01*
X122372609Y-69897695D01*
X122756313Y-69641313D01*
X123012695Y-69257608D01*
X123080000Y-68919245D01*
X123080000Y-68865750D01*
X132190000Y-68865750D01*
X132190000Y-69456310D01*
X132286673Y-69689699D01*
X132465302Y-69868327D01*
X132698691Y-69965000D01*
X133064250Y-69965000D01*
X133223000Y-69806250D01*
X133223000Y-68707000D01*
X132348750Y-68707000D01*
X132190000Y-68865750D01*
X123080000Y-68865750D01*
X123080000Y-68240754D01*
X123012695Y-67902391D01*
X122879928Y-67703690D01*
X132190000Y-67703690D01*
X132190000Y-68294250D01*
X132348750Y-68453000D01*
X133223000Y-68453000D01*
X133223000Y-67353750D01*
X133064250Y-67195000D01*
X132698691Y-67195000D01*
X132465302Y-67291673D01*
X132286673Y-67470301D01*
X132190000Y-67703690D01*
X122879928Y-67703690D01*
X122756313Y-67518687D01*
X122372608Y-67262305D01*
X121920000Y-67172275D01*
X121467391Y-67262305D01*
X121285000Y-67384175D01*
X121102608Y-67262305D01*
X120650000Y-67172275D01*
X120197391Y-67262305D01*
X120196016Y-67263224D01*
X120031309Y-67195000D01*
X119665750Y-67195000D01*
X119507000Y-67353750D01*
X119507000Y-68155291D01*
X119490000Y-68240755D01*
X119490000Y-68919246D01*
X119507000Y-69004710D01*
X119507000Y-69806250D01*
X119665750Y-69965000D01*
X119890000Y-69965000D01*
X119890000Y-70805198D01*
X115908302Y-74786897D01*
X115855439Y-74765000D01*
X115284561Y-74765000D01*
X114757138Y-74983466D01*
X114353466Y-75387138D01*
X114135000Y-75914561D01*
X107222999Y-75914561D01*
X107222999Y-68865750D01*
X118220000Y-68865750D01*
X118220000Y-69456310D01*
X118316673Y-69689699D01*
X118495302Y-69868327D01*
X118728691Y-69965000D01*
X119094250Y-69965000D01*
X119253000Y-69806250D01*
X119253000Y-68707000D01*
X118378750Y-68707000D01*
X118220000Y-68865750D01*
X107222999Y-68865750D01*
X107222999Y-67703690D01*
X118220000Y-67703690D01*
X118220000Y-68294250D01*
X118378750Y-68453000D01*
X119253000Y-68453000D01*
X119253000Y-67353750D01*
X119094250Y-67195000D01*
X118728691Y-67195000D01*
X118495302Y-67291673D01*
X118316673Y-67470301D01*
X118220000Y-67703690D01*
X107222999Y-67703690D01*
X107222999Y-55075000D01*
X120460839Y-55075000D01*
X120460839Y-59075000D01*
X120532785Y-59436697D01*
X120737670Y-59743330D01*
X121044303Y-59948215D01*
X121406000Y-60020161D01*
X125406000Y-60020161D01*
X125767697Y-59948215D01*
X126074330Y-59743330D01*
X126279215Y-59436697D01*
X126351161Y-59075000D01*
X126351161Y-55075000D01*
X126279215Y-54713303D01*
X126074330Y-54406670D01*
X125767697Y-54201785D01*
X125406000Y-54129839D01*
X121406000Y-54129839D01*
X121044303Y-54201785D01*
X120737670Y-54406670D01*
X120532785Y-54713303D01*
X120460839Y-55075000D01*
X107222999Y-55075000D01*
X107222999Y-52601802D01*
X112706114Y-47118688D01*
X112888667Y-47155000D01*
X113171333Y-47155000D01*
X113589909Y-47071740D01*
X114064577Y-46754577D01*
X114381740Y-46279909D01*
X114493113Y-45720000D01*
X115376887Y-45720000D01*
X115488260Y-46279909D01*
X115805423Y-46754577D01*
X116280091Y-47071740D01*
X116698667Y-47155000D01*
X116981333Y-47155000D01*
X117399909Y-47071740D01*
X117874577Y-46754577D01*
X118191740Y-46279909D01*
X118303113Y-45720000D01*
X118191740Y-45160091D01*
X117874577Y-44685423D01*
X117399909Y-44368260D01*
X116981333Y-44285000D01*
X116698667Y-44285000D01*
X116280091Y-44368260D01*
X115805423Y-44685423D01*
X115488260Y-45160091D01*
X115376887Y-45720000D01*
X114493113Y-45720000D01*
X114428688Y-45396113D01*
X121134476Y-38690327D01*
X121197929Y-38647929D01*
X121240327Y-38584476D01*
X121240329Y-38584474D01*
X121365903Y-38396538D01*
X121365904Y-38396537D01*
X121410000Y-38174852D01*
X121410000Y-38174848D01*
X121424888Y-38100001D01*
X121410000Y-38025154D01*
X121410000Y-37126931D01*
X121449998Y-37134887D01*
X121524845Y-37119999D01*
X122597346Y-37119999D01*
X122349720Y-37222569D01*
X122058569Y-37513720D01*
X121901000Y-37894126D01*
X121901000Y-38060198D01*
X120165528Y-39795671D01*
X120102072Y-39838071D01*
X120059672Y-39901527D01*
X120059671Y-39901528D01*
X119934097Y-40089463D01*
X119875112Y-40386000D01*
X119890001Y-40460852D01*
X119890000Y-44501956D01*
X119615423Y-44685423D01*
X119298260Y-45160091D01*
X119186887Y-45720000D01*
X119298260Y-46279909D01*
X119615423Y-46754577D01*
X120090091Y-47071740D01*
X120508667Y-47155000D01*
X120791333Y-47155000D01*
X121209909Y-47071740D01*
X121684577Y-46754577D01*
X122001740Y-46279909D01*
X122113113Y-45720000D01*
X122001740Y-45160091D01*
X121684577Y-44685423D01*
X121410000Y-44501957D01*
X121410000Y-40700801D01*
X122975802Y-39135000D01*
X123141874Y-39135000D01*
X123522280Y-38977431D01*
X123813431Y-38686280D01*
X123971000Y-38305874D01*
X123971000Y-37894126D01*
X123813431Y-37513720D01*
X123522280Y-37222569D01*
X123274654Y-37119999D01*
X128008340Y-37119999D01*
X127780024Y-37348315D01*
X127578000Y-37836043D01*
X127578000Y-38363957D01*
X127780024Y-38851685D01*
X128153315Y-39224976D01*
X128641043Y-39427000D01*
X128744248Y-39427000D01*
X128873002Y-39555754D01*
X128873001Y-48583598D01*
X128658012Y-48368609D01*
X127582216Y-47923000D01*
X126417784Y-47923000D01*
X125341988Y-48368609D01*
X124518609Y-49191988D01*
X124073000Y-50267784D01*
X124073000Y-51432216D01*
X124518609Y-52508012D01*
X125341988Y-53331391D01*
X126417784Y-53777000D01*
X127582216Y-53777000D01*
X127942000Y-53627973D01*
X127942000Y-53669956D01*
X128144024Y-54157684D01*
X128517315Y-54530975D01*
X128857650Y-54671947D01*
X128112609Y-55416988D01*
X127667000Y-56492784D01*
X127667000Y-57657216D01*
X128112609Y-58733012D01*
X128935988Y-59556391D01*
X130011784Y-60002000D01*
X131176216Y-60002000D01*
X132252012Y-59556391D01*
X133075391Y-58733012D01*
X133521000Y-57657216D01*
X133521000Y-56492784D01*
X133075391Y-55416988D01*
X132252012Y-54593609D01*
X131176216Y-54148000D01*
X130397987Y-54148000D01*
X130596000Y-53669956D01*
X130596000Y-53566879D01*
X130683450Y-53508447D01*
X130915963Y-53160468D01*
X130969406Y-52891792D01*
X130997610Y-52749998D01*
X130977001Y-52646389D01*
X130977001Y-45720000D01*
X135696887Y-45720000D01*
X135808260Y-46279909D01*
X136125423Y-46754577D01*
X136600091Y-47071740D01*
X137018667Y-47155000D01*
X137301333Y-47155000D01*
X137719909Y-47071740D01*
X138194577Y-46754577D01*
X138511740Y-46279909D01*
X138623113Y-45720000D01*
X138511740Y-45160091D01*
X138194577Y-44685423D01*
X137719909Y-44368260D01*
X137301333Y-44285000D01*
X137018667Y-44285000D01*
X136600091Y-44368260D01*
X136125423Y-44685423D01*
X135808260Y-45160091D01*
X135696887Y-45720000D01*
X130977001Y-45720000D01*
X130977001Y-39223604D01*
X130997609Y-39120000D01*
X130977001Y-39016396D01*
X130977001Y-39016392D01*
X130915963Y-38709531D01*
X130683450Y-38361552D01*
X130595613Y-38302861D01*
X130232000Y-37939248D01*
X130232000Y-37836043D01*
X130029976Y-37348315D01*
X129801660Y-37119999D01*
X131295198Y-37119999D01*
X139571312Y-45396114D01*
X139506887Y-45720000D01*
X139618260Y-46279909D01*
X139935423Y-46754577D01*
X140410091Y-47071740D01*
X140828667Y-47155000D01*
X141111333Y-47155000D01*
X141529909Y-47071740D01*
X142004577Y-46754577D01*
X142321740Y-46279909D01*
X142433113Y-45720000D01*
X142422727Y-45667784D01*
X155917600Y-45667784D01*
X155917600Y-46832216D01*
X156363209Y-47908012D01*
X157186588Y-48731391D01*
X158262384Y-49177000D01*
X159426816Y-49177000D01*
X160502612Y-48731391D01*
X161325991Y-47908012D01*
X161771600Y-46832216D01*
X161771600Y-45667784D01*
X161325991Y-44591988D01*
X160502612Y-43768609D01*
X159426816Y-43323000D01*
X158262384Y-43323000D01*
X157186588Y-43768609D01*
X156363209Y-44591988D01*
X155917600Y-45667784D01*
X142422727Y-45667784D01*
X142321740Y-45160091D01*
X142004577Y-44685423D01*
X141529909Y-44368260D01*
X141111333Y-44285000D01*
X140828667Y-44285000D01*
X140646114Y-44321312D01*
X137336786Y-41011984D01*
X159824200Y-41011984D01*
X159824200Y-42176416D01*
X160269809Y-43252212D01*
X161093188Y-44075591D01*
X161697806Y-44326032D01*
X161678592Y-44422627D01*
X161760238Y-44833096D01*
X161760239Y-44833097D01*
X161992752Y-45181076D01*
X162080589Y-45239767D01*
X170398001Y-53557181D01*
X170398000Y-58865339D01*
X170325024Y-58938315D01*
X170123000Y-59426043D01*
X170123000Y-59953957D01*
X170325024Y-60441685D01*
X170698315Y-60814976D01*
X171186043Y-61017000D01*
X171713957Y-61017000D01*
X172201685Y-60814976D01*
X172574976Y-60441685D01*
X172777000Y-59953957D01*
X172777000Y-59426043D01*
X172574976Y-58938315D01*
X172502000Y-58865339D01*
X172502000Y-53802552D01*
X172585961Y-53676896D01*
X172667608Y-53266426D01*
X172585961Y-52855957D01*
X172412138Y-52595813D01*
X172267142Y-52450818D01*
X172267139Y-52450813D01*
X172267138Y-52450812D01*
X172208449Y-52362978D01*
X172120615Y-52304289D01*
X170616326Y-50800000D01*
X175785167Y-50800000D01*
X175919202Y-51473842D01*
X176300903Y-52045097D01*
X176872158Y-52426798D01*
X177375909Y-52527000D01*
X177716091Y-52527000D01*
X178219842Y-52426798D01*
X178791097Y-52045097D01*
X179172798Y-51473842D01*
X179306833Y-50800000D01*
X179172798Y-50126158D01*
X178791097Y-49554903D01*
X178219842Y-49173202D01*
X177716091Y-49073000D01*
X177375909Y-49073000D01*
X176872158Y-49173202D01*
X176300903Y-49554903D01*
X175919202Y-50126158D01*
X175785167Y-50800000D01*
X170616326Y-50800000D01*
X164043428Y-44227104D01*
X164409212Y-44075591D01*
X165232591Y-43252212D01*
X165678200Y-42176416D01*
X165678200Y-41011984D01*
X165232591Y-39936188D01*
X164409212Y-39112809D01*
X163333416Y-38667200D01*
X162168984Y-38667200D01*
X161093188Y-39112809D01*
X160269809Y-39936188D01*
X159824200Y-41011984D01*
X137336786Y-41011984D01*
X134297986Y-37973184D01*
X165087600Y-37973184D01*
X165087600Y-39137616D01*
X165533209Y-40213412D01*
X166356588Y-41036791D01*
X167432384Y-41482400D01*
X168596816Y-41482400D01*
X169672612Y-41036791D01*
X170495991Y-40213412D01*
X170941600Y-39137616D01*
X170941600Y-37973184D01*
X170495991Y-36897388D01*
X169672612Y-36074009D01*
X168596816Y-35628400D01*
X167432384Y-35628400D01*
X166356588Y-36074009D01*
X165533209Y-36897388D01*
X165087600Y-37973184D01*
X134297986Y-37973184D01*
X132200330Y-35875529D01*
X132157928Y-35812070D01*
X131906536Y-35644095D01*
X131684851Y-35599999D01*
X131684846Y-35599999D01*
X131609999Y-35585111D01*
X131535152Y-35599999D01*
X122085000Y-35599999D01*
X122085000Y-35274561D01*
X122060942Y-35216478D01*
X135433000Y-35216478D01*
X135433000Y-35903522D01*
X135695920Y-36538267D01*
X136181733Y-37024080D01*
X136816478Y-37287000D01*
X137503522Y-37287000D01*
X138138267Y-37024080D01*
X138624080Y-36538267D01*
X138887000Y-35903522D01*
X138887000Y-35274561D01*
X139535000Y-35274561D01*
X139535000Y-35845439D01*
X139753466Y-36372862D01*
X140157138Y-36776534D01*
X140684561Y-36995000D01*
X141255439Y-36995000D01*
X141782862Y-36776534D01*
X142186534Y-36372862D01*
X142405000Y-35845439D01*
X142405000Y-35274561D01*
X142186534Y-34747138D01*
X141782862Y-34343466D01*
X141255439Y-34125000D01*
X140684561Y-34125000D01*
X140157138Y-34343466D01*
X139753466Y-34747138D01*
X139535000Y-35274561D01*
X138887000Y-35274561D01*
X138887000Y-35216478D01*
X138624080Y-34581733D01*
X138138267Y-34095920D01*
X137503522Y-33833000D01*
X136816478Y-33833000D01*
X136181733Y-34095920D01*
X135695920Y-34581733D01*
X135433000Y-35216478D01*
X122060942Y-35216478D01*
X121866534Y-34747138D01*
X121462862Y-34343466D01*
X120935439Y-34125000D01*
X120364561Y-34125000D01*
X119837138Y-34343466D01*
X119433466Y-34747138D01*
X119215000Y-35274561D01*
X119215000Y-35845439D01*
X119433466Y-36372862D01*
X119837138Y-36776534D01*
X119890000Y-36798430D01*
X119890001Y-37785196D01*
X113353887Y-44321312D01*
X113171333Y-44285000D01*
X112888667Y-44285000D01*
X112470091Y-44368260D01*
X111995423Y-44685423D01*
X111678260Y-45160091D01*
X111566887Y-45720000D01*
X111631312Y-46043886D01*
X105978529Y-51696670D01*
X105915070Y-51739072D01*
X105747095Y-51990465D01*
X105702999Y-52212150D01*
X105702999Y-52212154D01*
X105688111Y-52287001D01*
X105702999Y-52361848D01*
X105703000Y-91088197D01*
X99274199Y-97517000D01*
X99108126Y-97517000D01*
X98727720Y-97674569D01*
X98436569Y-97965720D01*
X98279000Y-98346126D01*
X98279000Y-98474198D01*
X97856917Y-98052116D01*
X97856917Y-97886043D01*
X97699348Y-97505637D01*
X97408197Y-97214486D01*
X97341070Y-97186681D01*
X102270615Y-92257138D01*
X102358449Y-92198449D01*
X102499115Y-91987929D01*
X102590962Y-91850470D01*
X102672609Y-91440000D01*
X102652000Y-91336391D01*
X102652000Y-74484661D01*
X102724976Y-74411685D01*
X102927000Y-73923957D01*
X102927000Y-73396043D01*
X102724976Y-72908315D01*
X102351685Y-72535024D01*
X101863957Y-72333000D01*
X101336043Y-72333000D01*
X100848315Y-72535024D01*
X100475024Y-72908315D01*
X100286099Y-73364419D01*
X100286099Y-54064808D01*
X100306708Y-53961199D01*
X100225061Y-53550729D01*
X100051238Y-53290585D01*
X100051237Y-53290584D01*
X99992548Y-53202750D01*
X99910659Y-53148034D01*
X100161100Y-52543416D01*
X100161100Y-51378984D01*
X99715491Y-50303188D01*
X98892112Y-49479809D01*
X97816316Y-49034200D01*
X96651884Y-49034200D01*
X95576088Y-49479809D01*
X94752709Y-50303188D01*
X94307100Y-51378984D01*
X94307100Y-51875451D01*
X92300800Y-49869151D01*
X92300800Y-47007005D01*
X92674009Y-47908012D01*
X93497388Y-48731391D01*
X94573184Y-49177000D01*
X95737616Y-49177000D01*
X96813412Y-48731391D01*
X97636791Y-47908012D01*
X98082400Y-46832216D01*
X98082400Y-45667784D01*
X97636791Y-44591988D01*
X96813412Y-43768609D01*
X95737616Y-43323000D01*
X94573184Y-43323000D01*
X93497388Y-43768609D01*
X92674009Y-44591988D01*
X92300800Y-45492995D01*
X92300800Y-44326609D01*
X92906812Y-44075591D01*
X93730191Y-43252212D01*
X94175800Y-42176416D01*
X94175800Y-41011984D01*
X93730191Y-39936188D01*
X92906812Y-39112809D01*
X91831016Y-38667200D01*
X90666584Y-38667200D01*
X89590788Y-39112809D01*
X88767409Y-39936188D01*
X88321800Y-41011984D01*
X88321800Y-42176416D01*
X88767409Y-43252212D01*
X89590788Y-44075591D01*
X90196801Y-44326609D01*
X90196800Y-48156391D01*
X90196800Y-50201296D01*
X90176192Y-50304902D01*
X90196800Y-50408507D01*
X90196800Y-50408510D01*
X90257838Y-50715371D01*
X90490351Y-51063351D01*
X90578191Y-51122044D01*
X95540402Y-56084256D01*
X95540401Y-60754394D01*
X95526755Y-60823000D01*
X94573184Y-60823000D01*
X93497388Y-61268609D01*
X92674009Y-62091988D01*
X92228400Y-63167784D01*
X92228400Y-64332216D01*
X92674009Y-65408012D01*
X93497388Y-66231391D01*
X94573184Y-66677000D01*
X95737616Y-66677000D01*
X96813412Y-66231391D01*
X97028402Y-66016401D01*
X97028401Y-78887599D01*
X93519004Y-78887599D01*
X93415400Y-78866991D01*
X93311796Y-78887599D01*
X93311792Y-78887599D01*
X93004931Y-78948637D01*
X92656952Y-79181150D01*
X92598261Y-79268987D01*
X89499389Y-82367860D01*
X89411552Y-82426551D01*
X89352862Y-82514387D01*
X89179038Y-82774531D01*
X89097392Y-83185000D01*
X89118001Y-83288608D01*
X89118000Y-87204965D01*
X89008303Y-87226785D01*
X88701670Y-87431670D01*
X88682000Y-87461108D01*
X88682000Y-69857616D01*
X88767409Y-70063812D01*
X89590788Y-70887191D01*
X90666584Y-71332800D01*
X91831016Y-71332800D01*
X92906812Y-70887191D01*
X93730191Y-70063812D01*
X94175800Y-68988016D01*
X94175800Y-67823584D01*
X93730191Y-66747788D01*
X92906812Y-65924409D01*
X91831016Y-65478800D01*
X90666584Y-65478800D01*
X89590788Y-65924409D01*
X88767409Y-66747788D01*
X88682000Y-66953984D01*
X88682000Y-57974661D01*
X88754976Y-57901685D01*
X88957000Y-57413957D01*
X88957000Y-56886043D01*
X88754976Y-56398315D01*
X88381685Y-56025024D01*
X87893957Y-55823000D01*
X87366043Y-55823000D01*
X86878315Y-56025024D01*
X86505024Y-56398315D01*
X86303000Y-56886043D01*
X86303000Y-57413957D01*
X86505024Y-57901685D01*
X86578001Y-57974662D01*
X86578000Y-82741339D01*
X86476685Y-82640024D01*
X85988957Y-82438000D01*
X85830753Y-82438000D01*
X84512000Y-81119249D01*
X84512000Y-81016043D01*
X84309976Y-80528315D01*
X83936685Y-80155024D01*
X83448957Y-79953000D01*
X82921043Y-79953000D01*
X82433315Y-80155024D01*
X82060024Y-80528315D01*
X81858000Y-81016043D01*
X81858000Y-81543957D01*
X82060024Y-82031685D01*
X82433315Y-82404976D01*
X82921043Y-82607000D01*
X83024249Y-82607000D01*
X84398000Y-83980753D01*
X84398000Y-84028957D01*
X84600024Y-84516685D01*
X84973315Y-84889976D01*
X85461043Y-85092000D01*
X85988957Y-85092000D01*
X86476685Y-84889976D01*
X86578000Y-84788661D01*
X86578000Y-87525879D01*
X86384903Y-87654903D01*
X86184407Y-87954965D01*
X86124577Y-87865423D01*
X85649909Y-87548260D01*
X85231333Y-87465000D01*
X84948667Y-87465000D01*
X84530091Y-87548260D01*
X84055423Y-87865423D01*
X83820000Y-88217758D01*
X83584577Y-87865423D01*
X83109909Y-87548260D01*
X82691333Y-87465000D01*
X82408667Y-87465000D01*
X81990091Y-87548260D01*
X81515423Y-87865423D01*
X81280000Y-88217758D01*
X81044577Y-87865423D01*
X80569909Y-87548260D01*
X80151333Y-87465000D01*
X79868667Y-87465000D01*
X79450091Y-87548260D01*
X78975423Y-87865423D01*
X78740000Y-88217758D01*
X78504577Y-87865423D01*
X78029909Y-87548260D01*
X77611333Y-87465000D01*
X77328667Y-87465000D01*
X76910091Y-87548260D01*
X76435423Y-87865423D01*
X76200000Y-88217758D01*
X75964577Y-87865423D01*
X75489909Y-87548260D01*
X75071333Y-87465000D01*
X74788667Y-87465000D01*
X74370091Y-87548260D01*
X73895423Y-87865423D01*
X73835593Y-87954965D01*
X73635097Y-87654903D01*
X73442000Y-87525880D01*
X73442000Y-76635751D01*
X73820752Y-76257000D01*
X73923957Y-76257000D01*
X74411685Y-76054976D01*
X74784976Y-75681685D01*
X74987000Y-75193957D01*
X74987000Y-74666043D01*
X74872560Y-74389761D01*
X76014600Y-74389761D01*
X76376297Y-74317815D01*
X76682930Y-74112930D01*
X76887815Y-73806297D01*
X76959761Y-73444600D01*
X76959761Y-69444600D01*
X76887815Y-69082903D01*
X76682930Y-68776270D01*
X76376297Y-68571385D01*
X76014600Y-68499439D01*
X75066600Y-68499439D01*
X75066600Y-58501151D01*
X82322226Y-51245526D01*
X82379909Y-51257000D01*
X82720091Y-51257000D01*
X83223842Y-51156798D01*
X83795097Y-50775097D01*
X84176798Y-50203842D01*
X84310833Y-49530000D01*
X84176798Y-48856158D01*
X83795097Y-48284903D01*
X83223842Y-47903202D01*
X82720091Y-47803000D01*
X82379909Y-47803000D01*
X81876158Y-47903202D01*
X81304903Y-48284903D01*
X80923202Y-48856158D01*
X80789167Y-49530000D01*
X80834474Y-49757773D01*
X73343991Y-57248258D01*
X73256151Y-57306951D01*
X73023638Y-57654931D01*
X72962600Y-57961792D01*
X72962600Y-57961795D01*
X72941992Y-58065400D01*
X72962600Y-58169005D01*
X72962600Y-61665845D01*
X72653957Y-61538000D01*
X72642001Y-61538000D01*
X72642001Y-53099010D01*
X72662610Y-52995401D01*
X72580963Y-52584931D01*
X72407140Y-52324787D01*
X72407139Y-52324786D01*
X72348450Y-52236952D01*
X72260616Y-52178263D01*
X67520581Y-47438230D01*
X67771600Y-46832216D01*
X67771600Y-45667784D01*
X67325991Y-44591988D01*
X66502612Y-43768609D01*
X65426816Y-43323000D01*
X64262384Y-43323000D01*
X63186588Y-43768609D01*
X62363209Y-44591988D01*
X61917600Y-45667784D01*
X46430000Y-45667784D01*
X46430000Y-41011984D01*
X65824200Y-41011984D01*
X65824200Y-42176416D01*
X66269809Y-43252212D01*
X67093188Y-44075591D01*
X68168984Y-44521200D01*
X69333416Y-44521200D01*
X70409212Y-44075591D01*
X71232591Y-43252212D01*
X71678200Y-42176416D01*
X71678200Y-41011984D01*
X71232591Y-39936188D01*
X70409212Y-39112809D01*
X69333416Y-38667200D01*
X68168984Y-38667200D01*
X67093188Y-39112809D01*
X66269809Y-39936188D01*
X65824200Y-41011984D01*
X46430000Y-41011984D01*
X46430000Y-37973184D01*
X71087600Y-37973184D01*
X71087600Y-39137616D01*
X71533209Y-40213412D01*
X72356588Y-41036791D01*
X73432384Y-41482400D01*
X74596816Y-41482400D01*
X75672612Y-41036791D01*
X76495991Y-40213412D01*
X76941600Y-39137616D01*
X76941600Y-39026478D01*
X80823000Y-39026478D01*
X80823000Y-39713522D01*
X81085920Y-40348267D01*
X81571733Y-40834080D01*
X82206478Y-41097000D01*
X82893522Y-41097000D01*
X83528267Y-40834080D01*
X84014080Y-40348267D01*
X84277000Y-39713522D01*
X84277000Y-39026478D01*
X84014080Y-38391733D01*
X83528267Y-37905920D01*
X82893522Y-37643000D01*
X82206478Y-37643000D01*
X81571733Y-37905920D01*
X81085920Y-38391733D01*
X80823000Y-39026478D01*
X76941600Y-39026478D01*
X76941600Y-37973184D01*
X76495991Y-36897388D01*
X75672612Y-36074009D01*
X74596816Y-35628400D01*
X73432384Y-35628400D01*
X72356588Y-36074009D01*
X71533209Y-36897388D01*
X71087600Y-37973184D01*
X46430000Y-37973184D01*
X46430000Y-30829039D01*
X101478096Y-30829039D01*
X101638959Y-31217423D01*
X102014866Y-31632389D01*
X102520959Y-31871914D01*
X102743000Y-31750629D01*
X102743000Y-30607000D01*
X102997000Y-30607000D01*
X102997000Y-31750629D01*
X103219041Y-31871914D01*
X103725134Y-31632389D01*
X104101041Y-31217423D01*
X104261904Y-30829039D01*
X104139915Y-30607000D01*
X102997000Y-30607000D01*
X102743000Y-30607000D01*
X101600085Y-30607000D01*
X101478096Y-30829039D01*
X46430000Y-30829039D01*
X46430000Y-27495431D01*
X48565000Y-27495431D01*
X48565000Y-28384569D01*
X48905259Y-29206026D01*
X49533974Y-29834741D01*
X50355431Y-30175000D01*
X51244569Y-30175000D01*
X52066026Y-29834741D01*
X52694741Y-29206026D01*
X53035000Y-28384569D01*
X53035000Y-27495431D01*
X52887776Y-27140000D01*
X101422560Y-27140000D01*
X101422560Y-28740000D01*
X101471843Y-28987765D01*
X101612191Y-29197809D01*
X101822235Y-29338157D01*
X101977361Y-29369013D01*
X101638959Y-29742577D01*
X101478096Y-30130961D01*
X101600085Y-30353000D01*
X102743000Y-30353000D01*
X102743000Y-30333000D01*
X102997000Y-30333000D01*
X102997000Y-30353000D01*
X104139915Y-30353000D01*
X104261904Y-30130961D01*
X104101041Y-29742577D01*
X103762639Y-29369013D01*
X103917765Y-29338157D01*
X104127809Y-29197809D01*
X104268157Y-28987765D01*
X104317440Y-28740000D01*
X104317440Y-28700000D01*
X105095199Y-28700000D01*
X111616896Y-35221699D01*
X111595000Y-35274561D01*
X111595000Y-35845439D01*
X111813466Y-36372862D01*
X112217138Y-36776534D01*
X112744561Y-36995000D01*
X113315439Y-36995000D01*
X113842862Y-36776534D01*
X114246534Y-36372862D01*
X114465000Y-35845439D01*
X114465000Y-35274561D01*
X114440942Y-35216478D01*
X115113000Y-35216478D01*
X115113000Y-35903522D01*
X115375920Y-36538267D01*
X115861733Y-37024080D01*
X116496478Y-37287000D01*
X117183522Y-37287000D01*
X117818267Y-37024080D01*
X118304080Y-36538267D01*
X118567000Y-35903522D01*
X118567000Y-35216478D01*
X118304080Y-34581733D01*
X117818267Y-34095920D01*
X117183522Y-33833000D01*
X116496478Y-33833000D01*
X115861733Y-34095920D01*
X115375920Y-34581733D01*
X115113000Y-35216478D01*
X114440942Y-35216478D01*
X114246534Y-34747138D01*
X113842862Y-34343466D01*
X113315439Y-34125000D01*
X112744561Y-34125000D01*
X112691699Y-34146896D01*
X110736586Y-32191784D01*
X111163842Y-32106798D01*
X111735097Y-31725097D01*
X112116798Y-31153842D01*
X112181405Y-30829039D01*
X123068096Y-30829039D01*
X123228959Y-31217423D01*
X123604866Y-31632389D01*
X124110959Y-31871914D01*
X124333000Y-31750629D01*
X124333000Y-30607000D01*
X124587000Y-30607000D01*
X124587000Y-31750629D01*
X124809041Y-31871914D01*
X125315134Y-31632389D01*
X125691041Y-31217423D01*
X125851904Y-30829039D01*
X125729915Y-30607000D01*
X124587000Y-30607000D01*
X124333000Y-30607000D01*
X123190085Y-30607000D01*
X123068096Y-30829039D01*
X112181405Y-30829039D01*
X112250833Y-30480000D01*
X112116798Y-29806158D01*
X111735097Y-29234903D01*
X111697827Y-29210000D01*
X111735097Y-29185097D01*
X112116798Y-28613842D01*
X112250833Y-27940000D01*
X112205526Y-27712226D01*
X112777752Y-27140000D01*
X123012560Y-27140000D01*
X123012560Y-28740000D01*
X123061843Y-28987765D01*
X123202191Y-29197809D01*
X123412235Y-29338157D01*
X123567361Y-29369013D01*
X123228959Y-29742577D01*
X123068096Y-30130961D01*
X123190085Y-30353000D01*
X124333000Y-30353000D01*
X124333000Y-30333000D01*
X124587000Y-30333000D01*
X124587000Y-30353000D01*
X125729915Y-30353000D01*
X125851904Y-30130961D01*
X125691041Y-29742577D01*
X125352639Y-29369013D01*
X125507765Y-29338157D01*
X125717809Y-29197809D01*
X125858157Y-28987765D01*
X125907440Y-28740000D01*
X125907440Y-27140000D01*
X125858157Y-26892235D01*
X125717809Y-26682191D01*
X125507765Y-26541843D01*
X125260000Y-26492560D01*
X123660000Y-26492560D01*
X123412235Y-26541843D01*
X123202191Y-26682191D01*
X123061843Y-26892235D01*
X123012560Y-27140000D01*
X112777752Y-27140000D01*
X113719753Y-26198000D01*
X128850249Y-26198000D01*
X130364474Y-27712226D01*
X130319167Y-27940000D01*
X130453202Y-28613842D01*
X130834903Y-29185097D01*
X130872173Y-29210000D01*
X130834903Y-29234903D01*
X130453202Y-29806158D01*
X130319167Y-30480000D01*
X130453202Y-31153842D01*
X130834903Y-31725097D01*
X131406158Y-32106798D01*
X131909909Y-32207000D01*
X132250091Y-32207000D01*
X132753842Y-32106798D01*
X133325097Y-31725097D01*
X133706798Y-31153842D01*
X133771405Y-30829039D01*
X143388096Y-30829039D01*
X143548959Y-31217423D01*
X143924866Y-31632389D01*
X144430959Y-31871914D01*
X144653000Y-31750629D01*
X144653000Y-30607000D01*
X144907000Y-30607000D01*
X144907000Y-31750629D01*
X145129041Y-31871914D01*
X145635134Y-31632389D01*
X146011041Y-31217423D01*
X146171904Y-30829039D01*
X146049915Y-30607000D01*
X144907000Y-30607000D01*
X144653000Y-30607000D01*
X143510085Y-30607000D01*
X143388096Y-30829039D01*
X133771405Y-30829039D01*
X133840833Y-30480000D01*
X133706798Y-29806158D01*
X133325097Y-29234903D01*
X133287827Y-29210000D01*
X133325097Y-29185097D01*
X133706798Y-28613842D01*
X133840833Y-27940000D01*
X133788037Y-27674575D01*
X133870961Y-27550471D01*
X133912596Y-27341155D01*
X134113751Y-27140000D01*
X143332560Y-27140000D01*
X143332560Y-28740000D01*
X143381843Y-28987765D01*
X143522191Y-29197809D01*
X143732235Y-29338157D01*
X143887361Y-29369013D01*
X143548959Y-29742577D01*
X143388096Y-30130961D01*
X143510085Y-30353000D01*
X144653000Y-30353000D01*
X144653000Y-30333000D01*
X144907000Y-30333000D01*
X144907000Y-30353000D01*
X146049915Y-30353000D01*
X146171904Y-30130961D01*
X146011041Y-29742577D01*
X145672639Y-29369013D01*
X145827765Y-29338157D01*
X146037809Y-29197809D01*
X146178157Y-28987765D01*
X146227440Y-28740000D01*
X146227440Y-27140000D01*
X146178157Y-26892235D01*
X146037809Y-26682191D01*
X145827765Y-26541843D01*
X145580000Y-26492560D01*
X143980000Y-26492560D01*
X143732235Y-26541843D01*
X143522191Y-26682191D01*
X143381843Y-26892235D01*
X143332560Y-27140000D01*
X134113751Y-27140000D01*
X135309752Y-25944000D01*
X148916249Y-25944000D01*
X150684474Y-27712226D01*
X150639167Y-27940000D01*
X150773202Y-28613842D01*
X151154903Y-29185097D01*
X151192173Y-29210000D01*
X151154903Y-29234903D01*
X150773202Y-29806158D01*
X150639167Y-30480000D01*
X150773202Y-31153842D01*
X151154903Y-31725097D01*
X151726158Y-32106798D01*
X152229909Y-32207000D01*
X152570091Y-32207000D01*
X152665425Y-32188037D01*
X152789529Y-32270961D01*
X153096390Y-32331999D01*
X153096394Y-32331999D01*
X153199998Y-32352607D01*
X153303602Y-32331999D01*
X167750248Y-32331999D01*
X175819000Y-40400752D01*
X175819000Y-40983522D01*
X176081920Y-41618267D01*
X176567733Y-42104080D01*
X177202478Y-42367000D01*
X177889522Y-42367000D01*
X178524267Y-42104080D01*
X179010080Y-41618267D01*
X179273000Y-40983522D01*
X179273000Y-40296478D01*
X179010080Y-39661733D01*
X178524267Y-39175920D01*
X177889522Y-38913000D01*
X177306752Y-38913000D01*
X171699502Y-33305750D01*
X194095000Y-33305750D01*
X194095000Y-33996310D01*
X194191673Y-34229699D01*
X194370302Y-34408327D01*
X194603691Y-34505000D01*
X195294250Y-34505000D01*
X195453000Y-34346250D01*
X195453000Y-33147000D01*
X195707000Y-33147000D01*
X195707000Y-34346250D01*
X195865750Y-34505000D01*
X196556309Y-34505000D01*
X196789698Y-34408327D01*
X196968327Y-34229699D01*
X197065000Y-33996310D01*
X197065000Y-33305750D01*
X196906250Y-33147000D01*
X195707000Y-33147000D01*
X195453000Y-33147000D01*
X194253750Y-33147000D01*
X194095000Y-33305750D01*
X171699502Y-33305750D01*
X169003141Y-30609390D01*
X168944448Y-30521550D01*
X168596469Y-30289037D01*
X168289608Y-30227999D01*
X168289604Y-30227999D01*
X168185999Y-30207391D01*
X168082394Y-30227999D01*
X154110707Y-30227999D01*
X154026798Y-29806158D01*
X153645097Y-29234903D01*
X153607827Y-29210000D01*
X153645097Y-29185097D01*
X154026798Y-28613842D01*
X154110707Y-28192001D01*
X191794745Y-28192001D01*
X191823390Y-28211141D01*
X193821952Y-30209704D01*
X193768187Y-30480000D01*
X193906103Y-31173351D01*
X194275613Y-31726361D01*
X194191673Y-31810301D01*
X194095000Y-32043690D01*
X194095000Y-32734250D01*
X194253750Y-32893000D01*
X195453000Y-32893000D01*
X195453000Y-32873000D01*
X195707000Y-32873000D01*
X195707000Y-32893000D01*
X196906250Y-32893000D01*
X197065000Y-32734250D01*
X197065000Y-32043690D01*
X196968327Y-31810301D01*
X196884387Y-31726361D01*
X197253897Y-31173351D01*
X197391813Y-30480000D01*
X197253897Y-29786649D01*
X196861145Y-29198855D01*
X196273351Y-28806103D01*
X195755017Y-28703000D01*
X195404983Y-28703000D01*
X195309704Y-28721952D01*
X194083183Y-27495431D01*
X200965000Y-27495431D01*
X200965000Y-28384569D01*
X201305259Y-29206026D01*
X201933974Y-29834741D01*
X202755431Y-30175000D01*
X203644569Y-30175000D01*
X204466026Y-29834741D01*
X205094741Y-29206026D01*
X205435000Y-28384569D01*
X205435000Y-27495431D01*
X205094741Y-26673974D01*
X204466026Y-26045259D01*
X203644569Y-25705000D01*
X202755431Y-25705000D01*
X201933974Y-26045259D01*
X201305259Y-26673974D01*
X200965000Y-27495431D01*
X194083183Y-27495431D01*
X193526598Y-26938847D01*
X193484963Y-26729531D01*
X193252450Y-26381552D01*
X192904471Y-26149039D01*
X192597610Y-26088001D01*
X192494001Y-26067392D01*
X192390392Y-26088001D01*
X153303602Y-26088001D01*
X153199998Y-26067393D01*
X153096394Y-26088001D01*
X153096390Y-26088001D01*
X152789529Y-26149039D01*
X152665425Y-26231963D01*
X152570091Y-26213000D01*
X152229909Y-26213000D01*
X152172226Y-26224474D01*
X150169142Y-24221391D01*
X150110449Y-24133551D01*
X149762470Y-23901038D01*
X149455609Y-23840000D01*
X149455605Y-23840000D01*
X149352000Y-23819392D01*
X149248395Y-23840000D01*
X134977603Y-23840000D01*
X134873999Y-23819392D01*
X134770395Y-23840000D01*
X134770391Y-23840000D01*
X134463530Y-23901038D01*
X134115551Y-24133551D01*
X134056860Y-24221388D01*
X132209388Y-26068861D01*
X132121551Y-26127552D01*
X132064456Y-26213000D01*
X131909909Y-26213000D01*
X131852226Y-26224474D01*
X130103142Y-24475391D01*
X130044449Y-24387551D01*
X129696470Y-24155038D01*
X129389609Y-24094000D01*
X129389605Y-24094000D01*
X129286000Y-24073392D01*
X129182395Y-24094000D01*
X113387609Y-24094000D01*
X113284000Y-24073391D01*
X113180391Y-24094000D01*
X112873530Y-24155038D01*
X112525551Y-24387551D01*
X112466862Y-24475385D01*
X110717774Y-26224474D01*
X110660091Y-26213000D01*
X110319909Y-26213000D01*
X109816158Y-26313202D01*
X109244903Y-26694903D01*
X108863202Y-27266158D01*
X108729167Y-27940000D01*
X108863202Y-28613842D01*
X109244903Y-29185097D01*
X109282173Y-29210000D01*
X109244903Y-29234903D01*
X108863202Y-29806158D01*
X108778216Y-30233414D01*
X106000331Y-27455530D01*
X105957929Y-27392071D01*
X105706537Y-27224096D01*
X105484852Y-27180000D01*
X105484847Y-27180000D01*
X105410000Y-27165112D01*
X105335153Y-27180000D01*
X104317440Y-27180000D01*
X104317440Y-27140000D01*
X104268157Y-26892235D01*
X104127809Y-26682191D01*
X103917765Y-26541843D01*
X103670000Y-26492560D01*
X102070000Y-26492560D01*
X101822235Y-26541843D01*
X101612191Y-26682191D01*
X101471843Y-26892235D01*
X101422560Y-27140000D01*
X52887776Y-27140000D01*
X52694741Y-26673974D01*
X52066026Y-26045259D01*
X51244569Y-25705000D01*
X50355431Y-25705000D01*
X49533974Y-26045259D01*
X48905259Y-26673974D01*
X48565000Y-27495431D01*
X46430000Y-27495431D01*
X46430000Y-23570000D01*
X207570000Y-23570000D01*
X207570001Y-111050000D01*
G36*
X174225423Y-89934577D02*
X174700091Y-90251740D01*
X175118667Y-90335000D01*
X175401333Y-90335000D01*
X175819909Y-90251740D01*
X176294577Y-89934577D01*
X176354407Y-89845035D01*
X176554903Y-90145097D01*
X177126158Y-90526798D01*
X177629909Y-90627000D01*
X177970091Y-90627000D01*
X178473842Y-90526798D01*
X178822080Y-90294113D01*
X178871670Y-90368330D01*
X179178303Y-90573215D01*
X179540000Y-90645161D01*
X180372090Y-90645161D01*
X177274252Y-93742999D01*
X177088606Y-93742999D01*
X176985001Y-93722391D01*
X176881396Y-93742999D01*
X176881392Y-93742999D01*
X176574531Y-93804037D01*
X176346397Y-93956472D01*
X176226552Y-94036550D01*
X176167863Y-94124385D01*
X175487774Y-94804474D01*
X175430091Y-94793000D01*
X175089909Y-94793000D01*
X174586158Y-94893202D01*
X174014903Y-95274903D01*
X173990000Y-95312173D01*
X173965097Y-95274903D01*
X173393842Y-94893202D01*
X172890091Y-94793000D01*
X172549909Y-94793000D01*
X172046158Y-94893202D01*
X171474903Y-95274903D01*
X171258850Y-95598249D01*
X170917423Y-95288959D01*
X170529039Y-95128096D01*
X170307000Y-95250085D01*
X170307000Y-96393000D01*
X170327000Y-96393000D01*
X170327000Y-96647000D01*
X170307000Y-96647000D01*
X170307000Y-97789915D01*
X170529039Y-97911904D01*
X170917423Y-97751041D01*
X171258850Y-97441751D01*
X171474903Y-97765097D01*
X172046158Y-98146798D01*
X172549909Y-98247000D01*
X172890091Y-98247000D01*
X173393842Y-98146798D01*
X173965097Y-97765097D01*
X173990000Y-97727827D01*
X174014903Y-97765097D01*
X174586158Y-98146798D01*
X175089909Y-98247000D01*
X175430091Y-98247000D01*
X175933842Y-98146798D01*
X176505097Y-97765097D01*
X176530000Y-97727827D01*
X176554903Y-97765097D01*
X177126158Y-98146798D01*
X177208977Y-98163272D01*
X171813248Y-103559001D01*
X168790941Y-103559001D01*
X168967000Y-103133957D01*
X168967000Y-102606043D01*
X168764976Y-102118315D01*
X168391685Y-101745024D01*
X167903957Y-101543000D01*
X167800753Y-101543000D01*
X165917142Y-99659391D01*
X165858449Y-99571551D01*
X165510470Y-99339038D01*
X165203609Y-99278000D01*
X165203605Y-99278000D01*
X165100000Y-99257392D01*
X164996395Y-99278000D01*
X163612000Y-99278000D01*
X163612000Y-97894120D01*
X163805097Y-97765097D01*
X163830000Y-97727827D01*
X163854903Y-97765097D01*
X164426158Y-98146798D01*
X164929909Y-98247000D01*
X165270091Y-98247000D01*
X165327775Y-98235526D01*
X168361826Y-101269577D01*
X168547024Y-101716685D01*
X168920315Y-102089976D01*
X169408043Y-102292000D01*
X169935957Y-102292000D01*
X170423685Y-102089976D01*
X170796976Y-101716685D01*
X170999000Y-101228957D01*
X170999000Y-100701043D01*
X170796976Y-100213315D01*
X170423685Y-99840024D01*
X169935957Y-99638000D01*
X169705752Y-99638000D01*
X168231023Y-98163272D01*
X168313842Y-98146798D01*
X168885097Y-97765097D01*
X169101150Y-97441751D01*
X169442577Y-97751041D01*
X169830961Y-97911904D01*
X170053000Y-97789915D01*
X170053000Y-96647000D01*
X170033000Y-96647000D01*
X170033000Y-96393000D01*
X170053000Y-96393000D01*
X170053000Y-95250085D01*
X169830961Y-95128096D01*
X169442577Y-95288959D01*
X169101150Y-95598249D01*
X168885097Y-95274903D01*
X168313842Y-94893202D01*
X167810091Y-94793000D01*
X167469909Y-94793000D01*
X166966158Y-94893202D01*
X166394903Y-95274903D01*
X166370000Y-95312173D01*
X166345097Y-95274903D01*
X165773842Y-94893202D01*
X165270091Y-94793000D01*
X164929909Y-94793000D01*
X164865000Y-94805911D01*
X164865000Y-94748936D01*
X164894126Y-94761000D01*
X165305874Y-94761000D01*
X165686280Y-94603431D01*
X165977431Y-94312280D01*
X166135000Y-93931874D01*
X166135000Y-93765801D01*
X168124476Y-91776327D01*
X168187929Y-91733929D01*
X168230327Y-91670476D01*
X168230329Y-91670474D01*
X168355903Y-91482538D01*
X168355904Y-91482537D01*
X168400000Y-91260852D01*
X168400000Y-91260848D01*
X168414888Y-91186001D01*
X168400000Y-91111154D01*
X168400000Y-90118043D01*
X168674577Y-89934577D01*
X168910000Y-89582242D01*
X169145423Y-89934577D01*
X169620091Y-90251740D01*
X170038667Y-90335000D01*
X170321333Y-90335000D01*
X170739909Y-90251740D01*
X171214577Y-89934577D01*
X171450000Y-89582242D01*
X171685423Y-89934577D01*
X172160091Y-90251740D01*
X172578667Y-90335000D01*
X172861333Y-90335000D01*
X173279909Y-90251740D01*
X173754577Y-89934577D01*
X173990000Y-89582242D01*
X174225423Y-89934577D01*
X174225423Y-89934577D01*
G37*
X174225423Y-89934577D02*
X174700091Y-90251740D01*
X175118667Y-90335000D01*
X175401333Y-90335000D01*
X175819909Y-90251740D01*
X176294577Y-89934577D01*
X176354407Y-89845035D01*
X176554903Y-90145097D01*
X177126158Y-90526798D01*
X177629909Y-90627000D01*
X177970091Y-90627000D01*
X178473842Y-90526798D01*
X178822080Y-90294113D01*
X178871670Y-90368330D01*
X179178303Y-90573215D01*
X179540000Y-90645161D01*
X180372090Y-90645161D01*
X177274252Y-93742999D01*
X177088606Y-93742999D01*
X176985001Y-93722391D01*
X176881396Y-93742999D01*
X176881392Y-93742999D01*
X176574531Y-93804037D01*
X176346397Y-93956472D01*
X176226552Y-94036550D01*
X176167863Y-94124385D01*
X175487774Y-94804474D01*
X175430091Y-94793000D01*
X175089909Y-94793000D01*
X174586158Y-94893202D01*
X174014903Y-95274903D01*
X173990000Y-95312173D01*
X173965097Y-95274903D01*
X173393842Y-94893202D01*
X172890091Y-94793000D01*
X172549909Y-94793000D01*
X172046158Y-94893202D01*
X171474903Y-95274903D01*
X171258850Y-95598249D01*
X170917423Y-95288959D01*
X170529039Y-95128096D01*
X170307000Y-95250085D01*
X170307000Y-96393000D01*
X170327000Y-96393000D01*
X170327000Y-96647000D01*
X170307000Y-96647000D01*
X170307000Y-97789915D01*
X170529039Y-97911904D01*
X170917423Y-97751041D01*
X171258850Y-97441751D01*
X171474903Y-97765097D01*
X172046158Y-98146798D01*
X172549909Y-98247000D01*
X172890091Y-98247000D01*
X173393842Y-98146798D01*
X173965097Y-97765097D01*
X173990000Y-97727827D01*
X174014903Y-97765097D01*
X174586158Y-98146798D01*
X175089909Y-98247000D01*
X175430091Y-98247000D01*
X175933842Y-98146798D01*
X176505097Y-97765097D01*
X176530000Y-97727827D01*
X176554903Y-97765097D01*
X177126158Y-98146798D01*
X177208977Y-98163272D01*
X171813248Y-103559001D01*
X168790941Y-103559001D01*
X168967000Y-103133957D01*
X168967000Y-102606043D01*
X168764976Y-102118315D01*
X168391685Y-101745024D01*
X167903957Y-101543000D01*
X167800753Y-101543000D01*
X165917142Y-99659391D01*
X165858449Y-99571551D01*
X165510470Y-99339038D01*
X165203609Y-99278000D01*
X165203605Y-99278000D01*
X165100000Y-99257392D01*
X164996395Y-99278000D01*
X163612000Y-99278000D01*
X163612000Y-97894120D01*
X163805097Y-97765097D01*
X163830000Y-97727827D01*
X163854903Y-97765097D01*
X164426158Y-98146798D01*
X164929909Y-98247000D01*
X165270091Y-98247000D01*
X165327775Y-98235526D01*
X168361826Y-101269577D01*
X168547024Y-101716685D01*
X168920315Y-102089976D01*
X169408043Y-102292000D01*
X169935957Y-102292000D01*
X170423685Y-102089976D01*
X170796976Y-101716685D01*
X170999000Y-101228957D01*
X170999000Y-100701043D01*
X170796976Y-100213315D01*
X170423685Y-99840024D01*
X169935957Y-99638000D01*
X169705752Y-99638000D01*
X168231023Y-98163272D01*
X168313842Y-98146798D01*
X168885097Y-97765097D01*
X169101150Y-97441751D01*
X169442577Y-97751041D01*
X169830961Y-97911904D01*
X170053000Y-97789915D01*
X170053000Y-96647000D01*
X170033000Y-96647000D01*
X170033000Y-96393000D01*
X170053000Y-96393000D01*
X170053000Y-95250085D01*
X169830961Y-95128096D01*
X169442577Y-95288959D01*
X169101150Y-95598249D01*
X168885097Y-95274903D01*
X168313842Y-94893202D01*
X167810091Y-94793000D01*
X167469909Y-94793000D01*
X166966158Y-94893202D01*
X166394903Y-95274903D01*
X166370000Y-95312173D01*
X166345097Y-95274903D01*
X165773842Y-94893202D01*
X165270091Y-94793000D01*
X164929909Y-94793000D01*
X164865000Y-94805911D01*
X164865000Y-94748936D01*
X164894126Y-94761000D01*
X165305874Y-94761000D01*
X165686280Y-94603431D01*
X165977431Y-94312280D01*
X166135000Y-93931874D01*
X166135000Y-93765801D01*
X168124476Y-91776327D01*
X168187929Y-91733929D01*
X168230327Y-91670476D01*
X168230329Y-91670474D01*
X168355903Y-91482538D01*
X168355904Y-91482537D01*
X168400000Y-91260852D01*
X168400000Y-91260848D01*
X168414888Y-91186001D01*
X168400000Y-91111154D01*
X168400000Y-90118043D01*
X168674577Y-89934577D01*
X168910000Y-89582242D01*
X169145423Y-89934577D01*
X169620091Y-90251740D01*
X170038667Y-90335000D01*
X170321333Y-90335000D01*
X170739909Y-90251740D01*
X171214577Y-89934577D01*
X171450000Y-89582242D01*
X171685423Y-89934577D01*
X172160091Y-90251740D01*
X172578667Y-90335000D01*
X172861333Y-90335000D01*
X173279909Y-90251740D01*
X173754577Y-89934577D01*
X173990000Y-89582242D01*
X174225423Y-89934577D01*
G04 #@! TD*
M02*
