M48
;DRILL file {KiCad 5.0.2+dfsg1-1~bpo9+1} date Thu 30 Apr 2020 07:33:13 PM EDT
;FORMAT={-:-/ absolute / inch / decimal}
FMAT,2
INCH,TZ
T1C0.0157
T2C0.0295
T3C0.0315
T4C0.0394
T5C0.0768
%
G90
G05
T1
X2.7589Y-3.325
X2.85Y-2.475
X2.9Y-2.95
X3.275Y-3.2
X3.375Y-3.2978
X3.45Y-2.25
X3.7Y-3.825
X3.725Y-3.2457
X3.8119Y-3.8619
X3.825Y-3.2978
X3.88Y-3.99
X3.91Y-3.88
X4.Y-2.9
X4.16Y-3.86
X4.18Y-3.77
X4.21Y-3.69
X4.22Y-3.28
X4.6Y-3.6
X4.75Y-3.4
X4.84Y-1.5
X4.95Y-3.87
X5.075Y-1.5
X5.0893Y-2.1026
X5.15Y-3.87
X5.77Y-3.39
X5.825Y-3.275
X5.825Y-3.9
X5.99Y-3.39
X6.Y-3.69
X6.1Y-3.825
X6.225Y-3.275
X6.43Y-3.39
X6.45Y-3.725
X6.5Y-3.69
X6.6Y-4.05
X6.68Y-3.975
X6.75Y-2.35
X7.1Y-2.925
X7.3Y-2.925
X7.5194Y-3.1194
X7.625Y-2.92
T2
X5.25Y-2.7
X5.3Y-2.7
X5.35Y-2.7
X4.7Y-2.7
X4.75Y-2.7
X4.8Y-2.7
T3
X4.9Y-1.1
X4.9Y-1.2
X5.2Y-1.1
X5.2Y-1.2
X4.45Y-1.4
X4.45Y-1.8
X4.7Y-3.5
X4.7Y-3.8
X4.8Y-3.5
X4.8Y-3.8
X4.9Y-3.5
X4.9Y-3.8
X5.Y-3.5
X5.Y-3.8
X5.1Y-3.5
X5.1Y-3.8
X5.2Y-3.5
X5.2Y-3.8
X5.3Y-3.5
X5.3Y-3.8
X5.4Y-3.5
X5.4Y-3.8
X6.4Y-3.5
X6.4Y-3.8
X6.5Y-3.5
X6.5Y-3.8
X6.6Y-3.5
X6.6Y-3.8
X6.7Y-3.5
X6.7Y-3.8
X6.8Y-3.5
X6.8Y-3.8
X6.9Y-3.5
X6.9Y-3.8
X7.Y-3.5
X7.Y-3.8
X7.1Y-3.5
X7.1Y-3.8
X4.05Y-1.1
X4.05Y-1.2
X4.35Y-1.1
X4.35Y-1.2
X6.99Y-1.6
X6.99Y-2.
X2.85Y-3.5
X2.85Y-3.8
X2.95Y-3.5
X2.95Y-3.8
X3.05Y-3.5
X3.05Y-3.8
X3.15Y-3.5
X3.15Y-3.8
X3.25Y-3.5
X3.25Y-3.8
X3.35Y-3.5
X3.35Y-3.8
X3.45Y-3.5
X3.45Y-3.8
X3.55Y-3.5
X3.55Y-3.8
X5.55Y-1.4
X5.55Y-1.8
X4.6Y-1.4
X4.6Y-1.8
X4.75Y-1.4
X4.75Y-1.8
X5.7Y-1.1
X5.7Y-1.2
X6.Y-1.1
X6.Y-1.2
X5.15Y-3.
X5.55Y-3.
X5.4Y-1.4
X5.4Y-1.8
X3.25Y-1.55
X3.25Y-1.95
X4.55Y-3.
X4.95Y-3.
T4
X3.8Y-4.2
X3.9Y-4.2
X4.Y-4.2
X4.1Y-4.2
X4.2Y-4.2
X4.3Y-4.2
X4.4Y-4.2
X7.7Y-1.2
X7.7Y-1.3
X5.9Y-4.2
X6.Y-4.2
T5
X6.2537Y-1.8209
X6.2537Y-2.5098
X6.4075Y-1.6376
X6.4075Y-2.6931
X6.6147Y-1.5179
X6.6147Y-2.8128
X7.2933Y-1.6376
X7.2933Y-2.6931
X7.4471Y-1.8209
X7.4471Y-2.5098
X7.5289Y-2.0457
X2.5529Y-1.8209
X2.5529Y-2.5098
X2.7067Y-1.6376
X2.7067Y-2.6931
X2.914Y-1.5179
X2.914Y-2.8128
X3.5925Y-1.6376
X3.5925Y-2.6931
X3.7463Y-1.8209
X3.7463Y-2.5098
X3.8281Y-2.0457
X4.8585Y-2.247
X5.Y-2.002
X5.1415Y-2.247
T0
M30
