G04 #@! TF.GenerationSoftware,KiCad,Pcbnew,5.0.2+dfsg1-1~bpo9+1*
G04 #@! TF.CreationDate,2020-04-30T19:20:10-04:00*
G04 #@! TF.ProjectId,NixieTest,4e697869-6554-4657-9374-2e6b69636164,rev?*
G04 #@! TF.SameCoordinates,Original*
G04 #@! TF.FileFunction,Legend,Bot*
G04 #@! TF.FilePolarity,Positive*
%FSLAX46Y46*%
G04 Gerber Fmt 4.6, Leading zero omitted, Abs format (unit mm)*
G04 Created by KiCad (PCBNEW 5.0.2+dfsg1-1~bpo9+1) date Thu 30 Apr 2020 07:20:10 PM EDT*
%MOMM*%
%LPD*%
G01*
G04 APERTURE LIST*
%ADD10C,0.150000*%
%ADD11C,0.400000*%
G04 APERTURE END LIST*
D10*
G04 #@! TO.C,N1*
X106532866Y-55000000D02*
G75*
G03X106532866Y-55000000I-26532866J0D01*
G01*
X97480140Y-55000000D02*
G75*
G03X97480140Y-55000000I-17480140J0D01*
G01*
G04 #@! TO.C,N2*
X191480140Y-55000000D02*
G75*
G03X191480140Y-55000000I-17480140J0D01*
G01*
X200532866Y-55000000D02*
G75*
G03X200532866Y-55000000I-26532866J0D01*
G01*
G04 #@! TO.C,N3*
X131150048Y-55000000D02*
G75*
G03X131150048Y-55000000I-4150048J0D01*
G01*
X135500000Y-55000000D02*
G75*
G03X135500000Y-55000000I-8500000J0D01*
G01*
G04 #@! TO.C,N1*
X80761904Y-47832380D02*
X80761904Y-46832380D01*
X80190476Y-47832380D01*
X80190476Y-46832380D01*
X79190476Y-47832380D02*
X79761904Y-47832380D01*
X79476190Y-47832380D02*
X79476190Y-46832380D01*
X79571428Y-46975238D01*
X79666666Y-47070476D01*
X79761904Y-47118095D01*
D11*
X90741428Y-56789523D02*
X92074761Y-54884761D01*
X93027142Y-56789523D02*
X93027142Y-52789523D01*
X91503333Y-52789523D01*
X91122380Y-52980000D01*
X90931904Y-53170476D01*
X90741428Y-53551428D01*
X90741428Y-54122857D01*
X90931904Y-54503809D01*
X91122380Y-54694285D01*
X91503333Y-54884761D01*
X93027142Y-54884761D01*
X88074761Y-58122857D02*
X88074761Y-52408571D01*
X85598571Y-52789523D02*
X82931904Y-52789523D01*
X85598571Y-56789523D01*
X82931904Y-56789523D01*
X79503333Y-52789523D02*
X81408095Y-52789523D01*
X81598571Y-54694285D01*
X81408095Y-54503809D01*
X81027142Y-54313333D01*
X80074761Y-54313333D01*
X79693809Y-54503809D01*
X79503333Y-54694285D01*
X79312857Y-55075238D01*
X79312857Y-56027619D01*
X79503333Y-56408571D01*
X79693809Y-56599047D01*
X80074761Y-56789523D01*
X81027142Y-56789523D01*
X81408095Y-56599047D01*
X81598571Y-56408571D01*
X75884285Y-52789523D02*
X76646190Y-52789523D01*
X77027142Y-52980000D01*
X77217619Y-53170476D01*
X77598571Y-53741904D01*
X77789047Y-54503809D01*
X77789047Y-56027619D01*
X77598571Y-56408571D01*
X77408095Y-56599047D01*
X77027142Y-56789523D01*
X76265238Y-56789523D01*
X75884285Y-56599047D01*
X75693809Y-56408571D01*
X75503333Y-56027619D01*
X75503333Y-55075238D01*
X75693809Y-54694285D01*
X75884285Y-54503809D01*
X76265238Y-54313333D01*
X77027142Y-54313333D01*
X77408095Y-54503809D01*
X77598571Y-54694285D01*
X77789047Y-55075238D01*
X73217619Y-54503809D02*
X73598571Y-54313333D01*
X73789047Y-54122857D01*
X73979523Y-53741904D01*
X73979523Y-53551428D01*
X73789047Y-53170476D01*
X73598571Y-52980000D01*
X73217619Y-52789523D01*
X72455714Y-52789523D01*
X72074761Y-52980000D01*
X71884285Y-53170476D01*
X71693809Y-53551428D01*
X71693809Y-53741904D01*
X71884285Y-54122857D01*
X72074761Y-54313333D01*
X72455714Y-54503809D01*
X73217619Y-54503809D01*
X73598571Y-54694285D01*
X73789047Y-54884761D01*
X73979523Y-55265714D01*
X73979523Y-56027619D01*
X73789047Y-56408571D01*
X73598571Y-56599047D01*
X73217619Y-56789523D01*
X72455714Y-56789523D01*
X72074761Y-56599047D01*
X71884285Y-56408571D01*
X71693809Y-56027619D01*
X71693809Y-55265714D01*
X71884285Y-54884761D01*
X72074761Y-54694285D01*
X72455714Y-54503809D01*
X69979523Y-56789523D02*
X69979523Y-52789523D01*
X68646190Y-55646666D01*
X67312857Y-52789523D01*
X67312857Y-56789523D01*
G04 #@! TO.C,N2*
D10*
X174761904Y-47832380D02*
X174761904Y-46832380D01*
X174190476Y-47832380D01*
X174190476Y-46832380D01*
X173761904Y-46927619D02*
X173714285Y-46880000D01*
X173619047Y-46832380D01*
X173380952Y-46832380D01*
X173285714Y-46880000D01*
X173238095Y-46927619D01*
X173190476Y-47022857D01*
X173190476Y-47118095D01*
X173238095Y-47260952D01*
X173809523Y-47832380D01*
X173190476Y-47832380D01*
D11*
X184741428Y-56789523D02*
X186074761Y-54884761D01*
X187027142Y-56789523D02*
X187027142Y-52789523D01*
X185503333Y-52789523D01*
X185122380Y-52980000D01*
X184931904Y-53170476D01*
X184741428Y-53551428D01*
X184741428Y-54122857D01*
X184931904Y-54503809D01*
X185122380Y-54694285D01*
X185503333Y-54884761D01*
X187027142Y-54884761D01*
X182074761Y-58122857D02*
X182074761Y-52408571D01*
X179598571Y-52789523D02*
X176931904Y-52789523D01*
X179598571Y-56789523D01*
X176931904Y-56789523D01*
X173503333Y-52789523D02*
X175408095Y-52789523D01*
X175598571Y-54694285D01*
X175408095Y-54503809D01*
X175027142Y-54313333D01*
X174074761Y-54313333D01*
X173693809Y-54503809D01*
X173503333Y-54694285D01*
X173312857Y-55075238D01*
X173312857Y-56027619D01*
X173503333Y-56408571D01*
X173693809Y-56599047D01*
X174074761Y-56789523D01*
X175027142Y-56789523D01*
X175408095Y-56599047D01*
X175598571Y-56408571D01*
X169884285Y-52789523D02*
X170646190Y-52789523D01*
X171027142Y-52980000D01*
X171217619Y-53170476D01*
X171598571Y-53741904D01*
X171789047Y-54503809D01*
X171789047Y-56027619D01*
X171598571Y-56408571D01*
X171408095Y-56599047D01*
X171027142Y-56789523D01*
X170265238Y-56789523D01*
X169884285Y-56599047D01*
X169693809Y-56408571D01*
X169503333Y-56027619D01*
X169503333Y-55075238D01*
X169693809Y-54694285D01*
X169884285Y-54503809D01*
X170265238Y-54313333D01*
X171027142Y-54313333D01*
X171408095Y-54503809D01*
X171598571Y-54694285D01*
X171789047Y-55075238D01*
X167217619Y-54503809D02*
X167598571Y-54313333D01*
X167789047Y-54122857D01*
X167979523Y-53741904D01*
X167979523Y-53551428D01*
X167789047Y-53170476D01*
X167598571Y-52980000D01*
X167217619Y-52789523D01*
X166455714Y-52789523D01*
X166074761Y-52980000D01*
X165884285Y-53170476D01*
X165693809Y-53551428D01*
X165693809Y-53741904D01*
X165884285Y-54122857D01*
X166074761Y-54313333D01*
X166455714Y-54503809D01*
X167217619Y-54503809D01*
X167598571Y-54694285D01*
X167789047Y-54884761D01*
X167979523Y-55265714D01*
X167979523Y-56027619D01*
X167789047Y-56408571D01*
X167598571Y-56599047D01*
X167217619Y-56789523D01*
X166455714Y-56789523D01*
X166074761Y-56599047D01*
X165884285Y-56408571D01*
X165693809Y-56027619D01*
X165693809Y-55265714D01*
X165884285Y-54884761D01*
X166074761Y-54694285D01*
X166455714Y-54503809D01*
X163979523Y-56789523D02*
X163979523Y-52789523D01*
X162646190Y-55646666D01*
X161312857Y-52789523D01*
X161312857Y-56789523D01*
G04 #@! TO.C,N3*
D10*
X127761904Y-47752380D02*
X127761904Y-46752380D01*
X127190476Y-47752380D01*
X127190476Y-46752380D01*
X126809523Y-46752380D02*
X126190476Y-46752380D01*
X126523809Y-47133333D01*
X126380952Y-47133333D01*
X126285714Y-47180952D01*
X126238095Y-47228571D01*
X126190476Y-47323809D01*
X126190476Y-47561904D01*
X126238095Y-47657142D01*
X126285714Y-47704761D01*
X126380952Y-47752380D01*
X126666666Y-47752380D01*
X126761904Y-47704761D01*
X126809523Y-47657142D01*
G04 #@! TD*
M02*
